<svg xmlns="http://www.w3.org/2000/svg" version="1.1" xmlns:xlink="http://www.w3.org/1999/xlink" xmlns:svgjs="http://svgjs.com/svgjs" width="512" height="512" x="0" y="0" viewBox="0 0 64 64" style="font-size: 16px;" xml:space="preserve" speechify-initial-font-size="16px" class=""><g speechify-initial-font-size="16px" style="font-size: 16px;"><path d="M9 42H3a1 1 0 0 0-1 1v18a1 1 0 0 0 1 1h6a1 1 0 0 0 1-1V43a1 1 0 0 0-1-1zM8 60H4V44h4zM22 40h-6a1 1 0 0 0-1 1v20a1 1 0 0 0 1 1h6a1 1 0 0 0 1-1V41a1 1 0 0 0-1-1zm-1 20h-4V42h4zM35 34h-6a1 1 0 0 0-1 1v26a1 1 0 0 0 1 1h6a1 1 0 0 0 1-1V35a1 1 0 0 0-1-1zm-1 26h-4V36h4zM48 26h-6a1 1 0 0 0-1 1v34a1 1 0 0 0 1 1h6a1 1 0 0 0 1-1V27a1 1 0 0 0-1-1zm-1 34h-4V28h4zM61 16h-6a1 1 0 0 0-1 1v44a1 1 0 0 0 1 1h6a1 1 0 0 0 1-1V17a1 1 0 0 0-1-1zm-1 44h-4V18h4zM5.792 38.021l.415 1.958c.33-.071 32.686-7.223 50.861-34.294l.948 5.367 1.968-.347L58.6 2.826a1 1 0 0 0-1.158-.811L49.559 3.4l.347 1.97 5.631-.993C37.849 30.919 6.114 37.953 5.792 38.021z" fill="#ffffff" data-original="#000000" speechify-initial-font-size="16px" style="font-size: 16px;" class="" opacity="1"></path><path d="M17 30A13 13 0 1 0 4 17a13.015 13.015 0 0 0 13 13zm0-24A11 11 0 1 1 6 17 11.013 11.013 0 0 1 17 6z" fill="#ffffff" data-original="#000000" speechify-initial-font-size="16px" style="font-size: 16px;" class="" opacity="1"></path><path d="M14 25h2v-2h2v2h2v-2.051A3.483 3.483 0 0 0 21.942 17 3.483 3.483 0 0 0 20 11.051V9h-2v2h-2V9h-2v2h-3v2h2v8h-2v2h3zm5.5-12a1.5 1.5 0 0 1 0 3H15v-3zM15 18h4.5a1.5 1.5 0 0 1 0 3H15z" fill="#ffffff" data-original="#000000" speechify-initial-font-size="16px" style="font-size: 16px;" class="" opacity="1"></path></g></svg>