<svg xmlns="http://www.w3.org/2000/svg" width="16.2" height="18" viewBox="0 0 16.2 18"><path id="calculator-icon" d="M3,3.8A1.8,1.8,0,0,1,4.8,2H17.4a1.8,1.8,0,0,1,1.8,1.8V17.3A2.7,2.7,0,0,1,16.5,20H5.7A2.7,2.7,0,0,1,3,17.3Zm14.4,0H4.8V17.3a.9.9,0,0,0,.9.9H16.5a.9.9,0,0,0,.9-.9ZM12,10.1a.9.9,0,1,1-.9-.9A.9.9,0,0,1,12,10.1ZM7.5,11a.9.9,0,1,0-.9-.9A.9.9,0,0,0,7.5,11Zm8.1-.9a.9.9,0,1,1-.9-.9A.9.9,0,0,1,15.6,10.1ZM7.5,13.7a.9.9,0,1,0-.9-.9A.9.9,0,0,0,7.5,13.7Zm4.5-.9a.9.9,0,1,1-.9-.9A.9.9,0,0,1,12,12.8Zm2.7.9a.9.9,0,1,0-.9-.9A.9.9,0,0,0,14.7,13.7ZM8.4,15.5a.9.9,0,1,1-.9-.9A.9.9,0,0,1,8.4,15.5Zm2.7.9a.9.9,0,1,0-.9-.9A.9.9,0,0,0,11.1,16.4Zm4.5-.9a.9.9,0,1,1-.9-.9A.9.9,0,0,1,15.6,15.5ZM7.5,5.6a.9.9,0,0,0,0,1.8h7.2a.9.9,0,0,0,0-1.8Z" transform="translate(-3 -2)" fill="#fff" fill-rule="evenodd"></path></svg>