<svg xmlns="http://www.w3.org/2000/svg" version="1.1" xmlns:xlink="http://www.w3.org/1999/xlink" xmlns:svgjs="http://svgjs.com/svgjs" width="512" height="512" x="0" y="0" viewBox="0 0 682.667 682.667" style="enable-background:new 0 0 512 512" xml:space="preserve" class=""><g><defs><clipPath id="a" clipPathUnits="userSpaceOnUse"><path d="M0 512h512V0H0Z" fill="#ffffff" data-original="#000000" class="" opacity="1"></path></clipPath></defs><g clip-path="url(#a)" transform="matrix(1.33333 0 0 -1.33333 0 682.667)"><path d="M0 0h-270c-16.568 0-30 13.432-30 30v422c0 16.568 13.432 30 30 30H0c16.568 0 30-13.432 30-30V30C30 13.432 16.568 0 0 0Z" style="stroke-width:30;stroke-linecap:round;stroke-linejoin:round;stroke-miterlimit:10;stroke-dasharray:none;stroke-opacity:1" transform="translate(391 15)" fill="none" stroke="#ffffff" stroke-width="30" stroke-linecap="round" stroke-linejoin="round" stroke-miterlimit="10" stroke-dasharray="none" stroke-opacity="" data-original="#000000" opacity="1"></path><path d="M361 345H151v92h210z" style="stroke-width:30;stroke-linecap:round;stroke-linejoin:round;stroke-miterlimit:10;stroke-dasharray:none;stroke-opacity:1" fill="none" stroke="#ffffff" stroke-width="30" stroke-linecap="round" stroke-linejoin="round" stroke-miterlimit="10" stroke-dasharray="none" stroke-opacity="" data-original="#000000" opacity="1"></path><path d="M0 0c0-8.284-6.716-15-15-15-8.284 0-15 6.716-15 15 0 8.284 6.716 15 15 15C-6.716 15 0 8.284 0 0" style="fill-opacity:1;fill-rule:nonzero;stroke:none" transform="translate(181 270)" fill="#ffffff" data-original="#000000" class="" opacity="1"></path><path d="M0 0c0-8.284-6.716-15-15-15-8.284 0-15 6.716-15 15 0 8.284 6.716 15 15 15C-6.716 15 0 8.284 0 0" style="fill-opacity:1;fill-rule:nonzero;stroke:none" transform="translate(271 270)" fill="#ffffff" data-original="#000000" class="" opacity="1"></path><path d="M0 0c0-8.284-6.716-15-15-15-8.284 0-15 6.716-15 15 0 8.284 6.716 15 15 15C-6.716 15 0 8.284 0 0" style="fill-opacity:1;fill-rule:nonzero;stroke:none" transform="translate(361 270)" fill="#ffffff" data-original="#000000" class="" opacity="1"></path><path d="M0 0c0-8.284-6.716-15-15-15-8.284 0-15 6.716-15 15 0 8.284 6.716 15 15 15C-6.716 15 0 8.284 0 0" style="fill-opacity:1;fill-rule:nonzero;stroke:none" transform="translate(181 180)" fill="#ffffff" data-original="#000000" class="" opacity="1"></path><path d="M0 0c0-8.284-6.716-15-15-15-8.284 0-15 6.716-15 15 0 8.284 6.716 15 15 15C-6.716 15 0 8.284 0 0" style="fill-opacity:1;fill-rule:nonzero;stroke:none" transform="translate(271 90)" fill="#ffffff" data-original="#000000" class="" opacity="1"></path><path d="M0 0c0-8.284-6.716-15-15-15-8.284 0-15 6.716-15 15 0 8.284 6.716 15 15 15C-6.716 15 0 8.284 0 0" style="fill-opacity:1;fill-rule:nonzero;stroke:none" transform="translate(271 180)" fill="#ffffff" data-original="#000000" class="" opacity="1"></path><path d="M0 0c0-8.284-6.716-15-15-15-8.284 0-15 6.716-15 15 0 8.284 6.716 15 15 15C-6.716 15 0 8.284 0 0" style="fill-opacity:1;fill-rule:nonzero;stroke:none" transform="translate(361 180)" fill="#ffffff" data-original="#000000" class="" opacity="1"></path><path d="M0 0c0-8.284-6.716-15-15-15-8.284 0-15 6.716-15 15 0 8.284 6.716 15 15 15C-6.716 15 0 8.284 0 0" style="fill-opacity:1;fill-rule:nonzero;stroke:none" transform="translate(181 90)" fill="#ffffff" data-original="#000000" class="" opacity="1"></path><path d="M0 0c0-8.284-6.716-15-15-15-8.284 0-15 6.716-15 15 0 8.284 6.716 15 15 15C-6.716 15 0 8.284 0 0" style="fill-opacity:1;fill-rule:nonzero;stroke:none" transform="translate(361 90)" fill="#ffffff" data-original="#000000" class="" opacity="1"></path></g></g></svg>