<svg xmlns="http://www.w3.org/2000/svg" version="1.1" xmlns:xlink="http://www.w3.org/1999/xlink" xmlns:svgjs="http://svgjs.com/svgjs" width="512" height="512" x="0" y="0" viewBox="0 0 36 36" style="enable-background:new 0 0 512 512" xml:space="preserve" class=""><g><switch><g><path fill="#ffffff" d="M33 27c-.3 0-.5-.1-.7-.3l-6-6c-.2-.2-.3-.4-.3-.7v-4c0-.3.1-.5.3-.7l6-6c.4-.4 1-.4 1.4 0 .2.2.3.4.3.7v16c0 .6-.4 1-1 1zm-5-7.4 4 4V12.4l-4 4z" data-original="#282828" class="" opacity="1"></path><path fill="#ffffff" d="M22 28H4c-1.1 0-2-.9-2-2V10c0-1.1.9-2 2-2h18c1.1 0 2 .9 2 2v16c0 1.1-.9 2-2 2zM4 10v16h18V10z" data-original="#606060" class="" opacity="1"></path></g></switch></g></svg>