<svg xmlns="http://www.w3.org/2000/svg" version="1.1" xmlns:xlink="http://www.w3.org/1999/xlink" xmlns:svgjs="http://svgjs.com/svgjs" width="512" height="512" x="0" y="0" viewBox="0 0 512 512" style="font-size: 16px;" xml:space="preserve" speechify-initial-font-size="16px" class=""><g speechify-initial-font-size="16px" style="font-size: 16px;"><path d="M497 156.543c8.284 0 15-6.716 15-15V33.34c0-8.284-6.716-15-15-15H365.677V15c0-8.284-6.716-15-15-15s-15 6.716-15 15v111.543H102.714C46.077 126.543 0 172.564 0 229.133s46.077 102.59 102.714 102.59h331.748c26.213 0 47.538 21.286 47.538 47.45s-21.325 47.45-47.538 47.45c0 0-294.78.029-295.163.059-6.879-31.651-35.126-55.437-68.842-55.437C31.606 371.245 0 402.816 0 441.623 0 480.429 31.606 512 70.456 512c33.716 0 61.963-23.785 68.842-55.436.383.03 295.164.059 295.164.059 42.755 0 77.538-34.744 77.538-77.45s-34.783-77.45-77.538-77.45H102.714C62.619 301.723 30 269.16 30 229.133s32.619-72.59 72.714-72.59h232.963v60.469h-26.12c-8.284 0-15 6.716-15 15s6.716 15 15 15h83.603c8.284 0 15-6.716 15-15s-6.716-15-15-15h-27.482v-60.469zM70.456 482C48.148 482 30 463.887 30 441.623c0-22.265 18.148-40.378 40.456-40.378s40.456 18.113 40.456 40.378c0 22.264-18.148 40.377-40.456 40.377zM482 48.34v78.203H365.677V48.34z" fill="#ffffff" data-original="#000000" speechify-initial-font-size="16px" style="font-size: 16px;" opacity="1"></path></g></svg>