<svg xmlns="http://www.w3.org/2000/svg" version="1.1" xmlns:xlink="http://www.w3.org/1999/xlink" xmlns:svgjs="http://svgjs.com/svgjs" width="512" height="512" x="0" y="0" viewBox="0 0 682.667 682.667" style="font-size: 16px;" xml:space="preserve" speechify-initial-font-size="16px"><g speechify-initial-font-size="16px" style="font-size: 16px;"><defs speechify-initial-font-size="16px" style="font-size: 16px;"><clipPath id="a" clipPathUnits="userSpaceOnUse" speechify-initial-font-size="16px" style="font-size: 16px;"><path d="M0 512h512V0H0Z" fill="#ffffff" data-original="#000000" speechify-initial-font-size="16px" style="font-size: 16px;" opacity="1"></path></clipPath></defs><g clip-path="url(#a)" transform="matrix(1.33333 0 0 -1.33333 0 682.667)" speechify-initial-font-size="16px" style="font-size: 16px;"><path d="M104 122H24V10h80zM360 256h-80V10h80zM232 198.108h-80V10h80zM488 310h-80V10h80z" style="stroke-width: 20; stroke-linecap: round; stroke-linejoin: round; stroke-miterlimit: 10; stroke-dasharray: none; stroke-opacity: 1; font-size: 16px;" fill="none" stroke="#ffffff" stroke-width="20" stroke-linecap="round" stroke-linejoin="round" stroke-miterlimit="10" stroke-dasharray="none" stroke-opacity="" data-original="#000000" speechify-initial-font-size="16px" opacity="1"></path><path d="M0 0h-492" style="stroke-width: 20; stroke-linecap: round; stroke-linejoin: round; stroke-miterlimit: 10; stroke-dasharray: none; stroke-opacity: 1; font-size: 16px;" transform="translate(502 10)" fill="none" stroke="#ffffff" stroke-width="20" stroke-linecap="round" stroke-linejoin="round" stroke-miterlimit="10" stroke-dasharray="none" stroke-opacity="" data-original="#000000" speechify-initial-font-size="16px" opacity="1"></path><path d="M0 0s-15.455 11.709-34.021 6.131C-52.972.438-57.673-25.5-44.798-35.599c7.393-5.799 18.517-10.566 33.509-15.866 33.554-11.86 21.15-59.18-12.981-59.408-13.32-.088-19.547.757-31.248 8.411" style="stroke-width: 20; stroke-linecap: round; stroke-linejoin: round; stroke-miterlimit: 10; stroke-dasharray: none; stroke-opacity: 1; font-size: 16px;" transform="translate(471.521 478.145)" fill="none" stroke="#ffffff" stroke-width="20" stroke-linecap="round" stroke-linejoin="round" stroke-miterlimit="10" stroke-dasharray="none" stroke-opacity="" data-original="#000000" speechify-initial-font-size="16px" opacity="1"></path><path d="M0 0v-152" style="stroke-width: 20; stroke-linecap: round; stroke-linejoin: round; stroke-miterlimit: 10; stroke-dasharray: none; stroke-opacity: 1; font-size: 16px;" transform="translate(448 502)" fill="none" stroke="#ffffff" stroke-width="20" stroke-linecap="round" stroke-linejoin="round" stroke-miterlimit="10" stroke-dasharray="none" stroke-opacity="" data-original="#000000" speechify-initial-font-size="16px" opacity="1"></path><path d="M0 0h-62.16l15.331-15.332-85.088-85.09-40.19 40.19-154.065-154.064 31.598-31.598 122.467 122.467 40.19-40.19L-15.231-46.93 0-62.16Z" style="stroke-width: 20; stroke-linecap: round; stroke-linejoin: round; stroke-miterlimit: 10; stroke-dasharray: none; stroke-opacity: 1; font-size: 16px;" transform="translate(366.98 462)" fill="none" stroke="#ffffff" stroke-width="20" stroke-linecap="round" stroke-linejoin="round" stroke-miterlimit="10" stroke-dasharray="none" stroke-opacity="" data-original="#000000" speechify-initial-font-size="16px" opacity="1"></path></g></g></svg>