<svg width="25" height="26" viewBox="0 0 25 26" fill="none" xmlns="http://www.w3.org/2000/svg">
<path d="M5.54908 8.64817C5.27836 8.6545 5.0098 8.59862 4.76407 8.48483C4.51835 8.37105 4.30202 8.2024 4.13172 7.99186C4.06618 7.8897 4.04153 7.76658 4.06269 7.64706C4.08386 7.52754 4.14928 7.42039 4.24592 7.34695C4.34256 7.2735 4.46332 7.23916 4.58414 7.25077C4.70497 7.26238 4.81697 7.31909 4.89786 7.40959C4.99931 7.51913 5.12758 7.60031 5.27001 7.6451C5.41243 7.68988 5.56408 7.69673 5.70997 7.66497C5.82812 7.65753 5.94197 7.6179 6.03921 7.55037C6.13644 7.48285 6.21334 7.39001 6.26158 7.2819C6.27346 7.22896 6.27296 7.174 6.26011 7.12129C6.24727 7.06858 6.22243 7.01954 6.18753 6.978C6.11095 6.89115 6.01657 6.8218 5.91082 6.77465C5.80506 6.7275 5.69039 6.70365 5.57461 6.70474C4.61949 6.67665 3.8789 6.0663 3.85592 5.28484C3.85118 5.1032 3.88362 4.92252 3.95125 4.75388C4.01889 4.58524 4.12028 4.43222 4.2492 4.30419C4.42041 4.13751 4.62303 4.00652 4.84531 3.91883C5.06758 3.83115 5.30507 3.78852 5.54397 3.79343C5.79675 3.78881 6.04765 3.83786 6.28009 3.93735C6.51252 4.03684 6.7212 4.18449 6.89237 4.37058C6.97076 4.46753 7.0086 4.59106 6.99795 4.71529C6.9873 4.83951 6.929 4.95479 6.83525 5.03699C6.7415 5.11918 6.61958 5.16192 6.49503 5.15623C6.37048 5.15054 6.25296 5.09688 6.16709 5.00648C5.99786 4.85932 5.78214 4.77659 5.55791 4.77285C5.33368 4.76911 5.11531 4.84461 4.94128 4.98605C4.90327 5.0219 4.87284 5.06499 4.85178 5.1128C4.83073 5.16061 4.81948 5.21217 4.81869 5.2644C4.81869 5.51978 5.18644 5.73942 5.60271 5.75218C5.86103 5.75478 6.11563 5.81398 6.3486 5.92561C6.58157 6.03724 6.78723 6.19858 6.95111 6.39828C7.07477 6.55216 7.16199 6.73205 7.20622 6.92444C7.25045 7.11684 7.25054 7.31676 7.20648 7.50919C7.12042 7.80928 6.94783 8.07735 6.71028 8.27993C6.47274 8.4825 6.18077 8.61058 5.87085 8.64817C5.76373 8.65596 5.6562 8.65596 5.54908 8.64817Z" fill="white"/>
<path d="M5.54398 4.72809C5.41641 4.72742 5.2943 4.67627 5.20434 4.58583C5.11437 4.49538 5.06386 4.37299 5.06387 4.24542V3.54057C5.05904 3.47441 5.06791 3.40796 5.08992 3.34538C5.11193 3.28279 5.1466 3.22542 5.19177 3.17683C5.23695 3.12825 5.29165 3.0895 5.35247 3.063C5.41329 3.0365 5.47892 3.02283 5.54526 3.02283C5.6116 3.02283 5.67723 3.0365 5.73805 3.063C5.79887 3.0895 5.85357 3.12825 5.89874 3.17683C5.94391 3.22542 5.97859 3.28279 6.0006 3.34538C6.0226 3.40796 6.03147 3.47441 6.02665 3.54057V4.24542C6.02665 4.37343 5.9758 4.4962 5.88528 4.58672C5.79476 4.67723 5.67199 4.72809 5.54398 4.72809Z" fill="white"/>
<path d="M5.54398 9.353C5.48071 9.353 5.41808 9.3405 5.35966 9.31621C5.30125 9.29192 5.2482 9.25634 5.20359 9.21148C5.15897 9.16663 5.12365 9.11339 5.09968 9.05485C5.0757 8.9963 5.06353 8.93359 5.06387 8.87033V8.16804C5.05904 8.10187 5.06791 8.03542 5.08992 7.97284C5.11193 7.91025 5.1466 7.85288 5.19177 7.8043C5.23695 7.75571 5.29165 7.71696 5.35247 7.69046C5.41329 7.66397 5.47892 7.6503 5.54526 7.6503C5.6116 7.6503 5.67723 7.66397 5.73805 7.69046C5.79887 7.71696 5.85357 7.75571 5.89874 7.8043C5.94391 7.85288 5.97859 7.91025 6.0006 7.97284C6.0226 8.03542 6.03147 8.10187 6.02665 8.16804V8.87033C6.02699 8.93381 6.01473 8.99673 5.9906 9.05544C5.96646 9.11415 5.93092 9.1675 5.88603 9.21239C5.84114 9.25727 5.7878 9.29281 5.72909 9.31694C5.67038 9.34108 5.60746 9.35334 5.54398 9.353Z" fill="white"/>
<path d="M5.54398 11.4267C4.18057 11.3965 2.88316 10.8337 1.92957 9.85879C0.97598 8.88387 0.442017 7.57432 0.442017 6.21057C0.442017 4.84682 0.97598 3.53728 1.92957 2.56235C2.88316 1.58743 4.18057 1.02463 5.54398 0.994463C5.58139 0.991917 5.61894 0.991917 5.65635 0.994463C7.02091 1.01925 8.32107 1.5793 9.27652 2.55386C10.232 3.52841 10.7662 4.83941 10.7639 6.2042C10.7654 6.67816 10.701 7.15003 10.5724 7.60622C10.2658 8.70352 9.60867 9.67037 8.70122 10.3593C7.79377 11.0481 6.68585 11.4212 5.54654 11.4216L5.54398 11.4267ZM5.57462 1.95979C5.00778 1.944 4.44351 2.04176 3.91501 2.24731C3.38651 2.45285 2.90446 2.76202 2.49724 3.15664C2.09001 3.55126 1.76582 4.02335 1.54377 4.54512C1.32171 5.0669 1.20625 5.62782 1.20421 6.19488C1.20217 6.76193 1.31357 7.32367 1.53186 7.84703C1.75015 8.37039 2.07092 8.84481 2.4753 9.24235C2.87967 9.6399 3.35948 9.95255 3.88648 10.1619C4.41349 10.3712 4.97704 10.4731 5.54398 10.4614C6.32338 10.4641 7.08821 10.2502 7.75301 9.84334C8.67562 9.28213 9.35029 8.39108 9.64026 7.35084C9.74521 6.97947 9.79765 6.59521 9.79604 6.20929C9.79753 5.09525 9.36069 4.02534 8.5799 3.2307C7.79911 2.43605 6.73705 1.98045 5.62315 1.96234L5.57462 1.95979Z" fill="white"/>
<path d="M19.2221 25.1022C18.5372 25.1022 17.8591 24.9673 17.2264 24.7052C16.5937 24.4432 16.0189 24.059 15.5346 23.5748C15.0504 23.0906 14.6663 22.5157 14.4042 21.883C14.1421 21.2503 14.0072 20.5722 14.0072 19.8874C14.0072 19.2025 14.1421 18.5244 14.4042 17.8918C14.6663 17.2591 15.0504 16.6842 15.5346 16.1999C16.0189 15.7157 16.5937 15.3316 17.2264 15.0695C17.8591 14.8074 18.5372 14.6725 19.2221 14.6725H19.3344C20.6981 14.6999 21.9968 15.2608 22.9517 16.2348C23.9066 17.2088 24.4416 18.5183 24.442 19.8823C24.4429 20.3572 24.3776 20.8299 24.2479 21.2868C23.9429 22.3843 23.2864 23.3515 22.3791 24.0402C21.4718 24.7288 20.3637 25.101 19.2246 25.0997L19.2221 25.1022ZM19.2527 15.6353C18.4596 15.6297 17.6808 15.8459 17.0041 16.2597C16.3275 16.6735 15.7801 17.2682 15.4237 17.9767C15.0674 18.6853 14.9163 19.4794 14.9876 20.2693C15.0588 21.0592 15.3496 21.8134 15.827 22.4467C16.3044 23.0801 16.9494 23.5673 17.6891 23.8533C18.4289 24.1393 19.2338 24.2126 20.0131 24.0651C20.7924 23.9177 21.5149 23.5552 22.099 23.0186C22.683 22.4821 23.1054 21.7929 23.3183 21.0289C23.4235 20.6567 23.4759 20.2716 23.4741 19.8848C23.4749 18.7708 23.0375 17.7011 22.2562 16.907C21.4749 16.1128 20.4126 15.6579 19.2987 15.6404L19.2527 15.6353Z" fill="white"/>
<path d="M19.222 20.2423C19.1465 20.2421 19.0721 20.2241 19.0047 20.19C18.9373 20.1558 18.8788 20.1064 18.8339 20.0457L17.3297 18.0027C17.2812 17.9536 17.2438 17.8947 17.22 17.8299C17.1962 17.7652 17.1865 17.696 17.1917 17.6272C17.1969 17.5584 17.2167 17.4915 17.2499 17.4311C17.2831 17.3706 17.3289 17.3179 17.3842 17.2767C17.4395 17.2354 17.503 17.2064 17.5704 17.1918C17.6379 17.1771 17.7076 17.1771 17.7751 17.1916C17.8425 17.2062 17.906 17.2351 17.9614 17.2763C18.0167 17.3176 18.0626 17.3702 18.0958 17.4306L19.2118 18.9629L20.3304 17.4306C20.4123 17.3478 20.5214 17.2973 20.6375 17.2886C20.7537 17.2799 20.8691 17.3134 20.9625 17.3831C21.0558 17.4528 21.1208 17.554 21.1454 17.6678C21.1701 17.7817 21.1527 17.9006 21.0965 18.0027L19.5923 20.0457C19.549 20.1038 19.4933 20.1516 19.4293 20.1856C19.3652 20.2196 19.2945 20.239 19.222 20.2423Z" fill="white"/>
<path d="M19.222 22.551C19.0945 22.5503 18.9724 22.4992 18.8824 22.4087C18.7924 22.3183 18.7419 22.1959 18.7419 22.0683V19.7699C18.7371 19.7037 18.746 19.6373 18.768 19.5747C18.79 19.5121 18.8247 19.4548 18.8698 19.4062C18.915 19.3576 18.9697 19.3188 19.0305 19.2923C19.0913 19.2658 19.157 19.2521 19.2233 19.2521C19.2897 19.2521 19.3553 19.2658 19.4161 19.2923C19.4769 19.3188 19.5316 19.3576 19.5768 19.4062C19.622 19.4548 19.6566 19.5121 19.6787 19.5747C19.7007 19.6373 19.7095 19.7037 19.7047 19.7699V22.0683C19.7047 22.1317 19.6922 22.1945 19.668 22.253C19.6437 22.3116 19.6082 22.3648 19.5633 22.4096C19.5185 22.4544 19.4653 22.49 19.4068 22.5142C19.3482 22.5385 19.2854 22.551 19.222 22.551Z" fill="white"/>
<path d="M20.3074 21.3967H18.1392C18.0112 21.3967 17.8885 21.3458 17.7979 21.2553C17.7074 21.1648 17.6566 21.042 17.6566 20.914C17.6566 20.786 17.7074 20.6632 17.7979 20.5727C17.8885 20.4822 18.0112 20.4313 18.1392 20.4313H20.3074C20.4354 20.4313 20.5582 20.4822 20.6487 20.5727C20.7392 20.6632 20.7901 20.786 20.7901 20.914C20.7901 21.042 20.7392 21.1648 20.6487 21.2553C20.5582 21.3458 20.4354 21.3967 20.3074 21.3967Z" fill="white"/>
<path d="M11.5965 20.3701H9.40275C8.25133 20.3701 7.14707 19.9127 6.33289 19.0985C5.51871 18.2843 5.06131 17.18 5.06131 16.0286V13.8349C5.05649 13.7687 5.06536 13.7023 5.08736 13.6397C5.10937 13.5771 5.14404 13.5198 5.18922 13.4712C5.23439 13.4226 5.28909 13.3838 5.34991 13.3573C5.41073 13.3308 5.47635 13.3172 5.54269 13.3172C5.60903 13.3172 5.67466 13.3308 5.73548 13.3573C5.7963 13.3838 5.851 13.4226 5.89618 13.4712C5.94135 13.5198 5.97602 13.5771 5.99803 13.6397C6.02004 13.7023 6.02891 13.7687 6.02408 13.8349V16.0286C6.02544 16.9234 6.38165 17.7811 7.01457 18.4135C7.6475 19.0459 8.50544 19.4015 9.40019 19.4022H11.5939C11.7219 19.4022 11.8447 19.453 11.9352 19.5435C12.0257 19.6341 12.0766 19.7568 12.0766 19.8848C12.0766 20.0128 12.0257 20.1356 11.9352 20.2261C11.8447 20.3166 11.7219 20.3675 11.5939 20.3675L11.5965 20.3701Z" fill="white"/>
<path d="M19.2221 12.7444C19.0945 12.7438 18.9724 12.6926 18.8824 12.6022C18.7924 12.5117 18.742 12.3893 18.742 12.2618V10.0681C18.7413 9.17508 18.3871 8.31868 17.7569 7.68605C17.1266 7.05342 16.2716 6.69602 15.3786 6.69197H13.1849C13.1187 6.69679 13.0523 6.68791 12.9897 6.66591C12.9271 6.6439 12.8697 6.60923 12.8212 6.56406C12.7726 6.51889 12.7338 6.46419 12.7073 6.40337C12.6808 6.34255 12.6672 6.27692 12.6672 6.21058C12.6672 6.14424 12.6808 6.07861 12.7073 6.0178C12.7338 5.95698 12.7726 5.90227 12.8212 5.85709C12.8697 5.81192 12.9271 5.77725 12.9897 5.75525C13.0523 5.73324 13.1187 5.72436 13.1849 5.72919H15.3786C16.53 5.72919 17.6343 6.18659 18.4485 7.00076C19.2626 7.81494 19.72 8.9192 19.72 10.0706V12.2643C19.7197 12.3288 19.7065 12.3926 19.6812 12.4519C19.6558 12.5111 19.6188 12.5647 19.5724 12.6095C19.526 12.6542 19.4711 12.6893 19.4109 12.7124C19.3507 12.7356 19.2865 12.7465 19.2221 12.7444Z" fill="white"/>
<path d="M5.54908 8.64817C5.27836 8.6545 5.0098 8.59862 4.76407 8.48483C4.51835 8.37105 4.30202 8.2024 4.13172 7.99186C4.06618 7.8897 4.04153 7.76658 4.06269 7.64706C4.08386 7.52754 4.14928 7.42039 4.24592 7.34695C4.34256 7.2735 4.46332 7.23916 4.58414 7.25077C4.70497 7.26238 4.81697 7.31909 4.89786 7.40959C4.99931 7.51913 5.12758 7.60031 5.27001 7.6451C5.41243 7.68988 5.56408 7.69673 5.70997 7.66497C5.82812 7.65753 5.94197 7.6179 6.03921 7.55037C6.13644 7.48285 6.21334 7.39001 6.26158 7.2819C6.27346 7.22896 6.27296 7.174 6.26011 7.12129C6.24727 7.06858 6.22243 7.01954 6.18753 6.978C6.11095 6.89115 6.01657 6.8218 5.91082 6.77465C5.80506 6.7275 5.69039 6.70365 5.57461 6.70474C4.61949 6.67665 3.8789 6.0663 3.85592 5.28484C3.85118 5.1032 3.88362 4.92252 3.95125 4.75388C4.01889 4.58524 4.12028 4.43222 4.2492 4.30419C4.42041 4.13751 4.62303 4.00652 4.84531 3.91883C5.06758 3.83115 5.30507 3.78852 5.54397 3.79343C5.79675 3.78881 6.04765 3.83786 6.28009 3.93735C6.51252 4.03684 6.7212 4.18449 6.89237 4.37058C6.97076 4.46753 7.0086 4.59106 6.99795 4.71529C6.9873 4.83951 6.929 4.95479 6.83525 5.03699C6.7415 5.11918 6.61958 5.16192 6.49503 5.15623C6.37048 5.15054 6.25296 5.09688 6.16709 5.00648C5.99786 4.85932 5.78214 4.77659 5.55791 4.77285C5.33368 4.76911 5.11531 4.84461 4.94128 4.98605C4.90327 5.0219 4.87284 5.06499 4.85178 5.1128C4.83073 5.16061 4.81948 5.21217 4.81869 5.2644C4.81869 5.51978 5.18644 5.73942 5.60271 5.75218C5.86103 5.75478 6.11563 5.81398 6.3486 5.92561C6.58157 6.03724 6.78723 6.19858 6.95111 6.39828C7.07477 6.55216 7.16199 6.73205 7.20622 6.92444C7.25045 7.11684 7.25054 7.31676 7.20648 7.50919C7.12042 7.80928 6.94783 8.07735 6.71028 8.27993C6.47274 8.4825 6.18077 8.61058 5.87085 8.64817C5.76373 8.65596 5.6562 8.65596 5.54908 8.64817Z" stroke="white" stroke-width="0.6"/>
<path d="M5.54398 4.72809C5.41641 4.72742 5.2943 4.67627 5.20434 4.58583C5.11437 4.49538 5.06386 4.37299 5.06387 4.24542V3.54057C5.05904 3.47441 5.06791 3.40796 5.08992 3.34538C5.11193 3.28279 5.1466 3.22542 5.19177 3.17683C5.23695 3.12825 5.29165 3.0895 5.35247 3.063C5.41329 3.0365 5.47892 3.02283 5.54526 3.02283C5.6116 3.02283 5.67723 3.0365 5.73805 3.063C5.79887 3.0895 5.85357 3.12825 5.89874 3.17683C5.94391 3.22542 5.97859 3.28279 6.0006 3.34538C6.0226 3.40796 6.03147 3.47441 6.02665 3.54057V4.24542C6.02665 4.37343 5.9758 4.4962 5.88528 4.58672C5.79476 4.67723 5.67199 4.72809 5.54398 4.72809Z" stroke="white" stroke-width="0.6"/>
<path d="M5.54398 9.353C5.48071 9.353 5.41808 9.3405 5.35966 9.31621C5.30125 9.29192 5.2482 9.25634 5.20359 9.21148C5.15897 9.16663 5.12365 9.11339 5.09968 9.05485C5.0757 8.9963 5.06353 8.93359 5.06387 8.87033V8.16804C5.05904 8.10187 5.06791 8.03542 5.08992 7.97284C5.11193 7.91025 5.1466 7.85288 5.19177 7.8043C5.23695 7.75571 5.29165 7.71696 5.35247 7.69046C5.41329 7.66397 5.47892 7.6503 5.54526 7.6503C5.6116 7.6503 5.67723 7.66397 5.73805 7.69046C5.79887 7.71696 5.85357 7.75571 5.89874 7.8043C5.94391 7.85288 5.97859 7.91025 6.0006 7.97284C6.0226 8.03542 6.03147 8.10187 6.02665 8.16804V8.87033C6.02699 8.93381 6.01473 8.99673 5.9906 9.05544C5.96646 9.11415 5.93092 9.1675 5.88603 9.21239C5.84114 9.25727 5.7878 9.29281 5.72909 9.31694C5.67038 9.34108 5.60746 9.35334 5.54398 9.353Z" stroke="white" stroke-width="0.6"/>
<path d="M5.54398 11.4267C4.18057 11.3965 2.88316 10.8337 1.92957 9.85879C0.97598 8.88387 0.442017 7.57432 0.442017 6.21057C0.442017 4.84682 0.97598 3.53728 1.92957 2.56235C2.88316 1.58743 4.18057 1.02463 5.54398 0.994463C5.58139 0.991917 5.61894 0.991917 5.65635 0.994463C7.02091 1.01925 8.32107 1.5793 9.27652 2.55386C10.232 3.52841 10.7662 4.83941 10.7639 6.2042C10.7654 6.67816 10.701 7.15003 10.5724 7.60622C10.2658 8.70352 9.60867 9.67037 8.70122 10.3593C7.79377 11.0481 6.68585 11.4212 5.54654 11.4216L5.54398 11.4267ZM5.57462 1.95979C5.00778 1.944 4.44351 2.04176 3.91501 2.24731C3.38651 2.45285 2.90446 2.76202 2.49724 3.15664C2.09001 3.55126 1.76582 4.02335 1.54377 4.54512C1.32171 5.0669 1.20625 5.62782 1.20421 6.19488C1.20217 6.76193 1.31357 7.32367 1.53186 7.84703C1.75015 8.37039 2.07092 8.84481 2.4753 9.24235C2.87967 9.6399 3.35948 9.95255 3.88648 10.1619C4.41349 10.3712 4.97704 10.4731 5.54398 10.4614C6.32338 10.4641 7.08821 10.2502 7.75301 9.84334C8.67562 9.28213 9.35029 8.39108 9.64026 7.35084C9.74521 6.97947 9.79765 6.59521 9.79604 6.20929C9.79753 5.09525 9.36069 4.02534 8.5799 3.2307C7.79911 2.43605 6.73705 1.98045 5.62315 1.96234L5.57462 1.95979Z" stroke="white" stroke-width="0.6"/>
<path d="M19.2221 25.1022C18.5372 25.1022 17.8591 24.9673 17.2264 24.7052C16.5937 24.4432 16.0189 24.059 15.5346 23.5748C15.0504 23.0906 14.6663 22.5157 14.4042 21.883C14.1421 21.2503 14.0072 20.5722 14.0072 19.8874C14.0072 19.2025 14.1421 18.5244 14.4042 17.8918C14.6663 17.2591 15.0504 16.6842 15.5346 16.1999C16.0189 15.7157 16.5937 15.3316 17.2264 15.0695C17.8591 14.8074 18.5372 14.6725 19.2221 14.6725H19.3344C20.6981 14.6999 21.9968 15.2608 22.9517 16.2348C23.9066 17.2088 24.4416 18.5183 24.442 19.8823C24.4429 20.3572 24.3776 20.8299 24.2479 21.2868C23.9429 22.3843 23.2864 23.3515 22.3791 24.0402C21.4718 24.7288 20.3637 25.101 19.2246 25.0997L19.2221 25.1022ZM19.2527 15.6353C18.4596 15.6297 17.6808 15.8459 17.0041 16.2597C16.3275 16.6735 15.7801 17.2682 15.4237 17.9767C15.0674 18.6853 14.9163 19.4794 14.9876 20.2693C15.0588 21.0592 15.3496 21.8134 15.827 22.4467C16.3044 23.0801 16.9494 23.5673 17.6891 23.8533C18.4289 24.1393 19.2338 24.2126 20.0131 24.0651C20.7924 23.9177 21.5149 23.5552 22.099 23.0186C22.683 22.4821 23.1054 21.7929 23.3183 21.0289C23.4235 20.6567 23.4759 20.2716 23.4741 19.8848C23.4749 18.7708 23.0375 17.7011 22.2562 16.907C21.4749 16.1128 20.4126 15.6579 19.2987 15.6404L19.2527 15.6353Z" stroke="white" stroke-width="0.6"/>
<path d="M19.222 20.2423C19.1465 20.2421 19.0721 20.2241 19.0047 20.19C18.9373 20.1558 18.8788 20.1064 18.8339 20.0457L17.3297 18.0027C17.2812 17.9536 17.2438 17.8947 17.22 17.8299C17.1962 17.7652 17.1865 17.696 17.1917 17.6272C17.1969 17.5584 17.2167 17.4915 17.2499 17.4311C17.2831 17.3706 17.3289 17.3179 17.3842 17.2767C17.4395 17.2354 17.503 17.2064 17.5704 17.1918C17.6379 17.1771 17.7076 17.1771 17.7751 17.1916C17.8425 17.2062 17.906 17.2351 17.9614 17.2763C18.0167 17.3176 18.0626 17.3702 18.0958 17.4306L19.2118 18.9629L20.3304 17.4306C20.4123 17.3478 20.5214 17.2973 20.6375 17.2886C20.7537 17.2799 20.8691 17.3134 20.9625 17.3831C21.0558 17.4528 21.1208 17.554 21.1454 17.6678C21.1701 17.7817 21.1527 17.9006 21.0965 18.0027L19.5923 20.0457C19.549 20.1038 19.4933 20.1516 19.4293 20.1856C19.3652 20.2196 19.2945 20.239 19.222 20.2423Z" stroke="white" stroke-width="0.6"/>
<path d="M19.222 22.551C19.0945 22.5503 18.9724 22.4992 18.8824 22.4087C18.7924 22.3183 18.7419 22.1959 18.7419 22.0683V19.7699C18.7371 19.7037 18.746 19.6373 18.768 19.5747C18.79 19.5121 18.8247 19.4548 18.8698 19.4062C18.915 19.3576 18.9697 19.3188 19.0305 19.2923C19.0913 19.2658 19.157 19.2521 19.2233 19.2521C19.2897 19.2521 19.3553 19.2658 19.4161 19.2923C19.4769 19.3188 19.5316 19.3576 19.5768 19.4062C19.622 19.4548 19.6566 19.5121 19.6787 19.5747C19.7007 19.6373 19.7095 19.7037 19.7047 19.7699V22.0683C19.7047 22.1317 19.6922 22.1945 19.668 22.253C19.6437 22.3116 19.6082 22.3648 19.5633 22.4096C19.5185 22.4544 19.4653 22.49 19.4068 22.5142C19.3482 22.5385 19.2854 22.551 19.222 22.551Z" stroke="white" stroke-width="0.6"/>
<path d="M20.3074 21.3967H18.1392C18.0112 21.3967 17.8885 21.3458 17.7979 21.2553C17.7074 21.1648 17.6566 21.042 17.6566 20.914C17.6566 20.786 17.7074 20.6632 17.7979 20.5727C17.8885 20.4822 18.0112 20.4313 18.1392 20.4313H20.3074C20.4354 20.4313 20.5582 20.4822 20.6487 20.5727C20.7392 20.6632 20.7901 20.786 20.7901 20.914C20.7901 21.042 20.7392 21.1648 20.6487 21.2553C20.5582 21.3458 20.4354 21.3967 20.3074 21.3967Z" stroke="white" stroke-width="0.6"/>
<path d="M11.5965 20.3701H9.40275C8.25133 20.3701 7.14707 19.9127 6.33289 19.0985C5.51871 18.2843 5.06131 17.18 5.06131 16.0286V13.8349C5.05649 13.7687 5.06536 13.7023 5.08736 13.6397C5.10937 13.5771 5.14404 13.5198 5.18922 13.4712C5.23439 13.4226 5.28909 13.3838 5.34991 13.3573C5.41073 13.3308 5.47635 13.3172 5.54269 13.3172C5.60903 13.3172 5.67466 13.3308 5.73548 13.3573C5.7963 13.3838 5.851 13.4226 5.89618 13.4712C5.94135 13.5198 5.97602 13.5771 5.99803 13.6397C6.02004 13.7023 6.02891 13.7687 6.02408 13.8349V16.0286C6.02544 16.9234 6.38165 17.7811 7.01457 18.4135C7.6475 19.0459 8.50544 19.4015 9.40019 19.4022H11.5939C11.7219 19.4022 11.8447 19.453 11.9352 19.5435C12.0257 19.6341 12.0766 19.7568 12.0766 19.8848C12.0766 20.0128 12.0257 20.1356 11.9352 20.2261C11.8447 20.3166 11.7219 20.3675 11.5939 20.3675L11.5965 20.3701Z" stroke="white" stroke-width="0.6"/>
<path d="M19.2221 12.7444C19.0945 12.7438 18.9724 12.6926 18.8824 12.6022C18.7924 12.5117 18.742 12.3893 18.742 12.2618V10.0681C18.7413 9.17508 18.3871 8.31868 17.7569 7.68605C17.1266 7.05342 16.2716 6.69602 15.3786 6.69197H13.1849C13.1187 6.69679 13.0523 6.68791 12.9897 6.66591C12.9271 6.6439 12.8697 6.60923 12.8212 6.56406C12.7726 6.51889 12.7338 6.46419 12.7073 6.40337C12.6808 6.34255 12.6672 6.27692 12.6672 6.21058C12.6672 6.14424 12.6808 6.07861 12.7073 6.0178C12.7338 5.95698 12.7726 5.90227 12.8212 5.85709C12.8697 5.81192 12.9271 5.77725 12.9897 5.75525C13.0523 5.73324 13.1187 5.72436 13.1849 5.72919H15.3786C16.53 5.72919 17.6343 6.18659 18.4485 7.00076C19.2626 7.81494 19.72 8.9192 19.72 10.0706V12.2643C19.7197 12.3288 19.7065 12.3926 19.6812 12.4519C19.6558 12.5111 19.6188 12.5647 19.5724 12.6095C19.526 12.6542 19.4711 12.6893 19.4109 12.7124C19.3507 12.7356 19.2865 12.7465 19.2221 12.7444Z" stroke="white" stroke-width="0.6"/>
</svg>
