<svg width="26" height="22" viewBox="0 0 26 22" fill="none" xmlns="http://www.w3.org/2000/svg">
<path d="M24.538 17.3756H1.46201C1.3399 17.3756 1.22276 17.3273 1.13618 17.2412C1.04961 17.1551 1.00065 17.0382 1 16.9161V1.46201C1 1.33948 1.04868 1.22197 1.13532 1.13532C1.22197 1.04868 1.33948 1 1.46201 1H24.538C24.6605 1 24.778 1.04868 24.8647 1.13532C24.9513 1.22197 25 1.33948 25 1.46201V16.9161C24.9994 17.0382 24.9504 17.1551 24.8638 17.2412C24.7772 17.3273 24.6601 17.3756 24.538 17.3756ZM1.92402 16.4541H24.076V1.92402H1.92402V16.4541Z" fill="white"/>
<path d="M16.2023 21.2404H9.79772C9.67519 21.2404 9.55768 21.1917 9.47103 21.1051C9.38439 21.0184 9.33571 20.9009 9.33571 20.7784V16.9161C9.33571 16.7936 9.38439 16.676 9.47103 16.5894C9.55768 16.5027 9.67519 16.4541 9.79772 16.4541H16.2023C16.3248 16.4541 16.4423 16.5027 16.529 16.5894C16.6156 16.676 16.6643 16.7936 16.6643 16.9161V20.7784C16.6643 20.9009 16.6156 21.0184 16.529 21.1051C16.4423 21.1917 16.3248 21.2404 16.2023 21.2404ZM10.2597 20.3164H15.7403V17.383H10.2597V20.3164Z" fill="white"/>
<path d="M18.4903 21.2404H7.50968C7.38714 21.2404 7.26963 21.1917 7.18299 21.1051C7.09634 21.0184 7.04767 20.9009 7.04767 20.7784C7.04767 20.6558 7.09634 20.5383 7.18299 20.4517C7.26963 20.365 7.38714 20.3164 7.50968 20.3164H18.4903C18.6124 20.317 18.7293 20.366 18.8154 20.4525C18.9015 20.5391 18.9499 20.6563 18.9499 20.7784C18.9499 20.9005 18.9015 21.0176 18.8154 21.1042C18.7293 21.1908 18.6124 21.2397 18.4903 21.2404Z" fill="white"/>
<path d="M6.96212 12.5747C6.8956 12.575 6.82982 12.5607 6.76942 12.5328C6.70902 12.5049 6.65547 12.4642 6.61256 12.4133C6.53305 12.3205 6.49355 12.2 6.50272 12.0781C6.51188 11.9562 6.56895 11.843 6.66144 11.7631L11.6213 7.51457C11.6672 7.47363 11.7211 7.44271 11.7796 7.42377C11.8381 7.40483 11.8999 7.3983 11.9611 7.40458C12.0225 7.40957 12.0823 7.42684 12.1369 7.4554C12.1915 7.48396 12.2398 7.5232 12.2789 7.57079L13.9607 9.62906L16.6936 7.26037C16.7393 7.22055 16.7924 7.19013 16.8498 7.17091C16.9073 7.15168 16.968 7.144 17.0284 7.14832C17.0888 7.15263 17.1478 7.16886 17.202 7.19606C17.2561 7.22326 17.3043 7.26089 17.3439 7.3068C17.3837 7.35246 17.4141 7.40556 17.4333 7.46301C17.4525 7.52046 17.4602 7.58114 17.4559 7.64157C17.4516 7.702 17.4353 7.76098 17.4082 7.81512C17.381 7.86926 17.3433 7.9175 17.2974 7.95704L14.2076 10.646C14.1609 10.6865 14.1066 10.7171 14.0477 10.736C13.9889 10.7549 13.9269 10.7617 13.8654 10.756C13.8039 10.751 13.7442 10.7337 13.6896 10.7052C13.635 10.6766 13.5867 10.6374 13.5476 10.5898L11.8633 8.52904L7.26279 12.472C7.17786 12.5407 7.07133 12.5771 6.96212 12.5747Z" fill="white"/>
<path d="M17.9941 9.78795L19.4975 5.4392L14.98 6.30944L17.9941 9.78795Z" fill="white"/>
<path d="M24.538 17.3756H1.46201C1.3399 17.3756 1.22276 17.3273 1.13618 17.2412C1.04961 17.1551 1.00065 17.0382 1 16.9161V1.46201C1 1.33948 1.04868 1.22197 1.13532 1.13532C1.22197 1.04868 1.33948 1 1.46201 1H24.538C24.6605 1 24.778 1.04868 24.8647 1.13532C24.9513 1.22197 25 1.33948 25 1.46201V16.9161C24.9994 17.0382 24.9504 17.1551 24.8638 17.2412C24.7772 17.3273 24.6601 17.3756 24.538 17.3756ZM1.92402 16.4541H24.076V1.92402H1.92402V16.4541Z" stroke="white" stroke-width="0.6"/>
<path d="M16.2023 21.2404H9.79772C9.67519 21.2404 9.55768 21.1917 9.47103 21.1051C9.38439 21.0184 9.33571 20.9009 9.33571 20.7784V16.9161C9.33571 16.7936 9.38439 16.676 9.47103 16.5894C9.55768 16.5027 9.67519 16.4541 9.79772 16.4541H16.2023C16.3248 16.4541 16.4423 16.5027 16.529 16.5894C16.6156 16.676 16.6643 16.7936 16.6643 16.9161V20.7784C16.6643 20.9009 16.6156 21.0184 16.529 21.1051C16.4423 21.1917 16.3248 21.2404 16.2023 21.2404ZM10.2597 20.3164H15.7403V17.383H10.2597V20.3164Z" stroke="white" stroke-width="0.6"/>
<path d="M18.4903 21.2404H7.50968C7.38714 21.2404 7.26963 21.1917 7.18299 21.1051C7.09634 21.0184 7.04767 20.9009 7.04767 20.7784C7.04767 20.6558 7.09634 20.5383 7.18299 20.4517C7.26963 20.365 7.38714 20.3164 7.50968 20.3164H18.4903C18.6124 20.317 18.7293 20.366 18.8154 20.4525C18.9015 20.5391 18.9499 20.6563 18.9499 20.7784C18.9499 20.9005 18.9015 21.0176 18.8154 21.1042C18.7293 21.1908 18.6124 21.2397 18.4903 21.2404Z" stroke="white" stroke-width="0.6"/>
<path d="M6.96212 12.5747C6.8956 12.575 6.82982 12.5607 6.76942 12.5328C6.70902 12.5049 6.65547 12.4642 6.61256 12.4133C6.53305 12.3205 6.49355 12.2 6.50272 12.0781C6.51188 11.9562 6.56895 11.843 6.66144 11.7631L11.6213 7.51457C11.6672 7.47363 11.7211 7.44271 11.7796 7.42377C11.8381 7.40483 11.8999 7.3983 11.9611 7.40458C12.0225 7.40957 12.0823 7.42684 12.1369 7.4554C12.1915 7.48396 12.2398 7.5232 12.2789 7.57079L13.9607 9.62906L16.6936 7.26037C16.7393 7.22055 16.7924 7.19013 16.8498 7.17091C16.9073 7.15168 16.968 7.144 17.0284 7.14832C17.0888 7.15263 17.1478 7.16886 17.202 7.19606C17.2561 7.22326 17.3043 7.26089 17.3439 7.3068C17.3837 7.35246 17.4141 7.40556 17.4333 7.46301C17.4525 7.52046 17.4602 7.58114 17.4559 7.64157C17.4516 7.702 17.4353 7.76098 17.4082 7.81512C17.381 7.86926 17.3433 7.9175 17.2974 7.95704L14.2076 10.646C14.1609 10.6865 14.1066 10.7171 14.0477 10.736C13.9889 10.7549 13.9269 10.7617 13.8654 10.756C13.8039 10.751 13.7442 10.7337 13.6896 10.7052C13.635 10.6766 13.5867 10.6374 13.5476 10.5898L11.8633 8.52904L7.26279 12.472C7.17786 12.5407 7.07133 12.5771 6.96212 12.5747Z" stroke="white" stroke-width="0.6"/>
<path d="M17.9941 9.78795L19.4975 5.4392L14.98 6.30944L17.9941 9.78795Z" stroke="white" stroke-width="0.6"/>
</svg>
