<svg width="26" height="21" viewBox="0 0 26 21" fill="none" xmlns="http://www.w3.org/2000/svg">
<path d="M4.61035 20.2638C4.54597 20.2638 4.48221 20.2511 4.42273 20.2265C4.36325 20.2019 4.3092 20.1657 4.26367 20.1202C4.21814 20.0747 4.18202 20.0206 4.15738 19.9611C4.13274 19.9016 4.12006 19.8379 4.12006 19.7735V14.3648C4.12006 14.2348 4.17172 14.1101 4.26367 14.0181C4.35562 13.9262 4.48032 13.8745 4.61035 13.8745C4.74038 13.8745 4.86509 13.9262 4.95704 14.0181C5.04898 14.1101 5.10064 14.2348 5.10064 14.3648V19.7735C5.10064 19.8379 5.08796 19.9016 5.06332 19.9611C5.03868 20.0206 5.00256 20.0747 4.95704 20.1202C4.91151 20.1657 4.85746 20.2019 4.79798 20.2265C4.73849 20.2511 4.67474 20.2638 4.61035 20.2638Z" fill="white"/>
<path d="M7.48462 20.2638C7.35504 20.2631 7.23099 20.2112 7.1396 20.1193C7.04822 20.0274 6.99693 19.9031 6.99693 19.7735V11.6799C6.99203 11.6127 7.00103 11.5452 7.02339 11.4816C7.04574 11.4181 7.08097 11.3598 7.12686 11.3104C7.17274 11.2611 7.2283 11.2217 7.29008 11.1948C7.35186 11.1679 7.41853 11.154 7.48592 11.154C7.55331 11.154 7.61997 11.1679 7.68175 11.1948C7.74352 11.2217 7.7991 11.2611 7.84499 11.3104C7.89087 11.3598 7.92608 11.4181 7.94844 11.4816C7.97079 11.5452 7.97981 11.6127 7.97491 11.6799V19.7735C7.97491 19.8379 7.96222 19.9016 7.93758 19.9611C7.91294 20.0206 7.87683 20.0747 7.83131 20.1202C7.78578 20.1657 7.73173 20.2019 7.67225 20.2265C7.61276 20.2511 7.54901 20.2638 7.48462 20.2638Z" fill="white"/>
<path d="M10.3667 20.2638C10.3023 20.2638 10.2385 20.2511 10.179 20.2265C10.1196 20.2019 10.0655 20.1657 10.02 20.1202C9.97446 20.0747 9.93833 20.0206 9.9137 19.9611C9.88906 19.9016 9.87638 19.8379 9.87638 19.7735V9.20774C9.87148 9.14053 9.8805 9.07304 9.90285 9.00947C9.9252 8.9459 9.96042 8.88761 10.0063 8.83825C10.0522 8.7889 10.1078 8.74956 10.1695 8.72264C10.2313 8.69572 10.298 8.68182 10.3654 8.68182C10.4328 8.68182 10.4994 8.69572 10.5612 8.72264C10.623 8.74956 10.6785 8.7889 10.7244 8.83825C10.7703 8.88761 10.8055 8.9459 10.8279 9.00947C10.8502 9.07304 10.8593 9.14053 10.8544 9.20774V19.7735C10.8544 19.9031 10.8031 20.0274 10.7117 20.1193C10.6203 20.2112 10.4962 20.2631 10.3667 20.2638Z" fill="white"/>
<path d="M13.2357 20.2638C13.1714 20.2638 13.1076 20.2511 13.0481 20.2265C12.9886 20.2019 12.9346 20.1657 12.8891 20.1202C12.8435 20.0747 12.8074 20.0206 12.7828 19.9611C12.7581 19.9016 12.7455 19.8379 12.7455 19.7735V14.3648C12.7406 14.2976 12.7496 14.2301 12.7719 14.1666C12.7943 14.103 12.8295 14.0447 12.8754 13.9953C12.9213 13.946 12.9768 13.9066 13.0386 13.8797C13.1004 13.8528 13.1671 13.8389 13.2344 13.8389C13.3018 13.8389 13.3685 13.8528 13.4303 13.8797C13.4921 13.9066 13.5476 13.946 13.5935 13.9953C13.6394 14.0447 13.6746 14.103 13.697 14.1666C13.7193 14.2301 13.7283 14.2976 13.7234 14.3648V19.7735C13.7234 19.9031 13.6721 20.0274 13.5807 20.1193C13.4894 20.2112 13.3653 20.2631 13.2357 20.2638Z" fill="white"/>
<path d="M16.11 20.2638C16.0456 20.2638 15.9819 20.2511 15.9224 20.2265C15.8629 20.2019 15.8089 20.1657 15.7633 20.1202C15.7178 20.0747 15.6817 20.0206 15.657 19.9611C15.6324 19.9016 15.6197 19.8379 15.6197 19.7735V11.6799C15.6197 11.5499 15.6714 11.4252 15.7633 11.3332C15.8553 11.2413 15.98 11.1896 16.11 11.1896C16.24 11.1896 16.3648 11.2413 16.4567 11.3332C16.5486 11.4252 16.6003 11.5499 16.6003 11.6799V19.7735C16.6003 19.8379 16.5876 19.9016 16.563 19.9611C16.5383 20.0206 16.5022 20.0747 16.4567 20.1202C16.4112 20.1657 16.3571 20.2019 16.2976 20.2265C16.2382 20.2511 16.1744 20.2638 16.11 20.2638Z" fill="white"/>
<path d="M21.8585 20.2638C21.7942 20.2638 21.7304 20.2511 21.6709 20.2265C21.6114 20.2019 21.5574 20.1657 21.5119 20.1202C21.4663 20.0747 21.4302 20.0206 21.4056 19.9611C21.3809 19.9016 21.3682 19.8379 21.3682 19.7735V9.20774C21.3682 9.14335 21.3809 9.0796 21.4056 9.02011C21.4302 8.96063 21.4663 8.90658 21.5119 8.86105C21.5574 8.81553 21.6114 8.77942 21.6709 8.75478C21.7304 8.73014 21.7942 8.71745 21.8585 8.71745C21.9229 8.71745 21.9867 8.73014 22.0462 8.75478C22.1056 8.77942 22.1597 8.81553 22.2052 8.86105C22.2507 8.90658 22.2869 8.96063 22.3115 9.02011C22.3361 9.0796 22.3488 9.14335 22.3488 9.20774V19.7735C22.3488 19.8379 22.3361 19.9016 22.3115 19.9611C22.2869 20.0206 22.2507 20.0747 22.2052 20.1202C22.1597 20.1657 22.1056 20.2019 22.0462 20.2265C21.9867 20.2511 21.9229 20.2638 21.8585 20.2638Z" fill="white"/>
<path d="M18.9843 20.2638C18.9199 20.2638 18.8561 20.2511 18.7966 20.2265C18.7372 20.2019 18.6831 20.1657 18.6376 20.1202C18.5921 20.0747 18.556 20.0206 18.5313 19.9611C18.5067 19.9016 18.494 19.8379 18.494 19.7735V14.3648C18.494 14.2348 18.5456 14.1101 18.6376 14.0181C18.7295 13.9262 18.8542 13.8745 18.9843 13.8745C19.1143 13.8745 19.239 13.9262 19.331 14.0181C19.4229 14.1101 19.4746 14.2348 19.4746 14.3648V19.7735C19.4746 19.8379 19.4619 19.9016 19.4372 19.9611C19.4126 20.0206 19.3765 20.0747 19.331 20.1202C19.2854 20.1657 19.2314 20.2019 19.1719 20.2265C19.1124 20.2511 19.0487 20.2638 18.9843 20.2638Z" fill="white"/>
<path d="M1.48966 11.5554C1.392 11.5553 1.29661 11.526 1.2157 11.4713C1.1348 11.4166 1.07206 11.339 1.03555 11.2484C0.999042 11.1578 0.990413 11.0584 1.01077 10.9629C1.03113 10.8674 1.07955 10.7801 1.14982 10.7123L10.0217 2.20626C10.073 2.1564 10.1348 2.11846 10.2025 2.09514C10.2702 2.07183 10.3422 2.06371 10.4134 2.07136C10.4847 2.07921 10.5535 2.10254 10.6149 2.13973C10.6762 2.17692 10.7288 2.22709 10.7688 2.28669L13.3629 6.20897L15.8273 4.55134C15.9188 4.48968 16.0283 4.4605 16.1384 4.4685C16.2485 4.4765 16.3526 4.52118 16.4343 4.59542L18.9454 6.90418L22.2606 3.27243C22.3026 3.22032 22.3547 3.17734 22.4139 3.14615C22.4731 3.11495 22.538 3.09621 22.6047 3.09105C22.6714 3.08588 22.7385 3.09441 22.8017 3.11613C22.865 3.13784 22.9231 3.1723 22.9726 3.21733C23.0221 3.26237 23.0618 3.31705 23.0893 3.37801C23.1169 3.43897 23.1317 3.50489 23.1328 3.57177C23.1339 3.63866 23.1213 3.70507 23.0958 3.7669C23.0702 3.82874 23.0323 3.88471 22.9844 3.93134L19.3371 7.93146C19.249 8.02682 19.1268 8.08355 18.9972 8.08938C18.8675 8.09521 18.7407 8.04966 18.6444 7.96259L16.0503 5.58379L13.4952 7.30368C13.4419 7.34006 13.3817 7.36526 13.3184 7.37775C13.2551 7.39023 13.1899 7.38974 13.1268 7.37632C13.0632 7.36379 13.0027 7.33876 12.9488 7.3027C12.8949 7.26663 12.8487 7.22022 12.8129 7.16618L10.2759 3.31135L1.82689 11.4127C1.78301 11.4578 1.73057 11.4936 1.67266 11.5181C1.61475 11.5426 1.55254 11.5553 1.48966 11.5554Z" fill="white"/>
<path d="M23.9546 5.77055L25 1L20.3462 2.48123L23.9546 5.77055Z" fill="white"/>
<path d="M4.61035 20.2638C4.54597 20.2638 4.48221 20.2511 4.42273 20.2265C4.36325 20.2019 4.3092 20.1657 4.26367 20.1202C4.21814 20.0747 4.18202 20.0206 4.15738 19.9611C4.13274 19.9016 4.12006 19.8379 4.12006 19.7735V14.3648C4.12006 14.2348 4.17172 14.1101 4.26367 14.0181C4.35562 13.9262 4.48032 13.8745 4.61035 13.8745C4.74038 13.8745 4.86509 13.9262 4.95704 14.0181C5.04898 14.1101 5.10064 14.2348 5.10064 14.3648V19.7735C5.10064 19.8379 5.08796 19.9016 5.06332 19.9611C5.03868 20.0206 5.00256 20.0747 4.95704 20.1202C4.91151 20.1657 4.85746 20.2019 4.79798 20.2265C4.73849 20.2511 4.67474 20.2638 4.61035 20.2638Z" stroke="white" stroke-width="0.6"/>
<path d="M7.48462 20.2638C7.35504 20.2631 7.23099 20.2112 7.1396 20.1193C7.04822 20.0274 6.99693 19.9031 6.99693 19.7735V11.6799C6.99203 11.6127 7.00103 11.5452 7.02339 11.4816C7.04574 11.4181 7.08097 11.3598 7.12686 11.3104C7.17274 11.2611 7.2283 11.2217 7.29008 11.1948C7.35186 11.1679 7.41853 11.154 7.48592 11.154C7.55331 11.154 7.61997 11.1679 7.68175 11.1948C7.74352 11.2217 7.7991 11.2611 7.84499 11.3104C7.89087 11.3598 7.92608 11.4181 7.94844 11.4816C7.97079 11.5452 7.97981 11.6127 7.97491 11.6799V19.7735C7.97491 19.8379 7.96222 19.9016 7.93758 19.9611C7.91294 20.0206 7.87683 20.0747 7.83131 20.1202C7.78578 20.1657 7.73173 20.2019 7.67225 20.2265C7.61276 20.2511 7.54901 20.2638 7.48462 20.2638Z" stroke="white" stroke-width="0.6"/>
<path d="M10.3667 20.2638C10.3023 20.2638 10.2385 20.2511 10.179 20.2265C10.1196 20.2019 10.0655 20.1657 10.02 20.1202C9.97446 20.0747 9.93833 20.0206 9.9137 19.9611C9.88906 19.9016 9.87638 19.8379 9.87638 19.7735V9.20774C9.87148 9.14053 9.8805 9.07304 9.90285 9.00947C9.9252 8.9459 9.96042 8.88761 10.0063 8.83825C10.0522 8.7889 10.1078 8.74956 10.1695 8.72264C10.2313 8.69572 10.298 8.68182 10.3654 8.68182C10.4328 8.68182 10.4994 8.69572 10.5612 8.72264C10.623 8.74956 10.6785 8.7889 10.7244 8.83825C10.7703 8.88761 10.8055 8.9459 10.8279 9.00947C10.8502 9.07304 10.8593 9.14053 10.8544 9.20774V19.7735C10.8544 19.9031 10.8031 20.0274 10.7117 20.1193C10.6203 20.2112 10.4962 20.2631 10.3667 20.2638Z" stroke="white" stroke-width="0.6"/>
<path d="M13.2357 20.2638C13.1714 20.2638 13.1076 20.2511 13.0481 20.2265C12.9886 20.2019 12.9346 20.1657 12.8891 20.1202C12.8435 20.0747 12.8074 20.0206 12.7828 19.9611C12.7581 19.9016 12.7455 19.8379 12.7455 19.7735V14.3648C12.7406 14.2976 12.7496 14.2301 12.7719 14.1666C12.7943 14.103 12.8295 14.0447 12.8754 13.9953C12.9213 13.946 12.9768 13.9066 13.0386 13.8797C13.1004 13.8528 13.1671 13.8389 13.2344 13.8389C13.3018 13.8389 13.3685 13.8528 13.4303 13.8797C13.4921 13.9066 13.5476 13.946 13.5935 13.9953C13.6394 14.0447 13.6746 14.103 13.697 14.1666C13.7193 14.2301 13.7283 14.2976 13.7234 14.3648V19.7735C13.7234 19.9031 13.6721 20.0274 13.5807 20.1193C13.4894 20.2112 13.3653 20.2631 13.2357 20.2638Z" stroke="white" stroke-width="0.6"/>
<path d="M16.11 20.2638C16.0456 20.2638 15.9819 20.2511 15.9224 20.2265C15.8629 20.2019 15.8089 20.1657 15.7633 20.1202C15.7178 20.0747 15.6817 20.0206 15.657 19.9611C15.6324 19.9016 15.6197 19.8379 15.6197 19.7735V11.6799C15.6197 11.5499 15.6714 11.4252 15.7633 11.3332C15.8553 11.2413 15.98 11.1896 16.11 11.1896C16.24 11.1896 16.3648 11.2413 16.4567 11.3332C16.5486 11.4252 16.6003 11.5499 16.6003 11.6799V19.7735C16.6003 19.8379 16.5876 19.9016 16.563 19.9611C16.5383 20.0206 16.5022 20.0747 16.4567 20.1202C16.4112 20.1657 16.3571 20.2019 16.2976 20.2265C16.2382 20.2511 16.1744 20.2638 16.11 20.2638Z" stroke="white" stroke-width="0.6"/>
<path d="M21.8585 20.2638C21.7942 20.2638 21.7304 20.2511 21.6709 20.2265C21.6114 20.2019 21.5574 20.1657 21.5119 20.1202C21.4663 20.0747 21.4302 20.0206 21.4056 19.9611C21.3809 19.9016 21.3682 19.8379 21.3682 19.7735V9.20774C21.3682 9.14335 21.3809 9.0796 21.4056 9.02011C21.4302 8.96063 21.4663 8.90658 21.5119 8.86105C21.5574 8.81553 21.6114 8.77942 21.6709 8.75478C21.7304 8.73014 21.7942 8.71745 21.8585 8.71745C21.9229 8.71745 21.9867 8.73014 22.0462 8.75478C22.1056 8.77942 22.1597 8.81553 22.2052 8.86105C22.2507 8.90658 22.2869 8.96063 22.3115 9.02011C22.3361 9.0796 22.3488 9.14335 22.3488 9.20774V19.7735C22.3488 19.8379 22.3361 19.9016 22.3115 19.9611C22.2869 20.0206 22.2507 20.0747 22.2052 20.1202C22.1597 20.1657 22.1056 20.2019 22.0462 20.2265C21.9867 20.2511 21.9229 20.2638 21.8585 20.2638Z" stroke="white" stroke-width="0.6"/>
<path d="M18.9843 20.2638C18.9199 20.2638 18.8561 20.2511 18.7966 20.2265C18.7372 20.2019 18.6831 20.1657 18.6376 20.1202C18.5921 20.0747 18.556 20.0206 18.5313 19.9611C18.5067 19.9016 18.494 19.8379 18.494 19.7735V14.3648C18.494 14.2348 18.5456 14.1101 18.6376 14.0181C18.7295 13.9262 18.8542 13.8745 18.9843 13.8745C19.1143 13.8745 19.239 13.9262 19.331 14.0181C19.4229 14.1101 19.4746 14.2348 19.4746 14.3648V19.7735C19.4746 19.8379 19.4619 19.9016 19.4372 19.9611C19.4126 20.0206 19.3765 20.0747 19.331 20.1202C19.2854 20.1657 19.2314 20.2019 19.1719 20.2265C19.1124 20.2511 19.0487 20.2638 18.9843 20.2638Z" stroke="white" stroke-width="0.6"/>
<path d="M1.48966 11.5554C1.392 11.5553 1.29661 11.526 1.2157 11.4713C1.1348 11.4166 1.07206 11.339 1.03555 11.2484C0.999042 11.1578 0.990413 11.0584 1.01077 10.9629C1.03113 10.8674 1.07955 10.7801 1.14982 10.7123L10.0217 2.20626C10.073 2.1564 10.1348 2.11846 10.2025 2.09514C10.2702 2.07183 10.3422 2.06371 10.4134 2.07136C10.4847 2.07921 10.5535 2.10254 10.6149 2.13973C10.6762 2.17692 10.7288 2.22709 10.7688 2.28669L13.3629 6.20897L15.8273 4.55134C15.9188 4.48968 16.0283 4.4605 16.1384 4.4685C16.2485 4.4765 16.3526 4.52118 16.4343 4.59542L18.9454 6.90418L22.2606 3.27243C22.3026 3.22032 22.3547 3.17734 22.4139 3.14615C22.4731 3.11495 22.538 3.09621 22.6047 3.09105C22.6714 3.08588 22.7385 3.09441 22.8017 3.11613C22.865 3.13784 22.9231 3.1723 22.9726 3.21733C23.0221 3.26237 23.0618 3.31705 23.0893 3.37801C23.1169 3.43897 23.1317 3.50489 23.1328 3.57177C23.1339 3.63866 23.1213 3.70507 23.0958 3.7669C23.0702 3.82874 23.0323 3.88471 22.9844 3.93134L19.3371 7.93146C19.249 8.02682 19.1268 8.08355 18.9972 8.08938C18.8675 8.09521 18.7407 8.04966 18.6444 7.96259L16.0503 5.58379L13.4952 7.30368C13.4419 7.34006 13.3817 7.36526 13.3184 7.37775C13.2551 7.39023 13.1899 7.38974 13.1268 7.37632C13.0632 7.36379 13.0027 7.33876 12.9488 7.3027C12.8949 7.26663 12.8487 7.22022 12.8129 7.16618L10.2759 3.31135L1.82689 11.4127C1.78301 11.4578 1.73057 11.4936 1.67266 11.5181C1.61475 11.5426 1.55254 11.5553 1.48966 11.5554Z" stroke="white" stroke-width="0.6"/>
<path d="M23.9546 5.77055L25 1L20.3462 2.48123L23.9546 5.77055Z" stroke="white" stroke-width="0.6"/>
</svg>
