<svg width="24" height="22" viewBox="0 0 24 22" fill="none" xmlns="http://www.w3.org/2000/svg">
<path d="M22.9533 7.90265C22.6629 5.66878 21.1941 3.79792 19.932 3.34556V3.23387C19.932 2.64141 19.6966 2.07322 19.2777 1.65428C18.8588 1.23535 18.2906 1 17.6981 1C17.1057 1 16.5375 1.23535 16.1185 1.65428C15.6996 2.07322 15.4643 2.64141 15.4643 3.23387V6.58467C15.4643 7.47335 15.1112 8.32564 14.4828 8.95404C13.8544 9.58244 13.0021 9.93547 12.1135 9.93547C11.2248 9.93547 10.3725 9.58244 9.74408 8.95404C9.11568 8.32564 8.76265 7.47335 8.76265 6.58467V3.23387C8.76265 2.64141 8.5273 2.07322 8.10837 1.65428C7.68944 1.23535 7.12125 1 6.52879 1C5.93633 1 5.36814 1.23535 4.9492 1.65428C4.53027 2.07322 4.29492 2.64141 4.29492 3.23387V3.63596C3.59125 4.80316 -1.21156 13.035 2.22859 16.4807C3.10539 17.3575 4.63 17.6367 6.41709 17.6367C7.57488 17.618 8.73077 17.536 9.87959 17.391V20.5463C9.87959 20.6945 9.93843 20.8365 10.0432 20.9412C10.1479 21.046 10.2899 21.1048 10.4381 21.1048H13.7889C13.937 21.1048 14.079 21.046 14.1838 20.9412C14.2885 20.8365 14.3473 20.6945 14.3473 20.5463V16.6985C22.8081 14.3083 23.1934 9.76793 22.9533 7.90265ZM17.6981 2.11693C17.9944 2.11693 18.2785 2.23461 18.4879 2.44408C18.6974 2.65354 18.8151 2.93764 18.8151 3.23387H16.5812C16.5812 2.93764 16.6989 2.65354 16.9083 2.44408C17.1178 2.23461 17.4019 2.11693 17.6981 2.11693ZM6.52879 2.11693C6.82502 2.11693 7.10911 2.23461 7.31858 2.44408C7.52804 2.65354 7.64572 2.93764 7.64572 3.23387H5.41185C5.41185 2.93764 5.52953 2.65354 5.739 2.44408C5.94846 2.23461 6.23256 2.11693 6.52879 2.11693ZM3.01603 15.6821C1.01672 13.6828 2.76472 8.98049 4.29492 5.93685V6.58467C4.29569 8.26779 4.83958 9.90572 5.84575 11.255C6.85191 12.6043 8.26663 13.5928 9.87959 14.0737V16.2685C6.88621 16.6036 4.06036 16.7264 3.01603 15.6821ZM13.2304 19.9879H10.9965V13.6437C11 13.5154 10.9591 13.3898 10.8807 13.288C10.8024 13.1863 10.6914 13.1147 10.5665 13.0852C9.10219 12.7378 7.79742 11.9077 6.86236 10.7285C5.92729 9.54925 5.41636 8.08962 5.41185 6.58467V4.3508H7.64572V6.58467C7.64572 7.76958 8.11643 8.90597 8.95429 9.74383C9.79215 10.5817 10.9285 11.0524 12.1135 11.0524C13.2984 11.0524 14.4348 10.5817 15.2726 9.74383C16.1105 8.90597 16.5812 7.76958 16.5812 6.58467V4.3508H18.8151V6.58467C18.8143 8.09249 18.3051 9.55601 17.3697 10.7386C16.4344 11.9213 15.1275 12.7539 13.6604 13.102C13.5355 13.1315 13.4245 13.2031 13.3462 13.3048C13.2678 13.4065 13.227 13.5321 13.2304 13.6604V19.9879ZM14.3473 15.5201V14.0737C15.9631 13.5976 17.3809 12.6103 18.3878 11.26C19.3948 9.90963 19.9366 8.26912 19.932 6.58467V4.59094C20.991 5.4543 21.6769 6.69222 21.8475 8.04785C22.11 9.98015 21.4119 13.4538 14.3473 15.5201Z" fill="white" stroke="white" stroke-width="0.4"/>
</svg>
