<svg width="22" height="21" viewBox="0 0 22 21" fill="none" xmlns="http://www.w3.org/2000/svg">
<path fill-rule="evenodd" clip-rule="evenodd" d="M10.9169 3.53414C11.8996 2.54996 13.6253 1.86791 15.3388 1.62225C16.0985 1.50389 16.8711 1.49362 17.6337 1.59173C18.3097 1.69244 18.7232 1.8908 18.9154 2.08458C19.1092 2.27684 19.3076 2.69034 19.4083 3.3663C19.5059 4.01783 19.4983 4.81586 19.3778 5.66118C19.1336 7.37471 18.45 9.10045 17.4659 10.0831L10.6819 16.8686L8.93329 15.1199C8.86246 15.049 8.77835 14.9927 8.68576 14.9543C8.59318 14.9159 8.49393 14.896 8.39368 14.896C8.29344 14.8959 8.19416 14.9156 8.10152 14.9539C8.00888 14.9922 7.92469 15.0483 7.85375 15.1192C7.7105 15.2622 7.62993 15.4563 7.62979 15.6588C7.62972 15.759 7.6494 15.8583 7.68769 15.9509C7.72599 16.0436 7.78216 16.1278 7.85299 16.1987L10.1418 18.4875C10.2126 18.5585 10.2968 18.6149 10.3895 18.6534C10.4822 18.6918 10.5816 18.7116 10.6819 18.7116C10.7823 18.7116 10.8816 18.6918 10.9743 18.6534C11.067 18.6149 11.1512 18.5585 11.2221 18.4875L12.0567 17.6513L13.842 20.6283C13.9015 20.7279 13.983 20.8127 14.0802 20.8761C14.1775 20.9396 14.2879 20.9799 14.4032 20.9942C14.5184 21.0085 14.6353 20.9963 14.7451 20.9585C14.8549 20.9207 14.9546 20.8584 15.0367 20.7763L18.0884 17.7246C18.1722 17.6406 18.2353 17.5383 18.2726 17.4258C18.31 17.3132 18.3206 17.1935 18.3036 17.0761L17.594 12.114L18.5462 11.1634C19.8508 9.85727 20.6183 7.76838 20.8883 5.87632C21.0257 4.91961 21.0409 3.96901 20.9173 3.13894C20.7953 2.33329 20.5267 1.5368 19.9957 1.00428C19.4632 0.473279 18.6667 0.203203 17.8595 0.0826606C16.9507 -0.0369759 16.0296 -0.0267006 15.1237 0.113178C13.2301 0.380202 11.1397 1.14771 9.8366 2.45231L8.88599 3.40444L3.92392 2.69492C3.80654 2.67791 3.68682 2.68849 3.57425 2.72584C3.46168 2.76319 3.35936 2.82627 3.27543 2.91007L0.223728 5.96177C0.141589 6.04383 0.0792615 6.14355 0.0414936 6.25334C0.00372579 6.36312 -0.00848623 6.48008 0.00578784 6.59531C0.0200619 6.71053 0.0604455 6.82098 0.123862 6.91823C0.187279 7.01548 0.272056 7.09698 0.371735 7.15651L3.34715 8.94176L2.51251 9.7764C2.44146 9.84727 2.38509 9.93146 2.34663 10.0241C2.30817 10.1168 2.28837 10.2162 2.28837 10.3166C2.28837 10.4169 2.30817 10.5163 2.34663 10.609C2.38509 10.7016 2.44146 10.7858 2.51251 10.8567L4.80129 13.1455C4.87222 13.2164 4.95643 13.2727 5.04911 13.3111C5.14179 13.3495 5.24112 13.3692 5.34144 13.3692C5.44175 13.3692 5.54109 13.3495 5.63377 13.3111C5.72644 13.2727 5.81066 13.2164 5.88159 13.1455C5.95252 13.0745 6.00879 12.9903 6.04718 12.8977C6.08557 12.805 6.10533 12.7056 6.10533 12.6053C6.10533 12.505 6.08557 12.4057 6.04718 12.313C6.00879 12.2203 5.95252 12.1361 5.88159 12.0652L4.13144 10.3181L10.9169 3.53414ZM14.6476 19.0063L13.1675 16.539L16.2452 13.4629L16.7396 16.9143L14.6476 19.0063ZM4.46102 7.83094L7.53714 4.75482L4.08566 4.26044L1.99524 6.35086L4.46102 7.83094ZM2.82836 14.6729C2.89929 14.602 2.95558 14.5179 2.99401 14.4253C3.03243 14.3327 3.05225 14.2335 3.05232 14.1333C3.05239 14.033 3.03272 13.9337 2.99442 13.8411C2.95612 13.7484 2.89995 13.6643 2.82912 13.5933C2.75829 13.5224 2.67418 13.4661 2.58159 13.4277C2.489 13.3892 2.38975 13.3694 2.28951 13.3694C2.18926 13.3693 2.08999 13.389 1.99735 13.4273C1.9047 13.4656 1.82051 13.5217 1.74958 13.5926L0.223728 15.1184C0.0806728 15.2617 0.000385796 15.4559 0.000528872 15.6583C0.000671948 15.8608 0.0812334 16.0549 0.224491 16.198C0.367748 16.341 0.561966 16.4213 0.764419 16.4212C0.966872 16.421 1.16098 16.3404 1.30403 16.1972L2.82988 14.6713L2.82836 14.6729ZM5.11714 16.9616C5.19 16.8913 5.24813 16.8071 5.28811 16.714C5.32809 16.6209 5.34914 16.5208 5.35002 16.4195C5.3509 16.3182 5.3316 16.2177 5.29324 16.124C5.25488 16.0302 5.19823 15.945 5.12659 15.8734C5.05496 15.8018 4.96978 15.7451 4.87602 15.7068C4.78226 15.6684 4.68179 15.6491 4.58049 15.65C4.47919 15.6509 4.37908 15.6719 4.286 15.7119C4.19292 15.7519 4.10874 15.81 4.03836 15.8829L0.986654 18.9346C0.843599 19.0778 0.763312 19.272 0.763455 19.4745C0.763598 19.6769 0.84416 19.8711 0.987417 20.0141C1.13067 20.1572 1.32489 20.2374 1.52735 20.2373C1.7298 20.2372 1.9239 20.1566 2.06696 20.0133L5.11866 16.9616H5.11714ZM7.40592 19.2504C7.47685 19.1796 7.53314 19.0955 7.57156 19.0029C7.60999 18.9103 7.62981 18.8111 7.62988 18.7108C7.62995 18.6106 7.61027 18.5113 7.57198 18.4186C7.53368 18.326 7.47751 18.2418 7.40668 18.1709C7.33584 18.0999 7.25173 18.0437 7.15915 18.0052C7.06656 17.9668 6.96731 17.947 6.86707 17.9469C6.76682 17.9468 6.66754 17.9665 6.5749 18.0048C6.48226 18.0431 6.39807 18.0993 6.32714 18.1701L4.80129 19.696C4.65823 19.8392 4.57794 20.0334 4.57809 20.2359C4.57823 20.4383 4.65879 20.6325 4.80205 20.7755C4.94531 20.9186 5.13952 20.9988 5.34198 20.9987C5.54443 20.9986 5.73853 20.918 5.88159 20.7747L7.40744 19.2489L7.40592 19.2504ZM13.7336 9.17064C14.2391 9.17064 14.7238 8.96985 15.0812 8.61244C15.4386 8.25504 15.6394 7.77029 15.6394 7.26485C15.6394 6.7594 15.4386 6.27466 15.0812 5.91725C14.7238 5.55985 14.2391 5.35906 13.7336 5.35906C13.2282 5.35906 12.7434 5.55985 12.386 5.91725C12.0286 6.27466 11.8278 6.7594 11.8278 7.26485C11.8278 7.77029 12.0286 8.25504 12.386 8.61244C12.7434 8.96985 13.2282 9.17064 13.7336 9.17064Z" fill="white"/>
</svg>
