<svg width="23" height="23" viewBox="0 0 23 23" fill="none" xmlns="http://www.w3.org/2000/svg">
<path d="M19.1649 22H3.82651C3.07742 21.9994 2.35914 21.7018 1.82925 21.1723C1.29936 20.6428 1.00113 19.9247 1 19.1756V3.82651C1.00057 3.07704 1.29854 2.35845 1.82849 1.8285C2.35844 1.29855 3.07705 1.00057 3.82651 1H19.1649C19.9144 1.00057 20.633 1.29855 21.163 1.8285C21.6929 2.35845 21.9909 3.07704 21.9915 3.82651V19.1671C21.992 19.5387 21.9193 19.9068 21.7776 20.2504C21.6358 20.5939 21.4277 20.9062 21.1652 21.1693C20.9027 21.4323 20.591 21.6411 20.2478 21.7836C19.9045 21.9262 19.5366 21.9997 19.1649 22ZM3.82651 1.81673C3.29176 1.81559 2.77836 2.02648 2.39883 2.40321C2.0193 2.77993 1.8046 3.29176 1.80177 3.82651V19.1671C1.80234 19.7022 2.01516 20.2152 2.39355 20.5936C2.77194 20.972 3.28498 21.1848 3.8201 21.1854H19.1585C19.6936 21.1848 20.2067 20.972 20.5851 20.5936C20.9635 20.2152 21.1763 19.7022 21.1769 19.1671V3.82651C21.1763 3.29139 20.9635 2.77836 20.5851 2.39997C20.2067 2.02158 19.6936 1.80876 19.1585 1.80819L3.82651 1.81673Z" fill="white"/>
<path d="M5.75932 18.9062C5.65271 18.9062 5.55047 18.8639 5.47509 18.7885C5.39971 18.7131 5.35736 18.6109 5.35736 18.5043V4.4893C5.36478 4.38748 5.41047 4.29226 5.48523 4.22275C5.55999 4.15323 5.6583 4.11459 5.76039 4.11459C5.86247 4.11459 5.96078 4.15323 6.03554 4.22275C6.11031 4.29226 6.15599 4.38748 6.16341 4.4893V18.5043C6.16341 18.5572 6.15294 18.6097 6.13261 18.6586C6.11227 18.7075 6.08248 18.7519 6.04492 18.7893C6.00737 18.8266 5.96281 18.8562 5.91379 18.8763C5.86478 18.8963 5.81228 18.9065 5.75932 18.9062Z" fill="white"/>
<path d="M19.3018 16.9606H3.69395C3.63856 16.9646 3.58293 16.9572 3.53053 16.9388C3.47813 16.9204 3.4301 16.8914 3.38942 16.8535C3.34875 16.8157 3.3163 16.7699 3.29412 16.719C3.27193 16.6681 3.26049 16.6131 3.26049 16.5576C3.26049 16.502 3.27193 16.4471 3.29412 16.3962C3.3163 16.3453 3.34875 16.2995 3.38942 16.2617C3.4301 16.2238 3.47813 16.1948 3.53053 16.1764C3.58293 16.1579 3.63856 16.1505 3.69395 16.1546H19.3018C19.3572 16.1505 19.4128 16.1579 19.4652 16.1764C19.5176 16.1948 19.5656 16.2238 19.6063 16.2617C19.647 16.2995 19.6794 16.3453 19.7016 16.3962C19.7238 16.4471 19.7352 16.502 19.7352 16.5576C19.7352 16.6131 19.7238 16.6681 19.7016 16.719C19.6794 16.7699 19.647 16.8157 19.6063 16.8535C19.5656 16.8914 19.5176 16.9204 19.4652 16.9388C19.4128 16.9572 19.3572 16.9646 19.3018 16.9606Z" fill="white"/>
<path d="M5.75931 16.9606C5.69051 16.9601 5.62291 16.9424 5.56261 16.9093C5.46945 16.8567 5.40094 16.7693 5.37208 16.6663C5.34322 16.5633 5.35638 16.4531 5.40867 16.3598L6.95235 13.5931C7.0355 13.441 7.15301 13.3104 7.29555 13.2116C7.43808 13.1129 7.60169 13.0488 7.77336 13.0244C7.94462 12.9978 8.11972 13.0109 8.28508 13.0628C8.45045 13.1147 8.60164 13.204 8.72694 13.3237L8.87019 13.4627C8.937 13.5241 9.02544 13.5564 9.11607 13.5525C9.1609 13.55 9.20473 13.5382 9.24483 13.518C9.28492 13.4977 9.32042 13.4695 9.34912 13.4349L10.6918 11.8292C10.7911 11.7114 10.913 11.6147 11.0504 11.545C11.1878 11.4752 11.3378 11.4337 11.4915 11.423C11.6471 11.4117 11.8034 11.4326 11.9505 11.4845C12.0977 11.5363 12.2326 11.6181 12.3467 11.7245L12.6952 12.0473C12.729 12.0783 12.7689 12.1018 12.8123 12.1165C12.8558 12.1313 12.9018 12.1369 12.9475 12.1329C12.9936 12.1289 13.0383 12.115 13.0785 12.0921C13.1187 12.0692 13.1535 12.0379 13.1805 12.0003L14.2367 10.5699C14.335 10.4367 14.4611 10.3266 14.6064 10.2473C14.7517 10.1679 14.9126 10.1213 15.0778 10.1108C15.243 10.1002 15.4085 10.1258 15.5628 10.1859C15.717 10.246 15.8562 10.3392 15.9707 10.4588C16.0074 10.4971 16.0528 10.526 16.103 10.5431C16.1532 10.5602 16.2068 10.565 16.2593 10.5571C16.3117 10.549 16.3613 10.5282 16.4038 10.4965C16.4462 10.4648 16.4803 10.4232 16.5031 10.3753L17.7859 7.72204C17.8065 7.67051 17.8376 7.62379 17.8771 7.58478C17.9166 7.54578 17.9637 7.51533 18.0155 7.49534C18.0673 7.47535 18.1226 7.46624 18.1781 7.46859C18.2335 7.47093 18.2879 7.48469 18.3378 7.50899C18.3878 7.53328 18.4321 7.56758 18.4682 7.60978C18.5043 7.65199 18.5312 7.70118 18.5475 7.75427C18.5637 7.80736 18.5688 7.86323 18.5625 7.91838C18.5561 7.97353 18.5385 8.02678 18.5107 8.07482L17.2279 10.7282C17.1482 10.8931 17.0297 11.0363 16.8826 11.1454C16.7354 11.2545 16.564 11.3264 16.383 11.3548C16.2021 11.3831 16.0169 11.3672 15.8434 11.3083C15.67 11.2495 15.5133 11.1494 15.387 11.0168C15.3537 10.9823 15.3133 10.9555 15.2687 10.9382C15.224 10.9208 15.1761 10.9133 15.1283 10.9163C15.0804 10.9192 15.0338 10.9326 14.9917 10.9555C14.9495 10.9784 14.913 11.0103 14.8845 11.0489L13.8283 12.4792C13.734 12.6082 13.6134 12.7157 13.4744 12.7945C13.3355 12.8734 13.1814 12.9219 13.0223 12.9368C12.8632 12.9515 12.7028 12.9327 12.5514 12.8815C12.4 12.8303 12.2611 12.7478 12.1436 12.6396L11.7951 12.3167C11.7624 12.2865 11.724 12.2631 11.6821 12.2481C11.6402 12.233 11.5957 12.2266 11.5513 12.2291C11.5068 12.2318 11.4634 12.2436 11.4236 12.2638C11.3839 12.2841 11.3488 12.3123 11.3204 12.3467L9.97771 13.9524C9.87812 14.0716 9.75511 14.1692 9.61629 14.239C9.47747 14.3088 9.3258 14.3493 9.17067 14.3582C9.01554 14.367 8.86025 14.3439 8.71442 14.2903C8.56858 14.2366 8.43531 14.1536 8.32285 14.0464L8.17746 13.9096C8.14135 13.8748 8.09772 13.8488 8.04994 13.8335C8.00217 13.8183 7.95152 13.8142 7.90192 13.8216C7.85233 13.8291 7.8051 13.8478 7.7639 13.8764C7.7227 13.905 7.68863 13.9427 7.66432 13.9866L6.12065 16.7532C6.0853 16.8176 6.03288 16.8711 5.96913 16.9077C5.90539 16.9443 5.83279 16.9626 5.75931 16.9606Z" fill="white"/>
<path d="M19.1649 22H3.82651C3.07742 21.9994 2.35914 21.7018 1.82925 21.1723C1.29936 20.6428 1.00113 19.9247 1 19.1756V3.82651C1.00057 3.07704 1.29854 2.35845 1.82849 1.8285C2.35844 1.29855 3.07705 1.00057 3.82651 1H19.1649C19.9144 1.00057 20.633 1.29855 21.163 1.8285C21.6929 2.35845 21.9909 3.07704 21.9915 3.82651V19.1671C21.992 19.5387 21.9193 19.9068 21.7776 20.2504C21.6358 20.5939 21.4277 20.9062 21.1652 21.1693C20.9027 21.4323 20.591 21.6411 20.2478 21.7836C19.9045 21.9262 19.5366 21.9997 19.1649 22ZM3.82651 1.81673C3.29176 1.81559 2.77836 2.02648 2.39883 2.40321C2.0193 2.77993 1.8046 3.29176 1.80177 3.82651V19.1671C1.80234 19.7022 2.01516 20.2152 2.39355 20.5936C2.77194 20.972 3.28498 21.1848 3.8201 21.1854H19.1585C19.6936 21.1848 20.2067 20.972 20.5851 20.5936C20.9635 20.2152 21.1763 19.7022 21.1769 19.1671V3.82651C21.1763 3.29139 20.9635 2.77836 20.5851 2.39997C20.2067 2.02158 19.6936 1.80876 19.1585 1.80819L3.82651 1.81673Z" stroke="white" stroke-width="0.6"/>
<path d="M5.75932 18.9062C5.65271 18.9062 5.55047 18.8639 5.47509 18.7885C5.39971 18.7131 5.35736 18.6109 5.35736 18.5043V4.4893C5.36478 4.38748 5.41047 4.29226 5.48523 4.22275C5.55999 4.15323 5.6583 4.11459 5.76039 4.11459C5.86247 4.11459 5.96078 4.15323 6.03554 4.22275C6.11031 4.29226 6.15599 4.38748 6.16341 4.4893V18.5043C6.16341 18.5572 6.15294 18.6097 6.13261 18.6586C6.11227 18.7075 6.08248 18.7519 6.04492 18.7893C6.00737 18.8266 5.96281 18.8562 5.91379 18.8763C5.86478 18.8963 5.81228 18.9065 5.75932 18.9062Z" stroke="white" stroke-width="0.6"/>
<path d="M19.3018 16.9606H3.69395C3.63856 16.9646 3.58293 16.9572 3.53053 16.9388C3.47813 16.9204 3.4301 16.8914 3.38942 16.8535C3.34875 16.8157 3.3163 16.7699 3.29412 16.719C3.27193 16.6681 3.26049 16.6131 3.26049 16.5576C3.26049 16.502 3.27193 16.4471 3.29412 16.3962C3.3163 16.3453 3.34875 16.2995 3.38942 16.2617C3.4301 16.2238 3.47813 16.1948 3.53053 16.1764C3.58293 16.1579 3.63856 16.1505 3.69395 16.1546H19.3018C19.3572 16.1505 19.4128 16.1579 19.4652 16.1764C19.5176 16.1948 19.5656 16.2238 19.6063 16.2617C19.647 16.2995 19.6794 16.3453 19.7016 16.3962C19.7238 16.4471 19.7352 16.502 19.7352 16.5576C19.7352 16.6131 19.7238 16.6681 19.7016 16.719C19.6794 16.7699 19.647 16.8157 19.6063 16.8535C19.5656 16.8914 19.5176 16.9204 19.4652 16.9388C19.4128 16.9572 19.3572 16.9646 19.3018 16.9606Z" stroke="white" stroke-width="0.6"/>
<path d="M5.75931 16.9606C5.69051 16.9601 5.62291 16.9424 5.56261 16.9093C5.46945 16.8567 5.40094 16.7693 5.37208 16.6663C5.34322 16.5633 5.35638 16.4531 5.40867 16.3598L6.95235 13.5931C7.0355 13.441 7.15301 13.3104 7.29555 13.2116C7.43808 13.1129 7.60169 13.0488 7.77336 13.0244C7.94462 12.9978 8.11972 13.0109 8.28508 13.0628C8.45045 13.1147 8.60164 13.204 8.72694 13.3237L8.87019 13.4627C8.937 13.5241 9.02544 13.5564 9.11607 13.5525C9.1609 13.55 9.20473 13.5382 9.24483 13.518C9.28492 13.4977 9.32042 13.4695 9.34912 13.4349L10.6918 11.8292C10.7911 11.7114 10.913 11.6147 11.0504 11.545C11.1878 11.4752 11.3378 11.4337 11.4915 11.423C11.6471 11.4117 11.8034 11.4326 11.9505 11.4845C12.0977 11.5363 12.2326 11.6181 12.3467 11.7245L12.6952 12.0473C12.729 12.0783 12.7689 12.1018 12.8123 12.1165C12.8558 12.1313 12.9018 12.1369 12.9475 12.1329C12.9936 12.1289 13.0383 12.115 13.0785 12.0921C13.1187 12.0692 13.1535 12.0379 13.1805 12.0003L14.2367 10.5699C14.335 10.4367 14.4611 10.3266 14.6064 10.2473C14.7517 10.1679 14.9126 10.1213 15.0778 10.1108C15.243 10.1002 15.4085 10.1258 15.5628 10.1859C15.717 10.246 15.8562 10.3392 15.9707 10.4588C16.0074 10.4971 16.0528 10.526 16.103 10.5431C16.1532 10.5602 16.2068 10.565 16.2593 10.5571C16.3117 10.549 16.3613 10.5282 16.4038 10.4965C16.4462 10.4648 16.4803 10.4232 16.5031 10.3753L17.7859 7.72204C17.8065 7.67051 17.8376 7.62379 17.8771 7.58478C17.9166 7.54578 17.9637 7.51533 18.0155 7.49534C18.0673 7.47535 18.1226 7.46624 18.1781 7.46859C18.2335 7.47093 18.2879 7.48469 18.3378 7.50899C18.3878 7.53328 18.4321 7.56758 18.4682 7.60978C18.5043 7.65199 18.5312 7.70118 18.5475 7.75427C18.5637 7.80736 18.5688 7.86323 18.5625 7.91838C18.5561 7.97353 18.5385 8.02678 18.5107 8.07482L17.2279 10.7282C17.1482 10.8931 17.0297 11.0363 16.8826 11.1454C16.7354 11.2545 16.564 11.3264 16.383 11.3548C16.2021 11.3831 16.0169 11.3672 15.8434 11.3083C15.67 11.2495 15.5133 11.1494 15.387 11.0168C15.3537 10.9823 15.3133 10.9555 15.2687 10.9382C15.224 10.9208 15.1761 10.9133 15.1283 10.9163C15.0804 10.9192 15.0338 10.9326 14.9917 10.9555C14.9495 10.9784 14.913 11.0103 14.8845 11.0489L13.8283 12.4792C13.734 12.6082 13.6134 12.7157 13.4744 12.7945C13.3355 12.8734 13.1814 12.9219 13.0223 12.9368C12.8632 12.9515 12.7028 12.9327 12.5514 12.8815C12.4 12.8303 12.2611 12.7478 12.1436 12.6396L11.7951 12.3167C11.7624 12.2865 11.724 12.2631 11.6821 12.2481C11.6402 12.233 11.5957 12.2266 11.5513 12.2291C11.5068 12.2318 11.4634 12.2436 11.4236 12.2638C11.3839 12.2841 11.3488 12.3123 11.3204 12.3467L9.97771 13.9524C9.87812 14.0716 9.75511 14.1692 9.61629 14.239C9.47747 14.3088 9.3258 14.3493 9.17067 14.3582C9.01554 14.367 8.86025 14.3439 8.71442 14.2903C8.56858 14.2366 8.43531 14.1536 8.32285 14.0464L8.17746 13.9096C8.14135 13.8748 8.09772 13.8488 8.04994 13.8335C8.00217 13.8183 7.95152 13.8142 7.90192 13.8216C7.85233 13.8291 7.8051 13.8478 7.7639 13.8764C7.7227 13.905 7.68863 13.9427 7.66432 13.9866L6.12065 16.7532C6.0853 16.8176 6.03288 16.8711 5.96913 16.9077C5.90539 16.9443 5.83279 16.9626 5.75931 16.9606Z" stroke="white" stroke-width="0.6"/>
</svg>
