<svg width="21" height="26" viewBox="0 0 21 26" fill="none" xmlns="http://www.w3.org/2000/svg">
<path d="M6.16821 17.6386H1.47977C1.35253 17.6386 1.2305 17.588 1.14053 17.4981C1.05056 17.4081 1.00001 17.2861 1.00001 17.1588V10.6504C0.99967 10.5873 1.01185 10.5247 1.03584 10.4664C1.05983 10.408 1.09516 10.355 1.13978 10.3104C1.1844 10.2658 1.23742 10.2304 1.29578 10.2064C1.35414 10.1825 1.41667 10.1703 1.47977 10.1706H6.16821C6.23109 10.1706 6.29336 10.183 6.35142 10.2072C6.40949 10.2313 6.46221 10.2667 6.50656 10.3113C6.5509 10.3559 6.586 10.4088 6.60983 10.4669C6.63367 10.5251 6.64576 10.5875 6.64543 10.6504V17.1588C6.64543 17.2856 6.59523 17.4073 6.5058 17.4972C6.41638 17.5871 6.29501 17.638 6.16821 17.6386ZM1.95699 16.6791H5.68845V11.1276H1.95699V16.6791Z" fill="white"/>
<path d="M12.9686 12.9603H8.27001C8.14277 12.9603 8.02074 12.9098 7.93077 12.8198C7.8408 12.7298 7.79025 12.6078 7.79025 12.4806V5.97208C7.79025 5.84484 7.8408 5.72281 7.93077 5.63284C8.02074 5.54287 8.14277 5.49232 8.27001 5.49232H12.9584C13.0857 5.49232 13.2077 5.54287 13.2977 5.63284C13.3877 5.72281 13.4382 5.84484 13.4382 5.97208V12.4806C13.4382 12.6061 13.3891 12.7266 13.3013 12.8163C13.2135 12.906 13.0941 12.9576 12.9686 12.9603ZM8.75992 12.0008H12.4888V6.4493H8.75992V12.0008Z" fill="white"/>
<path d="M19.769 22.7992H15.0806C14.9538 22.7985 14.8324 22.7477 14.743 22.6578C14.6535 22.5679 14.6033 22.4462 14.6033 22.3194V15.8109C14.603 15.748 14.6151 15.6857 14.6389 15.6275C14.6628 15.5694 14.6979 15.5165 14.7422 15.4719C14.7866 15.4273 14.8393 15.3919 14.8973 15.3678C14.9554 15.3436 15.0177 15.3312 15.0806 15.3312H19.769C19.8321 15.3309 19.8946 15.343 19.953 15.367C20.0113 15.391 20.0644 15.4263 20.109 15.4709C20.1536 15.5156 20.1889 15.5686 20.2129 15.627C20.2369 15.6853 20.2491 15.7478 20.2488 15.8109V22.3194C20.2488 22.4467 20.1982 22.5687 20.1082 22.6587C20.0183 22.7486 19.8962 22.7992 19.769 22.7992ZM15.5603 21.8396H19.2918V16.2882H15.5603V21.8396Z" fill="white"/>
<path d="M3.82272 11.1276C3.69592 11.1276 3.57427 11.0774 3.48437 10.9879C3.39447 10.8985 3.34363 10.7772 3.34296 10.6504V1.51211C3.34296 1.44911 3.35537 1.38673 3.37948 1.32852C3.40359 1.27031 3.43893 1.21742 3.48348 1.17287C3.52803 1.12832 3.58091 1.09296 3.63912 1.06885C3.69733 1.04474 3.75972 1.03235 3.82272 1.03235C3.88573 1.03235 3.94811 1.04474 4.00632 1.06885C4.06452 1.09296 4.11741 1.12832 4.16196 1.17287C4.20651 1.21742 4.24185 1.27031 4.26596 1.32852C4.29007 1.38673 4.30248 1.44911 4.30248 1.51211V10.6504C4.30181 10.7772 4.25096 10.8985 4.16106 10.9879C4.07116 11.0774 3.94952 11.1276 3.82272 11.1276Z" fill="white"/>
<path d="M3.82272 25C3.69548 25 3.57345 24.9494 3.48348 24.8594C3.3935 24.7695 3.34296 24.6474 3.34296 24.5202V17.1588C3.34296 17.0958 3.35537 17.0335 3.37948 16.9753C3.40359 16.9171 3.43893 16.8641 3.48348 16.8196C3.52803 16.775 3.58091 16.7397 3.63912 16.7156C3.69733 16.6915 3.75972 16.6791 3.82272 16.6791C3.88573 16.6791 3.94811 16.6915 4.00632 16.7156C4.06452 16.7397 4.11741 16.775 4.16196 16.8196C4.20651 16.8641 4.24185 16.9171 4.26596 16.9753C4.29007 17.0335 4.30248 17.0958 4.30248 17.1588V24.5202C4.30248 24.6474 4.25193 24.7695 4.16196 24.8594C4.07199 24.9494 3.94996 25 3.82272 25Z" fill="white"/>
<path d="M10.6257 25C10.4984 25 10.3764 24.9494 10.2864 24.8594C10.1964 24.7695 10.1459 24.6474 10.1459 24.5202V12.4806C10.1411 12.4148 10.1499 12.3487 10.1718 12.2865C10.1937 12.2243 10.2281 12.1673 10.273 12.119C10.3179 12.0707 10.3723 12.0322 10.4328 12.0058C10.4932 11.9795 10.5584 11.9659 10.6244 11.9659C10.6903 11.9659 10.7556 11.9795 10.816 12.0058C10.8765 12.0322 10.9308 12.0707 10.9757 12.119C11.0206 12.1673 11.0551 12.2243 11.077 12.2865C11.0988 12.3487 11.1077 12.4148 11.1029 12.4806V24.5202C11.1029 24.647 11.0527 24.7687 10.9633 24.8586C10.8738 24.9485 10.7524 24.9993 10.6257 25Z" fill="white"/>
<path d="M10.6257 6.4493C10.5628 6.44964 10.5004 6.43753 10.4422 6.4137C10.3841 6.38987 10.3311 6.35477 10.2866 6.31042C10.242 6.26607 10.2066 6.21337 10.1825 6.1553C10.1583 6.09724 10.1459 6.03496 10.1459 5.97208V1.51465C10.1411 1.44889 10.1499 1.38282 10.1718 1.32062C10.1937 1.25841 10.2281 1.20137 10.273 1.15307C10.3179 1.10478 10.3723 1.06628 10.4328 1.03994C10.4932 1.0136 10.5584 1 10.6244 1C10.6903 1 10.7556 1.0136 10.816 1.03994C10.8765 1.06628 10.9308 1.10478 10.9757 1.15307C11.0206 1.20137 11.0551 1.25841 11.077 1.32062C11.0988 1.38282 11.1077 1.44889 11.1029 1.51465V5.97208C11.1029 6.09865 11.0526 6.22003 10.9631 6.30952C10.8736 6.39902 10.7522 6.4493 10.6257 6.4493Z" fill="white"/>
<path d="M17.426 16.2882C17.2992 16.2882 17.1776 16.238 17.0877 16.1485C16.9978 16.0591 16.947 15.9377 16.9463 15.8109V1.51465C16.9463 1.38741 16.9968 1.26536 17.0868 1.17538C17.1768 1.08541 17.2988 1.03489 17.426 1.03489C17.5533 1.03489 17.6753 1.08541 17.7653 1.17538C17.8553 1.26536 17.9058 1.38741 17.9058 1.51465V15.8109C17.9051 15.9377 17.8543 16.0591 17.7644 16.1485C17.6745 16.238 17.5528 16.2882 17.426 16.2882Z" fill="white"/>
<path d="M17.426 25C17.2988 25 17.1768 24.9494 17.0868 24.8594C16.9968 24.7695 16.9463 24.6474 16.9463 24.5202V22.3194C16.9463 22.1922 16.9968 22.0702 17.0868 21.9802C17.1768 21.8902 17.2988 21.8396 17.426 21.8396C17.5533 21.8396 17.6753 21.8902 17.7653 21.9802C17.8553 22.0702 17.9058 22.1922 17.9058 22.3194V24.5202C17.9058 24.6474 17.8553 24.7695 17.7653 24.8594C17.6753 24.9494 17.5533 25 17.426 25Z" fill="white"/>
<path d="M6.16821 17.6386H1.47977C1.35253 17.6386 1.2305 17.588 1.14053 17.4981C1.05056 17.4081 1.00001 17.2861 1.00001 17.1588V10.6504C0.99967 10.5873 1.01185 10.5247 1.03584 10.4664C1.05983 10.408 1.09516 10.355 1.13978 10.3104C1.1844 10.2658 1.23742 10.2304 1.29578 10.2064C1.35414 10.1825 1.41667 10.1703 1.47977 10.1706H6.16821C6.23109 10.1706 6.29336 10.183 6.35142 10.2072C6.40949 10.2313 6.46221 10.2667 6.50656 10.3113C6.5509 10.3559 6.586 10.4088 6.60983 10.4669C6.63367 10.5251 6.64576 10.5875 6.64543 10.6504V17.1588C6.64543 17.2856 6.59523 17.4073 6.5058 17.4972C6.41638 17.5871 6.29501 17.638 6.16821 17.6386ZM1.95699 16.6791H5.68845V11.1276H1.95699V16.6791Z" stroke="white" stroke-width="0.6"/>
<path d="M12.9686 12.9603H8.27001C8.14277 12.9603 8.02074 12.9098 7.93077 12.8198C7.8408 12.7298 7.79025 12.6078 7.79025 12.4806V5.97208C7.79025 5.84484 7.8408 5.72281 7.93077 5.63284C8.02074 5.54287 8.14277 5.49232 8.27001 5.49232H12.9584C13.0857 5.49232 13.2077 5.54287 13.2977 5.63284C13.3877 5.72281 13.4382 5.84484 13.4382 5.97208V12.4806C13.4382 12.6061 13.3891 12.7266 13.3013 12.8163C13.2135 12.906 13.0941 12.9576 12.9686 12.9603ZM8.75992 12.0008H12.4888V6.4493H8.75992V12.0008Z" stroke="white" stroke-width="0.6"/>
<path d="M19.769 22.7992H15.0806C14.9538 22.7985 14.8324 22.7477 14.743 22.6578C14.6535 22.5679 14.6033 22.4462 14.6033 22.3194V15.8109C14.603 15.748 14.6151 15.6857 14.6389 15.6275C14.6628 15.5694 14.6979 15.5165 14.7422 15.4719C14.7866 15.4273 14.8393 15.3919 14.8973 15.3678C14.9554 15.3436 15.0177 15.3312 15.0806 15.3312H19.769C19.8321 15.3309 19.8946 15.343 19.953 15.367C20.0113 15.391 20.0644 15.4263 20.109 15.4709C20.1536 15.5156 20.1889 15.5686 20.2129 15.627C20.2369 15.6853 20.2491 15.7478 20.2488 15.8109V22.3194C20.2488 22.4467 20.1982 22.5687 20.1082 22.6587C20.0183 22.7486 19.8962 22.7992 19.769 22.7992ZM15.5603 21.8396H19.2918V16.2882H15.5603V21.8396Z" stroke="white" stroke-width="0.6"/>
<path d="M3.82272 11.1276C3.69592 11.1276 3.57427 11.0774 3.48437 10.9879C3.39447 10.8985 3.34363 10.7772 3.34296 10.6504V1.51211C3.34296 1.44911 3.35537 1.38673 3.37948 1.32852C3.40359 1.27031 3.43893 1.21742 3.48348 1.17287C3.52803 1.12832 3.58091 1.09296 3.63912 1.06885C3.69733 1.04474 3.75972 1.03235 3.82272 1.03235C3.88573 1.03235 3.94811 1.04474 4.00632 1.06885C4.06452 1.09296 4.11741 1.12832 4.16196 1.17287C4.20651 1.21742 4.24185 1.27031 4.26596 1.32852C4.29007 1.38673 4.30248 1.44911 4.30248 1.51211V10.6504C4.30181 10.7772 4.25096 10.8985 4.16106 10.9879C4.07116 11.0774 3.94952 11.1276 3.82272 11.1276Z" stroke="white" stroke-width="0.6"/>
<path d="M3.82272 25C3.69548 25 3.57345 24.9494 3.48348 24.8594C3.3935 24.7695 3.34296 24.6474 3.34296 24.5202V17.1588C3.34296 17.0958 3.35537 17.0335 3.37948 16.9753C3.40359 16.9171 3.43893 16.8641 3.48348 16.8196C3.52803 16.775 3.58091 16.7397 3.63912 16.7156C3.69733 16.6915 3.75972 16.6791 3.82272 16.6791C3.88573 16.6791 3.94811 16.6915 4.00632 16.7156C4.06452 16.7397 4.11741 16.775 4.16196 16.8196C4.20651 16.8641 4.24185 16.9171 4.26596 16.9753C4.29007 17.0335 4.30248 17.0958 4.30248 17.1588V24.5202C4.30248 24.6474 4.25193 24.7695 4.16196 24.8594C4.07199 24.9494 3.94996 25 3.82272 25Z" stroke="white" stroke-width="0.6"/>
<path d="M10.6257 25C10.4984 25 10.3764 24.9494 10.2864 24.8594C10.1964 24.7695 10.1459 24.6474 10.1459 24.5202V12.4806C10.1411 12.4148 10.1499 12.3487 10.1718 12.2865C10.1937 12.2243 10.2281 12.1673 10.273 12.119C10.3179 12.0707 10.3723 12.0322 10.4328 12.0058C10.4932 11.9795 10.5584 11.9659 10.6244 11.9659C10.6903 11.9659 10.7556 11.9795 10.816 12.0058C10.8765 12.0322 10.9308 12.0707 10.9757 12.119C11.0206 12.1673 11.0551 12.2243 11.077 12.2865C11.0988 12.3487 11.1077 12.4148 11.1029 12.4806V24.5202C11.1029 24.647 11.0527 24.7687 10.9633 24.8586C10.8738 24.9485 10.7524 24.9993 10.6257 25Z" stroke="white" stroke-width="0.6"/>
<path d="M10.6257 6.4493C10.5628 6.44964 10.5004 6.43753 10.4422 6.4137C10.3841 6.38987 10.3311 6.35477 10.2866 6.31042C10.242 6.26607 10.2066 6.21337 10.1825 6.1553C10.1583 6.09724 10.1459 6.03496 10.1459 5.97208V1.51465C10.1411 1.44889 10.1499 1.38282 10.1718 1.32062C10.1937 1.25841 10.2281 1.20137 10.273 1.15307C10.3179 1.10478 10.3723 1.06628 10.4328 1.03994C10.4932 1.0136 10.5584 1 10.6244 1C10.6903 1 10.7556 1.0136 10.816 1.03994C10.8765 1.06628 10.9308 1.10478 10.9757 1.15307C11.0206 1.20137 11.0551 1.25841 11.077 1.32062C11.0988 1.38282 11.1077 1.44889 11.1029 1.51465V5.97208C11.1029 6.09865 11.0526 6.22003 10.9631 6.30952C10.8736 6.39902 10.7522 6.4493 10.6257 6.4493Z" stroke="white" stroke-width="0.6"/>
<path d="M17.426 16.2882C17.2992 16.2882 17.1776 16.238 17.0877 16.1485C16.9978 16.0591 16.947 15.9377 16.9463 15.8109V1.51465C16.9463 1.38741 16.9968 1.26536 17.0868 1.17538C17.1768 1.08541 17.2988 1.03489 17.426 1.03489C17.5533 1.03489 17.6753 1.08541 17.7653 1.17538C17.8553 1.26536 17.9058 1.38741 17.9058 1.51465V15.8109C17.9051 15.9377 17.8543 16.0591 17.7644 16.1485C17.6745 16.238 17.5528 16.2882 17.426 16.2882Z" stroke="white" stroke-width="0.6"/>
<path d="M17.426 25C17.2988 25 17.1768 24.9494 17.0868 24.8594C16.9968 24.7695 16.9463 24.6474 16.9463 24.5202V22.3194C16.9463 22.1922 16.9968 22.0702 17.0868 21.9802C17.1768 21.8902 17.2988 21.8396 17.426 21.8396C17.5533 21.8396 17.6753 21.8902 17.7653 21.9802C17.8553 22.0702 17.9058 22.1922 17.9058 22.3194V24.5202C17.9058 24.6474 17.8553 24.7695 17.7653 24.8594C17.6753 24.9494 17.5533 25 17.426 25Z" stroke="white" stroke-width="0.6"/>
</svg>
