<svg xmlns="http://www.w3.org/2000/svg" id="a6f145cc-09e7-470a-aac0-2d02d2918cfa" data-name="Layer 1" width="128.705" height="212" viewBox="0 0 128.705 212"><defs><style>.b5b6db06-adfe-4028-8dff-d90421ecf66b{fill-rule:evenodd;}</style></defs><path class="b5b6db06-adfe-4028-8dff-d90421ecf66b" d="M109.77,0V72.74a42.2886,42.2886,0,0,1-5.8062,22.168A40.9446,40.9446,0,0,1,88.0936,110.07a47.0483,47.0483,0,0,1-22.8379,5.47,43.8036,43.8036,0,0,1-21.7733-5.47A42.2258,42.2258,0,0,1,27.8055,94.908a41.7381,41.7381,0,0,1-5.903-22.168V0H1V73.7q0,18.0419,8.032,31.9557A57.92,57.92,0,0,0,31.58,127.6308a63.7687,63.7687,0,0,0,22.4167,7.3075V196H32v16H99V196H76.7089V134.9263a63.8146,63.8146,0,0,0,22.4166-7.2955,57.9381,57.9381,0,0,0,22.5475-21.9755q8.0293-13.913,8.032-31.9557V0Z" transform="translate(-1)"></path></svg>