<svg xmlns="http://www.w3.org/2000/svg" width="23.652" height="16.93" viewBox="0 0 23.652 16.93">
  <g id="Community" transform="translate(0.25 -7.75)">
    <path id="Path_1" data-name="Path 1" d="M43.256,59.428a2.661,2.661,0,1,1,2.686-2.661A2.677,2.677,0,0,1,43.256,59.428Zm0-4.575a1.914,1.914,0,1,0,1.939,1.914A1.929,1.929,0,0,0,43.256,54.852Zm0,0" transform="translate(-38.677 -43.58)" fill="#fff" stroke="#fff" stroke-width="0.5"/>
    <path id="Path_2" data-name="Path 2" d="M5.66,188.594H.976a.974.974,0,0,1-.976-.97V186.4a4.589,4.589,0,0,1,7.313-3.639.374.374,0,0,1-.443.6A3.842,3.842,0,0,0,.747,186.4v1.221a.226.226,0,0,0,.229.223H5.66a.373.373,0,1,1,0,.747Zm0,0" transform="translate(0 -165.379)" fill="#fff" stroke="#fff" stroke-width="0.5"/>
    <path id="Path_3" data-name="Path 3" d="M339.511,182.542h-4.684a.373.373,0,0,1,0-.747h4.684a.226.226,0,0,0,.229-.223v-1.221a3.815,3.815,0,0,0-3.833-3.788,3.867,3.867,0,0,0-2.426.856.373.373,0,1,1-.47-.581,4.617,4.617,0,0,1,2.9-1.022,4.562,4.562,0,0,1,4.579,4.535v1.221a.974.974,0,0,1-.976.97Zm0,0" transform="translate(-317.336 -159.61)" fill="#fff" stroke="#fff" stroke-width="0.5"/>
    <path id="Path_4" data-name="Path 4" d="M343.037,55.475a2.661,2.661,0,1,1,2.686-2.661A2.676,2.676,0,0,1,343.037,55.475Zm0-4.575a1.914,1.914,0,1,0,1.939,1.914A1.929,1.929,0,0,0,343.037,50.9Zm0,0" transform="translate(-324.465 -39.812)" fill="#fff" stroke="#fff" stroke-width="0.5"/>
    <path id="Path_5" data-name="Path 5" d="M124.619,164.988H114.483a1.218,1.218,0,0,1-1.221-1.212v-1.718a6.289,6.289,0,0,1,12.578,0v1.718a1.218,1.218,0,0,1-1.221,1.212Zm-5.068-8.409a5.518,5.518,0,0,0-5.542,5.48v1.718a.47.47,0,0,0,.474.465h10.136a.47.47,0,0,0,.474-.465v-1.718a5.517,5.517,0,0,0-5.542-5.48Zm0,0" transform="translate(-107.975 -140.558)" fill="#fff" stroke="#fff" stroke-width="0.5"/>
    <path id="Path_6" data-name="Path 6" d="M174.733,6.837a3.439,3.439,0,0,1-3.451-3.419,3.451,3.451,0,0,1,6.9,0,3.439,3.439,0,0,1-3.451,3.419Zm0-6.091a2.691,2.691,0,0,0-2.7,2.672,2.7,2.7,0,0,0,5.409,0,2.691,2.691,0,0,0-2.7-2.672Zm0,0" transform="translate(-163.287 8)" fill="#fff" stroke="#fff" stroke-width="0.5"/>
  </g>
</svg>
