<svg width="160" height="160" viewBox="0 0 160 160" fill="none" xmlns="http://www.w3.org/2000/svg">
<circle cx="80" cy="80" r="78" fill="white" stroke="#C2CAD2" stroke-width="4"/>
<circle cx="80" cy="80" r="69" fill="white" stroke="#C2CAD2" stroke-width="2"/>
<path d="M79.4348 82.0435C78.8825 82.0435 78.4348 82.4912 78.4348 83.0435C78.4348 83.5958 78.8825 84.0435 79.4348 84.0435V82.0435ZM83.4783 80C83.4783 79.4477 83.0305 79 82.4783 79C81.926 79 81.4783 79.4477 81.4783 80H83.4783ZM81.4783 98.2609C81.4783 98.8132 81.926 99.2609 82.4783 99.2609C83.0305 99.2609 83.4783 98.8132 83.4783 98.2609H81.4783ZM88.0435 80C88.0435 79.4477 87.5958 79 87.0435 79C86.4912 79 86.0435 79.4477 86.0435 80H88.0435ZM88.0435 96.7391C88.0435 96.1868 87.5958 95.7391 87.0435 95.7391C86.4912 95.7391 86.0435 96.1868 86.0435 96.7391H88.0435ZM86.0435 98.2609C86.0435 98.8132 86.4912 99.2609 87.0435 99.2609C87.5958 99.2609 88.0435 98.8132 88.0435 98.2609H86.0435ZM79.4348 94.2174C78.8825 94.2174 78.4348 94.6651 78.4348 95.2174C78.4348 95.7697 78.8825 96.2174 79.4348 96.2174V94.2174ZM78.913 108.32C78.913 107.767 78.4653 107.32 77.913 107.32C77.3608 107.32 76.913 107.767 76.913 108.32H78.913ZM77.913 115V116H78.913V115H77.913ZM68.7826 115H67.7826V116H68.7826V115ZM69.7826 108.32C69.7826 107.767 69.3349 107.32 68.7826 107.32C68.2303 107.32 67.7826 107.767 67.7826 108.32H69.7826ZM100.217 105.839C100.217 105.287 99.7697 104.839 99.2174 104.839C98.6651 104.839 98.2174 105.287 98.2174 105.839H100.217ZM99.2174 115V116H100.217V115H99.2174ZM90.087 115H89.087V116H90.087V115ZM91.087 108.03C91.087 107.478 90.6392 107.03 90.087 107.03C89.5347 107.03 89.087 107.478 89.087 108.03H91.087ZM66.4183 62.3078C66.7828 62.7227 67.4147 62.7636 67.8296 62.3991C68.2445 62.0345 68.2853 61.4027 67.9208 60.9878L66.4183 62.3078ZM59.6522 58.2087V57.2087H58.6522V58.2087H59.6522ZM58.6522 70.2152C58.6522 70.7675 59.0999 71.2152 59.6522 71.2152C60.2045 71.2152 60.6522 70.7675 60.6522 70.2152H58.6522ZM67.49 66.3828C68.0039 66.1806 68.2567 65.6 68.0545 65.0861C67.8523 64.5721 67.2718 64.3194 66.7578 64.5216L67.49 66.3828ZM54.4935 78.4783V79.4783L55.4514 78.7652L54.4935 78.4783ZM49 78.4783V77.4783L48 78.4783H49ZM49 92.2804H48L49 93.2804V92.2804ZM52.6065 92.2804L53.5878 92.4729L52.6065 91.2804V92.2804ZM51.8304 96.237L50.8491 96.0445L51.8304 97.237V96.237ZM55.5739 96.237L56.4844 95.8233L55.5739 95.237V96.237ZM68.2652 107.802L68.577 106.852L68.5752 106.851L68.2652 107.802ZM91.4565 108.7L91.3768 107.703L91.3735 107.703L91.4565 108.7ZM95.8848 107.817L95.5804 106.865L95.5778 106.866L95.8848 107.817ZM100.085 105.915L99.5736 105.056L99.5674 105.059L100.085 105.915ZM103.276 67.9204C102.849 67.5701 102.219 67.6322 101.868 68.0592C101.518 68.4862 101.58 69.1163 102.007 69.4666L103.276 67.9204ZM83.2239 68.85C82.6716 68.85 82.2239 69.2977 82.2239 69.85C82.2239 70.4023 82.6716 70.85 83.2239 70.85V68.85ZM90.7717 69.9261L90.6887 70.9226L90.692 70.9229L90.7717 69.9261ZM95.2 70.8087L94.893 71.7604L94.8956 71.7612L95.2 70.8087ZM98.8826 73.5666C99.3552 73.8524 99.97 73.7009 100.256 73.2283C100.541 72.7557 100.39 72.1409 99.9174 71.8551L98.8826 73.5666ZM82.5696 65.0522C83.1218 65.0522 83.5696 64.6045 83.5696 64.0522C83.5696 63.4999 83.1218 63.0522 82.5696 63.0522V65.0522ZM76.3 63.0522C75.7477 63.0522 75.3 63.4999 75.3 64.0522C75.3 64.6045 75.7477 65.0522 76.3 65.0522V63.0522ZM57.4196 84.2152C57.4196 84.7675 57.8673 85.2152 58.4196 85.2152C58.9719 85.2152 59.4196 84.7675 59.4196 84.2152H57.4196ZM63.6891 84.2152C63.6891 84.7675 64.1368 85.2152 64.6891 85.2152C65.2414 85.2152 65.6891 84.7675 65.6891 84.2152H63.6891ZM67.1391 58.2087V57.2087H66.1391V58.2087H67.1391ZM67.1391 75.4348H66.1391V76.4348H67.1391V75.4348ZM75.8435 75.4348V76.4348H76.388L76.6834 75.9774L75.8435 75.4348ZM77.6087 68.9978H78.6087L78.6087 68.9953L77.6087 68.9978ZM78.9435 45C78.9435 44.4477 78.4958 44 77.9435 44C77.3912 44 76.9435 44.4477 76.9435 45H78.9435ZM76.9435 54.1304C76.9435 54.6827 77.3912 55.1304 77.9435 55.1304C78.4958 55.1304 78.9435 54.6827 78.9435 54.1304H76.9435ZM82.2957 50.5804C82.8479 50.5804 83.2957 50.1327 83.2957 49.5804C83.2957 49.0282 82.8479 48.5804 82.2957 48.5804V50.5804ZM73.5761 48.5804C73.0238 48.5804 72.5761 49.0282 72.5761 49.5804C72.5761 50.1327 73.0238 50.5804 73.5761 50.5804V48.5804ZM93.5565 54.1913V55.1913V54.1913ZM92.5565 64.7978C92.5565 65.3501 93.0042 65.7978 93.5565 65.7978C94.1088 65.7978 94.5565 65.3501 94.5565 64.7978H92.5565ZM94.5565 59.487C94.5565 58.9347 94.1088 58.487 93.5565 58.487C93.0042 58.487 92.5565 58.9347 92.5565 59.487H94.5565ZM82.4783 90.1304H87.0435V88.1304H82.4783V90.1304ZM87.0435 90.1304C89.2697 90.1304 91.087 88.3132 91.087 86.087H89.087C89.087 87.2086 88.1651 88.1304 87.0435 88.1304V90.1304ZM91.087 86.087C91.087 83.8608 89.2697 82.0435 87.0435 82.0435V84.0435C88.1651 84.0435 89.087 84.9653 89.087 86.087H91.087ZM87.0435 82.0435H79.4348V84.0435H87.0435V82.0435ZM81.4783 80V98.2609H83.4783V80H81.4783ZM88.0435 83.0435V80H86.0435V83.0435H88.0435ZM86.0435 96.7391V98.2609H88.0435V96.7391H86.0435ZM82.4783 90.1304H88.5652V88.1304H82.4783V90.1304ZM88.5652 90.1304C89.6868 90.1304 90.6087 91.0523 90.6087 92.1739H92.6087C92.6087 89.9477 90.7914 88.1304 88.5652 88.1304V90.1304ZM90.6087 92.1739C90.6087 93.2955 89.6868 94.2174 88.5652 94.2174V96.2174C90.7914 96.2174 92.6087 94.4001 92.6087 92.1739H90.6087ZM88.5652 94.2174H79.4348V96.2174H88.5652V94.2174ZM76.913 108.32V115H78.913V108.32H76.913ZM77.913 114H68.7826V116H77.913V114ZM69.7826 115V108.32H67.7826V115H69.7826ZM98.2174 105.839V115H100.217V105.839H98.2174ZM99.2174 114H90.087V116H99.2174V114ZM91.087 115V108.03H89.087V115H91.087ZM67.9208 60.9878C65.8711 58.6548 62.9095 57.1935 59.637 57.1935V59.1935C62.2992 59.1935 64.7246 60.38 66.4183 62.3078L67.9208 60.9878ZM59.637 57.1935C59.63 57.1935 59.6219 57.1935 59.613 57.1937C59.6042 57.1939 59.5931 57.1942 59.5805 57.1948C59.5741 57.1951 59.5667 57.1955 59.5586 57.196C59.5505 57.1966 59.541 57.1973 59.5303 57.1983C59.5197 57.1993 59.5067 57.2007 59.4919 57.2027C59.4774 57.2046 59.4586 57.2074 59.4367 57.2116C59.4256 57.2137 59.4129 57.2163 59.3989 57.2195C59.385 57.2227 59.3688 57.2267 59.3507 57.2318C59.3328 57.2368 59.3115 57.2434 59.2876 57.2518C59.264 57.2602 59.2352 57.2714 59.2029 57.2863C59.1866 57.2938 59.1687 57.3026 59.1496 57.3128C59.1305 57.323 59.1095 57.335 59.0871 57.3491C59.0648 57.3632 59.0403 57.3799 59.0146 57.3996C58.9888 57.4192 58.9608 57.4426 58.9319 57.4701C58.903 57.4976 58.8723 57.53 58.8418 57.568C58.8112 57.606 58.7804 57.6501 58.7517 57.7006C58.7229 57.7512 58.6966 57.8078 58.6752 57.8701C58.6537 57.9326 58.6379 57.9988 58.6291 58.0677C58.6202 58.1367 58.6188 58.2053 58.624 58.2723C58.6292 58.3392 58.6408 58.4019 58.6567 58.4598C58.6883 58.5748 58.7358 58.6674 58.7803 58.7366C58.8028 58.7715 58.8255 58.8019 58.8468 58.8281C58.8682 58.8542 58.889 58.877 58.9083 58.8966C58.9276 58.9161 58.946 58.9333 58.9629 58.9481C58.9799 58.9629 58.996 58.976 59.0107 58.9873C59.0398 59.0098 59.0664 59.0277 59.0882 59.0414C59.1103 59.0553 59.1302 59.0667 59.147 59.0758C59.1639 59.0849 59.1793 59.0925 59.1924 59.0988C59.2057 59.1051 59.2177 59.1105 59.2283 59.115C59.249 59.1239 59.267 59.1308 59.2809 59.1358C59.2949 59.1409 59.3073 59.1451 59.3173 59.1483C59.3274 59.1516 59.3364 59.1543 59.344 59.1565C59.3515 59.1587 59.3584 59.1606 59.3643 59.1622C59.3758 59.1653 59.3857 59.1678 59.3931 59.1696C59.4007 59.1714 59.4073 59.173 59.4126 59.1741C59.4228 59.1764 59.4314 59.1782 59.4365 59.1793C59.4417 59.1803 59.4466 59.1813 59.4484 59.1817C59.4513 59.1822 59.4512 59.1822 59.4506 59.1821C59.45 59.182 59.4458 59.1811 59.4396 59.1797C59.4363 59.179 59.4316 59.1779 59.4258 59.1765C59.4201 59.1751 59.4119 59.1731 59.4018 59.1704C59.3967 59.169 59.3906 59.1673 59.3837 59.1652C59.3768 59.1632 59.3685 59.1607 59.3589 59.1576C59.3495 59.1546 59.3377 59.1507 59.3242 59.1457C59.3109 59.1409 59.2933 59.1342 59.273 59.1255C59.2627 59.121 59.2508 59.1157 59.2377 59.1095C59.2247 59.1034 59.2096 59.0958 59.1928 59.0868C59.1762 59.0778 59.1564 59.0665 59.1345 59.0527C59.1128 59.039 59.0863 59.0212 59.0573 58.9988C59.0426 58.9875 59.0266 58.9745 59.0097 58.9597C58.9928 58.9449 58.9744 58.9278 58.9552 58.9083C58.936 58.8888 58.9152 58.866 58.8938 58.8399C58.8725 58.8138 58.8498 58.7834 58.8274 58.7485C58.7829 58.6794 58.7354 58.587 58.7038 58.472C58.688 58.4141 58.6763 58.3514 58.6712 58.2846C58.666 58.2176 58.6674 58.1491 58.6763 58.0802C58.6851 58.0112 58.7009 57.9451 58.7223 57.8826C58.7437 57.8203 58.77 57.7638 58.7988 57.7132C58.8274 57.6628 58.8583 57.6187 58.8888 57.5807C58.9193 57.5428 58.95 57.5104 58.9789 57.4829C59.0077 57.4554 59.0357 57.4321 59.0614 57.4125C59.0871 57.3929 59.1116 57.3762 59.1338 57.3622C59.1561 57.3481 59.1771 57.3361 59.1961 57.3259C59.2151 57.3157 59.233 57.307 59.2492 57.2995C59.2814 57.2847 59.3101 57.2735 59.3335 57.2652C59.3572 57.2568 59.3783 57.2503 59.396 57.2453C59.4139 57.2403 59.4299 57.2364 59.4436 57.2332C59.4573 57.2301 59.4698 57.2275 59.4806 57.2255C59.5019 57.2214 59.5201 57.2187 59.5339 57.2169C59.548 57.215 59.5602 57.2137 59.57 57.2128C59.5798 57.2119 59.5884 57.2112 59.5955 57.2107C59.6026 57.2102 59.6088 57.2099 59.6141 57.2096C59.6244 57.2092 59.6328 57.2089 59.6385 57.2088C59.6443 57.2087 59.649 57.2087 59.6522 57.2087V59.2087C59.6591 59.2087 59.6672 59.2086 59.6762 59.2085C59.6849 59.2083 59.696 59.208 59.7086 59.2074C59.7151 59.2071 59.7224 59.2067 59.7306 59.2061C59.7386 59.2056 59.7482 59.2049 59.7589 59.2038C59.7694 59.2028 59.7824 59.2015 59.7972 59.1995C59.8117 59.1976 59.8306 59.1947 59.8524 59.1906C59.8635 59.1885 59.8762 59.1859 59.8902 59.1827C59.9041 59.1795 59.9204 59.1755 59.9384 59.1704C59.9563 59.1654 59.9777 59.1588 60.0015 59.1504C60.0251 59.142 60.054 59.1308 60.0862 59.1159C60.1025 59.1084 60.1204 59.0996 60.1396 59.0894C60.1587 59.0792 60.1797 59.0671 60.202 59.053C60.2243 59.0389 60.2488 59.0222 60.2746 59.0026C60.3003 58.9829 60.3283 58.9596 60.3572 58.9321C60.3861 58.9046 60.4168 58.8721 60.4473 58.8342C60.4779 58.7962 60.5088 58.7521 60.5375 58.7016C60.5662 58.651 60.5925 58.5944 60.6139 58.5321C60.6354 58.4696 60.6512 58.4034 60.66 58.3344C60.6689 58.2654 60.6704 58.1969 60.6652 58.1299C60.66 58.063 60.6483 58.0003 60.6325 57.9424C60.6009 57.8273 60.5534 57.7348 60.5088 57.6656C60.4863 57.6307 60.4636 57.6002 60.4423 57.5741C60.4209 57.548 60.4001 57.5252 60.3808 57.5056C60.3616 57.486 60.3431 57.4689 60.3262 57.4541C60.3092 57.4393 60.2932 57.4262 60.2784 57.4149C60.2493 57.3924 60.2227 57.3745 60.2009 57.3607C60.1789 57.3468 60.1589 57.3355 60.1421 57.3264C60.1252 57.3173 60.1099 57.3096 60.0967 57.3034C60.0834 57.2971 60.0714 57.2917 60.0608 57.2872C60.0401 57.2783 60.0221 57.2714 60.0083 57.2664C59.9942 57.2612 59.9818 57.2571 59.9718 57.2539C59.9617 57.2506 59.9527 57.2479 59.9452 57.2457C59.9376 57.2435 59.9307 57.2416 59.9249 57.24C59.9133 57.2368 59.9034 57.2344 59.896 57.2326C59.8884 57.2307 59.8818 57.2292 59.8765 57.228C59.8664 57.2258 59.8577 57.224 59.8526 57.2229C59.8475 57.2219 59.8426 57.2209 59.8407 57.2205C59.8378 57.2199 59.838 57.22 59.8386 57.2201C59.8391 57.2202 59.8434 57.2211 59.8495 57.2225C59.8528 57.2232 59.8575 57.2243 59.8633 57.2257C59.869 57.227 59.8773 57.2291 59.8873 57.2318C59.8924 57.2332 59.8985 57.2349 59.9054 57.2369C59.9123 57.2389 59.9207 57.2415 59.9302 57.2445C59.9396 57.2476 59.9514 57.2515 59.965 57.2564C59.9783 57.2613 59.9958 57.268 60.0161 57.2767C60.0265 57.2811 60.0383 57.2864 60.0514 57.2926C60.0644 57.2988 60.0796 57.3064 60.0963 57.3154C60.1129 57.3244 60.1328 57.3357 60.1547 57.3495C60.1764 57.3632 60.2028 57.381 60.2318 57.4034C60.2465 57.4147 60.2625 57.4277 60.2794 57.4425C60.2963 57.4572 60.3147 57.4743 60.334 57.4939C60.3532 57.5134 60.374 57.5362 60.3953 57.5623C60.4166 57.5883 60.4393 57.6188 60.4618 57.6536C60.5063 57.7228 60.5537 57.8152 60.5853 57.9302C60.6012 57.988 60.6128 58.0507 60.618 58.1176C60.6232 58.1845 60.6217 58.2531 60.6129 58.322C60.604 58.391 60.5882 58.4571 60.5668 58.5196C60.5454 58.5819 60.5191 58.6384 60.4903 58.689C60.4617 58.7394 60.4308 58.7835 60.4003 58.8214C60.3698 58.8594 60.3391 58.8918 60.3103 58.9193C60.2814 58.9467 60.2534 58.97 60.2277 58.9896C60.202 59.0093 60.1776 59.0259 60.1553 59.04C60.133 59.0541 60.1121 59.0661 60.093 59.0763C60.074 59.0865 60.0561 59.0952 60.0399 59.1027C60.0078 59.1175 59.9791 59.1287 59.9556 59.137C59.932 59.1453 59.9108 59.1518 59.8931 59.1568C59.8753 59.1618 59.8592 59.1658 59.8456 59.169C59.8318 59.1721 59.8193 59.1747 59.8085 59.1767C59.7872 59.1807 59.769 59.1834 59.7552 59.1853C59.7411 59.1872 59.7289 59.1885 59.7192 59.1894C59.7093 59.1903 59.7007 59.191 59.6937 59.1915C59.6866 59.1919 59.6803 59.1923 59.675 59.1925C59.6647 59.193 59.6564 59.1932 59.6507 59.1933C59.6448 59.1935 59.6401 59.1935 59.637 59.1935V57.1935ZM58.6522 58.2087V70.2152H60.6522V58.2087H58.6522ZM66.7578 64.5216C60.5408 66.9674 55.5743 71.3848 53.5355 78.1913L55.4514 78.7652C57.2779 72.6674 61.7157 68.6544 67.49 66.3828L66.7578 64.5216ZM54.4935 77.4783H49V79.4783H54.4935V77.4783ZM48 78.4783V92.2804H50V78.4783H48ZM49 93.2804H52.6065V91.2804H49V93.2804ZM51.6252 92.0879L50.8491 96.0445L52.8117 96.4294L53.5878 92.4729L51.6252 92.0879ZM51.8304 97.237H55.5739V95.237H51.8304V97.237ZM54.6635 96.6506C57.2684 102.385 62.0735 106.835 67.9552 108.753L68.5752 106.851C63.2569 105.117 58.8708 101.076 56.4844 95.8233L54.6635 96.6506ZM67.9534 108.752C70.0038 109.425 72.1939 109.776 74.4435 109.776V107.776C72.4018 107.776 70.4223 107.458 68.577 106.852L67.9534 108.752ZM89.7826 109.776C90.3808 109.776 90.9727 109.744 91.5396 109.697L91.3735 107.703C90.8447 107.748 90.3105 107.776 89.7826 107.776V109.776ZM91.5363 109.697C93.1378 109.569 94.7053 109.249 96.1918 108.769L95.5778 106.866C94.2338 107.299 92.8187 107.588 91.3768 107.703L91.5363 109.697ZM96.1892 108.77C97.7378 108.275 99.2247 107.604 100.602 106.771L99.5674 105.059C98.3274 105.809 96.984 106.416 95.5804 106.865L96.1892 108.77ZM100.596 106.775C107.247 102.819 111.707 95.3236 111.707 86.7717H109.707C109.707 94.6242 105.614 101.464 99.5736 105.056L100.596 106.775ZM111.707 86.7717V86.0413H109.707V86.7717H111.707ZM111.707 86.0413C111.707 78.694 108.421 72.1415 103.276 67.9204L102.007 69.4666C106.692 73.3106 109.707 79.2973 109.707 86.0413H111.707ZM83.2239 70.85H89.0978V68.85H83.2239V70.85ZM89.0978 70.85C89.6257 70.85 90.1599 70.8786 90.6887 70.9226L90.8548 68.9295C90.2879 68.8823 89.696 68.85 89.0978 68.85V70.85ZM90.692 70.9229C92.1339 71.0383 93.549 71.3269 94.893 71.7604L95.507 69.857C94.0206 69.3775 92.4531 69.0574 90.8515 68.9293L90.692 70.9229ZM94.8956 71.7612C96.2992 72.2098 97.6427 72.8169 98.8826 73.5666L99.9174 71.8551C98.5399 71.0222 97.053 70.3511 95.5044 69.8562L94.8956 71.7612ZM82.5696 63.0522H76.3V65.0522H82.5696V63.0522ZM59.4196 84.2152C59.4196 82.8915 60.4205 81.913 61.5543 81.913V79.913C59.2186 79.913 57.4196 81.8868 57.4196 84.2152H59.4196ZM61.5543 81.913C62.6882 81.913 63.6891 82.8915 63.6891 84.2152H65.6891C65.6891 81.8868 63.8901 79.913 61.5543 79.913V81.913ZM67.3065 57.1935C67.2506 57.1935 67.2022 57.1969 67.1663 57.2004C67.1312 57.2037 67.1005 57.2078 67.085 57.2099C67.0633 57.2128 67.0654 57.2124 67.0675 57.2122C67.0708 57.2119 67.0988 57.2087 67.1391 57.2087V59.2087C67.2023 59.2087 67.255 59.2036 67.2844 59.2004C67.3127 59.1973 67.3425 59.1932 67.3493 59.1923C67.3623 59.1906 67.3611 59.1909 67.3559 59.1914C67.3499 59.1919 67.332 59.1935 67.3065 59.1935V57.1935ZM66.1391 58.2087V75.4348H68.1391V58.2087H66.1391ZM67.1391 76.4348H75.8435V74.4348H67.1391V76.4348ZM76.6834 75.9774C77.9143 74.0721 78.6087 71.4117 78.6087 68.9978H76.6087C76.6087 71.0883 75.9944 73.3584 75.0035 74.8921L76.6834 75.9774ZM78.6087 68.9953C78.5922 62.5268 73.5807 57.1935 67.3065 57.1935V59.1935C72.3845 59.1935 76.5948 63.5384 76.6087 69.0004L78.6087 68.9953ZM76.9435 45V54.1304H78.9435V45H76.9435ZM82.2957 48.5804H73.5761V50.5804H82.2957V48.5804ZM100.12 62.1348C100.12 66.013 97.1423 69.0783 93.5565 69.0783V71.0783C98.3403 71.0783 102.12 67.0218 102.12 62.1348H100.12ZM93.5565 69.0783C89.9847 69.0783 86.9935 66.0116 86.9935 62.1348H84.9935C84.9935 67.0231 88.7893 71.0783 93.5565 71.0783V69.0783ZM86.9935 62.1348C86.9935 58.2566 89.9707 55.1913 93.5565 55.1913V53.1913C88.7728 53.1913 84.9935 57.2478 84.9935 62.1348H86.9935ZM93.5565 55.1913C97.1284 55.1913 100.12 58.2579 100.12 62.1348H102.12C102.12 57.2464 98.3238 53.1913 93.5565 53.1913V55.1913ZM94.5565 64.7978V59.487H92.5565V64.7978H94.5565ZM74.4435 109.776H89.7826V107.776H74.4435V109.776Z" fill="#C2CAD2"/>
</svg>
