<svg width="160" height="160" viewBox="0 0 160 160" fill="none" xmlns="http://www.w3.org/2000/svg">
<circle cx="80" cy="80" r="78" fill="white" stroke="#1F3C61" stroke-width="4"/>
<circle cx="80" cy="80" r="69" fill="white" stroke="#1F3C61" stroke-width="2"/>
<path d="M80 72.7895L68.9474 66.3421V53.4474L80 47L91.0526 53.4474V66.3421L80 72.7895ZM80 72.7895V59.8947M69.1684 53.3184L80 59.6368L90.8316 53.3184M56.0526 111.474L45 105.026V92.1316L56.0526 85.6842L67.1053 92.1316V105.026L56.0526 111.474ZM56.0526 111.474V98.5789M45.2211 92.0026L56.0526 98.3211L66.8842 92.0026M103.947 113.316L92.8947 106.868V93.9737L103.947 87.5263L115 93.9737V106.868L103.947 113.316ZM103.947 113.316V100.421M93.1158 93.8447L103.947 100.163L114.779 93.8447M85.5263 70.9474L100.263 89.3684M74.4737 70.9474L61.5789 87.5263M67.1053 98.5789H92.8947" stroke="#48A9F5" stroke-width="2" stroke-miterlimit="10" stroke-linecap="round" stroke-linejoin="round"/>
</svg>
