<svg width="160" height="160" viewBox="0 0 160 160" fill="none" xmlns="http://www.w3.org/2000/svg">
<circle cx="80" cy="80" r="78" fill="white" stroke="#C2CAD2" stroke-width="4"/>
<circle cx="80" cy="80" r="69" fill="white" stroke="#C2CAD2" stroke-width="2"/>
<path d="M71.3111 72.8421C68.8071 70.5122 67.2427 67.1902 67.2427 63.501C67.2427 61.3094 67.796 59.2465 68.7689 57.4437C69.5488 55.9985 70.6004 54.7227 71.8548 53.6805M87.9496 73.4812C85.7699 75.2197 83.006 76.2595 80.0012 76.2595M80.0012 50.7425C83.9647 50.7425 87.506 52.5501 89.8455 55.3856C91.6651 57.5915 92.7597 60.4175 92.7597 63.501M78.1292 57.4437V69.5583M78.1292 57.4437H75.6991M78.1292 57.4437H81.2341V54.9754M78.1292 57.4437V54.9754M78.1292 69.5583H75.6991M78.1292 69.5583H81.2341V72.0265M78.1292 69.5583V72.0265M81.2723 57.4437C82.944 57.4437 84.3009 58.8006 84.3009 60.4723C84.3009 62.144 82.944 63.501 81.2723 63.501M81.2723 63.501H78.1292M81.2723 63.501C82.944 63.501 84.3009 64.8579 84.3009 66.5296C84.3009 68.2013 82.944 69.5583 81.2723 69.5583M73.2595 96.4942C73.2595 100.002 71.8429 103.179 69.5512 105.487M60.501 83.7357C64.257 83.7357 67.6338 85.3597 69.9685 87.9424M60.501 109.253C56.0963 109.253 52.2139 107.021 49.9222 103.627C48.5461 101.59 47.7425 99.1365 47.7425 96.4942C47.7425 94.0236 48.4436 91.7175 49.6598 89.7644M60.501 98.5499L55.3761 95.4878L60.501 87.1555L65.6258 95.4878L60.501 98.5499ZM60.501 98.5499V102.885M55.3761 97.5006L60.501 105.835L65.6258 97.5006M109.403 87.7516C111.189 89.9456 112.258 92.7477 112.258 95.7978C112.258 99.4537 110.719 102.749 108.258 105.075M92.1897 85.3383C94.2597 83.8883 96.7804 83.0393 99.499 83.0393C100.756 83.0393 101.967 83.2206 103.114 83.5592M99.499 108.554C95.9767 108.554 92.7859 107.125 90.4775 104.817C88.169 102.509 86.7405 99.3178 86.7405 95.7955M95.2351 97.751L93.8448 103.405H105.611L106.808 99.6779H98.5308L99.6946 94.6436L102.716 93.6682L104.195 90.1221L100.462 91.3264L101.45 86.2182H97.8202L96.3297 92.6619L93.6683 93.5228L92.1921 97.0665L96.995 95.4592M95.5022 63.501C95.5022 72.0619 88.5621 79.0019 80.0012 79.0019C71.4402 79.0019 64.5002 72.0619 64.5002 63.501C64.5002 54.94 71.4402 48 80.0012 48C88.5621 48 95.5022 54.94 95.5022 63.501ZM76.0019 96.4942C76.0019 105.055 69.0619 111.995 60.501 111.995C51.94 111.995 45 105.055 45 96.4942C45 87.9332 51.94 80.9932 60.501 80.9932C69.0619 80.9932 76.0019 87.9332 76.0019 96.4942ZM115 95.7955C115 104.356 108.06 111.296 99.499 111.296C90.9381 111.296 83.9981 104.356 83.9981 95.7955C83.9981 87.2345 90.9381 80.2945 99.499 80.2945C108.06 80.2945 115 87.2345 115 95.7955Z" stroke="#C2CAD2" stroke-width="2" stroke-miterlimit="10" stroke-linecap="round" stroke-linejoin="round"/>
</svg>
