<svg width="160" height="160" viewBox="0 0 160 160" fill="none" xmlns="http://www.w3.org/2000/svg">
<circle cx="80" cy="80" r="78" fill="white" stroke="#1F3C61" stroke-width="4"/>
<circle cx="80" cy="80" r="69" fill="white" stroke="#1F3C61" stroke-width="2"/>
<path d="M102.848 63.9551C102.369 63.679 101.758 63.8429 101.482 64.3213C101.205 64.7996 101.369 65.4112 101.848 65.6872L102.848 63.9551ZM102.348 72.503L102.849 71.6378L102.848 71.6372L102.348 72.503ZM98.86 69.3326C98.3818 69.0563 97.7702 69.2199 97.4939 69.6981C97.2175 70.1763 97.3812 70.788 97.8593 71.0643L98.86 69.3326ZM95.7782 59.8728C95.3001 59.5962 94.6884 59.7596 94.4118 60.2377C94.1353 60.7157 94.2987 61.3275 94.7767 61.604L95.7782 59.8728ZM95.7772 75.2407C95.2988 74.9647 94.6872 75.1288 94.4113 75.6072C94.1353 76.0856 94.2993 76.6971 94.7777 76.9731L95.7772 75.2407ZM98.86 69.3374C98.3818 69.0611 97.7702 69.2247 97.4939 69.7029C97.2175 70.1811 97.3812 70.7927 97.8593 71.0691L98.86 69.3374ZM102.348 72.5078L101.847 73.3736L101.848 73.3739L102.348 72.5078ZM102.849 79.3244C102.371 79.0476 101.759 79.2105 101.482 79.6883C101.205 80.1662 101.368 80.7781 101.846 81.0549L102.849 79.3244ZM99.3597 59.3869C99.3597 58.8347 98.912 58.3869 98.3597 58.3869C97.8074 58.3869 97.3597 58.8347 97.3597 59.3869H99.3597ZM101.3 64.7927C101.3 65.345 101.748 65.7927 102.3 65.7927C102.852 65.7927 103.3 65.345 103.3 64.7927H101.3ZM103.3 61.6631C103.3 61.1108 102.852 60.6631 102.3 60.6631C101.748 60.6631 101.3 61.1108 101.3 61.6631H103.3ZM101.3 83.2909C101.3 83.8432 101.748 84.2909 102.3 84.2909C102.852 84.2909 103.3 83.8432 103.3 83.2909H101.3ZM103.3 80.1612C103.3 79.6089 102.852 79.1612 102.3 79.1612C101.748 79.1612 101.3 79.6089 101.3 80.1612H103.3ZM97.3597 81.0195C97.3597 81.5718 97.8074 82.0195 98.3597 82.0195C98.912 82.0195 99.3597 81.5718 99.3597 81.0195H97.3597ZM92.2927 106.087C91.8145 106.363 91.6506 106.975 91.9267 107.453C92.2029 107.931 92.8144 108.095 93.2927 107.819L92.2927 106.087ZM111.002 96.4402L111.502 97.3062L113.002 96.4402L111.502 95.5742L111.002 96.4402ZM97.8687 87.7026C97.3904 87.4265 96.7788 87.5903 96.5027 88.0686C96.2265 88.5469 96.3904 89.1585 96.8687 89.4346L97.8687 87.7026ZM106.427 99.6577C106.905 99.9343 107.517 99.7711 107.794 99.2931C108.07 98.8151 107.907 98.2033 107.429 97.9267L106.427 99.6577ZM103.185 95.4704C102.707 95.1937 102.095 95.357 101.819 95.8349C101.542 96.313 101.705 96.9247 102.183 97.2014L103.185 95.4704ZM102.355 102.006C102.834 102.282 103.445 102.118 103.721 101.639C103.997 101.161 103.833 100.549 103.355 100.273L102.355 102.006ZM99.1061 97.8217C98.6277 97.5457 98.0162 97.7097 97.7402 98.1881C97.4641 98.6665 97.6282 99.278 98.1065 99.554L99.1061 97.8217ZM98.282 104.358C98.7603 104.634 99.3719 104.47 99.6479 103.991C99.9239 103.513 99.7599 102.901 99.2815 102.625L98.282 104.358ZM95.0328 100.174C94.5544 99.8977 93.9429 100.062 93.6668 100.54C93.3908 101.018 93.5549 101.63 94.0332 101.906L95.0328 100.174ZM75.1054 70.8671H76.1054V70.2895L75.6051 70.0009L75.1054 70.8671ZM74.1054 84.6613C74.1054 85.2136 74.5531 85.6613 75.1054 85.6613C75.6577 85.6613 76.1054 85.2136 76.1054 84.6613H74.1054ZM67.6985 75.1443L67.1985 74.2783L66.6985 74.567V75.1443H67.6985ZM67.6985 106.863L67.1985 107.729L68.6985 108.595V106.863H67.6985ZM60.2917 102.586H59.2917V103.163L59.7916 103.452L60.2917 102.586ZM60.2917 70.8671L59.792 70.0009L59.2917 70.2895V70.8671H60.2917ZM67.6985 66.5947L68.1982 65.7284L67.6985 65.4402L67.1989 65.7284L67.6985 66.5947ZM62.5251 55.7831H63.5251V55.2055L63.0248 54.9169L62.5251 55.7831ZM61.5251 69.5821C61.5251 70.1343 61.9729 70.5821 62.5251 70.5821C63.0774 70.5821 63.5251 70.1343 63.5251 69.5821H61.5251ZM55.1183 60.0603L54.6182 59.1943L54.1183 59.483V60.0603H55.1183ZM55.1183 99.6742L54.6186 100.54L56.1183 101.405V99.6742H55.1183ZM80.2788 114.175L79.7791 115.041L80.2788 115.329L80.7785 115.041L80.2788 114.175ZM80.2788 89.9675L79.8021 89.0884L79.2788 89.3722V89.9675H80.2788ZM87.6857 85.9511H88.6857V85.3738L88.1857 85.0851L87.6857 85.9511ZM80.2788 81.6739L80.7789 80.8079L80.2788 80.5192L79.7787 80.8079L80.2788 81.6739ZM72.8719 85.9511L72.3719 85.0851L71.8719 85.3738V85.9511H72.8719ZM72.8719 109.902H71.8719V110.48L72.3723 110.769L72.8719 109.902ZM87.6857 109.902L88.1853 110.769L88.6857 110.48V109.902H87.6857ZM47.7114 95.4017H46.7114V95.9794L47.2118 96.268L47.7114 95.4017ZM47.7114 55.7831L47.2118 54.9169L46.7114 55.2055V55.7831H47.7114ZM55.1183 51.5107L55.6179 50.6444L55.1183 50.3562L54.6186 50.6444L55.1183 51.5107ZM61.9159 44.8596C61.4455 44.5702 60.8296 44.7169 60.5402 45.1872C60.2507 45.6576 60.3974 46.2735 60.8678 46.563L61.9159 44.8596ZM68.5047 50.0881H69.5047C69.5047 49.7408 69.3245 49.4184 69.0288 49.2364L68.5047 50.0881ZM68.5047 58.6709H67.5047C67.5047 59.0078 67.6743 59.322 67.9559 59.5069L68.5047 58.6709ZM80.3073 66.4192H81.3073C81.3073 66.0823 81.1377 65.7681 80.8561 65.5832L80.3073 66.4192ZM80.3073 72.9773H79.3073C79.3073 73.3135 79.4763 73.6272 79.757 73.8122L80.3073 72.9773ZM88.819 78.5869L89.2343 79.4966C89.6729 79.2964 89.9061 78.8118 89.7891 78.3442L88.819 78.5869ZM88.6842 73.9294C88.5502 73.3937 88.0071 73.0681 87.4714 73.2021C86.9356 73.3362 86.61 73.8792 86.7441 74.415L88.6842 73.9294ZM84.7477 79.3464C84.2453 79.5758 84.024 80.169 84.2533 80.6714C84.4827 81.1738 85.0759 81.3951 85.5783 81.1658L84.7477 79.3464ZM97.3597 62.5214V77.8851H99.3597V62.5214H97.3597ZM101.848 65.6872C102.744 66.2045 103.594 67.0635 104.218 68.0489C104.848 69.0423 105.189 70.0665 105.189 70.8813H107.189C107.189 69.5717 106.668 68.1776 105.908 66.9779C105.142 65.7701 104.071 64.6612 102.848 63.9551L101.848 65.6872ZM105.189 70.8813C105.189 71.6659 104.895 71.933 104.674 72.0266C104.381 72.1503 103.765 72.1686 102.849 71.6378L101.846 73.3683C103.05 74.0657 104.355 74.3329 105.452 73.8686C106.622 73.3742 107.189 72.2164 107.189 70.8813H105.189ZM102.848 71.6372L98.86 69.3326L97.8593 71.0643L101.847 73.3689L102.848 71.6372ZM94.7767 61.604L97.859 63.387L98.8604 61.6557L95.7782 59.8728L94.7767 61.604ZM98.8594 77.0189L95.7772 75.2407L94.7777 76.9731L97.86 78.7513L98.8594 77.0189ZM97.8593 71.0691L101.847 73.3736L102.848 71.642L98.86 69.3374L97.8593 71.0691ZM101.848 73.3739C102.744 73.8911 103.594 74.7501 104.218 75.7355C104.848 76.7289 105.189 77.7532 105.189 78.568H107.189C107.189 77.2584 106.668 75.8642 105.908 74.6645C105.142 73.4568 104.071 72.3479 102.848 71.6417L101.848 73.3739ZM105.189 78.568C105.189 79.3525 104.895 79.6197 104.674 79.7132C104.381 79.837 103.765 79.8552 102.849 79.3244L101.846 81.0549C103.05 81.7523 104.355 82.0195 105.452 81.5553C106.622 81.0608 107.189 79.903 107.189 78.568H105.189ZM99.3597 62.5214V59.3869H97.3597V62.5214H99.3597ZM103.3 64.7927V61.6631H101.3V64.7927H103.3ZM103.3 83.2909V80.1612H101.3V83.2909H103.3ZM99.3597 81.0195V77.8851H97.3597V81.0195H99.3597ZM93.2927 107.819L111.502 97.3062L110.502 95.5742L92.2927 106.087L93.2927 107.819ZM111.502 95.5742L97.8687 87.7026L96.8687 89.4346L110.502 97.3062L111.502 95.5742ZM107.429 97.9267L103.185 95.4704L102.183 97.2014L106.427 99.6577L107.429 97.9267ZM103.355 100.273L99.1061 97.8217L98.1065 99.554L102.355 102.006L103.355 100.273ZM99.2815 102.625L95.0328 100.174L94.0332 101.906L98.282 104.358L99.2815 102.625ZM74.1054 70.8671V84.6613H76.1054V70.8671H74.1054ZM74.6053 70.0011L67.1985 74.2783L68.1986 76.0103L75.6055 71.7331L74.6053 70.0011ZM66.6985 75.1443V106.863H68.6985V75.1443H66.6985ZM68.1986 105.997L60.7918 101.72L59.7916 103.452L67.1985 107.729L68.1986 105.997ZM61.2917 102.586V70.8671H59.2917V102.586H61.2917ZM60.7913 71.7333L68.1982 67.4609L67.1989 65.7284L59.792 70.0009L60.7913 71.7333ZM61.5251 55.7831V69.5821H63.5251V55.7831H61.5251ZM62.0251 54.9171L54.6182 59.1943L55.6184 60.9263L63.0252 56.6491L62.0251 54.9171ZM54.1183 60.0603V99.6742H56.1183V60.0603H54.1183ZM81.2788 114.175V89.9675H79.2788V114.175H81.2788ZM80.7555 90.8466L88.1623 86.8302L87.209 85.072L79.8021 89.0884L80.7555 90.8466ZM88.1857 85.0851L80.7789 80.8079L79.7787 82.5399L87.1856 86.8171L88.1857 85.0851ZM79.7787 80.8079L72.3719 85.0851L73.372 86.8171L80.7789 82.5399L79.7787 80.8079ZM71.8719 85.9511V109.902H73.8719V85.9511H71.8719ZM72.3723 110.769L79.7791 115.041L80.7785 113.309L73.3716 109.036L72.3723 110.769ZM80.7785 115.041L88.1853 110.769L87.186 109.036L79.7791 113.309L80.7785 115.041ZM88.6857 109.902L88.6857 85.9511H86.6857L86.6857 109.902H88.6857ZM67.1989 67.4609L74.6057 71.7333L75.6051 70.0009L68.1982 65.7284L67.1989 67.4609ZM55.6179 98.808L48.2111 94.5355L47.2118 96.268L54.6186 100.54L55.6179 98.808ZM48.7114 95.4017V55.7831H46.7114V95.4017H48.7114ZM48.2111 56.6493L55.6179 52.3769L54.6186 50.6444L47.2118 54.9169L48.2111 56.6493ZM54.6186 52.3769L62.0255 56.6493L63.0248 54.9169L55.6179 50.6444L54.6186 52.3769ZM60.8678 46.563L67.9806 50.9398L69.0288 49.2364L61.9159 44.8596L60.8678 46.563ZM67.5047 50.0881V58.6709H69.5047V50.0881H67.5047ZM67.9559 59.5069L79.7585 67.2552L80.8561 65.5832L69.0535 57.835L67.9559 59.5069ZM79.3073 66.4192V72.9773H81.3073V66.4192H79.3073ZM79.757 73.8122L88.2687 79.4219L89.3693 77.752L80.8576 72.1423L79.757 73.8122ZM89.7891 78.3442L88.6842 73.9294L86.7441 74.415L87.8489 78.8297L89.7891 78.3442ZM88.4037 77.6773L84.7477 79.3464L85.5783 81.1658L89.2343 79.4966L88.4037 77.6773Z" fill="#48A9F5"/>
</svg>
