<svg width="160" height="160" viewBox="0 0 160 160" fill="none" xmlns="http://www.w3.org/2000/svg">
<circle cx="80" cy="80" r="78" fill="white" stroke="#1F3C61" stroke-width="4"/>
<circle cx="80" cy="80" r="69" fill="white" stroke="#1F3C61" stroke-width="2"/>
<path d="M61.8731 83.2499L61.2081 82.503L61.2078 82.5033L61.8731 83.2499ZM77.3778 82.6988L77.9215 81.8595L77.9205 81.8589L77.3778 82.6988ZM79.7459 84.2329L80.2946 83.3968L80.2896 83.3936L79.7459 84.2329ZM77.6459 93.8097L77.3296 92.8609L77.3171 92.8653L77.6459 93.8097ZM45 93.0963L44.2929 92.3892C44.1054 92.5767 44 92.8311 44 93.0963C44 93.3615 44.1054 93.6158 44.2929 93.8034L45 93.0963ZM52.193 85.9032L52.9001 85.1961C52.5096 84.8056 51.8765 84.8056 51.4859 85.1961L52.193 85.9032ZM73.6037 107.314L74.3108 108.021C74.4983 107.833 74.6037 107.579 74.6037 107.314C74.6037 107.049 74.4983 106.794 74.3108 106.607L73.6037 107.314ZM66.4106 114.507L65.7035 115.214C66.094 115.605 66.7272 115.605 67.1177 115.214L66.4106 114.507ZM71.8968 103.55L71.1897 102.843L71.8968 103.55ZM74.1905 102.687L74.1205 103.684L74.1251 103.684L74.1905 102.687ZM90.3802 103.759L90.3139 104.757L90.347 104.759H90.3802V103.759ZM91.9739 103.282L92.5225 104.118L92.5442 104.104L92.565 104.089L91.9739 103.282ZM103.74 94.6587L103.164 93.8412L103.157 93.8466L103.149 93.8521L103.74 94.6587ZM105.378 92.9012L106.224 93.4345L106.229 93.4269L106.234 93.4192L105.378 92.9012ZM113.362 79.72L112.514 79.1899L112.506 79.202L113.362 79.72ZM113.466 78.9008L112.499 79.1553L112.505 79.1788L112.512 79.202L113.466 78.9008ZM112.945 78.2604L113.413 77.3766L113.406 77.3732L113.4 77.37L112.945 78.2604ZM111.604 77.5753L112.059 76.6848L112.059 76.6845L111.604 77.5753ZM103.159 79.5562L102.355 78.9613L102.355 78.9622L103.159 79.5562ZM99.4209 84.6201L100.221 85.2201L100.225 85.214L99.4209 84.6201ZM98.4379 85.4691L97.9638 84.5886L97.9636 84.5887L98.4379 85.4691ZM82.2332 69.8304H81.2332V70.8304H82.2332V69.8304ZM82.2332 54.9364V53.9364H81.2332V54.9364H82.2332ZM87.7014 51.9576C87.7014 51.4053 87.2537 50.9576 86.7014 50.9576C86.1491 50.9576 85.7014 51.4053 85.7014 51.9576H87.7014ZM85.7014 54.9364C85.7014 55.4887 86.1491 55.9364 86.7014 55.9364C87.2537 55.9364 87.7014 55.4887 87.7014 54.9364H85.7014ZM87.7014 69.8304C87.7014 69.2781 87.2537 68.8304 86.7014 68.8304C86.1491 68.8304 85.7014 69.2781 85.7014 69.8304H87.7014ZM85.7014 72.8092C85.7014 73.3615 86.1491 73.8092 86.7014 73.8092C87.2537 73.8092 87.7014 73.3615 87.7014 72.8092H85.7014ZM79.2544 53.9364C78.7021 53.9364 78.2544 54.3841 78.2544 54.9364C78.2544 55.4887 78.7021 55.9364 79.2544 55.9364V53.9364ZM85.212 55.9364C85.7643 55.9364 86.212 55.4887 86.212 54.9364C86.212 54.3841 85.7643 53.9364 85.212 53.9364V55.9364ZM79.2544 68.8304C78.7021 68.8304 78.2544 69.2781 78.2544 69.8304C78.2544 70.3827 78.7021 70.8304 79.2544 70.8304V68.8304ZM85.212 70.8304C85.7643 70.8304 86.212 70.3827 86.212 69.8304C86.212 69.2781 85.7643 68.8304 85.212 68.8304V70.8304ZM66.2002 105.986L64.7108 107.475L66.125 108.89L67.6144 107.4L66.2002 105.986ZM56.2383 89.6114L62.5385 83.9964L61.2078 82.5033L54.9076 88.1184L56.2383 89.6114ZM62.5381 83.9967C63.4412 83.1927 64.6191 82.7456 65.8349 82.7456V80.7456C64.1316 80.7456 62.4796 81.3709 61.2081 82.503L62.5381 83.9967ZM65.8349 82.7456H74.1309V80.7456H65.8349V82.7456ZM74.1309 82.7456C75.0883 82.7456 76.0313 83.0194 76.8351 83.5387L77.9205 81.8589C76.788 81.1271 75.4671 80.7456 74.1309 80.7456V82.7456ZM76.8341 83.5381L79.2022 85.0722L80.2896 83.3936L77.9215 81.8595L76.8341 83.5381ZM79.1973 85.0689C79.8436 85.493 80.6017 85.7095 81.3694 85.7095V83.7095C80.9753 83.7095 80.6015 83.5983 80.2946 83.3968L79.1973 85.0689ZM81.3694 85.7095H88.861V83.7095H81.3694V85.7095ZM88.861 85.7095C91.8417 85.7095 94.2506 88.1096 94.2506 91.0841H96.2506C96.2506 86.9989 92.9402 83.7095 88.861 83.7095V85.7095ZM94.2506 91.0841C94.2506 91.9544 93.5588 92.6459 92.7037 92.6459V94.6459C94.6785 94.6459 96.2506 93.0437 96.2506 91.0841H94.2506ZM92.7037 92.6459H78.6289V94.6459H92.7037V92.6459ZM78.6289 92.6459C78.1857 92.6459 77.7364 92.7254 77.3296 92.861L77.9621 94.7584C78.1809 94.6855 78.4168 94.6459 78.6289 94.6459V92.6459ZM77.3171 92.8653L74.9639 93.6845L75.6214 95.5733L77.9746 94.7541L77.3171 92.8653ZM45.7071 93.8034L52.9001 86.6103L51.4859 85.1961L44.2929 92.3892L45.7071 93.8034ZM51.4859 86.6103L72.8966 108.021L74.3108 106.607L52.9001 85.1961L51.4859 86.6103ZM72.8966 106.607L65.7035 113.8L67.1177 115.214L74.3108 108.021L72.8966 106.607ZM67.1177 113.8L45.7071 92.3892L44.2929 93.8034L65.7035 115.214L67.1177 113.8ZM71.323 105.538L72.6039 104.257L71.1897 102.843L69.9088 104.124L71.323 105.538ZM72.6039 104.257C73.012 103.849 73.5635 103.645 74.1205 103.684L74.2605 101.689C73.1195 101.609 72.0029 102.03 71.1897 102.843L72.6039 104.257ZM74.1251 103.684C76.1725 103.818 80.2195 104.086 83.7551 104.321C85.5228 104.438 87.1625 104.547 88.3603 104.627C88.9591 104.667 89.4476 104.699 89.7862 104.722C89.9556 104.733 90.0875 104.742 90.1771 104.748C90.2219 104.751 90.2561 104.753 90.2791 104.754C90.2906 104.755 90.2993 104.756 90.3051 104.756C90.308 104.756 90.3102 104.756 90.3117 104.757C90.3124 104.757 90.313 104.757 90.3133 104.757C90.3135 104.757 90.3136 104.757 90.3137 104.757C90.3138 104.757 90.3139 104.757 90.3802 103.759C90.4466 102.761 90.4465 102.761 90.4464 102.761C90.4464 102.761 90.4462 102.761 90.446 102.761C90.4457 102.761 90.4451 102.761 90.4444 102.761C90.4429 102.761 90.4407 102.761 90.4378 102.761C90.432 102.76 90.4233 102.76 90.4118 102.759C90.3888 102.757 90.3545 102.755 90.3098 102.752C90.2202 102.746 90.0883 102.737 89.9189 102.726C89.5802 102.704 89.0918 102.671 88.4929 102.631C87.295 102.552 85.6553 102.443 83.8875 102.325C80.3522 102.091 76.3042 101.823 74.2558 101.689L74.1251 103.684ZM90.3802 104.759C91.1409 104.759 91.8827 104.538 92.5225 104.118L91.4252 102.446C91.1119 102.652 90.7515 102.759 90.3802 102.759V104.759ZM92.565 104.089L104.331 95.4652L103.149 93.8521L91.3827 102.476L92.565 104.089ZM104.316 95.4762C105.094 94.9282 105.732 94.2151 106.224 93.4345L104.533 92.3679C104.161 92.9575 103.697 93.4657 103.164 93.8412L104.316 95.4762ZM106.234 93.4192L114.217 80.238L112.506 79.202L104.523 92.3831L106.234 93.4192ZM114.21 80.25C114.509 79.7712 114.6 79.1704 114.42 78.5997L112.512 79.202C112.512 79.2007 112.512 79.1979 112.512 79.195C112.512 79.1929 112.513 79.1913 112.514 79.19L114.21 80.25ZM114.433 78.6463C114.28 78.0645 113.885 77.627 113.413 77.3766L112.477 79.1442C112.494 79.1532 112.501 79.161 112.502 79.1623C112.502 79.1629 112.502 79.1624 112.501 79.1605C112.5 79.1586 112.499 79.1567 112.499 79.1553L114.433 78.6463ZM113.4 77.37L112.059 76.6848L111.149 78.4657L112.49 79.1508L113.4 77.37ZM112.059 76.6845C108.705 74.9737 104.598 75.9309 102.355 78.9613L103.963 80.1511C105.623 77.9089 108.664 77.198 111.15 78.466L112.059 76.6845ZM102.355 78.9622L98.6164 84.0262L100.225 85.214L103.964 80.1501L102.355 78.9622ZM98.6209 84.0201C98.4384 84.2635 98.2213 84.45 97.9638 84.5886L98.912 86.3495C99.429 86.0712 99.8672 85.6917 100.221 85.2201L98.6209 84.0201ZM97.9636 84.5887L93.1529 87.1802L94.1014 88.941L98.9121 86.3495L97.9636 84.5887ZM90.559 68.8304H82.2332V70.8304H90.559V68.8304ZM83.2332 69.8304V62.3834H81.2332V69.8304H83.2332ZM82.2332 63.3834H90.559V61.3834H82.2332V63.3834ZM90.559 63.3834C92.1834 63.3834 93.4165 64.5751 93.4165 66.1069H95.4165C95.4165 63.379 93.1942 61.3834 90.559 61.3834V63.3834ZM93.4165 66.1069C93.4165 67.6387 92.1834 68.8304 90.559 68.8304V70.8304C93.1942 70.8304 95.4165 68.8348 95.4165 66.1069H93.4165ZM88.6227 61.3834H82.2332V63.3834H88.6227V61.3834ZM83.2332 62.3834V54.9364H81.2332V62.3834H83.2332ZM82.2332 55.9364H88.6227V53.9364H82.2332V55.9364ZM88.6227 55.9364C90.2472 55.9364 91.4803 57.1281 91.4803 58.6599H93.4803C93.4803 55.932 91.2579 53.9364 88.6227 53.9364V55.9364ZM91.4803 58.6599C91.4803 60.1917 90.2472 61.3834 88.6227 61.3834V63.3834C91.2579 63.3834 93.4803 61.3878 93.4803 58.6599H91.4803ZM85.7014 51.9576V54.9364H87.7014V51.9576H85.7014ZM85.7014 69.8304V72.8092H87.7014V69.8304H85.7014ZM79.2544 55.9364H85.212V53.9364H79.2544V55.9364ZM79.2544 70.8304H85.212V68.8304H79.2544V70.8304ZM102.085 62.3834C102.085 70.8794 95.1974 77.7668 86.7014 77.7668V79.7668C96.302 79.7668 104.085 71.984 104.085 62.3834H102.085ZM86.7014 77.7668C78.2054 77.7668 71.318 70.8794 71.318 62.3834H69.318C69.318 71.984 77.1008 79.7668 86.7014 79.7668V77.7668ZM71.318 62.3834C71.318 53.8874 78.2054 47 86.7014 47V45C77.1008 45 69.318 52.7828 69.318 62.3834H71.318ZM86.7014 47C95.1974 47 102.085 53.8874 102.085 62.3834H104.085C104.085 52.7828 96.302 45 86.7014 45V47ZM107.553 63.3834H115V61.3834H107.553V63.3834ZM58.4028 63.3834H65.8498V61.3834H58.4028V63.3834ZM107.098 57.9574L114.292 56.0212L113.772 54.0899L106.578 56.0261L107.098 57.9574ZM59.6308 70.6769L66.8246 68.7407L66.3048 66.8094L59.111 68.7456L59.6308 70.6769ZM69.1499 51.0916L62.7008 47.3681L61.7008 49.1001L68.1499 52.8236L69.1499 51.0916ZM105.253 52.8236L111.702 49.1001L110.702 47.3681L104.253 51.0916L105.253 52.8236ZM62.7008 77.3987L69.1499 73.6752L68.1499 71.9432L61.7008 75.6667L62.7008 77.3987ZM66.8246 56.0261L59.6308 54.0899L59.111 56.0212L66.3048 57.9574L66.8246 56.0261ZM114.292 68.7456L107.098 66.8094L106.578 68.7407L113.772 70.6769L114.292 68.7456Z" fill="#48A9F5"/>
</svg>
