<svg width="60" height="60" viewBox="0 0 60 60" fill="none" xmlns="http://www.w3.org/2000/svg">
<path d="M51.2232 42.3564L33.327 34.5493C32.4233 34.044 31.3572 33.9147 30.3589 34.1893C29.3607 34.464 28.5107 35.1204 27.9926 36.0168C27.7356 36.4662 27.5696 36.9619 27.5043 37.4755C27.4389 37.9892 27.4754 38.5106 27.6117 39.0101C27.748 39.5096 27.9814 39.9774 28.2986 40.3866C28.6157 40.7958 29.0104 41.1386 29.4601 41.3952L33.2389 43.5964L26.5398 44.0587L20.1928 33.0818C19.9324 32.6318 19.5847 32.2384 19.1701 31.9247C18.7556 31.6109 18.2826 31.3832 17.7788 31.2547C17.5383 31.1904 17.2928 31.1463 17.045 31.1226C16.8544 31.1117 16.6633 31.1117 16.4727 31.1226C16.4093 31.1154 16.3453 31.1154 16.2819 31.1226C16.1157 31.148 15.9515 31.1848 15.7903 31.2327C15.7096 31.2327 15.6215 31.2327 15.5335 31.2914C15.4454 31.3501 15.284 31.4015 15.1519 31.4602L14.8438 31.5996C14.3385 31.4129 13.8003 31.3322 13.2626 31.3625C12.7248 31.3928 12.199 31.5335 11.718 31.7757C11.5756 31.844 11.4382 31.9224 11.3071 32.0105C10.4413 32.5901 9.83982 33.4884 9.63365 34.5096C9.42747 35.5309 9.63337 36.5922 10.2065 37.4623L10.4779 37.8658C9.65242 37.962 8.87858 38.3172 8.26746 38.8804C7.65634 39.4437 7.23937 40.1861 7.07638 41.001C6.91339 41.816 7.01275 42.6616 7.36022 43.4166C7.70769 44.1716 8.2854 44.7971 9.01044 45.2034L19.327 51.1614C19.6131 51.5032 19.9556 51.7935 20.3396 52.0199C28.088 57.8899 51.979 58 52.9916 58H53.7253V42.6499L53.1016 42.5545C53.1016 42.5545 52.3605 42.4444 51.2232 42.3564ZM30.1645 40.1551C29.8834 39.993 29.6374 39.7765 29.4409 39.5182C29.2443 39.2599 29.1012 38.9651 29.0199 38.6509C28.933 38.3387 28.9096 38.0123 28.9512 37.6909C28.9928 37.3695 29.0985 37.0597 29.262 36.7799C29.5917 36.2145 30.1315 35.8024 30.7637 35.6334C31.396 35.4643 32.0694 35.552 32.6373 35.8774L48.002 42.6059L35.8218 43.3837L30.1645 40.1551ZM9.74419 43.9706C9.27301 43.6987 8.90502 43.2785 8.69754 42.7756C8.49006 42.2727 8.45476 41.7153 8.59712 41.1902C8.73948 40.6652 9.05152 40.2019 9.48462 39.8727C9.91772 39.5435 10.4476 39.3667 10.9916 39.37C11.1493 39.373 11.3065 39.3902 11.4612 39.4214L17.4192 48.4025L9.74419 43.9706ZM52.2651 56.5252C48.1341 56.4591 27.7945 55.9015 21.2054 50.8239L21.1174 50.7652C20.8322 50.6104 20.5823 50.398 20.3836 50.1415L20.2956 50.0241L13.6918 40.0524L11.4905 36.7065C11.1298 36.16 10.9999 35.493 11.1291 34.851C11.2584 34.2091 11.6362 33.6443 12.1802 33.2799C12.3308 33.1856 12.4906 33.1069 12.6572 33.0451L12.7526 33.0011C12.8942 32.958 13.0389 32.9261 13.1855 32.9057H13.5964C13.3514 33.2614 13.1678 33.6558 13.0534 34.0723C12.771 35.0599 12.8869 36.1189 13.3763 37.022L20.6037 49.5398L21.8731 48.8061L14.6457 36.2883C14.3655 35.7963 14.2616 35.2236 14.351 34.6646C14.4403 34.1056 14.7177 33.5939 15.1373 33.2138L15.4528 32.9864L15.5482 32.913C16.1165 32.5896 16.7893 32.503 17.4209 32.6719C18.0526 32.8408 18.5924 33.2516 18.9234 33.8155L25.4685 45.1593L25.696 45.5556H26.1509C28.6603 45.3941 32.241 45.152 35.6897 44.8952H35.741L51.0398 43.8239C51.5314 43.8239 51.9496 43.8899 52.2578 43.9266L52.2651 56.5252Z" fill="#48A9F5"/>
<path d="M35.1614 11.7736L35.2568 11.8323L35.3815 11.9203C35.503 12.002 35.6461 12.0454 35.7924 12.0451C35.9478 12.0432 36.0985 11.992 36.2229 11.8989C36.3474 11.8058 36.439 11.6757 36.4847 11.5272C36.5304 11.3787 36.5278 11.2195 36.4772 11.0726C36.4266 10.9256 36.3307 10.7986 36.2033 10.7097C36.1079 10.6363 36.0052 10.5776 35.9025 10.5115C35.7369 10.411 35.5383 10.3801 35.35 10.4255C35.1616 10.4708 34.9989 10.5888 34.8972 10.7537C34.8461 10.8376 34.8123 10.9309 34.7979 11.0281C34.7835 11.1253 34.7888 11.2244 34.8134 11.3195C34.8381 11.4147 34.8816 11.5039 34.9413 11.5819C35.0011 11.6599 35.0759 11.7251 35.1614 11.7736Z" fill="#48A9F5"/>
<path d="M31.3972 10.805H31.7201C31.9147 10.805 32.1013 10.7277 32.2389 10.5901C32.3765 10.4525 32.4538 10.2659 32.4538 10.0713C32.4538 9.87668 32.3765 9.69005 32.2389 9.55244C32.1013 9.41484 31.9147 9.33753 31.7201 9.33753H31.3605C31.1659 9.3424 30.9812 9.42437 30.8471 9.56542C30.7129 9.70646 30.6403 9.89503 30.6451 10.0896C30.65 10.2842 30.732 10.4689 30.873 10.6031C31.0141 10.7373 31.2026 10.8099 31.3972 10.805Z" fill="#48A9F5"/>
<path d="M38.023 21.2317C38.1214 21.2793 38.2292 21.3044 38.3385 21.305C38.4781 21.306 38.615 21.2672 38.7333 21.1931C38.8515 21.1191 38.9462 21.0128 39.0062 20.8868L39.153 20.5566C39.2242 20.3793 39.2234 20.1811 39.1508 20.0044C39.0782 19.8276 38.9394 19.6861 38.7641 19.6101C38.6731 19.5731 38.5761 19.5532 38.4779 19.5514C38.3339 19.5515 38.1931 19.594 38.0731 19.6736C37.953 19.7532 37.8591 19.8663 37.8029 19.999L37.7148 20.1897V20.2411C37.6244 20.4133 37.6061 20.6144 37.6639 20.8002C37.7216 20.9859 37.8508 21.1411 38.023 21.2317Z" fill="#48A9F5"/>
<path d="M38.0744 15.6185C38.1174 15.7785 38.2133 15.9193 38.3465 16.0179C38.4798 16.1165 38.6425 16.1671 38.8081 16.1614C38.8715 16.1686 38.9355 16.1686 38.9989 16.1614C39.0919 16.136 39.179 16.0924 39.2552 16.0332C39.3314 15.9741 39.3951 15.9005 39.4428 15.8167C39.4905 15.7328 39.5212 15.6404 39.5332 15.5447C39.5452 15.449 39.5381 15.3519 39.5125 15.2589C39.5125 15.1415 39.4465 15.0241 39.4098 14.9141C39.3631 14.7656 39.2704 14.6358 39.1451 14.5435C39.0198 14.4511 38.8684 14.401 38.7127 14.4004C38.6398 14.3894 38.5656 14.3894 38.4926 14.4004C38.4005 14.4296 38.315 14.4767 38.2411 14.539C38.1672 14.6013 38.1063 14.6776 38.062 14.7636C38.0177 14.8495 37.9908 14.9433 37.9828 15.0396C37.9749 15.136 37.986 15.2329 38.0157 15.325L38.0744 15.6185Z" fill="#48A9F5"/>
<path d="M34.6551 24.8564C34.7559 24.8572 34.8558 24.8372 34.9486 24.7977L35.2714 24.6436C35.3583 24.6013 35.4359 24.5424 35.4999 24.47C35.5639 24.3977 35.613 24.3134 35.6444 24.2221C35.6757 24.1307 35.6887 24.0341 35.6827 23.9377C35.6766 23.8413 35.6515 23.7471 35.609 23.6604C35.5485 23.5369 35.4545 23.4329 35.3377 23.3602C35.2209 23.2876 35.0861 23.2492 34.9486 23.2495C34.8362 23.2513 34.7258 23.2789 34.6257 23.3302L34.3542 23.4549C34.202 23.5243 34.0781 23.6436 34.0029 23.793C33.9278 23.9425 33.9059 24.1131 33.941 24.2767C33.9762 24.4402 34.0661 24.5869 34.196 24.6923C34.3258 24.7977 34.4878 24.8556 34.6551 24.8564Z" fill="#48A9F5"/>
<path d="M29.3574 25.1279L29.7023 25.2233H29.8857C30.0803 25.2476 30.2766 25.1936 30.4314 25.0732C30.5862 24.9528 30.6868 24.7758 30.7112 24.5812C30.7355 24.3866 30.6815 24.1903 30.5611 24.0355C30.4407 23.8807 30.2637 23.7801 30.0691 23.7558L29.8197 23.6824C29.7467 23.6713 29.6725 23.6713 29.5995 23.6824C29.5032 23.6684 29.405 23.6736 29.3106 23.6975C29.2163 23.7215 29.1275 23.7638 29.0495 23.8221C28.892 23.9397 28.7876 24.1151 28.7594 24.3098C28.7312 24.5044 28.7814 24.7022 28.8991 24.8598C29.0167 25.0173 29.1921 25.1217 29.3867 25.1499L29.3574 25.1279Z" fill="#48A9F5"/>
<path d="M24.3826 17.4088H24.4559C24.6373 17.4099 24.8127 17.3438 24.9482 17.2232C25.0837 17.1026 25.1697 16.9361 25.1897 16.7558V16.5063C25.2043 16.4109 25.1999 16.3135 25.1768 16.2198C25.1537 16.1261 25.1123 16.0379 25.0551 15.9602C24.9978 15.8825 24.9258 15.8168 24.8431 15.767C24.7605 15.7172 24.6688 15.6842 24.5733 15.6698H24.4633C24.2863 15.6678 24.1146 15.7298 23.9798 15.8444C23.8449 15.9591 23.756 16.1185 23.7295 16.2935L23.6855 16.653C23.6795 16.8452 23.7492 17.0321 23.8795 17.1734C24.0099 17.3148 24.1905 17.3993 24.3826 17.4088Z" fill="#48A9F5"/>
<path d="M26.6939 12.8008C26.8792 12.8002 27.0575 12.7294 27.1928 12.6027L27.413 12.4046C27.5598 12.2771 27.65 12.0965 27.6638 11.9025C27.6775 11.7085 27.6137 11.517 27.4863 11.37C27.4168 11.2908 27.3309 11.2275 27.2347 11.1845C27.1385 11.1414 27.0341 11.1196 26.9287 11.1206C26.7538 11.1205 26.5846 11.183 26.4517 11.2967L26.1876 11.5388C26.0509 11.6763 25.9742 11.8622 25.9742 12.0561C25.9742 12.2499 26.0509 12.4359 26.1876 12.5734C26.3201 12.7126 26.5018 12.7942 26.6939 12.8008Z" fill="#48A9F5"/>
<path d="M24.8962 21.7159L25.0943 22.0168C25.1468 22.1014 25.216 22.1744 25.2976 22.2314C25.3792 22.2884 25.4716 22.3282 25.5691 22.3484C25.6666 22.3686 25.7672 22.3687 25.8648 22.3487C25.9623 22.3288 26.0548 22.2892 26.1365 22.2323C26.2183 22.1755 26.2876 22.1026 26.3403 22.0181C26.393 21.9337 26.428 21.8393 26.443 21.7409C26.4581 21.6425 26.453 21.542 26.428 21.4457C26.403 21.3493 26.3586 21.259 26.2976 21.1803L26.1362 20.9308C26.0701 20.8251 25.9782 20.7379 25.8691 20.6776C25.7599 20.6172 25.6372 20.5857 25.5125 20.586C25.3747 20.5896 25.2404 20.6301 25.1236 20.7034C25.0422 20.7549 24.9717 20.822 24.9162 20.9008C24.8607 20.9796 24.8213 21.0685 24.8002 21.1625C24.779 21.2566 24.7766 21.3538 24.7931 21.4488C24.8096 21.5437 24.8446 21.6345 24.8962 21.7159Z" fill="#48A9F5"/>
<path d="M12.4811 7.87003C13.1301 7.86792 13.7602 7.65073 14.2726 7.25244C14.7851 6.85414 15.1511 6.29721 15.3134 5.66877H17.8815L22.9664 10.761C21.8345 12.2464 21.1019 13.997 20.8385 15.8459H16.0471C15.8685 15.1542 15.4438 14.5514 14.8526 14.1505C14.2613 13.7496 13.5442 13.578 12.8355 13.6681C12.1268 13.7581 11.4753 14.1034 11.0031 14.6395C10.5308 15.1755 10.2703 15.8653 10.2703 16.5797C10.2703 17.294 10.5308 17.9839 11.0031 18.5199C11.4753 19.0559 12.1268 19.4013 12.8355 19.4913C13.5442 19.5813 14.2613 19.4098 14.8526 19.0088C15.4438 18.6079 15.8685 18.0051 16.0471 17.3134H20.7138V17.4088C20.7137 19.2617 21.1832 21.0843 22.0786 22.7065L18.4098 26.3753H16.0471C15.8685 25.6836 15.4438 25.0808 14.8526 24.6799C14.2613 24.2789 13.5442 24.1074 12.8355 24.1974C12.1268 24.2874 11.4753 24.6328 11.0031 25.1688C10.5308 25.7048 10.2703 26.3947 10.2703 27.109C10.2703 27.8234 10.5308 28.5132 11.0031 29.0492C11.4753 29.5852 12.1268 29.9306 12.8355 30.0206C13.5442 30.1106 14.2613 29.9391 14.8526 29.5382C15.4438 29.1373 15.8685 28.5345 16.0471 27.8428H18.9821L22.915 23.9612C23.9279 25.3413 25.2498 26.465 26.7749 27.2423C28.3001 28.0196 29.9861 28.4289 31.6979 28.4375C33.4097 28.446 35.0997 28.0536 36.6326 27.2916C38.1655 26.5295 39.4986 25.4191 40.5251 24.0493L44.3113 27.8354H47.2463C47.4249 28.5271 47.8496 29.1299 48.4408 29.5308C49.0321 29.9318 49.7492 30.1033 50.4579 30.0133C51.1666 29.9233 51.8181 29.5779 52.2903 29.0419C52.7626 28.5059 53.0231 27.816 53.0231 27.1017C53.0231 26.3873 52.7626 25.6975 52.2903 25.1615C51.8181 24.6255 51.1666 24.2801 50.4579 24.1901C49.7492 24.1001 49.0321 24.2716 48.4408 24.6725C47.8496 25.0735 47.4249 25.6763 47.2463 26.3679H44.8689L41.3029 22.8019C42.2366 21.1579 42.7271 19.2995 42.7264 17.4088C42.7264 17.4088 42.7264 17.3428 42.7264 17.3134H47.2389C47.4175 18.0051 47.8423 18.6079 48.4335 19.0088C49.0247 19.4098 49.7419 19.5813 50.4506 19.4913C51.1592 19.4013 51.8108 19.0559 52.283 18.5199C52.7552 17.9839 53.0158 17.294 53.0158 16.5797C53.0158 15.8653 52.7552 15.1755 52.283 14.6395C51.8108 14.1034 51.1592 13.7581 50.4506 13.6681C49.7419 13.578 49.0247 13.7496 48.4335 14.1505C47.8423 14.5514 47.4175 15.1542 47.2389 15.8459H42.6016C42.3336 13.9564 41.5746 12.1702 40.4004 10.6656L45.4046 5.66877H47.9654C48.1439 6.36045 48.5687 6.96325 49.1599 7.36418C49.7512 7.76511 50.4683 7.93665 51.177 7.84663C51.8857 7.75662 52.5372 7.41124 53.0094 6.87523C53.4816 6.33922 53.7422 5.64938 53.7422 4.93502C53.7422 4.22065 53.4816 3.53082 53.0094 2.9948C52.5372 2.45879 51.8857 2.11341 51.177 2.0234C50.4683 1.93339 49.7512 2.10492 49.1599 2.50585C48.5687 2.90679 48.1439 3.50959 47.9654 4.20126H44.7955L39.4318 9.565C37.3596 7.53022 34.5672 6.39691 31.6631 6.41203C28.759 6.42715 25.9785 7.58947 23.9276 9.64571L18.5125 4.20126H15.3134C15.176 3.66936 14.8922 3.18668 14.4941 2.80812C14.096 2.42957 13.5996 2.17034 13.0615 2.05992C12.5233 1.9495 11.965 1.99233 11.45 2.18354C10.935 2.37474 10.484 2.70664 10.1483 3.14149C9.81262 3.57633 9.60569 4.09666 9.55109 4.64329C9.49648 5.18992 9.59639 5.7409 9.83943 6.23356C10.0825 6.72622 10.4589 7.14078 10.9259 7.43008C11.3929 7.71938 11.9317 7.87181 12.4811 7.87003ZM13.2148 18.0472C12.9246 18.0472 12.6409 17.9611 12.3995 17.7999C12.1582 17.6386 11.9701 17.4094 11.859 17.1413C11.748 16.8731 11.7189 16.578 11.7755 16.2934C11.8322 16.0087 11.9719 15.7472 12.1772 15.542C12.3824 15.3368 12.6439 15.197 12.9285 15.1404C13.2132 15.0837 13.5083 15.1128 13.7764 15.2239C14.0446 15.3349 14.2738 15.523 14.435 15.7644C14.5963 16.0057 14.6823 16.2894 14.6823 16.5797C14.6823 16.9689 14.5277 17.3421 14.2525 17.6174C13.9773 17.8926 13.604 18.0472 13.2148 18.0472ZM14.6823 27.1017C14.6823 27.3919 14.5963 27.6757 14.435 27.917C14.2738 28.1583 14.0446 28.3464 13.7764 28.4575C13.5083 28.5686 13.2132 28.5976 12.9285 28.541C12.6439 28.4844 12.3824 28.3446 12.1772 28.1394C11.9719 27.9341 11.8322 27.6726 11.7755 27.388C11.7189 27.1033 11.748 26.8082 11.859 26.5401C11.9701 26.2719 12.1582 26.0427 12.3995 25.8815C12.6409 25.7202 12.9246 25.6342 13.2148 25.6342C13.604 25.6342 13.9773 25.7888 14.2525 26.064C14.5277 26.3392 14.6823 26.7125 14.6823 27.1017ZM50.0639 25.6342C50.3541 25.6342 50.6379 25.7202 50.8792 25.8815C51.1205 26.0427 51.3086 26.2719 51.4197 26.5401C51.5308 26.8082 51.5598 27.1033 51.5032 27.388C51.4466 27.6726 51.3068 27.9341 51.1016 28.1394C50.8963 28.3446 50.6349 28.4844 50.3502 28.541C50.0655 28.5976 49.7705 28.5686 49.5023 28.4575C49.2341 28.3464 49.005 28.1583 48.8437 27.917C48.6825 27.6757 48.5964 27.3919 48.5964 27.1017C48.5964 26.7125 48.751 26.3392 49.0262 26.064C49.3014 25.7888 49.6747 25.6342 50.0639 25.6342ZM50.0639 15.1122C50.3541 15.1122 50.6379 15.1982 50.8792 15.3595C51.1205 15.5207 51.3086 15.7499 51.4197 16.0181C51.5308 16.2862 51.5598 16.5813 51.5032 16.866C51.4466 17.1506 51.3068 17.4121 51.1016 17.6174C50.8963 17.8226 50.6349 17.9624 50.3502 18.019C50.0655 18.0756 49.7705 18.0465 49.5023 17.9355C49.2341 17.8244 49.005 17.6363 48.8437 17.395C48.6825 17.1536 48.5964 16.8699 48.5964 16.5797C48.5964 16.1905 48.751 15.8172 49.0262 15.542C49.3014 15.2668 49.6747 15.1122 50.0639 15.1122ZM50.7976 3.46751C51.0879 3.46751 51.3716 3.55358 51.6129 3.71483C51.8543 3.87608 52.0424 4.10528 52.1534 4.37343C52.2645 4.64158 52.2936 4.93665 52.2369 5.22131C52.1803 5.50598 52.0406 5.76747 51.8353 5.9727C51.6301 6.17793 51.3686 6.3177 51.0839 6.37432C50.7993 6.43095 50.5042 6.40189 50.2361 6.29082C49.9679 6.17974 49.7387 5.99165 49.5775 5.75032C49.4162 5.50899 49.3301 5.22526 49.3301 4.93502C49.3301 4.54581 49.4847 4.17255 49.76 3.89733C50.0352 3.62212 50.4084 3.46751 50.7976 3.46751ZM31.7201 7.87003C33.6067 7.87003 35.4509 8.42947 37.0195 9.4776C38.5882 10.5257 39.8108 12.0155 40.5328 13.7585C41.2547 15.5015 41.4436 17.4194 41.0756 19.2697C40.7075 21.1201 39.799 22.8197 38.465 24.1537C37.131 25.4878 35.4313 26.3963 33.581 26.7643C31.7307 27.1324 29.8127 26.9435 28.0697 26.2215C26.3268 25.4995 24.837 24.2769 23.7889 22.7083C22.7407 21.1396 22.1813 19.2954 22.1813 17.4088C22.1813 14.879 23.1863 12.4527 24.9751 10.6639C26.764 8.875 29.1902 7.87003 31.7201 7.87003ZM12.4811 3.46751C12.8703 3.46751 13.2436 3.62212 13.5188 3.89733C13.794 4.17255 13.9486 4.54581 13.9486 4.93502C13.9486 5.22526 13.8625 5.50899 13.7013 5.75032C13.54 5.99165 13.3108 6.17974 13.0427 6.29082C12.7745 6.40189 12.4795 6.43095 12.1948 6.37432C11.9101 6.3177 11.6486 6.17793 11.4434 5.9727C11.2382 5.76747 11.0984 5.50598 11.0418 5.22131C10.9852 4.93665 11.0142 4.64158 11.1253 4.37343C11.2364 4.10528 11.4245 3.87608 11.6658 3.71483C11.9071 3.55358 12.1908 3.46751 12.4811 3.46751Z" fill="#48A9F5"/>
</svg>
