<svg width="60" height="60" viewBox="0 0 60 60" fill="none" xmlns="http://www.w3.org/2000/svg">
<path d="M46.6598 34.5522V28.3772H40.5637V25.4368H46.9681V24.0024H44.9457V21.4348H43.5113V24.0024H41.661V21.4348H40.2266V24.0024H39.1293V29.8116H45.2254V33.1178H38.8209V34.5522H40.2266V36.754H41.661V34.5522H43.5113V36.754H44.9457V34.5522H46.6598Z" fill="#48A9F5"/>
<path d="M42.163 13.1083C38.1663 13.1042 34.3187 14.6253 31.4052 17.3612V9.8666C31.4146 9.10439 31.2736 8.34781 30.9902 7.64019C30.7068 6.93256 30.2866 6.2878 29.7537 5.74284C29.2207 5.19787 28.5854 4.76342 27.8843 4.46435C27.1831 4.16528 26.4299 4.00749 25.6677 4H7.73795C6.97573 4.00749 6.22247 4.16528 5.52132 4.46435C4.82018 4.76342 4.18492 5.19787 3.65195 5.74284C3.11898 6.2878 2.69876 6.93256 2.41537 7.64019C2.13198 8.34781 1.99098 9.10439 2.00045 9.8666V49.9789C1.99191 50.7378 2.13401 51.4908 2.41852 52.1944C2.70303 52.898 3.1243 53.5381 3.65793 54.0778C4.19156 54.6174 4.82695 55.0458 5.52729 55.3382C6.22764 55.6305 6.97903 55.781 7.73795 55.781H25.7107C26.4696 55.781 27.221 55.6305 27.9214 55.3382C28.6217 55.0458 29.2571 54.6174 29.7907 54.0778C30.3243 53.5381 30.7456 52.898 31.0301 52.1944C31.3146 51.4908 31.4567 50.7378 31.4482 49.9789V41.4372H32.6602C34.6549 42.9568 36.9831 43.9791 39.4517 44.4194C41.9203 44.8596 44.4584 44.7052 46.8554 43.9688C49.2524 43.2324 51.4394 41.9353 53.235 40.185C55.0307 38.4347 56.3833 36.2816 57.1808 33.9042C57.9783 31.5268 58.1977 28.9936 57.8207 26.5145C57.4438 24.0354 56.4814 21.6819 55.0133 19.6489C53.5452 17.616 51.6138 15.9623 49.379 14.8248C47.1442 13.6874 44.6706 13.0989 42.163 13.1083ZM22.634 7.22735C22.3782 7.51619 22.0214 7.69589 21.6371 7.72938H11.7972C11.4214 7.69145 11.0722 7.51811 10.8147 7.24169C10.4098 6.72843 10.2013 6.0876 10.2266 5.43438H23.2077C23.233 6.08087 23.0299 6.71564 22.634 7.22735ZM29.9708 49.9789C29.9793 50.5494 29.8744 51.1159 29.6619 51.6455C29.4495 52.175 29.1339 52.6571 28.7335 53.0635C28.333 53.47 27.8558 53.7927 27.3294 54.013C26.8031 54.2333 26.2382 54.3467 25.6677 54.3466H7.73795C7.16739 54.3467 6.6025 54.2333 6.07617 54.013C5.54984 53.7927 5.07257 53.47 4.67213 53.0635C4.27169 52.6571 3.95608 52.175 3.74367 51.6455C3.53125 51.1159 3.42627 50.5494 3.43482 49.9789V9.8666C3.42534 9.29276 3.52922 8.72269 3.74052 8.18909C3.95182 7.65548 4.26639 7.16884 4.66617 6.75707C5.06595 6.34529 5.54308 6.01649 6.07021 5.78951C6.59733 5.56254 7.16408 5.44185 7.73795 5.43438H8.80656C8.77588 6.45165 9.1205 7.44467 9.77477 8.22424C10.3016 8.79188 11.0307 9.12938 11.8044 9.16375H21.6371C22.4108 9.12938 23.1398 8.79188 23.6667 8.22424C24.324 7.44637 24.669 6.45217 24.6349 5.43438H25.7107C26.2846 5.44185 26.8513 5.56254 27.3784 5.78951C27.9056 6.01649 28.3827 6.34529 28.7825 6.75707C29.1823 7.16884 29.4968 7.65548 29.7081 8.18909C29.9194 8.72269 30.0233 9.29276 30.0138 9.8666V17.4114H15.2828V18.8458H29.9708C29.0004 20.0285 28.2057 21.3449 27.6112 22.7545H19.5859V24.1888H27.102C26.6939 25.4673 26.4528 26.7931 26.3848 28.1334H17.4343V29.5678H26.4207C26.4887 30.908 26.7298 32.2339 27.1379 33.5123H20.6473V34.9467H27.6112C28.4024 36.8208 29.5468 38.5253 30.982 39.967H9.88952V41.4014H29.9708V49.9789ZM42.163 43.2302C39.3261 43.2302 36.5528 42.389 34.194 40.8128C31.8352 39.2367 29.9967 36.9965 28.9111 34.3755C27.8254 31.7546 27.5414 28.8705 28.0948 26.0881C28.6483 23.3057 30.0144 20.7499 32.0204 18.7439C34.0264 16.7378 36.5822 15.3717 39.3647 14.8183C42.1471 14.2648 45.0311 14.5489 47.6521 15.6345C50.2731 16.7202 52.5133 18.5586 54.0894 20.9175C55.6655 23.2763 56.5068 26.0495 56.5068 28.8864C56.5068 30.7701 56.1357 32.6353 55.4149 34.3755C54.6941 36.1158 53.6375 37.6971 52.3056 39.029C50.9736 40.3609 49.3924 41.4175 47.6521 42.1383C45.9118 42.8592 44.0466 43.2302 42.163 43.2302Z" fill="#48A9F5"/>
<path d="M54.054 26.1109C54.0904 26.2727 54.1818 26.4169 54.3125 26.5188C54.4433 26.6208 54.6054 26.6744 54.7712 26.6703C54.8259 26.6773 54.8813 26.6773 54.9361 26.6703C55.028 26.6492 55.1148 26.6101 55.1915 26.5554C55.2683 26.5007 55.3335 26.4314 55.3835 26.3515C55.4334 26.2716 55.4671 26.1826 55.4827 26.0896C55.4982 25.9966 55.4953 25.9015 55.474 25.8097C55.474 25.7021 55.4238 25.6017 55.3951 25.5013C55.3545 25.3435 55.2613 25.2043 55.1309 25.1065C55.0006 25.0087 54.8408 24.9583 54.6779 24.9634C54.6184 24.9564 54.5582 24.9564 54.4986 24.9634C54.4072 24.9868 54.3213 25.028 54.2458 25.0847C54.1703 25.1414 54.1068 25.2124 54.0588 25.2937C54.0108 25.375 53.9794 25.4649 53.9662 25.5584C53.9531 25.6519 53.9585 25.747 53.9823 25.8384C54.0109 25.9244 54.0325 26.0177 54.054 26.1109Z" fill="#48A9F5"/>
<path d="M42.163 16.6942C42.3532 16.6942 42.5356 16.6187 42.6701 16.4842C42.8046 16.3497 42.8802 16.1673 42.8802 15.977C42.8802 15.7868 42.8046 15.6044 42.6701 15.4699C42.5356 15.3354 42.3532 15.2599 42.163 15.2599H41.8474C41.6572 15.2599 41.4748 15.3354 41.3403 15.4699C41.2058 15.6044 41.1302 15.7868 41.1302 15.977C41.1302 16.1673 41.2058 16.3497 41.3403 16.4842C41.4748 16.6187 41.6572 16.6942 41.8474 16.6942H42.163Z" fill="#48A9F5"/>
<path d="M45.2971 17.0959H45.5481C45.6146 17.1063 45.6824 17.1063 45.7489 17.0959C45.9391 17.1225 46.1321 17.0725 46.2855 16.9568C46.4388 16.8411 46.5399 16.6693 46.5665 16.4791C46.5932 16.2889 46.5431 16.0959 46.4275 15.9425C46.3118 15.7892 46.1399 15.6881 45.9497 15.6615L45.6413 15.5754H45.4549C45.2647 15.5507 45.0724 15.6025 44.9204 15.7196C44.7685 15.8366 44.6692 16.0092 44.6445 16.1994C44.6197 16.3896 44.6716 16.5818 44.7886 16.7338C44.9056 16.8858 45.0782 16.9851 45.2684 17.0098L45.2971 17.0959Z" fill="#48A9F5"/>
<path d="M29.2895 27.8537H29.3899C29.5639 27.8554 29.7326 27.7938 29.8646 27.6803C29.9965 27.5668 30.0827 27.4092 30.107 27.2369C30.107 27.1365 30.107 27.0433 30.107 26.95C30.136 26.7627 30.0896 26.5716 29.9781 26.4184C29.8665 26.2652 29.6989 26.1624 29.5118 26.1324H29.4042C29.2312 26.1305 29.0634 26.1911 28.9316 26.3031C28.7998 26.4151 28.713 26.571 28.687 26.742C28.687 26.8424 28.687 26.95 28.6368 27.0576C28.6259 27.153 28.6343 27.2496 28.6614 27.3417C28.6885 27.4337 28.7339 27.5195 28.7947 27.5937C28.8556 27.6679 28.9308 27.7292 29.0157 27.7739C29.1007 27.8185 29.1938 27.8457 29.2895 27.8537Z" fill="#48A9F5"/>
<path d="M30.2218 31.289C30.1898 31.1233 30.1003 30.9741 29.9691 30.8679C29.8379 30.7616 29.6734 30.705 29.5046 30.7081H29.3683C29.1821 30.7445 29.0179 30.8533 28.9117 31.0106C28.8055 31.1679 28.766 31.3608 28.8018 31.5472L28.8663 31.8628C28.9013 32.0259 28.9921 32.1717 29.123 32.2751C29.2539 32.3785 29.4167 32.4331 29.5835 32.4293C29.6359 32.4363 29.6889 32.4363 29.7413 32.4293C29.9266 32.3882 30.088 32.2752 30.1902 32.1152C30.2924 31.9553 30.3269 31.7613 30.2864 31.5759C30.2577 31.4468 30.2433 31.3679 30.2218 31.289Z" fill="#48A9F5"/>
<path d="M31.9215 35.4702L31.8498 35.3555L31.8068 35.2766C31.7424 35.1709 31.6518 35.0836 31.5437 35.0233C31.4356 34.9629 31.3138 34.9316 31.19 34.9323C31.0582 34.9332 30.9291 34.9704 30.8171 35.0399C30.6559 35.1393 30.5406 35.2983 30.4963 35.4824C30.4519 35.6665 30.4822 35.8606 30.5804 36.0225L30.7525 36.295C30.8554 36.4545 31.0174 36.5668 31.2029 36.6071C31.3884 36.6475 31.5824 36.6126 31.7422 36.5101C31.9018 36.4072 32.0141 36.2453 32.0544 36.0598C32.0947 35.8742 32.0598 35.6803 31.9574 35.5204L31.9215 35.4702Z" fill="#48A9F5"/>
<path d="M31.4052 23.1489L31.5414 22.8907C31.6343 22.7252 31.6578 22.5296 31.6067 22.3467C31.5557 22.1639 31.4342 22.0088 31.2689 21.9154C31.1611 21.856 31.0405 21.824 30.9175 21.8221C30.7904 21.8223 30.6656 21.8563 30.556 21.9206C30.4464 21.9849 30.3558 22.0771 30.2935 22.1879L30.1357 22.4748C30.0473 22.6431 30.0294 22.8397 30.0859 23.0212C30.1424 23.2028 30.2687 23.3545 30.437 23.443C30.5406 23.4989 30.6563 23.5284 30.774 23.529C30.9038 23.5287 31.031 23.4932 31.1421 23.4262C31.2533 23.3593 31.3442 23.2634 31.4052 23.1489Z" fill="#48A9F5"/>
<path d="M34.0588 19.7997L34.1377 19.7279H34.1879L34.2739 19.6562C34.3455 19.595 34.4043 19.5203 34.447 19.4363C34.4897 19.3524 34.5155 19.2608 34.5228 19.1669C34.5301 19.073 34.5189 18.9786 34.4897 18.8891C34.4605 18.7995 34.414 18.7166 34.3528 18.645C34.2916 18.5734 34.2169 18.5146 34.1329 18.4719C34.049 18.4292 33.9574 18.4034 33.8635 18.3961C33.7696 18.3888 33.6752 18.4 33.5856 18.4292C33.4961 18.4584 33.4132 18.5049 33.3416 18.5661L33.0977 18.7741C32.9563 18.9007 32.8708 19.0783 32.86 19.2678C32.8493 19.4574 32.9141 19.6435 33.0404 19.7853C33.1076 19.8618 33.1903 19.9231 33.283 19.9652C33.3758 20.0072 33.4764 20.029 33.5782 20.0292C33.7619 20.0172 33.934 19.935 34.0588 19.7997Z" fill="#48A9F5"/>
<path d="M51.1135 37.4927C50.9288 37.4934 50.7516 37.5654 50.6186 37.6935H50.5111L50.4537 37.7437C50.3462 37.8414 50.2709 37.9694 50.2378 38.1107C50.2046 38.2521 50.2152 38.4002 50.2681 38.5355C50.3209 38.6707 50.4136 38.7868 50.5338 38.8682C50.654 38.9497 50.7962 38.9927 50.9414 38.9916C51.121 38.9896 51.2939 38.9235 51.4291 38.8051L51.6586 38.5828C51.7921 38.4484 51.8671 38.2667 51.8671 38.0772C51.8671 37.8877 51.7921 37.706 51.6586 37.5716C51.5774 37.5232 51.4874 37.4913 51.3939 37.4777C51.3004 37.4642 51.2051 37.4693 51.1135 37.4927Z" fill="#48A9F5"/>
<path d="M50.2672 17.9206L50.0019 17.7342C49.8459 17.6248 49.6528 17.5818 49.4652 17.6148C49.2776 17.6478 49.1107 17.7539 49.0014 17.9099C48.892 18.0658 48.8491 18.2589 48.882 18.4465C48.915 18.6341 49.0211 18.801 49.1771 18.9103L49.3994 19.0681C49.4752 19.1243 49.5613 19.1649 49.6528 19.1877C49.7443 19.2105 49.8394 19.2151 49.9327 19.2011C50.0259 19.1871 50.1155 19.1548 50.1963 19.1062C50.2771 19.0575 50.3475 18.9934 50.4035 18.9175C50.5161 18.7667 50.565 18.5777 50.5395 18.3912C50.514 18.2047 50.4162 18.0357 50.2672 17.9206Z" fill="#48A9F5"/>
<path d="M53.3511 22.3887C53.43 22.3366 53.4977 22.2694 53.5505 22.1911C53.6033 22.1127 53.6401 22.0246 53.6588 21.932C53.6774 21.8394 53.6776 21.744 53.6593 21.6512C53.6409 21.5585 53.6045 21.4704 53.5519 21.3918C53.4946 21.3057 53.4372 21.2125 53.3726 21.1265C53.3067 21.0315 53.2188 20.9538 53.1164 20.9001C53.014 20.8464 52.9002 20.8183 52.7845 20.8181C52.6543 20.8196 52.527 20.8565 52.4161 20.9249C52.3053 20.9933 52.2152 21.0906 52.1555 21.2064C52.0958 21.3221 52.0687 21.4519 52.0772 21.5819C52.0857 21.7118 52.1294 21.837 52.2036 21.944L52.2682 22.0445L52.3542 22.1664C52.4583 22.3248 52.6207 22.4355 52.8062 22.4745C52.9916 22.5135 53.185 22.4775 53.3439 22.3744L53.3511 22.3887Z" fill="#48A9F5"/>
<path d="M54.097 33.9067C54.0008 33.8602 53.8955 33.8357 53.7886 33.835C53.6542 33.8348 53.5224 33.8723 53.4083 33.9433C53.2942 34.0143 53.2023 34.1159 53.1431 34.2367V34.294L53.0786 34.4303C53.0125 34.5354 52.9749 34.6558 52.9693 34.7798C52.9637 34.9038 52.9904 35.0271 53.0468 35.1377C53.1032 35.2483 53.1873 35.3424 53.2909 35.4107C53.3946 35.4791 53.5141 35.5193 53.638 35.5276C53.7697 35.5279 53.8989 35.4919 54.0115 35.4236C54.1241 35.3552 54.2157 35.2572 54.2763 35.1403C54.3265 35.0399 54.3767 34.9467 54.4197 34.8534C54.4998 34.6847 54.5109 34.4913 54.4506 34.3145C54.3904 34.1377 54.2635 33.9914 54.097 33.9067Z" fill="#48A9F5"/>
<path d="M55.0724 29.4602H55.0007C54.8222 29.4593 54.6499 29.5249 54.5173 29.6443C54.3847 29.7636 54.3013 29.9281 54.2835 30.1056V30.1487C54.2799 30.1916 54.2799 30.2348 54.2835 30.2778V30.3423C54.2612 30.5305 54.3143 30.7199 54.4312 30.8691C54.5481 31.0183 54.7193 31.1151 54.9074 31.1384H55.0007C55.1769 31.1397 55.3474 31.076 55.4796 30.9596C55.6119 30.8432 55.6967 30.6822 55.7178 30.5073C55.7178 30.3997 55.7178 30.2921 55.7537 30.1917C55.7577 30.0051 55.6887 29.8243 55.5615 29.6877C55.4343 29.5511 55.2588 29.4695 55.0724 29.4602Z" fill="#48A9F5"/>
<path d="M42.9375 41.0786H42.6076C42.4174 41.0786 42.235 41.1542 42.1005 41.2887C41.966 41.4232 41.8905 41.6056 41.8905 41.7958C41.8905 41.986 41.966 42.1684 42.1005 42.3029C42.235 42.4374 42.4174 42.513 42.6076 42.513H42.9304C43.1206 42.5073 43.3007 42.4263 43.4312 42.2877C43.5617 42.1492 43.6318 41.9645 43.6261 41.7743C43.6203 41.5841 43.5393 41.4039 43.4008 41.2735C43.2622 41.143 43.0776 41.0729 42.8873 41.0786H42.9375Z" fill="#48A9F5"/>
<path d="M37.6949 17.5477L37.9531 17.4473C38.1122 17.3896 38.2457 17.2775 38.3301 17.1308C38.4145 16.9841 38.4443 16.8123 38.4143 16.6458C38.3842 16.4792 38.2963 16.3287 38.1659 16.2207C38.0356 16.1128 37.8713 16.0544 37.7021 16.0559C37.6166 16.0562 37.5318 16.0707 37.4511 16.099L37.1498 16.2137C36.9945 16.2751 36.8654 16.3889 36.7849 16.5353C36.7044 16.6817 36.6776 16.8516 36.7091 17.0157C36.7405 17.1798 36.8283 17.3278 36.9572 17.4341C37.0861 17.5404 37.2481 17.5983 37.4152 17.5979C37.5109 17.6012 37.6063 17.5841 37.6949 17.5477Z" fill="#48A9F5"/>
<path d="M38.6416 40.5551H38.4049C38.3329 40.5327 38.258 40.5207 38.1826 40.5192C37.9924 40.4897 37.7982 40.537 37.6429 40.6507C37.4876 40.7643 37.3837 40.935 37.3542 41.1252C37.3248 41.3155 37.372 41.5096 37.4857 41.6649C37.5993 41.8203 37.7701 41.9241 37.9603 41.9536L38.2615 42.054C38.3307 42.0605 38.4003 42.0605 38.4695 42.054C38.6597 42.0816 38.8531 42.0325 39.0071 41.9175C39.1611 41.8025 39.2631 41.631 39.2906 41.4408C39.3182 41.2506 39.2691 41.0572 39.1541 40.9032C39.0391 40.7492 38.8677 40.6472 38.6774 40.6196L38.6416 40.5551Z" fill="#48A9F5"/>
<path d="M34.7831 38.5756H34.7473L34.6038 38.4609C34.4767 38.3622 34.3201 38.3092 34.1592 38.3103C34.052 38.3099 33.9462 38.3336 33.8493 38.3795C33.7525 38.4254 33.6673 38.4924 33.5998 38.5756C33.5406 38.6494 33.4966 38.7342 33.4703 38.8251C33.4441 38.916 33.436 39.0112 33.4467 39.1051C33.4573 39.1991 33.4865 39.2901 33.5325 39.3728C33.5784 39.4554 33.6403 39.5282 33.7145 39.5869L33.9655 39.7805C34.0888 39.8762 34.2398 39.9291 34.3958 39.9311C34.5108 39.9345 34.6249 39.9103 34.7285 39.8603C34.8321 39.8104 34.9221 39.7363 34.9911 39.6443C35.106 39.493 35.1562 39.3023 35.1306 39.114C35.1051 38.9258 35.0059 38.7554 34.8548 38.6402L34.7831 38.5756Z" fill="#48A9F5"/>
<path d="M47.3483 39.9957C47.2468 39.9961 47.1466 40.0181 47.0542 40.0602L46.9251 40.1176L46.8391 40.1606C46.6876 40.2251 46.563 40.3397 46.486 40.4852C46.4091 40.6307 46.3845 40.7983 46.4165 40.9597C46.4484 41.1212 46.535 41.2668 46.6615 41.372C46.7881 41.4772 46.947 41.5357 47.1116 41.5376C47.2047 41.5377 47.2971 41.5207 47.3841 41.4874L47.6782 41.3583C47.8307 41.2934 47.9561 41.1775 48.0328 41.0306C48.1096 40.8836 48.1331 40.7146 48.0993 40.5522C48.0654 40.3899 47.9764 40.2443 47.8473 40.1402C47.7183 40.0361 47.5571 39.98 47.3913 39.9813L47.3483 39.9957Z" fill="#48A9F5"/>
<path d="M13.1312 17.4114H10.9796V18.8458H13.1312V17.4114Z" fill="#48A9F5"/>
<path d="M18.5101 33.5482H16.3586V34.9825H18.5101V33.5482Z" fill="#48A9F5"/>
<path d="M14.207 33.5482H12.0554V34.9825H14.207V33.5482Z" fill="#48A9F5"/>
<path d="M7.7523 40.0028H5.60073V41.4372H7.7523V40.0028Z" fill="#48A9F5"/>
<path d="M17.4343 22.7903H15.2828V24.2247H17.4343V22.7903Z" fill="#48A9F5"/>
<path d="M8.82808 17.4114H6.67651V18.8458H8.82808V17.4114Z" fill="#48A9F5"/>
</svg>
