<svg width="60" height="60" viewBox="0 0 60 60" fill="none" xmlns="http://www.w3.org/2000/svg">
<path d="M20.2326 21.9144L30 26.7981L39.7674 21.9144V17.7209H47.5814V20.9767H48.8837V16.4186H39.7674V11.3395L30 16.2233L20.2326 11.3395V16.4186H15.0233V17.7209H20.2326V21.9144ZM21.5349 13.4493L30 17.6819L38.4651 13.4493V21.107L30.6512 25.014V21.6279H29.3488V25.014L21.5349 21.107V13.4493Z" fill="#48A9F5"/>
<path d="M39.1163 10.5581L30 6L20.8837 10.5581L30 15.1163L39.1163 10.5581ZM30 7.47814L36.2056 10.5581L30 13.6837L23.7944 10.5581L30 7.47814Z" fill="#48A9F5"/>
<path d="M30.6512 18.3721H29.3488V20.3256H30.6512V18.3721Z" fill="#48A9F5"/>
<path d="M21.5349 49.4977V45.7209H28.0465V44.4186H21.5349V38.9228L11.7674 43.8065L2 38.9228V49.4977L11.7674 54.3814L21.5349 49.4977ZM11.6893 52.8837H11.8456L11.7674 52.9228L11.6893 52.8837ZM3.30233 41.0326L11.7674 45.2651L20.2326 41.0326V48.6902L12.4186 52.5972V48.9767H11.1163V52.5972L3.30233 48.6902V41.0326Z" fill="#48A9F5"/>
<path d="M11.7674 42.7256L20.8837 38.1674L12.4186 33.9349V28.1395H11.1163V33.9349L2.65116 38.1674L11.7674 42.7256ZM11.7674 41.267L5.56186 38.1674L11.7674 35.0679L17.973 38.1674L11.7674 41.267Z" fill="#48A9F5"/>
<path d="M12.4186 46.3721H11.1163V48.3256H12.4186V46.3721Z" fill="#48A9F5"/>
<path d="M38.4651 38.9228V44.4186H34.5581V45.7209H38.4651V49.4977L48.2326 54.3814L58 49.4977V38.9228L48.2326 43.8065L38.4651 38.9228ZM48.1544 52.8837H48.3107L48.2326 52.9228L48.1544 52.8837ZM56.6977 48.6902L48.8837 52.5972V48.9767H47.5814V52.5972L39.7674 48.6902V41.0326L48.2326 45.2651L56.6977 41.0326V48.6902Z" fill="#48A9F5"/>
<path d="M48.8837 46.3721H47.5814V48.3256H48.8837V46.3721Z" fill="#48A9F5"/>
<path d="M12.4186 17.7209H13.7209V16.4186H11.1163V22.2791H12.4186V17.7209Z" fill="#48A9F5"/>
<path d="M12.4186 23.5814H11.1163V26.8372H12.4186V23.5814Z" fill="#48A9F5"/>
<path d="M32.6047 44.4186H30V45.7209H32.6047V44.4186Z" fill="#48A9F5"/>
<path d="M47.5814 33.9349L39.1163 38.1674L48.2326 42.7256L57.3488 38.1674L48.8837 33.9349V31.3953H47.5814V33.9349ZM48.2326 41.267L42.027 38.1674L48.2326 35.0679L54.4381 38.1674L48.2326 41.267Z" fill="#48A9F5"/>
<path d="M48.8837 22.2791H47.5814V29.4419H48.8837V22.2791Z" fill="#48A9F5"/>
</svg>
