<svg width="60" height="60" viewBox="0 0 60 60" fill="none" xmlns="http://www.w3.org/2000/svg">
<path d="M54.9443 28.9883C54.3477 28.9902 53.7685 29.1899 53.2975 29.556C52.8264 29.9221 52.4899 30.434 52.3408 31.0117H41.9537C42.0668 30.3431 42.1254 29.6664 42.129 28.9883C42.1282 28.5376 42.1035 28.0873 42.0549 27.6393H46.2704C46.4346 28.2751 46.825 28.8292 47.3685 29.1978C47.912 29.5663 48.5712 29.724 49.2226 29.6413C49.8741 29.5585 50.473 29.241 50.907 28.7483C51.3411 28.2556 51.5806 27.6215 51.5806 26.9648C51.5806 26.3081 51.3411 25.674 50.907 25.1813C50.473 24.6886 49.8741 24.3711 49.2226 24.2884C48.5712 24.2056 47.912 24.3633 47.3685 24.7318C46.825 25.1004 46.4346 25.6545 46.2704 26.2903H41.839C41.6326 25.3446 41.318 24.4257 40.9015 23.5519L44.2335 20.2199H48.9549C49.119 20.8557 49.5094 21.4098 50.0529 21.7784C50.5964 22.1469 51.2557 22.3046 51.9071 22.2219C52.5585 22.1391 53.1574 21.8217 53.5915 21.3289C54.0256 20.8362 54.2651 20.2021 54.2651 19.5454C54.2651 18.8888 54.0256 18.2547 53.5915 17.7619C53.1574 17.2692 52.5585 16.9517 51.9071 16.869C51.2557 16.7862 50.5964 16.9439 50.0529 17.3125C49.5094 17.681 49.119 18.2351 48.9549 18.871H43.6736L40.2337 22.3108C39.4801 21.0787 38.5248 19.982 37.4076 19.0666V14.4328L40.7801 11.0604V8.65921C41.4159 8.49504 41.97 8.10462 42.3385 7.56114C42.7071 7.01765 42.8648 6.3584 42.782 5.70697C42.6993 5.05554 42.3818 4.45665 41.8891 4.02256C41.3964 3.58847 40.7622 3.34898 40.1056 3.34898C39.4489 3.34898 38.8148 3.58847 38.3221 4.02256C37.8294 4.45665 37.5119 5.05554 37.4291 5.70697C37.3464 6.3584 37.5041 7.01765 37.8726 7.56114C38.2412 8.10462 38.7953 8.49504 39.4311 8.65921V10.5073L36.0587 13.8797V18.1088C35.4155 17.7085 34.7384 17.3654 34.0352 17.0836V7.31023C34.671 7.14606 35.2251 6.75565 35.5937 6.21216C35.9622 5.66867 36.1199 5.00943 36.0372 4.358C35.9544 3.70657 35.6369 3.10768 35.1442 2.67358C34.6515 2.23949 34.0174 2 33.3607 2C32.704 2 32.0699 2.23949 31.5772 2.67358C31.0845 3.10768 30.767 3.70657 30.6843 4.358C30.6015 5.00943 30.7592 5.66867 31.1277 6.21216C31.4963 6.75565 32.0504 7.14606 32.6862 7.31023V16.6384C31.5881 16.3324 30.4537 16.1758 29.3138 16.173V14.0551C29.9496 13.8909 30.5037 13.5005 30.8723 12.957C31.2408 12.4135 31.3985 11.7543 31.3157 11.1029C31.233 10.4514 30.9155 9.85256 30.4228 9.41846C29.9301 8.98437 29.296 8.74488 28.6393 8.74488C27.9826 8.74488 27.3485 8.98437 26.8558 9.41846C26.3631 9.85256 26.0456 10.4514 25.9628 11.1029C25.8801 11.7543 26.0378 12.4135 26.4063 12.957C26.7749 13.5005 27.329 13.8909 27.9648 14.0551V16.2472C26.5618 16.3953 25.1938 16.7784 23.9179 17.3803V11.3572C24.5537 11.193 25.1078 10.8026 25.4764 10.2591C25.8449 9.7156 26.0026 9.05635 25.9198 8.40492C25.8371 7.75349 25.5196 7.1546 25.0269 6.72051C24.5342 6.28642 23.9001 6.04693 23.2434 6.04693C22.5867 6.04693 21.9526 6.28642 21.4599 6.72051C20.9672 7.1546 20.6497 7.75349 20.5669 8.40492C20.4842 9.05635 20.6419 9.7156 21.0104 10.2591C21.379 10.8026 21.9331 11.193 22.5689 11.3572V13.9944L18.522 9.94748V7.98472C19.1578 7.82055 19.7119 7.43014 20.0804 6.88665C20.449 6.34316 20.6067 5.68392 20.5239 5.03249C20.4412 4.38106 20.1237 3.78217 19.631 3.34807C19.1383 2.91398 18.5042 2.67449 17.8475 2.67449C17.1908 2.67449 16.5567 2.91398 16.064 3.34807C15.5713 3.78217 15.2538 4.38106 15.171 5.03249C15.0883 5.68392 15.246 6.34316 15.6145 6.88665C15.9831 7.43014 16.5372 7.82055 17.173 7.98472V10.5006L22.5689 15.8965V18.1088C20.6665 19.2936 19.1028 20.9503 18.0296 22.9179H14.6572L11.1026 19.3161C11.5395 18.8208 11.7794 18.1824 11.7771 17.522C11.7771 16.9884 11.6189 16.4668 11.3224 16.0231C11.026 15.5794 10.6046 15.2336 10.1116 15.0294C9.61862 14.8252 9.07615 14.7718 8.5528 14.8759C8.02945 14.98 7.54872 15.2369 7.17141 15.6142C6.79409 15.9916 6.53714 16.4723 6.43304 16.9956C6.32894 17.519 6.38236 18.0615 6.58657 18.5544C6.79077 19.0474 7.13657 19.4688 7.58025 19.7652C8.02392 20.0617 8.54554 20.2199 9.07915 20.2199C9.36848 20.2156 9.65531 20.1655 9.929 20.0715L14.1243 24.2669H17.4091C17.1476 24.9234 16.9401 25.6001 16.7885 26.2903H8.31023C8.14607 25.6545 7.75565 25.1004 7.21216 24.7318C6.66867 24.3633 6.00943 24.2056 5.358 24.2884C4.70657 24.3711 4.10768 24.6886 3.67358 25.1813C3.23949 25.674 3 26.3081 3 26.9648C3 27.6215 3.23949 28.2556 3.67358 28.7483C4.10768 29.241 4.70657 29.5585 5.358 29.6413C6.00943 29.724 6.66867 29.5663 7.21216 29.1978C7.75565 28.8292 8.14607 28.2751 8.31023 27.6393H16.5727C16.5241 28.0873 16.4993 28.5376 16.4985 28.9883C16.5022 29.6664 16.5608 30.3431 16.6739 31.0117H11.6827C11.5185 30.3759 11.1281 29.8218 10.5846 29.4533C10.0411 29.0847 9.38187 28.927 8.73044 29.0098C8.07901 29.0925 7.48012 29.41 7.04602 29.9027C6.61193 30.3954 6.37244 31.0296 6.37244 31.6862C6.37244 32.3429 6.61193 32.977 7.04602 33.4697C7.48012 33.9624 8.07901 34.2799 8.73044 34.3627C9.38187 34.4454 10.0411 34.2877 10.5846 33.9192C11.1281 33.5506 11.5185 32.9965 11.6827 32.3607H16.9639C17.1808 33.168 17.4767 33.952 17.8475 34.7012L14.8055 37.7566H9.65921C9.49504 37.1208 9.10462 36.5667 8.56114 36.1981C8.01765 35.8296 7.3584 35.6719 6.70697 35.7546C6.05554 35.8374 5.45665 36.1549 5.02256 36.6476C4.58847 37.1403 4.34898 37.7744 4.34898 38.4311C4.34898 39.0878 4.58847 39.7219 5.02256 40.2146C5.45665 40.7073 6.05554 41.0248 6.70697 41.1075C7.3584 41.1903 8.01765 41.0326 8.56114 40.6641C9.10462 40.2955 9.49504 39.7414 9.65921 39.1056H15.3654L18.522 35.922C19.4164 37.2883 20.5606 38.4737 21.8944 39.4158V45.5942L19.4393 48.0425C19.1453 47.9348 18.8351 47.8778 18.522 47.8739C17.9884 47.8739 17.4668 48.0322 17.0231 48.3286C16.5794 48.6251 16.2336 49.0464 16.0294 49.5394C15.8252 50.0324 15.7718 50.5749 15.8759 51.0982C15.98 51.6216 16.2369 52.1023 16.6142 52.4796C16.9916 52.8569 17.4723 53.1139 17.9956 53.218C18.519 53.3221 19.0615 53.2687 19.5544 53.0645C20.0474 52.8603 20.4688 52.5145 20.7652 52.0708C21.0617 51.6271 21.2199 51.1055 21.2199 50.5719C21.2129 49.9294 20.9733 49.3111 20.5454 48.8317L23.2434 46.1337V40.2725C23.8914 40.6168 24.5685 40.9034 25.2669 41.129V50.6663C24.631 50.8305 24.0769 51.2209 23.7084 51.7644C23.3398 52.3079 23.1821 52.9671 23.2649 53.6185C23.3476 54.27 23.6651 54.8689 24.1578 55.303C24.6506 55.737 25.2847 55.9765 25.9413 55.9765C26.598 55.9765 27.2321 55.737 27.7248 55.303C28.2176 54.8689 28.535 54.27 28.6178 53.6185C28.7005 52.9671 28.5429 52.3079 28.1743 51.7644C27.8058 51.2209 27.2516 50.8305 26.6158 50.6663V41.5135C27.5022 41.7062 28.4067 41.8034 29.3138 41.8035C29.5431 41.8035 29.7657 41.8035 29.9883 41.8035V45.9786C29.3525 46.1428 28.7983 46.5332 28.4298 47.0767C28.0612 47.6202 27.9036 48.2794 27.9863 48.9309C28.069 49.5823 28.3865 50.1812 28.8793 50.6153C29.372 51.0494 30.0061 51.2888 30.6628 51.2888C31.3194 51.2888 31.9535 51.0494 32.4463 50.6153C32.939 50.1812 33.2565 49.5823 33.3392 48.9309C33.4219 48.2794 33.2643 47.6202 32.8957 47.0767C32.5272 46.5332 31.9731 46.1428 31.3372 45.9786V41.6619C32.7524 41.4429 34.1206 40.9868 35.3842 40.3129V52.6898C34.7484 52.8539 34.1942 53.2444 33.8257 53.7878C33.4572 54.3313 33.2995 54.9906 33.3822 55.642C33.465 56.2934 33.7824 56.8923 34.2752 57.3264C34.7679 57.7605 35.402 58 36.0587 58C36.7153 58 37.3494 57.7605 37.8422 57.3264C38.3349 56.8923 38.6524 56.2934 38.7351 55.642C38.8178 54.9906 38.6602 54.3313 38.2916 53.7878C37.9231 53.2444 37.369 52.8539 36.7331 52.6898V43.3076L40.1056 46.6801V48.6428C39.4698 48.807 38.9157 49.1974 38.5471 49.7409C38.1786 50.2844 38.0209 50.9436 38.1036 51.5951C38.1864 52.2465 38.5039 52.8454 38.9966 53.2795C39.4893 53.7136 40.1234 53.9531 40.7801 53.9531C41.4367 53.9531 42.0709 53.7136 42.5636 53.2795C43.0563 52.8454 43.3738 52.2465 43.4565 51.5951C43.5393 50.9436 43.3816 50.2844 43.013 49.7409C42.6445 49.1974 42.0904 48.807 41.4546 48.6428V46.127L36.7331 41.4056V39.4158C37.8276 38.6363 38.7927 37.6894 39.593 36.61L42.7631 39.7801H46.2704C46.4346 40.4159 46.825 40.97 47.3685 41.3385C47.912 41.7071 48.5712 41.8648 49.2226 41.782C49.8741 41.6993 50.473 41.3818 50.907 40.8891C51.3411 40.3964 51.5806 39.7622 51.5806 39.1056C51.5806 38.4489 51.3411 37.8148 50.907 37.3221C50.473 36.8294 49.8741 36.5119 49.2226 36.4291C48.5712 36.3464 47.912 36.5041 47.3685 36.8726C46.825 37.2412 46.4346 37.7953 46.2704 38.4311H43.3229L40.3551 35.4634C40.9253 34.4909 41.3652 33.4477 41.6637 32.3607H52.3408C52.467 32.8497 52.728 33.2933 53.0939 33.6413C53.4599 33.9893 53.9161 34.2276 54.4108 34.3291C54.9055 34.4306 55.4187 34.3912 55.8921 34.2155C56.3655 34.0397 56.7801 33.7346 57.0887 33.3349C57.3973 32.9352 57.5875 32.4569 57.6377 31.9544C57.6879 31.4519 57.596 30.9454 57.3726 30.4926C57.1492 30.0397 56.8032 29.6586 56.3739 29.3927C55.9446 29.1267 55.4493 28.9866 54.9443 28.9883ZM48.8739 25.6158C49.1407 25.6158 49.4015 25.6949 49.6234 25.8432C49.8452 25.9914 50.0181 26.2021 50.1202 26.4486C50.2223 26.6951 50.249 26.9663 50.197 27.228C50.1449 27.4897 50.0165 27.73 49.8278 27.9187C49.6391 28.1073 49.3988 28.2358 49.1371 28.2879C48.8754 28.3399 48.6042 28.3132 48.3577 28.2111C48.1112 28.109 47.9005 27.9361 47.7523 27.7143C47.6041 27.4924 47.525 27.2316 47.525 26.9648C47.525 26.607 47.6671 26.2639 47.9201 26.0109C48.173 25.758 48.5162 25.6158 48.8739 25.6158ZM51.5719 18.1965C51.8387 18.1965 52.0995 18.2756 52.3213 18.4238C52.5432 18.572 52.7161 18.7827 52.8182 19.0292C52.9203 19.2757 52.947 19.5469 52.8949 19.8086C52.8429 20.0703 52.7144 20.3107 52.5257 20.4993C52.3371 20.688 52.0967 20.8164 51.8351 20.8685C51.5734 20.9205 51.3021 20.8938 51.0556 20.7917C50.8092 20.6896 50.5985 20.5167 50.4502 20.2949C50.302 20.0731 50.2229 19.8122 50.2229 19.5454C50.2229 19.1877 50.365 18.8446 50.618 18.5916C50.871 18.3386 51.2141 18.1965 51.5719 18.1965ZM38.7566 6.05568C38.7566 5.78888 38.8357 5.52807 38.984 5.30623C39.1322 5.0844 39.3429 4.91149 39.5894 4.80939C39.8358 4.70729 40.1071 4.68058 40.3688 4.73263C40.6304 4.78468 40.8708 4.91316 41.0595 5.10181C41.2481 5.29047 41.3766 5.53084 41.4286 5.79251C41.4807 6.05419 41.454 6.32542 41.3519 6.57191C41.2498 6.81841 41.0769 7.02909 40.855 7.17732C40.6332 7.32554 40.3724 7.40466 40.1056 7.40466C39.7478 7.40466 39.4047 7.26254 39.1517 7.00955C38.8987 6.75657 38.7566 6.41345 38.7566 6.05568ZM32.0117 4.70671C32.0117 4.43991 32.0908 4.1791 32.2391 3.95726C32.3873 3.73542 32.598 3.56252 32.8445 3.46042C33.091 3.35832 33.3622 3.3316 33.6239 3.38365C33.8856 3.4357 34.1259 3.56418 34.3146 3.75284C34.5032 3.9415 34.6317 4.18186 34.6838 4.44354C34.7358 4.70521 34.7091 4.97645 34.607 5.22294C34.5049 5.46943 34.332 5.68011 34.1102 5.82834C33.8883 5.97657 33.6275 6.05568 33.3607 6.05568C33.0029 6.05568 32.6598 5.91356 32.4068 5.66058C32.1539 5.4076 32.0117 5.06448 32.0117 4.70671ZM27.2903 11.4516C27.2903 11.1848 27.3694 10.924 27.5177 10.7021C27.6659 10.4803 27.8766 10.3074 28.1231 10.2053C28.3696 10.1032 28.6408 10.0765 28.9025 10.1285C29.1641 10.1806 29.4045 10.3091 29.5932 10.4977C29.7818 10.6864 29.9103 10.9267 29.9623 11.1884C30.0144 11.4501 29.9877 11.7213 29.8856 11.9678C29.7835 12.2143 29.6106 12.425 29.3887 12.5732C29.1669 12.7214 28.9061 12.8006 28.6393 12.8006C28.2815 12.8006 27.9384 12.6584 27.6854 12.4055C27.4324 12.1525 27.2903 11.8094 27.2903 11.4516ZM16.4985 5.3812C16.4985 5.11439 16.5776 4.85358 16.7259 4.63175C16.8741 4.40991 17.0848 4.23701 17.3313 4.1349C17.5778 4.0328 17.849 4.00609 18.1107 4.05814C18.3723 4.11019 18.6127 4.23867 18.8014 4.42733C18.99 4.61598 19.1185 4.85635 19.1705 5.11802C19.2226 5.3797 19.1959 5.65093 19.0938 5.89743C18.9917 6.14392 18.8188 6.3546 18.5969 6.50283C18.3751 6.65106 18.1143 6.73017 17.8475 6.73017C17.4897 6.73017 17.1466 6.58805 16.8936 6.33507C16.6406 6.08208 16.4985 5.73897 16.4985 5.3812ZM21.8944 8.75363C21.8944 8.48683 21.9735 8.22602 22.1218 8.00418C22.27 7.78235 22.4807 7.60944 22.7272 7.50734C22.9737 7.40524 23.2449 7.37853 23.5066 7.43058C23.7682 7.48263 24.0086 7.61111 24.1973 7.79977C24.3859 7.98842 24.5144 8.22879 24.5664 8.49046C24.6185 8.75214 24.5918 9.02337 24.4897 9.26987C24.3876 9.51636 24.2147 9.72704 23.9928 9.87527C23.771 10.0235 23.5102 10.1026 23.2434 10.1026C22.8856 10.1026 22.5425 9.96049 22.2895 9.7075C22.0365 9.45452 21.8944 9.11141 21.8944 8.75363ZM7.73017 17.522C7.73017 17.2552 7.80929 16.9944 7.95751 16.7725C8.10574 16.5507 8.31642 16.3778 8.56292 16.2757C8.80941 16.1736 9.08064 16.1469 9.34232 16.1989C9.60399 16.251 9.84436 16.3794 10.033 16.5681C10.2217 16.7568 10.3502 16.9971 10.4022 17.2588C10.4543 17.5205 10.4275 17.7917 10.3254 18.0382C10.2233 18.2847 10.0504 18.4954 9.8286 18.6436C9.60676 18.7918 9.34595 18.871 9.07915 18.871C8.72138 18.871 8.37826 18.7288 8.12528 18.4758C7.8723 18.2229 7.73017 17.8797 7.73017 17.522ZM5.70671 28.3138C5.43991 28.3138 5.1791 28.2347 4.95726 28.0864C4.73542 27.9382 4.56252 27.7275 4.46042 27.481C4.35832 27.2345 4.3316 26.9633 4.38365 26.7016C4.4357 26.44 4.56418 26.1996 4.75284 26.0109C4.9415 25.8223 5.18186 25.6938 5.44354 25.6418C5.70521 25.5897 5.97645 25.6164 6.22294 25.7185C6.46943 25.8206 6.68011 25.9935 6.82834 26.2154C6.97657 26.4372 7.05568 26.698 7.05568 26.9648C7.05568 27.3226 6.91356 27.6657 6.66058 27.9187C6.4076 28.1717 6.06448 28.3138 5.70671 28.3138ZM9.07915 33.0352C8.81235 33.0352 8.55153 32.9561 8.3297 32.8079C8.10786 32.6596 7.93496 32.4489 7.83286 32.2024C7.73076 31.956 7.70404 31.6847 7.75609 31.423C7.80814 31.1614 7.93662 30.921 8.12528 30.7323C8.31394 30.5437 8.5543 30.4152 8.81598 30.3632C9.07765 30.3111 9.34889 30.3378 9.59538 30.4399C9.84187 30.542 10.0526 30.7149 10.2008 30.9368C10.349 31.1586 10.4281 31.4194 10.4281 31.6862C10.4281 32.044 10.286 32.3871 10.033 32.6401C9.78003 32.8931 9.43692 33.0352 9.07915 33.0352ZM7.05568 39.7801C6.78888 39.7801 6.52807 39.701 6.30623 39.5527C6.0844 39.4045 5.91149 39.1938 5.80939 38.9473C5.70729 38.7008 5.68058 38.4296 5.73263 38.1679C5.78468 37.9062 5.91316 37.6659 6.10181 37.4772C6.29047 37.2886 6.53084 37.1601 6.79251 37.108C7.05419 37.056 7.32542 37.0827 7.57191 37.1848C7.81841 37.2869 8.02909 37.4598 8.17732 37.6816C8.32554 37.9035 8.40466 38.1643 8.40466 38.4311C8.40466 38.7889 8.26254 39.132 8.00955 39.385C7.75657 39.638 7.41345 39.7801 7.05568 39.7801ZM18.522 51.9209C18.2552 51.9209 17.9944 51.8417 17.7725 51.6935C17.5507 51.5453 17.3778 51.3346 17.2757 51.0881C17.1736 50.8416 17.1469 50.5704 17.1989 50.3087C17.251 50.047 17.3794 49.8067 17.5681 49.618C17.7568 49.4293 17.9971 49.3009 18.2588 49.2488C18.5205 49.1968 18.7917 49.2235 19.0382 49.3256C19.2847 49.4277 19.4954 49.6006 19.6436 49.8224C19.7918 50.0443 19.871 50.3051 19.871 50.5719C19.871 50.9296 19.7288 51.2728 19.4758 51.5257C19.2229 51.7787 18.8797 51.9209 18.522 51.9209ZM27.2903 53.2698C27.2903 53.5366 27.2112 53.7974 27.063 54.0193C26.9147 54.2411 26.7041 54.414 26.4576 54.5161C26.2111 54.6182 25.9398 54.6449 25.6782 54.5929C25.4165 54.5408 25.1761 54.4124 24.9875 54.2237C24.7988 54.035 24.6703 53.7947 24.6183 53.533C24.5662 53.2713 24.5929 53.0001 24.695 52.7536C24.7971 52.5071 24.9701 52.2964 25.1919 52.1482C25.4137 52 25.6745 51.9209 25.9413 51.9209C26.2991 51.9209 26.6422 52.063 26.8952 52.316C27.1482 52.5689 27.2903 52.9121 27.2903 53.2698ZM32.0117 48.5484C32.0117 48.8152 31.9326 49.076 31.7844 49.2979C31.6362 49.5197 31.4255 49.6926 31.179 49.7947C30.9325 49.8968 30.6613 49.9235 30.3996 49.8715C30.1379 49.8194 29.8975 49.6909 29.7089 49.5023C29.5202 49.3136 29.3918 49.0733 29.3397 48.8116C29.2877 48.5499 29.3144 48.2787 29.4165 48.0322C29.5186 47.7857 29.6915 47.575 29.9133 47.4268C30.1351 47.2786 30.396 47.1994 30.6628 47.1994C31.0205 47.1994 31.3636 47.3416 31.6166 47.5945C31.8696 47.8475 32.0117 48.1906 32.0117 48.5484ZM42.129 51.2464C42.129 51.5132 42.0499 51.774 41.9017 51.9958C41.7535 52.2177 41.5428 52.3906 41.2963 52.4927C41.0498 52.5948 40.7786 52.6215 40.5169 52.5694C40.2552 52.5174 40.0149 52.3889 39.8262 52.2002C39.6375 52.0116 39.5091 51.7712 39.457 51.5095C39.405 51.2479 39.4317 50.9766 39.5338 50.7301C39.6359 50.4836 39.8088 50.273 40.0306 50.1247C40.2525 49.9765 40.5133 49.8974 40.7801 49.8974C41.1378 49.8974 41.481 50.0395 41.7339 50.2925C41.9869 50.5455 42.129 50.8886 42.129 51.2464ZM37.4076 55.2933C37.4076 55.5601 37.3285 55.8209 37.1803 56.0427C37.0321 56.2646 36.8214 56.4375 36.5749 56.5396C36.3284 56.6417 36.0572 56.6684 35.7955 56.6163C35.5338 56.5643 35.2934 56.4358 35.1048 56.2472C34.9161 56.0585 34.7877 55.8181 34.7356 55.5565C34.6836 55.2948 34.7103 55.0236 34.8124 54.7771C34.9145 54.5306 35.0874 54.3199 35.3092 54.1717C35.531 54.0234 35.7919 53.9443 36.0587 53.9443C36.4164 53.9443 36.7595 54.0864 37.0125 54.3394C37.2655 54.5924 37.4076 54.9355 37.4076 55.2933ZM48.8739 37.7566C49.1407 37.7566 49.4015 37.8357 49.6234 37.984C49.8452 38.1322 50.0181 38.3429 50.1202 38.5894C50.2223 38.8358 50.249 39.1071 50.197 39.3688C50.1449 39.6304 50.0165 39.8708 49.8278 40.0595C49.6391 40.2481 49.3988 40.3766 49.1371 40.4286C48.8754 40.4807 48.6042 40.454 48.3577 40.3519C48.1112 40.2498 47.9005 40.0769 47.7523 39.855C47.6041 39.6332 47.525 39.3724 47.525 39.1056C47.525 38.7478 47.6671 38.4047 47.9201 38.1517C48.173 37.8987 48.5162 37.7566 48.8739 37.7566ZM29.3138 40.4546C27.046 40.4546 24.8291 39.7821 22.9434 38.5221C21.0578 37.2622 19.5882 35.4714 18.7203 33.3762C17.8525 31.281 17.6254 28.9755 18.0678 26.7513C18.5102 24.5271 19.6023 22.484 21.2059 20.8804C22.8095 19.2768 24.8526 18.1847 27.0768 17.7423C29.3011 17.2999 31.6065 17.5269 33.7017 18.3948C35.7969 19.2627 37.5877 20.7323 38.8477 22.6179C40.1076 24.5036 40.7801 26.7205 40.7801 28.9883C40.7801 32.0293 39.572 34.9458 37.4217 37.0962C35.2713 39.2465 32.3548 40.4546 29.3138 40.4546ZM54.9443 33.0352C54.6775 33.0352 54.4167 32.9561 54.1949 32.8079C53.973 32.6596 53.8001 32.4489 53.698 32.2024C53.5959 31.956 53.5692 31.6847 53.6213 31.423C53.6733 31.1614 53.8018 30.921 53.9904 30.7323C54.1791 30.5437 54.4195 30.4152 54.6811 30.3632C54.9428 30.3111 55.2141 30.3378 55.4605 30.4399C55.707 30.542 55.9177 30.7149 56.0659 30.9368C56.2142 31.1586 56.2933 31.4194 56.2933 31.6862C56.2933 32.044 56.1512 32.3871 55.8982 32.6401C55.6452 32.8931 55.3021 33.0352 54.9443 33.0352Z" fill="white"/>
<path d="M29.3138 18.871C27.3128 18.871 25.3567 19.4643 23.6929 20.576C22.0291 21.6877 20.7324 23.2678 19.9666 25.1165C19.2008 26.9652 19.0005 28.9995 19.3909 30.9621C19.7812 32.9246 20.7448 34.7274 22.1598 36.1423C23.5747 37.5572 25.3774 38.5208 27.34 38.9112C29.3026 39.3016 31.3368 39.1012 33.1855 38.3354C35.0342 37.5697 36.6143 36.2729 37.726 34.6091C38.8377 32.9454 39.4311 30.9893 39.4311 28.9883C39.4311 26.305 38.3652 23.7316 36.4678 21.8342C34.5704 19.9369 31.9971 18.871 29.3138 18.871ZM29.3138 37.7566C27.5796 37.7566 25.8843 37.2424 24.4424 36.2789C23.0004 35.3154 21.8765 33.946 21.2129 32.3438C20.5492 30.7416 20.3756 28.9785 20.7139 27.2776C21.0522 25.5768 21.8874 24.0144 23.1136 22.7881C24.3399 21.5618 25.9023 20.7267 27.6032 20.3884C29.3041 20.0501 31.0671 20.2237 32.6693 20.8874C34.2715 21.551 35.6409 22.6749 36.6044 24.1168C37.5679 25.5588 38.0821 27.2541 38.0821 28.9883C38.0821 30.1397 37.8553 31.2799 37.4147 32.3438C36.974 33.4076 36.3281 34.3742 35.5139 35.1884C34.6997 36.0026 33.7331 36.6485 32.6693 37.0892C31.6055 37.5298 30.4653 37.7566 29.3138 37.7566Z" fill="white"/>
</svg>
