<svg width="160" height="160" viewBox="0 0 160 160" fill="none" xmlns="http://www.w3.org/2000/svg">
<circle cx="80" cy="80" r="78" fill="white" stroke="#C2CAD2" stroke-width="4"/>
<circle cx="80" cy="80" r="69" fill="white" stroke="#C2CAD2" stroke-width="2"/>
<path d="M117.229 80.2267C115.963 79.0444 115.456 77.6933 116.469 76.1733C117.145 75.0756 116.891 73.64 115.794 72.88C114.274 71.8667 114.19 70.6 114.865 69.1644C115.456 67.8978 114.781 66.3778 113.514 65.8711C112.079 65.3644 111.235 64.4356 111.488 62.7467C111.741 61.48 110.897 60.2133 109.546 59.96C107.942 59.6222 107.351 58.5244 107.435 57.0044C107.435 55.5689 106.337 54.4711 104.902 54.4711C103.382 54.4711 102.285 53.9644 101.947 52.36C101.694 51.0933 100.427 50.2489 99.1607 50.4178C97.472 50.7556 96.6277 49.9111 96.0367 48.3911C95.5301 47.04 94.0948 46.4489 92.7438 47.04C91.2241 47.7156 89.9576 47.5467 89.0288 46.1111C88.3534 45.0133 86.8336 44.6756 85.736 45.4356C84.2162 46.5333 82.9497 46.0267 81.7676 44.76C80.8389 43.7467 79.2347 43.7467 78.3059 44.76C77.0394 46.0267 75.7729 46.5333 74.1687 45.52C73.0711 44.8444 71.6358 45.0978 70.8759 46.1956C69.8627 47.7156 68.5962 47.8 67.1608 47.1244C65.8944 46.5333 64.3746 47.2089 63.9524 48.4756C63.4458 49.9111 62.5171 50.7556 60.8284 50.5022C59.5619 50.2489 58.2954 51.0933 58.0421 52.4444C57.7044 54.0489 56.6068 54.5556 55.087 54.5556C53.6517 54.5556 52.554 55.6533 52.554 57.0889C52.554 58.6089 52.0474 59.7067 50.4432 60.0444C49.1767 60.2978 48.3324 61.5644 48.5013 62.8311C48.839 64.52 47.9947 65.3644 46.4749 65.9556C45.124 66.4622 44.533 67.8978 45.124 69.2489C45.7995 70.7689 45.6306 72.0356 44.1952 72.9644C43.0976 73.64 42.7599 75.16 43.5198 76.2578C44.533 77.7778 44.0264 79.0444 42.7599 80.2267C41.7467 81.1556 41.7467 82.76 42.7599 83.6889C44.0264 84.8711 44.533 86.2222 43.5198 87.7422C42.8443 88.84 43.0976 90.2756 44.1952 91.0356C45.715 92.0489 45.7995 93.3156 45.124 94.7511C44.533 96.1022 45.2084 97.6222 46.4749 98.0444C47.9103 98.6356 48.7546 99.48 48.5013 101.169C48.248 102.436 49.0923 103.702 50.4432 103.956C52.0474 104.293 52.554 105.391 52.554 106.911C52.554 108.347 53.6517 109.444 55.087 109.444C56.6068 109.444 57.7044 109.951 58.0421 111.556C58.2954 112.822 59.5619 113.667 60.8284 113.498C62.5171 113.16 63.3614 114.004 63.9524 115.524C64.459 116.876 65.8944 117.467 67.2453 116.876C68.7651 116.2 70.0315 116.369 70.9603 117.804C71.6357 118.902 73.1555 119.24 74.2532 118.48C75.8574 117.467 77.1239 117.973 78.3059 119.24C79.2347 120.253 80.8389 120.253 81.7676 119.24C82.9497 117.973 84.3006 117.467 85.8204 118.48C86.918 119.156 88.3534 118.902 89.1132 117.804C90.1264 116.284 91.3929 116.2 92.8283 116.876C94.0948 117.467 95.6145 116.791 96.1211 115.524C96.7122 114.089 97.5565 113.244 99.2451 113.498C100.512 113.751 101.778 112.907 102.031 111.556C102.369 109.951 103.467 109.36 104.987 109.444C106.422 109.444 107.519 108.347 107.519 106.911C107.519 105.391 108.026 104.293 109.63 103.956C110.897 103.702 111.741 102.436 111.572 101.169C111.235 99.48 112.079 98.6356 113.599 98.0444C114.95 97.5378 115.541 96.1022 114.95 94.7511C114.274 93.3156 114.443 91.9644 115.878 91.0356C116.976 90.36 117.314 88.84 116.554 87.7422C115.541 86.1378 116.047 84.8711 117.314 83.6889C118.242 82.8444 118.242 81.1556 117.229 80.2267ZM79.9946 113.667C62.5171 113.667 48.3324 99.48 48.3324 82C48.3324 64.52 62.5171 50.3333 79.9946 50.3333C97.472 50.3333 111.657 64.52 111.657 82C111.657 99.48 97.472 113.667 79.9946 113.667Z" fill="#C2CAD2"/>
<path d="M79.9946 116.2C98.88 116.2 114.19 100.888 114.19 82C114.19 63.1119 98.88 47.8 79.9946 47.8C61.1091 47.8 45.7995 63.1119 45.7995 82C45.7995 100.888 61.1091 116.2 79.9946 116.2Z" fill="#C2CAD2"/>
<path d="M79.9909 56.8284C66.1126 56.8284 54.8202 68.1207 54.8202 82.0027C54.8202 95.883 66.1108 107.177 79.9909 107.177C93.8709 107.177 105.162 95.8848 105.162 82.0027C105.162 68.1207 93.8709 56.8284 79.9909 56.8284ZM79.9909 106.452C66.5104 106.452 55.5435 95.4833 55.5435 82.0009C55.5435 68.5186 66.5104 57.55 79.9909 57.55C93.4713 57.55 104.438 68.5186 104.438 82.0009C104.438 95.4833 93.4713 106.452 79.9909 106.452Z" fill="white"/>
<path d="M79.9945 50.0791C62.3967 50.0791 48.079 64.3988 48.079 81.9991C48.079 99.5994 62.3967 113.919 79.9945 113.919C97.5923 113.919 111.91 99.5994 111.91 81.9991C111.91 64.3988 97.5923 50.0791 79.9945 50.0791ZM110.789 86.9725L108.912 86.6415C109.131 85.2743 109.254 83.8745 109.275 82.4512H111.181C111.159 83.9866 111.026 85.4967 110.789 86.9725ZM109.456 92.2479L107.666 91.5968C108.143 90.226 108.521 88.8081 108.791 87.3541L110.668 87.685C110.377 89.2494 109.97 90.7739 109.456 92.2479ZM107.218 97.2104L105.567 96.2573C106.279 94.9859 106.897 93.6549 107.416 92.275L109.207 92.9279C108.653 94.4126 107.986 95.8432 107.218 97.2104ZM104.153 101.71L102.693 100.486C103.617 99.3517 104.458 98.149 105.207 96.8849L106.858 97.8379C106.053 99.1979 105.147 100.493 104.153 101.71ZM95.831 108.866L94.8781 107.215C96.142 106.466 97.3445 105.625 98.4783 104.701L99.7025 106.161C98.4855 107.155 97.1908 108.061 95.831 108.866ZM90.9217 111.219L90.2707 109.429C91.6504 108.91 92.9794 108.289 94.2524 107.579L95.2054 109.23C93.8365 109.995 92.4062 110.662 90.9217 111.219ZM85.6796 112.675L85.3487 110.798C86.8025 110.528 88.2201 110.15 89.5908 109.673L90.2418 111.463C88.768 111.979 87.2437 112.386 85.6796 112.675ZM69.7472 111.465L70.3981 109.675C71.7688 110.152 73.1864 110.53 74.6403 110.799L74.3094 112.677C72.7452 112.386 71.2209 111.979 69.7472 111.465ZM64.7854 109.226L65.7383 107.575C67.0095 108.287 68.3404 108.906 69.7201 109.425L69.0673 111.215C67.5827 110.662 66.1524 109.995 64.7854 109.226ZM60.2865 106.161L61.5106 104.701C62.6444 105.625 63.8469 106.466 65.1108 107.215L64.1579 108.866C62.7981 108.061 61.5034 107.155 60.2865 106.161ZM75.3527 110.921C76.7197 111.139 78.1193 111.262 79.5424 111.284V113.19C78.0072 113.169 76.4973 113.035 75.0218 112.798L75.3527 110.921ZM80.2657 111.286C81.7503 111.271 83.2095 111.148 84.6362 110.921L84.9671 112.798C83.4337 113.044 81.8642 113.179 80.2657 113.192V111.286ZM79.9945 110.566C64.2447 110.566 51.4315 97.7511 51.4315 81.9991C51.4315 66.2471 64.2447 53.4321 79.9945 53.4321C95.7442 53.4321 108.557 66.2471 108.557 81.9991C108.557 97.7511 95.7442 110.566 79.9945 110.566ZM53.2108 97.9718L54.8599 97.0187C55.6122 98.2738 56.4548 99.4674 57.3806 100.592L55.9214 101.817C54.9268 100.609 54.0209 99.3227 53.2108 97.9718ZM50.8402 93.087L52.6304 92.436C53.1548 93.8086 53.7804 95.1306 54.4965 96.3948L52.8456 97.3478C52.0752 95.9878 51.4044 94.5646 50.8402 93.087ZM49.3575 87.8605L51.2344 87.5295C51.5129 88.9799 51.898 90.3905 52.3808 91.7578L50.5907 92.4088C50.0681 90.9385 49.654 89.4194 49.3575 87.8605ZM48.8078 82.4512H50.7136C50.7353 83.936 50.8692 85.3937 51.106 86.8169L49.2291 87.1479C48.9741 85.6161 48.8313 84.0481 48.8078 82.4512ZM49.2291 76.8503L51.106 77.1813C50.8601 78.6624 50.7245 80.1816 50.7118 81.7278H48.806C48.8204 80.0676 48.9651 78.44 49.2291 76.8503ZM50.5907 71.5894L52.3808 72.2404C51.8962 73.6059 51.5111 75.0183 51.2344 76.4687L49.3575 76.1378C49.654 74.5788 50.0681 73.0597 50.5907 71.5894ZM52.8474 66.6504L54.4983 67.6035C53.7822 68.8676 53.1566 70.1914 52.6322 71.5623L50.842 70.9112C51.4044 69.4337 52.0752 68.0104 52.8474 66.6504ZM55.9232 62.1798L57.3824 63.4041C56.4566 64.529 55.614 65.7226 54.8617 66.9777L53.2126 66.0246C54.0209 64.6755 54.9268 63.3897 55.9232 62.1798ZM64.0241 55.2116L64.977 56.861C63.7221 57.6133 62.5269 58.4561 61.404 59.382L60.1798 57.9226C61.3859 56.9279 62.6733 56.0218 64.0241 55.2116ZM68.9082 52.8407L69.5609 54.6311C68.1885 55.1556 66.8666 55.7813 65.6027 56.4975L64.6497 54.8463C66.0077 54.0759 67.4308 53.4049 68.9082 52.8407ZM74.134 51.3577L74.4649 53.2349C73.0147 53.5134 71.6042 53.8987 70.2372 54.3815L69.5862 52.5911C71.0545 52.0685 72.5753 51.6543 74.134 51.3577ZM90.4027 52.5911L89.7517 54.3815C88.3865 53.8968 86.9743 53.5116 85.5241 53.2349L85.855 51.3577C87.4137 51.6543 88.9326 52.0685 90.4027 52.5911ZM95.341 54.8481L94.3881 56.4993C93.1241 55.7831 91.8005 55.1574 90.4298 54.6329L91.0808 52.8425C92.5581 53.4049 93.9812 54.0759 95.341 54.8481ZM99.811 57.9244L98.5868 59.3838C97.4621 58.4579 96.2686 57.6151 95.0137 56.8628L95.9666 55.2134C97.3156 56.0218 98.6031 56.9279 99.811 57.9244ZM84.8116 53.1065C83.3307 52.8606 81.8117 52.7249 80.2657 52.7123V50.8061C81.9257 50.8206 83.5531 50.9653 85.1425 51.2293L84.8116 53.1065ZM79.5424 52.7141C78.0578 52.7358 76.6004 52.8696 75.1773 53.1065L74.8464 51.2293C76.378 50.9743 77.9457 50.8314 79.5424 50.8079V52.7141ZM106.858 66.1603L105.207 67.1134C104.458 65.8492 103.617 64.6466 102.693 63.5126L104.153 62.2883C105.147 63.5054 106.053 64.8003 106.858 66.1603ZM109.21 71.0703L107.42 71.7214C106.901 70.3415 106.281 69.0123 105.57 67.7391L107.221 66.786C107.986 68.155 108.653 69.5856 109.21 71.0703ZM110.666 76.3132L108.789 76.6441C108.519 75.1901 108.142 73.7722 107.664 72.4014L109.454 71.7503C109.97 73.2243 110.377 74.7488 110.666 76.3132ZM109.277 81.7278C109.263 80.2431 109.14 78.7836 108.912 77.3567L110.789 77.0257C111.035 78.5593 111.17 80.1291 111.183 81.7278H109.277ZM103.688 61.7331L102.229 62.9574C101.277 61.847 100.245 60.8071 99.1383 59.8504L100.362 58.391C101.554 59.42 102.664 60.5377 103.688 61.7331ZM59.6247 58.391L60.8488 59.8504C59.7784 60.7782 58.7748 61.7801 57.849 62.8507L56.3897 61.6264C57.3879 60.4725 58.471 59.3893 59.6247 58.391ZM56.3897 102.37L57.849 101.146C58.8055 102.251 59.8453 103.283 60.9555 104.236L59.7313 105.696C58.5361 104.672 57.4186 103.562 56.3897 102.37ZM100.258 105.696L99.0334 104.236C100.178 103.254 101.247 102.186 102.229 101.041L103.688 102.265C102.635 103.495 101.487 104.643 100.258 105.696Z" fill="white"/>
<path d="M73.0558 68.9722C72.8759 68.9892 72.7088 69.0729 72.5874 69.2068C72.466 69.3408 72.3991 69.5153 72.3999 69.696V70.4198H68.781C68.7584 70.4187 68.7357 70.4187 68.7131 70.4198C68.5332 70.4368 68.366 70.5204 68.2447 70.6544C68.1233 70.7883 68.0564 70.9628 68.0572 71.1436V73.134C68.0572 75.719 69.9326 77.8842 72.3999 78.3136V78.3815C72.3999 82.1328 75.2589 85.22 78.914 85.5854V90.6859H73.8475C72.6571 90.6859 71.6761 91.6668 71.6761 92.8572V94.3048C71.6761 94.4967 71.7524 94.6808 71.8881 94.8166C72.0239 94.9523 72.208 95.0286 72.3999 95.0286H86.8757C87.0676 95.0286 87.2517 94.9523 87.3874 94.8166C87.5232 94.6808 87.5994 94.4967 87.5994 94.3048V92.8572C87.5994 91.6668 86.6185 90.6859 85.4281 90.6859H80.3616V85.5854C84.0167 85.22 86.8757 82.1328 86.8757 78.3815V78.3136C89.3421 77.8832 91.2184 75.7182 91.2184 73.134V71.1436C91.2184 70.9516 91.1421 70.7676 91.0064 70.6318C90.8706 70.4961 90.6865 70.4198 90.4946 70.4198H86.8757V69.696C86.8756 69.5041 86.7994 69.32 86.6636 69.1842C86.5279 69.0485 86.3438 68.9723 86.1519 68.9722H73.1237C73.1011 68.9712 73.0784 68.9712 73.0558 68.9722ZM73.8475 70.4198H85.4281V78.3815C85.4281 81.6018 82.8581 84.1718 79.6378 84.1718C76.4174 84.1718 73.8475 81.6018 73.8475 78.3815V70.4198ZM69.5048 71.8674H72.3999V76.8208C70.7315 76.4201 69.5048 74.94 69.5048 73.134V71.8674ZM86.8757 71.8674H89.7708V73.134C89.7708 74.9396 88.5438 76.431 86.8757 76.8321V71.8674ZM73.8475 92.1334H85.4281C85.8416 92.1334 86.1519 92.4437 86.1519 92.8572V93.581H73.1237V92.8572C73.1237 92.4437 73.434 92.1334 73.8475 92.1334Z" fill="white"/>
</svg>
