<svg width="160" height="160" viewBox="0 0 160 160" fill="none" xmlns="http://www.w3.org/2000/svg">
<circle cx="80" cy="80" r="78" fill="white" stroke="#1F3C61" stroke-width="4"/>
<circle cx="80" cy="80" r="69" fill="white" stroke="#1F3C61" stroke-width="2"/>
<path d="M117.229 78.2267C115.963 77.0444 115.456 75.6933 116.469 74.1733C117.145 73.0756 116.891 71.64 115.794 70.88C114.274 69.8667 114.19 68.6 114.865 67.1644C115.456 65.8978 114.781 64.3778 113.514 63.8711C112.079 63.3644 111.235 62.4356 111.488 60.7467C111.741 59.48 110.897 58.2133 109.546 57.96C107.942 57.6222 107.351 56.5244 107.435 55.0044C107.435 53.5689 106.337 52.4711 104.902 52.4711C103.382 52.4711 102.285 51.9644 101.947 50.36C101.694 49.0933 100.427 48.2489 99.1607 48.4178C97.472 48.7556 96.6277 47.9111 96.0367 46.3911C95.5301 45.04 94.0948 44.4489 92.7438 45.04C91.2241 45.7156 89.9576 45.5467 89.0288 44.1111C88.3534 43.0133 86.8336 42.6756 85.736 43.4356C84.2162 44.5333 82.9497 44.0267 81.7676 42.76C80.8389 41.7467 79.2347 41.7467 78.3059 42.76C77.0394 44.0267 75.7729 44.5333 74.1687 43.52C73.0711 42.8444 71.6358 43.0978 70.8759 44.1956C69.8627 45.7156 68.5962 45.8 67.1608 45.1244C65.8944 44.5333 64.3746 45.2089 63.9524 46.4756C63.4458 47.9111 62.5171 48.7556 60.8284 48.5022C59.5619 48.2489 58.2954 49.0933 58.0421 50.4444C57.7044 52.0489 56.6068 52.5556 55.087 52.5556C53.6517 52.5556 52.554 53.6533 52.554 55.0889C52.554 56.6089 52.0474 57.7067 50.4432 58.0444C49.1767 58.2978 48.3324 59.5644 48.5013 60.8311C48.839 62.52 47.9947 63.3644 46.4749 63.9556C45.124 64.4622 44.533 65.8978 45.124 67.2489C45.7995 68.7689 45.6306 70.0356 44.1952 70.9644C43.0976 71.64 42.7599 73.16 43.5198 74.2578C44.533 75.7778 44.0264 77.0444 42.7599 78.2267C41.7467 79.1556 41.7467 80.76 42.7599 81.6889C44.0264 82.8711 44.533 84.2222 43.5198 85.7422C42.8443 86.84 43.0976 88.2756 44.1952 89.0356C45.715 90.0489 45.7995 91.3156 45.124 92.7511C44.533 94.1022 45.2084 95.6222 46.4749 96.0444C47.9103 96.6356 48.7546 97.48 48.5013 99.1689C48.248 100.436 49.0923 101.702 50.4432 101.956C52.0474 102.293 52.554 103.391 52.554 104.911C52.554 106.347 53.6517 107.444 55.087 107.444C56.6068 107.444 57.7044 107.951 58.0421 109.556C58.2954 110.822 59.5619 111.667 60.8284 111.498C62.5171 111.16 63.3614 112.004 63.9524 113.524C64.459 114.876 65.8944 115.467 67.2453 114.876C68.7651 114.2 70.0315 114.369 70.9603 115.804C71.6357 116.902 73.1555 117.24 74.2532 116.48C75.8574 115.467 77.1239 115.973 78.3059 117.24C79.2347 118.253 80.8389 118.253 81.7676 117.24C82.9497 115.973 84.3006 115.467 85.8204 116.48C86.918 117.156 88.3534 116.902 89.1132 115.804C90.1264 114.284 91.3929 114.2 92.8283 114.876C94.0948 115.467 95.6145 114.791 96.1211 113.524C96.7122 112.089 97.5565 111.244 99.2451 111.498C100.512 111.751 101.778 110.907 102.031 109.556C102.369 107.951 103.467 107.36 104.987 107.444C106.422 107.444 107.519 106.347 107.519 104.911C107.519 103.391 108.026 102.293 109.63 101.956C110.897 101.702 111.741 100.436 111.572 99.1689C111.235 97.48 112.079 96.6356 113.599 96.0444C114.95 95.5378 115.541 94.1022 114.95 92.7511C114.274 91.3156 114.443 89.9644 115.878 89.0356C116.976 88.36 117.314 86.84 116.554 85.7422C115.541 84.1378 116.047 82.8711 117.314 81.6889C118.242 80.8444 118.242 79.1556 117.229 78.2267ZM79.9946 111.667C62.5171 111.667 48.3324 97.48 48.3324 80C48.3324 62.52 62.5171 48.3333 79.9946 48.3333C97.472 48.3333 111.657 62.52 111.657 80C111.657 97.48 97.472 111.667 79.9946 111.667Z" fill="url(#paint0_linear_905_1505)"/>
<path d="M79.9946 114.2C98.88 114.2 114.19 98.8881 114.19 80C114.19 61.1119 98.88 45.8 79.9946 45.8C61.1091 45.8 45.7995 61.1119 45.7995 80C45.7995 98.8881 61.1091 114.2 79.9946 114.2Z" fill="url(#paint1_linear_905_1505)"/>
<path d="M79.9909 54.8284C66.1127 54.8284 54.8202 66.1207 54.8202 80.0027C54.8202 93.883 66.1109 105.177 79.9909 105.177C93.871 105.177 105.162 93.8848 105.162 80.0027C105.162 66.1207 93.871 54.8284 79.9909 54.8284ZM79.9909 104.452C66.5105 104.452 55.5435 93.4833 55.5435 80.0009C55.5435 66.5186 66.5105 55.55 79.9909 55.55C93.4713 55.55 104.438 66.5186 104.438 80.0009C104.438 93.4833 93.4713 104.452 79.9909 104.452Z" fill="white"/>
<path d="M79.9945 48.0791C62.3967 48.0791 48.0791 62.3988 48.0791 79.9991C48.0791 97.5994 62.3967 111.919 79.9945 111.919C97.5923 111.919 111.91 97.5994 111.91 79.9991C111.91 62.3988 97.5923 48.0791 79.9945 48.0791ZM110.789 84.9725L108.912 84.6415C109.131 83.2743 109.254 81.8745 109.275 80.4512H111.181C111.16 81.9866 111.026 83.4967 110.789 84.9725ZM109.456 90.2479L107.666 89.5968C108.143 88.226 108.521 86.8081 108.791 85.3541L110.668 85.685C110.377 87.2494 109.97 88.7739 109.456 90.2479ZM107.218 95.2104L105.567 94.2573C106.279 92.9859 106.898 91.6549 107.416 90.275L109.207 90.9279C108.653 92.4126 107.986 93.8432 107.218 95.2104ZM104.153 99.7099L102.693 98.4856C103.617 97.3517 104.458 96.149 105.207 94.8849L106.858 95.8379C106.053 97.1979 105.147 98.4928 104.153 99.7099ZM95.8311 106.866L94.8781 105.215C96.1421 104.466 97.3446 103.625 98.4783 102.701L99.7025 104.161C98.4856 105.155 97.1909 106.061 95.8311 106.866ZM90.9217 109.219L90.2708 107.429C91.6504 106.91 92.9795 106.289 94.2525 105.579L95.2054 107.23C93.8366 107.995 92.4063 108.662 90.9217 109.219ZM85.6796 110.675L85.3487 108.798C86.8025 108.528 88.2202 108.15 89.5909 107.673L90.2418 109.463C88.7681 109.979 87.2438 110.386 85.6796 110.675ZM69.7472 109.465L70.3982 107.675C71.7688 108.152 73.1865 108.53 74.6403 108.799L74.3094 110.677C72.7453 110.386 71.2209 109.979 69.7472 109.465ZM64.7854 107.226L65.7384 105.575C67.0096 106.287 68.3404 106.906 69.7201 107.425L69.0673 109.215C67.5828 108.662 66.1525 107.995 64.7854 107.226ZM60.2865 104.161L61.5107 102.701C62.6445 103.625 63.8469 104.466 65.1109 105.215L64.158 106.866C62.7982 106.061 61.5035 105.155 60.2865 104.161ZM75.3528 108.921C76.7198 109.139 78.1194 109.262 79.5425 109.284V111.19C78.0073 111.169 76.4974 111.035 75.0219 110.798L75.3528 108.921ZM80.2658 109.286C81.7503 109.271 83.2096 109.148 84.6363 108.921L84.9672 110.798C83.4338 111.044 81.8642 111.179 80.2658 111.192V109.286ZM79.9945 108.566C64.2448 108.566 51.4316 95.7511 51.4316 79.9991C51.4316 64.2471 64.2448 51.4321 79.9945 51.4321C95.7443 51.4321 108.557 64.2471 108.557 79.9991C108.557 95.7511 95.7443 108.566 79.9945 108.566ZM53.2109 95.9718L54.86 95.0187C55.6122 96.2738 56.4549 97.4674 57.3807 98.5923L55.9214 99.8166C54.9269 98.6086 54.021 97.3227 53.2109 95.9718ZM50.8403 91.087L52.6304 90.436C53.1548 91.8086 53.7805 93.1306 54.4965 94.3948L52.8456 95.3478C52.0753 93.9878 51.4045 92.5646 50.8403 91.087ZM49.3575 85.8605L51.2345 85.5295C51.5129 86.9799 51.8981 88.3905 52.3809 89.7578L50.5907 90.4088C50.0682 88.9385 49.6541 87.4194 49.3575 85.8605ZM48.8078 80.4512H50.7137C50.7354 81.936 50.8692 83.3937 51.1061 84.8169L49.2291 85.1479C48.9742 83.6161 48.8313 82.0481 48.8078 80.4512ZM49.2291 74.8503L51.1061 75.1813C50.8602 76.6624 50.7246 78.1816 50.7119 79.7278H48.806C48.8205 78.0676 48.9651 76.44 49.2291 74.8503ZM50.5907 69.5894L52.3809 70.2404C51.8963 71.6059 51.5111 73.0183 51.2345 74.4687L49.3575 74.1378C49.6541 72.5788 50.0682 71.0597 50.5907 69.5894ZM52.8474 64.6504L54.4984 65.6035C53.7823 66.8676 53.1566 68.1914 52.6322 69.5623L50.8421 68.9112C51.4045 67.4337 52.0753 66.0104 52.8474 64.6504ZM55.9232 60.1798L57.3825 61.4041C56.4567 62.529 55.614 63.7226 54.8618 64.9777L53.2127 64.0246C54.021 62.6755 54.9269 61.3897 55.9232 60.1798ZM64.0242 53.2116L64.9771 54.861C63.7222 55.6133 62.5269 56.4561 61.404 57.382L60.1798 55.9226C61.3859 54.9279 62.6734 54.0218 64.0242 53.2116ZM68.9082 50.8407L69.561 52.6311C68.1885 53.1556 66.8667 53.7813 65.6028 54.4975L64.6498 52.8463C66.0078 52.0759 67.4309 51.4049 68.9082 50.8407ZM74.134 49.3577L74.4649 51.2349C73.0147 51.5134 71.6043 51.8987 70.2373 52.3815L69.5863 50.5911C71.0546 50.0685 72.5753 49.6543 74.134 49.3577ZM90.4028 50.5911L89.7518 52.3815C88.3866 51.8968 86.9743 51.5116 85.5241 51.2349L85.855 49.3577C87.4137 49.6543 88.9327 50.0685 90.4028 50.5911ZM95.3411 52.8481L94.3881 54.4993C93.1242 53.7831 91.8005 53.1574 90.4299 52.6329L91.0808 50.8425C92.5582 51.4049 93.9813 52.0759 95.3411 52.8481ZM99.811 55.9244L98.5868 57.3838C97.4621 56.4579 96.2687 55.6151 95.0138 54.8628L95.9667 53.2134C97.3156 54.0218 98.6031 54.9279 99.811 55.9244ZM84.8117 51.1065C83.3307 50.8606 81.8118 50.7249 80.2658 50.7123V48.8061C81.9257 48.8206 83.5531 48.9653 85.1426 49.2293L84.8117 51.1065ZM79.5425 50.7141C78.0579 50.7358 76.6005 50.8696 75.1774 51.1065L74.8465 49.2293C76.378 48.9743 77.9458 48.8314 79.5425 48.8079V50.7141ZM106.858 64.1603L105.207 65.1134C104.458 63.8492 103.617 62.6466 102.693 61.5126L104.153 60.2883C105.147 61.5054 106.053 62.8003 106.858 64.1603ZM109.21 69.0703L107.42 69.7214C106.901 68.3415 106.281 67.0123 105.57 65.7391L107.221 64.786C107.986 66.155 108.653 67.5856 109.21 69.0703ZM110.666 74.3132L108.789 74.6441C108.52 73.1901 108.142 71.7722 107.664 70.4014L109.454 69.7503C109.97 71.2243 110.377 72.7488 110.666 74.3132ZM109.277 79.7278C109.263 78.2431 109.14 76.7836 108.912 75.3567L110.789 75.0257C111.035 76.5593 111.17 78.1291 111.183 79.7278H109.277ZM103.688 59.7331L102.229 60.9574C101.278 59.847 100.245 58.8071 99.1384 57.8504L100.363 56.391C101.554 57.42 102.664 58.5377 103.688 59.7331ZM59.6247 56.391L60.8489 57.8504C59.7784 58.7782 58.7748 59.7801 57.849 60.8507L56.3898 59.6264C57.3879 58.4725 58.4711 57.3893 59.6247 56.391ZM56.3898 100.37L57.849 99.1457C58.8056 100.251 59.8453 101.283 60.9556 102.236L59.7314 103.696C58.5361 102.672 57.4187 101.562 56.3898 100.37ZM100.258 103.696L99.0335 102.236C100.178 101.254 101.247 100.186 102.229 99.0408L103.688 100.265C102.635 101.495 101.487 102.643 100.258 103.696Z" fill="white"/>
<path d="M73.0558 66.9722C72.8758 66.9892 72.7087 67.0729 72.5873 67.2068C72.466 67.3408 72.3991 67.5153 72.3999 67.696V68.4198H68.7809C68.7583 68.4187 68.7357 68.4187 68.7131 68.4198C68.5331 68.4368 68.366 68.5204 68.2446 68.6544C68.1232 68.7883 68.0564 68.9628 68.0571 69.1436V71.134C68.0571 73.719 69.9326 75.8842 72.3999 76.3136V76.3815C72.3999 80.1328 75.2589 83.22 78.9139 83.5854V88.6859H73.8474C72.657 88.6859 71.6761 89.6668 71.6761 90.8572V92.3048C71.6761 92.4967 71.7524 92.6808 71.8881 92.8166C72.0238 92.9523 72.2079 93.0286 72.3999 93.0286H86.8756C87.0676 93.0286 87.2516 92.9523 87.3874 92.8166C87.5231 92.6808 87.5994 92.4967 87.5994 92.3048V90.8572C87.5994 89.6668 86.6185 88.6859 85.428 88.6859H80.3615V83.5854C84.0166 83.22 86.8756 80.1328 86.8756 76.3815V76.3136C89.342 75.8832 91.2183 73.7182 91.2183 71.134V69.1436C91.2183 68.9516 91.1421 68.7676 91.0063 68.6318C90.8706 68.4961 90.6865 68.4198 90.4945 68.4198H86.8756V67.696C86.8756 67.5041 86.7993 67.32 86.6636 67.1842C86.5279 67.0485 86.3438 66.9723 86.1518 66.9722H73.1236C73.101 66.9712 73.0784 66.9712 73.0558 66.9722ZM73.8474 68.4198H85.428V76.3815C85.428 79.6018 82.8581 82.1718 79.6377 82.1718C76.4174 82.1718 73.8474 79.6018 73.8474 76.3815V68.4198ZM69.5047 69.8674H72.3999V74.8208C70.7315 74.4201 69.5047 72.94 69.5047 71.134V69.8674ZM86.8756 69.8674H89.7708V71.134C89.7708 72.9396 88.5438 74.431 86.8756 74.8321V69.8674ZM73.8474 90.1334H85.428C85.8415 90.1334 86.1518 90.4437 86.1518 90.8572V91.581H73.1236V90.8572C73.1236 90.4437 73.4339 90.1334 73.8474 90.1334Z" fill="white"/>
<defs>
<linearGradient id="paint0_linear_905_1505" x1="42" y1="118" x2="118" y2="42.0109" gradientUnits="userSpaceOnUse">
<stop offset="0.00540541" stop-color="#E1AD3D"/>
<stop offset="0.527" stop-color="#F9D477"/>
<stop offset="0.9486" stop-color="#BF9217"/>
</linearGradient>
<linearGradient id="paint1_linear_905_1505" x1="42" y1="118" x2="118" y2="42.0109" gradientUnits="userSpaceOnUse">
<stop offset="0.00540541" stop-color="#E1AD3D"/>
<stop offset="0.527" stop-color="#F9D477"/>
<stop offset="0.9486" stop-color="#BF9217"/>
</linearGradient>
</defs>
</svg>
