<svg width="160" height="160" viewBox="0 0 160 160" fill="none" xmlns="http://www.w3.org/2000/svg">
<circle cx="80" cy="80" r="78" fill="white" stroke="#1F3C61" stroke-width="4"/>
<circle cx="80" cy="80" r="69" fill="white" stroke="#1F3C61" stroke-width="2"/>
<path d="M112.093 101.087H47.9072C46.3038 101.087 45 99.7832 45 98.1798V51.9072C45 50.3038 46.3038 49 47.9072 49H48.717V49.0081H112.093C113.696 49.0081 115 50.3119 115 51.9153V98.1798C115 99.7832 113.696 101.087 112.093 101.087ZM47.7615 50.6277C47.1217 50.7006 46.6196 51.2432 46.6196 51.9072V98.1798C46.6196 98.8924 47.1946 99.4674 47.9072 99.4674H112.093C112.805 99.4674 113.38 98.8924 113.38 98.1798V51.9153C113.38 51.2027 112.805 50.6277 112.093 50.6277H47.7615Z" fill="#48A9F5"/>
<path d="M87.1263 111.874H72.8737V99.4755H87.1263V111.874ZM74.4933 110.254H85.5067V101.095H74.4933V110.254Z" fill="#48A9F5"/>
<path d="M93.4752 110.254H66.5248V111.874H93.4752V110.254Z" fill="#48A9F5"/>
<path d="M114.19 89.7416H45.8017V91.3612H114.19V89.7416Z" fill="#48A9F5"/>
<path d="M62.7591 76.8251H57.6087C57.1229 76.8251 56.7342 76.4364 56.7342 75.9505V64.1839C56.7342 63.6981 57.1229 63.3093 57.6087 63.3093H62.7591C63.2531 63.3093 63.6337 63.69 63.6337 64.1839V75.9505C63.6337 76.4364 63.245 76.8251 62.7591 76.8251ZM58.3538 75.2055H62.0141V64.929H58.3538V75.2055Z" fill="#48A9F5"/>
<path d="M61.0019 76.0072H59.3822V80.8498H61.0019V76.0072Z" fill="#48A9F5"/>
<path d="M61.0019 60.9366H59.3822V64.1192H61.0019V60.9366Z" fill="#48A9F5"/>
<path d="M75.9671 77.8697H70.8168C70.3309 77.8697 69.9422 77.481 69.9422 76.9951V69.5206C69.9422 69.0347 70.3309 68.646 70.8168 68.646H75.9671C76.453 68.646 76.8417 69.0347 76.8417 69.5206V76.9951C76.8417 77.481 76.453 77.8697 75.9671 77.8697ZM71.5618 76.2501H75.2221V70.2656H71.5618V76.2501Z" fill="#48A9F5"/>
<path d="M74.2099 77.0518H72.5902V84.3563H74.2099V77.0518Z" fill="#48A9F5"/>
<path d="M74.2099 64.435H72.5902V69.4558H74.2099V64.435Z" fill="#48A9F5"/>
<path d="M89.1752 79.0521H84.0248C83.5389 79.0521 83.1502 78.6633 83.1502 78.1775V65.1881C83.1502 64.7022 83.5389 64.3135 84.0248 64.3135H89.1752C89.661 64.3135 90.0497 64.7022 90.0497 65.1881V78.1775C90.0497 78.6633 89.661 79.0521 89.1752 79.0521ZM84.7698 77.4324H88.4301V65.9331H84.7698V77.4324Z" fill="#48A9F5"/>
<path d="M87.4098 78.2341H85.7901V81.8621H87.4098V78.2341Z" fill="#48A9F5"/>
<path d="M87.4098 60.3211H85.7901V65.1233H87.4098V60.3211Z" fill="#48A9F5"/>
<path d="M102.375 73.5615H97.2247C96.7388 73.5615 96.3501 73.1728 96.3501 72.687V58.6448C96.3501 58.159 96.7388 57.7702 97.2247 57.7702H102.375C102.861 57.7702 103.25 58.159 103.25 58.6448V72.687C103.25 73.1728 102.861 73.5615 102.375 73.5615ZM97.9697 71.9419H101.63V59.3899H97.9697V71.9419Z" fill="#48A9F5"/>
<path d="M100.618 72.7436H98.9981V75.9343H100.618V72.7436Z" fill="#48A9F5"/>
<path d="M100.618 56.013H98.9981V58.5801H100.618V56.013Z" fill="#48A9F5"/>
</svg>
