<svg width="160" height="160" viewBox="0 0 160 160" fill="none" xmlns="http://www.w3.org/2000/svg">
<circle cx="80" cy="80" r="78" fill="white" stroke="#1F3C61" stroke-width="4"/>
<circle cx="80" cy="80" r="69" fill="white" stroke="#1F3C61" stroke-width="2"/>
<path d="M46.768 59.9998L49.7325 58.2218C53.57 55.9212 57.9903 54.7779 62.462 54.9295C62.7715 54.9397 63.0723 54.8266 63.2983 54.615C63.5243 54.4034 63.657 54.1108 63.6672 53.8013C63.6774 53.4919 63.5643 53.1911 63.3527 52.9651C63.1411 52.7391 62.8485 52.6064 62.539 52.5962C57.6181 52.4315 52.7542 53.6901 48.5309 56.221L45.5664 58.0002C45.301 58.1594 45.1098 58.4174 45.0348 58.7176C44.9597 59.0178 45.007 59.3355 45.1662 59.6008C45.3254 59.8662 45.5835 60.0574 45.8837 60.1324C46.1838 60.2075 46.5015 60.1602 46.7669 60.001L46.768 59.9998Z" fill="#48A9F5"/>
<path d="M74.1672 82.3333C74.8115 82.3333 75.3339 81.811 75.3339 81.1667C75.3339 80.5223 74.8115 80 74.1672 80C73.5229 80 73.0005 80.5223 73.0005 81.1667C73.0005 81.811 73.5229 82.3333 74.1672 82.3333Z" fill="#48A9F5"/>
<path d="M64.8339 76.5C64.8339 76.1906 64.711 75.8938 64.4922 75.675C64.2734 75.4562 63.9766 75.3333 63.6672 75.3333H61.9359C60.98 75.3331 60.0407 75.0838 59.2105 74.61L58.486 74.1958C57.8516 73.8327 57.2959 73.3467 56.8517 72.7662C56.4074 72.1856 56.0834 71.5223 55.8987 70.815C55.714 70.1077 55.6723 69.3707 55.776 68.6471C55.8797 67.9234 56.1268 67.2278 56.5027 66.6008C56.6619 66.3355 56.7092 66.0178 56.6341 65.7176C56.5591 65.4174 56.3679 65.1594 56.1025 65.0002C55.8372 64.841 55.5195 64.7937 55.2193 64.8687C54.9191 64.9438 54.6611 65.135 54.5019 65.4003C53.9658 66.2936 53.6135 67.285 53.4656 68.3163C53.3177 69.3475 53.3772 70.3979 53.6406 71.4059C53.904 72.4139 54.366 73.3591 54.9995 74.1862C55.633 75.0132 56.4253 75.7055 57.3299 76.2223L58.0544 76.6365C58.2434 76.745 58.444 76.8313 58.6377 76.9223C56.5748 78.5346 54.9054 80.5946 53.7555 82.9468C52.6057 85.299 52.0056 87.8818 52.0005 90.5C52.0005 90.8094 52.1235 91.1062 52.3422 91.325C52.561 91.5438 52.8578 91.6667 53.1672 91.6667C53.4766 91.6667 53.7734 91.5438 53.9922 91.325C54.211 91.1062 54.3339 90.8094 54.3339 90.5C54.338 88.1778 54.8829 85.8885 55.9254 83.8135C56.9679 81.7384 58.4793 79.9347 60.3399 78.5452C60.6166 80.1615 61.2206 81.7042 62.1148 83.0788C63.0089 84.4534 64.1744 85.6309 65.5397 86.5392C66.3664 87.0923 67.3386 87.3875 68.3333 87.3875C69.3279 87.3875 70.3002 87.0923 71.1269 86.5392L71.7545 86.1215C72.6033 86.7218 73.5991 87.0804 74.6358 87.1589C75.6724 87.2374 76.7109 87.0329 77.6404 86.5672C78.3512 86.2147 78.9491 85.6702 79.3662 84.9953C79.7834 84.3204 80.0031 83.5421 80.0005 82.7487V80.2753C80.0036 79.2742 79.7263 78.2921 79.1998 77.4405C78.6734 76.5889 77.919 75.9018 77.022 75.457C76.5131 75.2052 76.0851 74.8156 75.7866 74.3326C75.4882 73.8496 75.3313 73.2925 75.3339 72.7247V68.8163C75.333 68.4463 75.4054 68.0799 75.547 67.738C75.6885 67.3962 75.8965 67.0858 76.1587 66.8248C76.6385 66.3478 77.0188 65.7804 77.2778 65.1554C77.5367 64.5304 77.6691 63.8602 77.6672 63.1837C77.6632 60.9542 76.8687 58.7983 75.4249 57.0995C75.6314 56.3817 76.0943 55.7647 76.7258 55.3657C77.3572 54.9667 78.1132 54.8136 78.8502 54.9353C82.0776 55.4865 85.3968 54.9817 88.3144 53.4959C91.232 52.0101 93.5923 49.6226 95.0447 46.6882C95.1514 46.4744 95.1899 46.2331 95.155 45.9968C95.1201 45.7605 95.0135 45.5406 94.8497 45.3668C94.6858 45.193 94.4725 45.0737 94.2387 45.025C94.0048 44.9763 93.7617 45.0006 93.542 45.0945L90.1669 46.54C89.4539 46.844 88.7109 47.072 87.9502 47.2202C87.7974 47.2471 87.6515 47.3042 87.5211 47.3882C87.3906 47.4723 87.2783 47.5814 87.1905 47.7094C87.1028 47.8373 87.0415 47.9815 87.0101 48.1335C86.9788 48.2854 86.9781 48.4421 87.008 48.5943C87.038 48.7466 87.098 48.8913 87.1846 49.02C87.2711 49.1488 87.3825 49.259 87.5122 49.3442C87.6418 49.4294 87.7872 49.4878 87.9397 49.5162C88.0923 49.5445 88.2489 49.5421 88.4005 49.5092C89.1894 49.355 89.9629 49.1305 90.7117 48.8383C89.2542 50.3615 87.4453 51.5039 85.4437 52.1655C83.4421 52.8272 81.3087 52.9879 79.2305 52.6335C77.9279 52.4159 76.5907 52.6857 75.4742 53.3913C74.3578 54.0969 73.5403 55.189 73.1779 56.459L72.003 60.5703L71.9529 60.6007C71.4671 60.892 70.9273 61.0818 70.3661 61.1584C69.8049 61.235 69.234 61.1969 68.6879 61.0464C68.1419 60.8959 67.6321 60.636 67.1894 60.2827C66.7467 59.9293 66.3803 59.4898 66.1125 58.9907L68.6069 53.3813C69.5845 51.1808 71.3897 49.454 73.6315 48.5751C75.8733 47.6961 78.3711 47.7358 80.5839 48.6855C81.4517 49.0554 82.3562 49.3322 83.2824 49.5115C83.5867 49.5704 83.9019 49.5061 84.1588 49.3326C84.4157 49.1591 84.5931 48.8906 84.652 48.5863C84.711 48.282 84.6466 47.9668 84.4731 47.7099C84.2996 47.453 84.0312 47.2756 83.7269 47.2167C82.9626 47.0688 82.2161 46.8409 81.4997 46.5365C78.723 45.347 75.5895 45.299 72.7776 46.4027C69.9656 47.5065 67.7015 49.6733 66.4754 52.434L63.7675 58.5263C63.7041 58.6688 63.6699 58.8225 63.6669 58.9784C63.6639 59.1343 63.6921 59.2892 63.75 59.434C64.1002 60.3106 64.6366 61.1006 65.3222 61.7494C66.0078 62.3982 66.8262 62.8903 67.7208 63.1916C68.6154 63.4928 69.5647 63.5961 70.5031 63.4942C71.4416 63.3923 72.3466 63.0877 73.1557 62.6015L73.6025 62.3343C73.8557 62.182 74.0417 61.9394 74.1229 61.6553L74.5732 60.078C75.0634 61.0405 75.3238 62.1036 75.3339 63.1837C75.3348 63.5536 75.2623 63.9201 75.1208 64.262C74.9792 64.6038 74.7713 64.9142 74.509 65.1752C73.8914 65.7998 73.4457 66.5734 73.2152 67.421L72.5829 67.6322C72.2471 67.7431 71.8817 67.722 71.5609 67.5732C71.2401 67.4243 70.9882 67.1588 70.8562 66.8307C70.6274 66.2589 70.2604 65.7529 69.788 65.358C69.3155 64.963 68.7525 64.6914 68.1493 64.5676C67.5461 64.4438 66.9216 64.4715 66.3317 64.6484C65.7419 64.8253 65.2052 65.1458 64.7697 65.5812L64.009 66.3418C63.8183 66.5325 63.6995 66.7835 63.6729 67.0519C63.6463 67.3204 63.7135 67.5897 63.8632 67.8142L65.4662 70.2175C65.9252 70.9044 66.5464 71.4675 67.275 71.8569C68.0035 72.2464 68.8168 72.4503 69.6429 72.4505C70.8896 72.4444 72.0883 71.9691 73.0005 71.1193V72.7247C72.9972 73.726 73.2745 74.7083 73.8009 75.5601C74.3274 76.412 75.0819 77.0993 75.979 77.5442C76.4878 77.7959 76.9157 78.1853 77.2141 78.6681C77.5125 79.1509 77.6695 79.7077 77.6672 80.2753V82.7498C77.6685 83.1096 77.5689 83.4624 77.3798 83.7684C77.1907 84.0745 76.9196 84.3214 76.5974 84.4812C75.9699 84.795 75.2609 84.9073 74.5672 84.8029C73.8735 84.6985 73.229 84.3824 72.7217 83.8978L70.4712 80.5215C70.3875 80.3911 70.2788 80.2787 70.1512 80.1908C70.0236 80.1029 69.8798 80.0412 69.7282 80.0095C69.5765 79.9778 69.4201 79.9766 69.268 80.0059C69.1159 80.0353 68.9711 80.0947 68.8422 80.1806C68.7133 80.2665 68.6028 80.3773 68.5171 80.5064C68.4314 80.6355 68.3724 80.7803 68.3433 80.9325C68.3142 81.0847 68.3157 81.2411 68.3478 81.3927C68.3798 81.5443 68.4417 81.6879 68.5299 81.8153L70.2157 84.3447L69.833 84.6002C69.3894 84.897 68.8676 85.0554 68.3339 85.0554C67.8001 85.0554 67.2783 84.897 66.8347 84.6002C65.6649 83.8218 64.6779 82.7987 63.9421 81.6016C63.2063 80.4045 62.7391 79.0619 62.5729 77.6667H63.6672C63.9766 77.6667 64.2734 77.5438 64.4922 77.325C64.711 77.1062 64.8339 76.8094 64.8339 76.5ZM68.7865 69.976C68.2231 69.7887 67.738 69.4193 67.4075 68.926L66.3354 67.3183L66.4194 67.2343C66.5817 67.072 66.7819 66.9524 67.0019 66.8865C67.2218 66.8206 67.4547 66.8103 67.6796 66.8565C67.9046 66.9028 68.1145 67.0041 68.2906 67.1515C68.4667 67.2989 68.6034 67.4877 68.6885 67.701C68.883 68.1869 69.1779 68.6262 69.5538 68.9903C69.9298 69.3544 70.3783 69.635 70.8702 69.8138C70.5519 69.9803 70.2031 70.0805 69.845 70.1083C69.4868 70.1362 69.1268 70.0912 68.7865 69.976Z" fill="#48A9F5"/>
<path d="M55.5005 103.333H48.5005C48.1911 103.333 47.8944 103.456 47.6756 103.675C47.4568 103.894 47.3339 104.191 47.3339 104.5V113.833C47.3339 114.143 47.4568 114.439 47.6756 114.658C47.8944 114.877 48.1911 115 48.5005 115H55.5005C55.81 115 56.1067 114.877 56.3255 114.658C56.5443 114.439 56.6672 114.143 56.6672 113.833V104.5C56.6672 104.191 56.5443 103.894 56.3255 103.675C56.1067 103.456 55.81 103.333 55.5005 103.333ZM54.3339 112.667H49.6672V105.667H54.3339V112.667Z" fill="#48A9F5"/>
<path d="M67.1672 97.5H60.1672C59.8578 97.5 59.561 97.6229 59.3422 97.8417C59.1235 98.0605 59.0005 98.3572 59.0005 98.6667V113.833C59.0005 114.143 59.1235 114.439 59.3422 114.658C59.561 114.877 59.8578 115 60.1672 115H67.1672C67.4766 115 67.7734 114.877 67.9922 114.658C68.211 114.439 68.3339 114.143 68.3339 113.833V98.6667C68.3339 98.3572 68.211 98.0605 67.9922 97.8417C67.7734 97.6229 67.4766 97.5 67.1672 97.5ZM66.0005 112.667H61.3339V99.8333H66.0005V112.667Z" fill="#48A9F5"/>
<path d="M78.8339 94H71.8339C71.5244 94 71.2277 94.1229 71.0089 94.3417C70.7901 94.5605 70.6672 94.8572 70.6672 95.1667V102.167C70.6672 102.476 70.7901 102.773 71.0089 102.992C71.2277 103.21 71.5244 103.333 71.8339 103.333C72.1433 103.333 72.44 103.21 72.6588 102.992C72.8776 102.773 73.0005 102.476 73.0005 102.167V96.3333H77.6672V112.667H73.0005V106.833C73.0005 106.524 72.8776 106.227 72.6588 106.008C72.44 105.79 72.1433 105.667 71.8339 105.667C71.5244 105.667 71.2277 105.79 71.0089 106.008C70.7901 106.227 70.6672 106.524 70.6672 106.833V113.833C70.6672 114.143 70.7901 114.439 71.0089 114.658C71.2277 114.877 71.5244 115 71.8339 115H78.8339C79.1433 115 79.44 114.877 79.6588 114.658C79.8776 114.439 80.0005 114.143 80.0005 113.833V95.1667C80.0005 94.8572 79.8776 94.5605 79.6588 94.3417C79.44 94.1229 79.1433 94 78.8339 94Z" fill="#48A9F5"/>
<path d="M90.5005 97.5H83.5005C83.1911 97.5 82.8944 97.6229 82.6756 97.8417C82.4568 98.0605 82.3339 98.3572 82.3339 98.6667V113.833C82.3339 114.143 82.4568 114.439 82.6756 114.658C82.8944 114.877 83.1911 115 83.5005 115H90.5005C90.81 115 91.1067 114.877 91.3255 114.658C91.5443 114.439 91.6672 114.143 91.6672 113.833V98.6667C91.6672 98.3572 91.5443 98.0605 91.3255 97.8417C91.1067 97.6229 90.81 97.5 90.5005 97.5ZM89.3339 112.667H84.6672V99.8333H89.3339V112.667Z" fill="#48A9F5"/>
<path d="M102.167 84.6667H95.1672C94.8578 84.6667 94.561 84.7896 94.3422 85.0084C94.1234 85.2272 94.0005 85.5239 94.0005 85.8333V113.833C94.0005 114.143 94.1234 114.439 94.3422 114.658C94.561 114.877 94.8578 115 95.1672 115H102.167C102.477 115 102.773 114.877 102.992 114.658C103.211 114.439 103.334 114.143 103.334 113.833V85.8333C103.334 85.5239 103.211 85.2272 102.992 85.0084C102.773 84.7896 102.477 84.6667 102.167 84.6667ZM101.001 112.667H96.3339V87H101.001V112.667Z" fill="#48A9F5"/>
<path d="M113.834 74.1667H106.834C106.524 74.1667 106.228 74.2896 106.009 74.5084C105.79 74.7272 105.667 75.0239 105.667 75.3333V94C105.667 94.3094 105.79 94.6062 106.009 94.825C106.228 95.0438 106.524 95.1667 106.834 95.1667C107.143 95.1667 107.44 95.0438 107.659 94.825C107.878 94.6062 108.001 94.3094 108.001 94V76.5H112.667V112.667H108.001V98.6667C108.001 98.3572 107.878 98.0605 107.659 97.8417C107.44 97.6229 107.143 97.5 106.834 97.5C106.524 97.5 106.228 97.6229 106.009 97.8417C105.79 98.0605 105.667 98.3572 105.667 98.6667V113.833C105.667 114.143 105.79 114.439 106.009 114.658C106.228 114.877 106.524 115 106.834 115H113.834C114.143 115 114.44 114.877 114.659 114.658C114.878 114.439 115.001 114.143 115.001 113.833V75.3333C115.001 75.0239 114.878 74.7272 114.659 74.5084C114.44 74.2896 114.143 74.1667 113.834 74.1667Z" fill="#48A9F5"/>
<path d="M115.001 69.5C115.001 69.1906 114.878 68.8938 114.659 68.675C114.44 68.4562 114.143 68.3333 113.834 68.3333H104.501C104.303 68.3333 104.108 68.3837 103.935 68.4796C103.762 68.5755 103.616 68.7139 103.511 68.8817L98.0197 77.6667H92.8339C92.6326 77.6667 92.4347 77.7188 92.2595 77.818C92.0843 77.9171 91.9377 78.0599 91.834 78.2325L85.1735 89.3333H62.5005C62.2481 89.3333 62.0025 89.4152 61.8005 89.5667L52.7787 96.3333H47.3339C47.0244 96.3333 46.7277 96.4562 46.5089 96.675C46.2901 96.8938 46.1672 97.1906 46.1672 97.5C46.1672 97.8094 46.2901 98.1062 46.5089 98.325C46.7277 98.5438 47.0244 98.6667 47.3339 98.6667H53.1672C53.4196 98.6667 53.6653 98.5848 53.8672 98.4333L62.889 91.6667H85.8339C86.0352 91.6666 86.2331 91.6145 86.4083 91.5153C86.5835 91.4162 86.73 91.2734 86.8337 91.1008L93.4942 80H98.6672C98.8651 80 99.0597 79.9497 99.2328 79.8538C99.4058 79.7578 99.5517 79.6195 99.6565 79.4517L105.148 70.6667H113.834C114.143 70.6667 114.44 70.5438 114.659 70.325C114.878 70.1062 115.001 69.8094 115.001 69.5Z" fill="#48A9F5"/>
<path d="M99.9505 49.4672L83.4515 65.9662C83.2328 66.1849 83.1099 66.4816 83.1099 66.791C83.1099 67.1004 83.2328 67.3971 83.4515 67.6158L90.0514 74.2157C90.2701 74.4344 90.5668 74.5573 90.8762 74.5573C91.1856 74.5573 91.4822 74.4344 91.701 74.2157L100.558 65.3583C100.771 65.1383 100.888 64.8436 100.886 64.5377C100.883 64.2318 100.76 63.9392 100.544 63.7229C100.328 63.5066 100.035 63.3839 99.7293 63.3812C99.4234 63.3786 99.1287 63.4961 98.9087 63.7087L90.8762 71.74L85.926 66.7898L102.426 50.292C102.645 50.0732 102.768 49.7765 102.768 49.4672C102.768 49.1578 102.645 48.8611 102.426 48.6423L101.117 47.3333H110.334V56.55L109.026 55.2422C108.807 55.0235 108.511 54.9006 108.201 54.9006C107.892 54.9006 107.595 55.0235 107.376 55.2422L102.208 60.4093C101.996 60.6294 101.878 60.9241 101.881 61.23C101.883 61.5359 102.006 61.8285 102.222 62.0448C102.439 62.2611 102.731 62.3838 103.037 62.3865C103.343 62.3891 103.638 62.2715 103.858 62.059L108.201 57.7167L110.676 60.1912C110.839 60.3543 111.047 60.4654 111.273 60.5104C111.5 60.5554 111.734 60.5322 111.948 60.4437C112.161 60.3553 112.343 60.2056 112.471 60.0136C112.599 59.8216 112.667 59.596 112.667 59.3652V46.1667C112.667 45.8572 112.544 45.5605 112.325 45.3417C112.107 45.1229 111.81 45 111.501 45H98.302C98.0713 45 97.8458 45.0685 97.654 45.1967C97.4622 45.3249 97.3127 45.5071 97.2244 45.7202C97.1361 45.9334 97.113 46.1679 97.158 46.3942C97.203 46.6205 97.3141 46.8283 97.4772 46.9915L99.9505 49.4672Z" fill="#48A9F5"/>
</svg>
