<svg width="160" height="160" viewBox="0 0 160 160" fill="none" xmlns="http://www.w3.org/2000/svg">
<circle cx="80" cy="80" r="78" fill="white" stroke="#C2CAD2" stroke-width="4"/>
<circle cx="80" cy="80" r="69" fill="white" stroke="#C2CAD2" stroke-width="2"/>
<path d="M71.2537 88.2316C65.7263 88.2316 64.2955 87.2023 63.472 85.0819C63.1415 84.0444 63.0708 82.9416 63.2662 81.8704C63.3681 81.0108 63.2365 80.1397 62.8853 79.3485C59.9209 72.7917 58.7886 63.5896 60.4458 59.3076C61.8457 55.5815 65.9527 56.6314 68.6804 57.3313C69.5355 57.5899 70.4152 57.759 71.3052 57.8357C72.1598 57.7584 73.0045 57.5964 73.827 57.3519C76.5445 56.6519 80.6515 55.602 82.0616 59.3282C83.6777 63.6102 82.5454 72.7815 79.581 79.3691C79.2306 80.1569 79.099 81.0245 79.2001 81.8807C79.3959 82.9553 79.3252 84.0615 78.9942 85.1025C78.2017 87.2023 76.7812 88.2316 71.2537 88.2316ZM64.5014 58.69C64.0416 58.6364 63.5772 58.7393 63.1832 58.9821C62.7891 59.2249 62.4884 59.5934 62.3295 60.0281C61.0634 63.394 61.7428 71.7624 64.7587 78.4942C65.2705 79.6287 65.4593 80.8825 65.3042 82.1174C65.1544 82.8476 65.1827 83.6032 65.3866 84.3202C65.7468 85.226 66.1071 86.173 71.2537 86.173C76.4003 86.173 76.7503 85.226 77.1106 84.3202C77.3137 83.6031 77.3419 82.8477 77.1929 82.1174C77.0379 80.8825 77.2267 79.6287 77.7385 78.4942C80.7544 71.8036 81.4337 63.394 80.1677 60.0281C79.5295 58.3195 77.862 58.4327 74.3829 59.3282C73.3778 59.6309 72.342 59.8208 71.2949 59.8943C70.2304 59.8248 69.1772 59.6349 68.1555 59.3282C66.9673 58.9701 65.7405 58.7558 64.5014 58.69Z" fill="#C2CAD2"/>
<path d="M84.7996 71.7624C83.4282 71.7431 82.0821 71.3898 80.8779 70.7331C80.6432 70.6042 80.468 70.389 80.3894 70.1331C80.3108 69.8772 80.335 69.6007 80.4569 69.3623C80.5787 69.1239 80.7887 68.9424 81.0422 68.8563C81.2956 68.7701 81.5727 68.7861 81.8146 68.9009C82.5171 69.3063 83.2961 69.5614 84.1023 69.65C84.9085 69.7385 85.7243 69.6587 86.498 69.4156C86.3022 69.2939 86.1194 69.1525 85.9525 68.9935C84.6523 68.0297 83.1605 67.3558 81.5778 67.0172C81.325 66.9649 81.101 66.8194 80.9504 66.6097C80.7998 66.4 80.7335 66.1413 80.7647 65.885C80.795 65.6339 80.9167 65.4028 81.1066 65.2357C81.2964 65.0687 81.5411 64.9774 81.794 64.9792C81.794 64.9792 86.4466 65.0409 88.6802 61.6339C89.4675 60.4913 89.9368 59.1599 90.0399 57.7762C90.143 56.3924 89.8762 55.0062 89.2669 53.7595C89.1248 55.138 88.7778 56.4875 88.2376 57.7636C87.7066 59.0883 86.7684 60.21 85.5584 60.9667C84.3484 61.7234 82.9292 62.076 81.5058 61.9736C81.3706 61.9695 81.2376 61.9389 81.1142 61.8834C80.9909 61.8279 80.8797 61.7487 80.787 61.6502C80.6943 61.5518 80.6219 61.436 80.5739 61.3096C80.5259 61.1832 80.5033 61.0485 80.5074 60.9133C80.5114 60.7782 80.542 60.6451 80.5975 60.5218C80.653 60.3985 80.7322 60.2873 80.8307 60.1946C80.9291 60.1018 81.0449 60.0294 81.1713 59.9814C81.2977 59.9335 81.4324 59.9108 81.5676 59.9149C82.3217 59.9831 83.081 59.8638 83.7778 59.5674C84.4746 59.2711 85.0873 58.807 85.5613 58.2165C87.5068 55.8079 87.4656 51.5877 87.3009 50.7539C87.2276 50.541 87.2262 50.3098 87.2969 50.096C87.3676 49.8822 87.5065 49.6974 87.6922 49.5701C87.878 49.4428 88.1004 49.3798 88.3253 49.391C88.5502 49.4022 88.7653 49.4868 88.9375 49.632C88.9993 49.6937 94.9488 55.8079 90.4197 62.7353C89.2927 64.4247 87.6334 65.6891 85.7054 66.3276C86.296 66.6353 86.8459 67.0157 87.3421 67.4598C88.1449 68.1907 89.236 67.4598 89.3492 67.3775C89.5499 67.2235 89.8002 67.1487 90.0524 67.1674C90.3046 67.1862 90.5411 67.2972 90.7168 67.4792C90.8924 67.6612 90.9949 67.9015 91.0046 68.1542C91.0144 68.4069 90.9308 68.6544 90.7697 68.8494C90.0512 69.7455 89.1433 70.4713 88.1111 70.975C87.0789 71.4786 85.948 71.7475 84.7996 71.7624Z" fill="#C2CAD2"/>
<path d="M57.6975 71.7624C56.5524 71.7525 55.4236 71.49 54.3916 70.9936C53.3596 70.4971 52.45 69.7791 51.7275 68.8906C51.5763 68.6937 51.5013 68.4488 51.5165 68.201C51.5316 67.9532 51.6358 67.7192 51.8098 67.5422C51.9824 67.3663 52.2123 67.2581 52.4579 67.2373C52.7034 67.2165 52.9483 67.2845 53.1479 67.429C53.2611 67.5113 54.3625 68.2318 55.1448 67.501C55.6465 67.059 56.1994 66.6789 56.7917 66.3688C54.8638 65.7303 53.2045 64.4659 52.0774 62.7764C47.5484 55.8182 53.4979 49.6937 53.5597 49.632C53.7282 49.4642 53.9496 49.3599 54.1863 49.3369C54.423 49.3139 54.6604 49.3735 54.8581 49.5057C55.0558 49.6379 55.2016 49.8345 55.2708 50.0621C55.3399 50.2896 55.3281 50.5341 55.2374 50.7539C55.0728 51.5877 55.0316 55.8182 56.977 58.2165C57.4498 58.8084 58.0623 59.2735 58.7594 59.57C59.4566 59.8665 60.2165 59.985 60.9708 59.9149C61.2438 59.9067 61.5088 60.0073 61.7077 60.1946C61.9065 60.3818 62.0228 60.6404 62.031 60.9133C62.0392 61.1863 61.9386 61.4514 61.7513 61.6502C61.5641 61.8491 61.3055 61.9654 61.0325 61.9736C59.6058 62.0803 58.182 61.7311 56.9665 60.9763C55.7511 60.2215 54.8068 59.1001 54.2699 57.7739C53.7283 56.4947 53.3814 55.1415 53.2406 53.7595C52.6321 55.0018 52.364 56.3832 52.4634 57.7628C52.5629 59.1425 53.0264 60.4711 53.8067 61.6133C56.03 65.0203 60.6517 64.9689 60.6929 64.9586C60.828 64.9444 60.9647 64.957 61.095 64.9956C61.2253 65.0342 61.3467 65.0981 61.4524 65.1837C61.558 65.2692 61.6457 65.3747 61.7106 65.4942C61.7754 65.6136 61.8161 65.7447 61.8303 65.8798C61.8445 66.015 61.8319 66.1517 61.7933 66.282C61.7547 66.4123 61.6908 66.5337 61.6052 66.6393C61.5197 66.745 61.4142 66.8327 61.2947 66.8975C61.1752 66.9624 61.0442 67.003 60.909 67.0172C59.3263 67.3558 57.8346 68.0297 56.5344 68.9935C56.3674 69.1525 56.1846 69.2939 55.9889 69.4156C56.7626 69.6587 57.5784 69.7385 58.3846 69.65C59.1908 69.5614 59.9698 69.3063 60.6723 68.9009C60.7926 68.8387 60.924 68.8008 61.0589 68.7894C61.1938 68.778 61.3297 68.7933 61.4587 68.8344C61.5878 68.8755 61.7075 68.9416 61.8109 69.029C61.9144 69.1163 61.9997 69.2232 62.0619 69.3435C62.124 69.4638 62.1619 69.5952 62.1733 69.7301C62.1847 69.8651 62.1695 70.0009 62.1284 70.13C62.0873 70.259 62.0211 70.3787 61.9338 70.4822C61.8464 70.5857 61.7396 70.6709 61.6193 70.7331C60.4151 71.3898 59.069 71.7431 57.6975 71.7624Z" fill="#C2CAD2"/>
<path d="M76.0401 71.958C75.5002 71.958 74.9724 71.7978 74.5236 71.4976C74.0748 71.1974 73.7252 70.7708 73.519 70.2717C73.3129 69.7727 73.2595 69.2237 73.3656 68.6943C73.4717 68.1649 73.7325 67.6789 74.115 67.2979C74.4975 66.9168 74.9845 66.6578 75.5143 66.5537C76.0441 66.4497 76.5928 66.5051 77.0911 66.7132C77.5893 66.9212 78.0146 67.2724 78.3131 67.7224C78.6116 68.1723 78.7698 68.7007 78.7678 69.2406C78.7651 69.9622 78.4765 70.6534 77.9652 71.1627C77.454 71.672 76.7617 71.958 76.0401 71.958ZM76.0401 68.5715C75.9078 68.5715 75.7784 68.6108 75.6684 68.6843C75.5583 68.7578 75.4726 68.8623 75.422 68.9845C75.3713 69.1068 75.3581 69.2413 75.3839 69.3711C75.4097 69.5009 75.4734 69.6201 75.567 69.7137C75.6606 69.8072 75.7798 69.871 75.9096 69.8968C76.0393 69.9226 76.1739 69.9094 76.2961 69.8587C76.4184 69.8081 76.5229 69.7223 76.5964 69.6123C76.6699 69.5023 76.7091 69.3729 76.7091 69.2406C76.7091 69.0631 76.6387 68.893 76.5132 68.7675C76.3877 68.642 76.2175 68.5715 76.0401 68.5715Z" fill="#C2CAD2"/>
<path d="M66.4571 71.958C65.9172 71.958 65.3894 71.7978 64.9406 71.4976C64.4918 71.1974 64.1422 70.7708 63.936 70.2717C63.7299 69.7727 63.6765 69.2237 63.7826 68.6943C63.8886 68.1649 64.1495 67.6789 64.532 67.2979C64.9145 66.9168 65.4015 66.6578 65.9313 66.5537C66.4611 66.4497 67.0098 66.5051 67.5081 66.7132C68.0063 66.9212 68.4316 67.2724 68.7301 67.7224C69.0286 68.1723 69.1868 68.7007 69.1848 69.2406C69.1821 69.9622 68.8935 70.6534 68.3822 71.1627C67.871 71.672 67.1787 71.958 66.4571 71.958ZM66.4571 68.5715C66.3248 68.5715 66.1954 68.6108 66.0854 68.6843C65.9753 68.7578 65.8896 68.8623 65.8389 68.9845C65.7883 69.1068 65.7751 69.2413 65.8009 69.3711C65.8267 69.5009 65.8904 69.6201 65.984 69.7137C66.0776 69.8072 66.1968 69.871 66.3266 69.8968C66.4563 69.9226 66.5909 69.9094 66.7131 69.8587C66.8354 69.8081 66.9399 69.7223 67.0134 69.6123C67.0869 69.5023 67.1261 69.3729 67.1261 69.2406C67.1261 69.0631 67.0557 68.893 66.9302 68.7675C66.8047 68.642 66.6345 68.5715 66.4571 68.5715Z" fill="#C2CAD2"/>
<path d="M78.1708 81.9321C77.8993 81.9283 77.6403 81.8173 77.4503 81.6233C75.8042 79.9809 73.5739 79.0585 71.2486 79.0585C68.9233 79.0585 66.6929 79.9809 65.0469 81.6233C64.85 81.792 64.5967 81.8801 64.3376 81.8701C64.0786 81.8601 63.8328 81.7527 63.6495 81.5694C63.4662 81.3861 63.3588 81.1403 63.3488 80.8813C63.3388 80.6222 63.4269 80.3689 63.5956 80.172C65.6273 78.1461 68.3794 77.0085 71.2486 77.0085C74.1177 77.0085 76.8699 78.1461 78.9016 80.172C79.0933 80.3649 79.2009 80.6257 79.2009 80.8977C79.2009 81.1696 79.0933 81.4305 78.9016 81.6233C78.8063 81.7206 78.6926 81.798 78.5671 81.851C78.4417 81.904 78.307 81.9316 78.1708 81.9321Z" fill="#C2CAD2"/>
<path d="M75.7622 84.6496C75.5962 84.6493 75.4328 84.6089 75.2858 84.5318C75.1389 84.4548 75.0127 84.3433 74.9181 84.2069C74.5579 83.682 73.7653 83.8879 73.7344 83.8982C73.4723 83.9711 73.1921 83.9373 72.9548 83.8042C72.7176 83.6711 72.5427 83.4496 72.4683 83.1879C72.3946 82.9286 72.4255 82.6507 72.5545 82.414C72.6834 82.1772 72.9001 82.0005 73.158 81.9218C73.7819 81.7256 74.4519 81.7325 75.0716 81.9415C75.6913 82.1505 76.2287 82.5509 76.6062 83.085C76.7615 83.309 76.8215 83.5854 76.7733 83.8536C76.7251 84.1218 76.5724 84.3599 76.3489 84.5157C76.171 84.6178 75.9667 84.6644 75.7622 84.6496Z" fill="#C2CAD2"/>
<path d="M66.735 84.6496C66.5251 84.6491 66.3204 84.5844 66.1483 84.4643C65.9389 84.3095 65.7959 84.0812 65.7482 83.8253C65.7004 83.5693 65.7515 83.3048 65.891 83.085C66.2753 82.5601 66.8157 82.1699 67.4349 81.9703C68.0541 81.7707 68.7206 81.7717 69.3392 81.9733C69.6013 82.0498 69.8222 82.2272 69.9535 82.4665C70.0848 82.7059 70.1156 82.9876 70.0391 83.2497C69.9627 83.5118 69.7853 83.7327 69.5459 83.864C69.3065 83.9953 69.0248 84.0261 68.7628 83.9496C68.7628 83.9496 67.9393 83.7438 67.579 84.2584C67.4789 84.3853 67.3504 84.4868 67.2037 84.5548C67.0571 84.6227 66.8965 84.6552 66.735 84.6496Z" fill="#C2CAD2"/>
<path d="M113.971 114.994H46.0353C45.7623 114.994 45.5005 114.886 45.3075 114.693C45.1144 114.5 45.006 114.238 45.006 113.965V46.0293C45.006 45.7563 45.1144 45.4945 45.3075 45.3015C45.5005 45.1084 45.7623 45 46.0353 45C46.3083 45 46.5701 45.1084 46.7631 45.3015C46.9562 45.4945 47.0646 45.7563 47.0646 46.0293V112.935H113.971C114.244 112.935 114.505 113.044 114.699 113.237C114.892 113.43 115 113.692 115 113.965C115 114.238 114.892 114.5 114.699 114.693C114.505 114.886 114.244 114.994 113.971 114.994Z" fill="#C2CAD2"/>
<path d="M46.0353 114.994C45.8998 114.995 45.7655 114.969 45.6401 114.918C45.5147 114.866 45.4007 114.791 45.3045 114.696C45.208 114.6 45.1314 114.486 45.0792 114.361C45.0269 114.235 45 114.101 45 113.965C45 113.829 45.0269 113.694 45.0792 113.569C45.1314 113.443 45.208 113.33 45.3045 113.234L65.4175 93.1312C65.6103 92.9395 65.8712 92.8319 66.1431 92.8319C66.4151 92.8319 66.676 92.9395 66.8688 93.1312L74.8564 101.098L91.3255 84.629C91.5184 84.4373 91.7793 84.3297 92.0512 84.3297C92.3232 84.3297 92.584 84.4373 92.7769 84.629C92.8734 84.7247 92.9499 84.8385 93.0022 84.9639C93.0545 85.0894 93.0814 85.2239 93.0814 85.3598C93.0814 85.4957 93.0545 85.6302 93.0022 85.7556C92.9499 85.8811 92.8734 85.9949 92.7769 86.0906L75.5563 103.28C75.3634 103.472 75.1026 103.58 74.8306 103.58C74.5587 103.58 74.2978 103.472 74.105 103.28L66.138 95.3134L46.7661 114.696C46.6699 114.791 46.5559 114.866 46.4305 114.918C46.305 114.969 46.1708 114.995 46.0353 114.994Z" fill="#C2CAD2"/>
<path d="M91.9843 93.1106C91.7113 93.1106 91.4495 93.0022 91.2565 92.8091C91.0634 92.6161 90.955 92.3543 90.955 92.0813V86.42H85.2937C85.0207 86.42 84.7589 86.3116 84.5659 86.1185C84.3728 85.9255 84.2644 85.6637 84.2644 85.3907C84.2644 85.1177 84.3728 84.8559 84.5659 84.6628C84.7589 84.4698 85.0207 84.3614 85.2937 84.3614H91.9843C92.2573 84.3614 92.5191 84.4698 92.7122 84.6628C92.9052 84.8559 93.0136 85.1177 93.0136 85.3907V92.0813C93.0136 92.3543 92.9052 92.6161 92.7122 92.8091C92.5191 93.0022 92.2573 93.1106 91.9843 93.1106Z" fill="#C2CAD2"/>
</svg>
