<svg width="160" height="160" viewBox="0 0 160 160" fill="none" xmlns="http://www.w3.org/2000/svg">
<circle cx="80" cy="80" r="78" fill="white" stroke="#C2CAD2" stroke-width="4"/>
<circle cx="80" cy="80" r="69" fill="white" stroke="#C2CAD2" stroke-width="2"/>
<path d="M108.232 54.7754H95.6953V50.6602C95.6953 50.0996 95.2305 49.6348 94.6699 49.6348C94.1094 49.6348 93.6445 50.0996 93.6445 50.6602V54.7754H86.3301V52.0547C86.3301 50.9746 85.4551 50.1133 84.3887 50.1133H83.623V46.0254C83.623 45.4648 83.1582 45 82.5977 45C82.0371 45 81.5723 45.4648 81.5723 46.0254V50.0996H80.8066C79.7266 50.0996 78.8652 50.9746 78.8652 52.041V54.7617H71.5371V54.2559C71.5371 53.6953 71.0723 53.2305 70.5117 53.2305C69.9512 53.2305 69.4863 53.6953 69.4863 54.2559V54.7617H51.5215C47.9258 54.7617 45 57.6875 45 61.2832V97.3906C45 100.986 47.9258 103.912 51.5215 103.912H67.1211V109.121L63.8125 112.949H62.5C61.9395 112.949 61.4746 113.414 61.4746 113.975C61.4746 114.535 61.9395 115 62.5 115H97.1445C97.7051 115 98.1699 114.535 98.1699 113.975C98.1699 113.414 97.7051 112.949 97.1445 112.949H95.9277L92.6191 109.121V103.912H108.219C111.814 103.912 114.74 100.986 114.74 97.3906V61.2969C114.754 57.7012 111.828 54.7754 108.232 54.7754ZM96.3789 63.2109V75.0781H92.9883V63.2109H96.3789ZM80.9023 52.1504H84.293V70.7031H80.9023V52.1504ZM72.1934 60.873V72.7402H68.8027V60.873H72.1934ZM93.2344 112.949H66.5195L68.6113 110.529H71.7148C72.2754 110.529 72.7402 110.064 72.7402 109.504C72.7402 108.943 72.2754 108.479 71.7148 108.479H69.1582V103.912H90.582V108.479H88.0254C87.4648 108.479 87 108.943 87 109.504C87 110.064 87.4648 110.529 88.0254 110.529H91.1289L93.2344 112.949ZM108.232 101.861H51.5215C49.416 101.861 47.6387 100.385 47.1738 98.416H112.58C112.115 100.385 110.352 101.861 108.232 101.861ZM112.703 96.3652H47.0508V61.2969C47.0508 58.8359 49.0605 56.8262 51.5215 56.8262H69.4863V58.8223H68.7207C67.6406 58.8223 66.7793 59.6973 66.7793 60.7637V72.8223C66.7793 73.9023 67.6543 74.7637 68.7207 74.7637H69.4863V83.8145C69.4863 84.375 69.9512 84.8398 70.5117 84.8398C71.0723 84.8398 71.5371 84.375 71.5371 83.8145V74.7637H72.3027C73.3828 74.7637 74.2441 73.8887 74.2441 72.8223V60.7637C74.2441 59.6836 73.3691 58.8223 72.3027 58.8223H71.5371V56.8262H78.8516V70.8125C78.8516 71.8926 79.7266 72.7539 80.793 72.7539H81.5586V78.209C81.5586 78.7695 82.0234 79.2344 82.584 79.2344C83.1445 79.2344 83.6094 78.7695 83.6094 78.209V72.7539H84.375C85.4551 72.7539 86.3164 71.8789 86.3164 70.8125V56.8262H93.6309V61.1602H92.8652C91.7852 61.1602 90.9238 62.0352 90.9238 63.1016V75.1602C90.9238 76.2402 91.7988 77.1016 92.8652 77.1016H93.6309V85.2363C93.6309 85.7969 94.0957 86.2617 94.6562 86.2617C95.2168 86.2617 95.6816 85.7969 95.6816 85.2363V77.1289H96.4473C97.5273 77.1289 98.3887 76.2539 98.3887 75.1875V63.1289C98.3887 62.0488 97.5137 61.1875 96.4473 61.1875H95.6816V56.8262H108.219C110.68 56.8262 112.689 58.8359 112.689 61.2969V96.3652H112.703Z" fill="#C2CAD2"/>
<path d="M56.6211 80.3691H57.3867V85.8242C57.3867 86.3848 57.8516 86.8496 58.4121 86.8496C58.9727 86.8496 59.4375 86.3848 59.4375 85.8242V80.3691H60.2031C61.2832 80.3691 62.1445 79.4941 62.1445 78.4277V66.3691C62.1445 65.2891 61.2695 64.4277 60.2031 64.4277H59.4375V62.7871C59.4375 62.2266 58.9727 61.7617 58.4121 61.7617C57.8516 61.7617 57.3867 62.2266 57.3867 62.7871V64.4277H56.6211C55.541 64.4277 54.6797 65.3027 54.6797 66.3691V78.4277C54.6797 79.4941 55.5547 80.3691 56.6211 80.3691ZM56.7305 66.4512H60.1211V78.3184H56.7305V66.4512Z" fill="#C2CAD2"/>
<path d="M108.834 68.2422L105.621 67.0117C105.088 66.8066 104.5 67.0801 104.295 67.5996C104.09 68.1191 104.363 68.7207 104.883 68.9258L105.635 69.2129L101 71.7148C100.508 71.9883 100.316 72.6035 100.59 73.1094C100.781 73.4512 101.123 73.6426 101.492 73.6426C101.656 73.6426 101.82 73.6016 101.984 73.5195L106.701 70.9766L106.359 71.8652C106.154 72.3984 106.428 72.9863 106.947 73.1914C107.07 73.2324 107.193 73.2598 107.316 73.2598C107.727 73.2598 108.123 73.0137 108.273 72.6035L109.422 69.5684C109.641 69.0352 109.367 68.4336 108.834 68.2422Z" fill="#C2CAD2"/>
<path d="M89.1465 78.0996L68.3242 89.3242L67.1621 86.2754C67.0664 86.0156 66.8613 85.8106 66.6016 85.7012C66.3418 85.5918 66.0547 85.5918 65.7949 85.7012L51.6035 91.7715C51.084 91.9902 50.8379 92.5918 51.0703 93.1113C51.2344 93.4941 51.6172 93.7266 52.0137 93.7266C52.1504 93.7266 52.2871 93.6992 52.4102 93.6445L65.6309 87.9844L66.834 91.1289C66.9434 91.4023 67.1621 91.6211 67.4355 91.7305C67.709 91.8398 68.0234 91.8125 68.2832 91.6758L90.1309 79.9043C90.623 79.6309 90.8145 79.0156 90.541 78.5098C90.2676 78.0176 89.6523 77.8398 89.1465 78.0996Z" fill="#C2CAD2"/>
</svg>
