<svg width="160" height="160" viewBox="0 0 160 160" fill="none" xmlns="http://www.w3.org/2000/svg">
<circle cx="80" cy="80" r="78" fill="white" stroke="#1F3C61" stroke-width="4"/>
<circle cx="80" cy="80" r="69" fill="white" stroke="#1F3C61" stroke-width="2"/>
<path d="M49.8656 45H48.2437V115H49.8656V45Z" fill="#48A9F5"/>
<path d="M115 110.134H45V111.756H115V110.134Z" fill="#48A9F5"/>
<path d="M60.8538 110.945H59.2319V115H60.8538V110.945Z" fill="#48A9F5"/>
<path d="M71.842 110.945H70.2201V115H71.842V110.945Z" fill="#48A9F5"/>
<path d="M82.8383 110.945H81.2164V115H82.8383V110.945Z" fill="#48A9F5"/>
<path d="M93.8265 110.945H92.2046V115H93.8265V110.945Z" fill="#48A9F5"/>
<path d="M104.823 110.945H103.201V115H104.823V110.945Z" fill="#48A9F5"/>
<path d="M49.0547 99.1462H45V100.768H49.0547V99.1462Z" fill="#48A9F5"/>
<path d="M49.0547 88.158H45V89.7799H49.0547V88.158Z" fill="#48A9F5"/>
<path d="M49.0547 77.1617H45V78.7836H49.0547V77.1617Z" fill="#48A9F5"/>
<path d="M49.0547 66.1735H45V67.7954H49.0547V66.1735Z" fill="#48A9F5"/>
<path d="M49.0547 55.1772H45V56.7991H49.0547V55.1772Z" fill="#48A9F5"/>
<path d="M64.057 82.1895H57.2451C56.7424 82.1895 56.3531 81.8003 56.3531 81.2975V65.7275C56.3531 65.2247 56.7424 64.8355 57.2451 64.8355H64.057C64.5517 64.8355 64.949 65.2329 64.949 65.7275V81.2975C64.949 81.8003 64.5598 82.1895 64.057 82.1895ZM57.975 80.5677H63.3272V66.4574H57.975V80.5677Z" fill="#48A9F5"/>
<path d="M61.462 81.3786H59.8401V92.0829H61.462V81.3786Z" fill="#48A9F5"/>
<path d="M61.462 61.4296H59.8401V65.6464H61.462V61.4296Z" fill="#48A9F5"/>
<path d="M79.3837 87.8661H72.5718C72.069 87.8661 71.6798 87.4768 71.6798 86.974V77.0806C71.6798 76.5779 72.069 76.1886 72.5718 76.1886H79.3837C79.8784 76.1886 80.2757 76.586 80.2757 77.0806V86.974C80.2757 87.4768 79.8865 87.8661 79.3837 87.8661ZM73.3017 86.2442H78.6538V77.8105H73.3017V86.2442Z" fill="#48A9F5"/>
<path d="M76.7887 87.0551H75.1668V101.003H76.7887V87.0551Z" fill="#48A9F5"/>
<path d="M76.7887 70.3499H75.1668V76.9995H76.7887V70.3499Z" fill="#48A9F5"/>
<path d="M94.7185 83.0005H87.9066C87.4038 83.0005 87.0146 82.6112 87.0146 82.1084V64.9166C87.0146 64.4138 87.4038 64.0246 87.9066 64.0246H94.7185C95.2132 64.0246 95.6105 64.4219 95.6105 64.9166V82.1084C95.6105 82.6112 95.2213 83.0005 94.7185 83.0005ZM88.6365 81.3786H93.9886V65.6464H88.6365V81.3786Z" fill="#48A9F5"/>
<path d="M92.1235 82.1895H90.5016V91.272H92.1235V82.1895Z" fill="#48A9F5"/>
<path d="M92.1235 60.6186H90.5016V64.8355H92.1235V60.6186Z" fill="#48A9F5"/>
<path d="M110.053 78.9458H103.241C102.739 78.9458 102.349 78.5565 102.349 78.0538V55.1854C102.349 54.6826 102.739 54.2933 103.241 54.2933H110.053C110.548 54.2933 110.945 54.6907 110.945 55.1854V78.0538C110.945 78.5565 110.556 78.9458 110.053 78.9458ZM103.971 77.3239H109.323V55.9152H103.971V77.3239Z" fill="#48A9F5"/>
<path d="M107.458 78.1348H105.836V82.3517H107.458V78.1348Z" fill="#48A9F5"/>
<path d="M107.458 51.6983H105.836V55.1043H107.458V51.6983Z" fill="#48A9F5"/>
<path fill-rule="evenodd" clip-rule="evenodd" d="M48.0437 44.8H50.0656V109.934H115.2V111.956H105.023V115.2H103.001V111.956H94.0264V115.2H92.0046V111.956H83.0383V115.2H81.0164V111.956H72.042V115.2H70.0201V111.956H61.0538V115.2H59.0319V111.956H50.0656V115.2H48.0437V111.956H44.8V109.934H48.0437V100.968H44.8V98.9462H48.0437V89.9799H44.8V87.9581H48.0437V78.9836H44.8V76.9618H48.0437V67.9955H44.8V65.9736H48.0437V56.9992H44.8V54.9773H48.0437V44.8ZM48.0437 55.3773H45.2V56.5992H48.0437V55.3773ZM48.4437 56.5992V55.3773H48.8547V56.5992H48.4437ZM48.4437 56.9992H49.2547V54.9773H48.4437V45.2H49.6656V109.934H48.4437V100.968H49.2547V98.9462H48.4437V89.9799H49.2547V87.9581H48.4437V78.9836H49.2547V76.9618H48.4437V67.9955H49.2547V65.9736H48.4437V56.9992ZM48.0437 66.3736H45.2V67.5955H48.0437V66.3736ZM48.4437 67.5955V66.3736H48.8547V67.5955H48.4437ZM48.0437 77.3618H45.2V78.5836H48.0437V77.3618ZM48.4437 78.5836V77.3618H48.8547V78.5836H48.4437ZM48.0437 88.3581H45.2V89.5799H48.0437V88.3581ZM48.4437 89.5799V88.3581H48.8547V89.5799H48.4437ZM48.0437 99.3462H45.2V100.568H48.0437V99.3462ZM48.4437 100.568V99.3462H48.8547V100.568H48.4437ZM48.0437 110.334H45.2V111.556H48.0437V110.334ZM48.4437 111.556V110.334H49.6656V111.556H48.4437ZM48.4437 111.956V114.8H49.6656V111.956H48.4437ZM50.0656 111.556H59.0319V110.745H61.0538V111.556H70.0201V110.745H72.042V111.556H81.0164V110.745H83.0383V111.556H92.0046V110.745H94.0264V111.556H103.001V110.745H105.023V111.556H114.8V110.334H50.0656V111.556ZM104.623 111.556V111.145H103.401V111.556H104.623ZM103.401 111.956V114.8H104.623V111.956H103.401ZM93.6264 111.556V111.145H92.4046V111.556H93.6264ZM92.4046 111.956V114.8H93.6264V111.956H92.4046ZM82.6383 111.556V111.145H81.4164V111.556H82.6383ZM81.4164 111.956V114.8H82.6383V111.956H81.4164ZM71.642 111.556V111.145H70.4201V111.556H71.642ZM70.4201 111.956V114.8H71.642V111.956H70.4201ZM60.6538 111.556V111.145H59.4319V111.556H60.6538ZM59.4319 111.956V114.8H60.6538V111.956H59.4319ZM105.636 51.4984H107.658V54.0934H110.053C110.658 54.0934 111.145 54.5803 111.145 55.1854V78.0538C111.145 78.667 110.667 79.1458 110.053 79.1458H107.658V82.5518H105.636V79.1458H103.241C102.628 79.1458 102.149 78.667 102.149 78.0538V55.1854C102.149 54.5722 102.628 54.0934 103.241 54.0934H105.636V51.4984ZM105.636 54.4934H103.241C102.849 54.4934 102.549 54.7931 102.549 55.1854V78.0538C102.549 78.4461 102.849 78.7458 103.241 78.7458H105.636V77.9349H107.658V78.7458H110.053C110.446 78.7458 110.745 78.4461 110.745 78.0538V55.1854C110.745 54.8012 110.437 54.4934 110.053 54.4934H107.658V55.3043H105.636V54.4934ZM107.258 54.4934H106.036V54.9043H107.258V54.4934ZM107.258 54.0934H106.036V51.8984H107.258V54.0934ZM107.258 78.7458V78.3349H106.036V78.7458H107.258ZM106.036 79.1458V82.1518H107.258V79.1458H106.036ZM103.771 55.7152H109.523V77.524H103.771V55.7152ZM104.171 56.1152V77.124H109.123V56.1152H104.171ZM90.3016 60.4187H92.3235V63.8246H94.7185C95.3236 63.8246 95.8105 64.3115 95.8105 64.9166V82.1085C95.8105 82.7217 95.3317 83.2005 94.7185 83.2005H92.3235V91.4721H90.3016V83.2005H87.9066C87.2934 83.2005 86.8146 82.7217 86.8146 82.1085V64.9166C86.8146 64.3034 87.2934 63.8246 87.9066 63.8246H90.3016V60.4187ZM90.3016 64.2246H87.9066C87.5143 64.2246 87.2146 64.5243 87.2146 64.9166V82.1085C87.2146 82.5008 87.5143 82.8005 87.9066 82.8005H90.3016V81.9896H92.3235V82.8005H94.7185C95.1108 82.8005 95.4105 82.5008 95.4105 82.1085V64.9166C95.4105 64.5324 95.1027 64.2246 94.7185 64.2246H92.3235V65.0355H90.3016V64.2246ZM91.9235 64.2246H90.7016V64.6355H91.9235V64.2246ZM91.9235 63.8246H90.7016V60.8187H91.9235V63.8246ZM91.9235 82.8005V82.3896H90.7016V82.8005H91.9235ZM90.7016 83.2005V91.0721H91.9235V83.2005H90.7016ZM59.6401 61.2296H61.662V64.6355H64.057C64.6621 64.6355 65.149 65.1224 65.149 65.7276V81.2975C65.149 81.9108 64.6702 82.3896 64.057 82.3896H61.662V92.283H59.6401V82.3896H57.2451C56.6319 82.3896 56.1531 81.9108 56.1531 81.2975V65.7276C56.1531 65.1143 56.6319 64.6355 57.2451 64.6355H59.6401V61.2296ZM59.6401 65.0355H57.2451C56.8528 65.0355 56.5531 65.3352 56.5531 65.7276V81.2975C56.5531 81.6899 56.8528 81.9896 57.2451 81.9896H59.6401V81.1786H61.662V81.9896H64.057C64.4493 81.9896 64.749 81.6899 64.749 81.2975V65.7276C64.749 65.3434 64.4412 65.0355 64.057 65.0355H61.662V65.8465H59.6401V65.0355ZM61.262 65.0355H60.0401V65.4465H61.262V65.0355ZM61.262 64.6355H60.0401V61.6296H61.262V64.6355ZM61.262 81.9896V81.5786H60.0401V81.9896H61.262ZM60.0401 82.3896V91.883H61.262V82.3896H60.0401ZM88.4365 65.4465H94.1886V81.5786H88.4365V65.4465ZM88.8365 65.8465V81.1786H93.7886V65.8465H88.8365ZM57.775 66.2574H63.5271V80.7677H57.775V66.2574ZM58.175 66.6574V80.3677H63.1271V66.6574H58.175ZM74.9668 70.1499H76.9887V75.9886H79.3837C79.9888 75.9886 80.4757 76.4756 80.4757 77.0807V86.9741C80.4757 87.5873 79.9969 88.0661 79.3837 88.0661H76.9887V101.203H74.9668V88.0661H72.5718C71.9586 88.0661 71.4798 87.5873 71.4798 86.9741V77.0807C71.4798 76.4674 71.9586 75.9886 72.5718 75.9886H74.9668V70.1499ZM74.9668 76.3886H72.5718C72.1795 76.3886 71.8798 76.6884 71.8798 77.0807V86.9741C71.8798 87.3664 72.1795 87.6661 72.5718 87.6661H74.9668V86.8552H76.9887V87.6661H79.3837C79.776 87.6661 80.0757 87.3664 80.0757 86.9741V77.0807C80.0757 76.6965 79.7679 76.3886 79.3837 76.3886H76.9887V77.1996H74.9668V76.3886ZM76.5887 76.3886H75.3668V76.7996H76.5887V76.3886ZM76.5887 75.9886H75.3668V70.5499H76.5887V75.9886ZM76.5887 87.6661V87.2552H75.3668V87.6661H76.5887ZM75.3668 88.0661V100.803H76.5887V88.0661H75.3668ZM73.1017 77.6105H78.8538V86.4443H73.1017V77.6105ZM73.5017 78.0105V86.0443H78.4538V78.0105H73.5017Z" fill="#48A9F5"/>
</svg>
