<svg width="160" height="160" viewBox="0 0 160 160" fill="none" xmlns="http://www.w3.org/2000/svg">
<circle cx="80" cy="80" r="78" fill="white" stroke="#C2CAD2" stroke-width="4"/>
<circle cx="80" cy="80" r="69" fill="white" stroke="#C2CAD2" stroke-width="2"/>
<path d="M79.2059 111.058H70.6414V112.155H79.2059V111.058Z" fill="#C2CAD2"/>
<path d="M115.099 76.6926V45H72.6881V69.8256H50.0131C48.7008 69.8256 47.6327 70.8937 47.6327 72.2061V108.212H45V108.76C45 112.213 47.8007 115 51.2403 115H98.607C102.048 115 104.847 112.201 104.847 108.76V108.212H102.219V76.6926H115.099ZM98.607 113.903H51.2403C48.554 113.903 46.3936 111.853 46.1254 109.309H103.721C103.446 111.888 101.257 113.903 98.607 113.903ZM73.7852 46.097H114.002V75.5956C105.95 75.5956 99.8849 75.5956 87.5652 75.5956L80.5975 81.7218V75.5956H73.7852C73.7852 64.6754 73.7852 56.2421 73.7852 46.097ZM59.7132 95.2539L64.1922 90.7753L67.1447 93.0647C67.698 92.835 67.1237 92.8098 70.6864 91.611L71.1696 87.8914H77.4865L77.9589 91.5976C78.5116 91.824 78.1488 91.4237 81.5022 93.0647L84.4643 90.7748L88.9429 95.2534L86.653 98.2176C86.8785 98.7501 86.894 98.2152 88.1335 101.749L91.8268 102.23V104.532H85.1319C84.9853 98.6435 80.2514 93.9737 74.3379 93.9737C68.4619 93.9737 63.6633 98.6004 63.515 104.532H56.8207V102.229L60.5359 101.75C60.6898 101.325 60.6964 100.727 62.0014 98.2139L59.7132 95.2539ZM64.6042 104.532C64.7518 99.1945 69.0904 95.0707 74.3379 95.0707C79.6529 95.0707 83.8977 99.2657 84.0428 104.532H64.6042ZM88.9734 100.752C88.6922 99.8883 88.3521 99.0725 87.9594 98.3205L90.402 95.1612L84.5576 89.3168L81.3967 91.7599C80.6211 91.3576 79.8031 91.0191 78.9568 90.7507L78.4528 86.7944H70.2043L69.6923 90.7566C68.8529 91.0175 68.0344 91.3533 67.2513 91.7593L64.1001 89.3162L58.2551 95.1607L60.6988 98.3226C60.316 99.0658 59.9548 99.914 59.6896 100.752L55.7237 101.268V104.535H52.4048V74.5972H72.6881V76.6926H79.5005V84.1472L87.9787 76.6926H97.4474V104.535H92.9238V101.267L88.9734 100.752ZM101.122 108.21H48.7297V72.2061C48.7297 71.4985 49.3055 70.9227 50.0131 70.9227H72.6881V73.5002H51.3078V105.632H98.5444V76.6926H101.122V108.21Z" fill="#C2CAD2"/>
<path d="M79.9505 71.0544H81.0475V61.5542H82.6378V55.1366H81.0475V52.032H79.9505V55.1366H78.3596V61.5542H79.9505V71.0544ZM79.4566 56.2336H81.5408V60.4572H79.4566V56.2336Z" fill="#C2CAD2"/>
<path d="M88.8802 71.0544H89.9772V68.0371H91.5676V61.6308H89.9772V52.032H88.8802V61.6308H87.2894V68.0371H88.8802V71.0544ZM88.3864 62.7278H90.4706V66.9401H88.3864V62.7278Z" fill="#C2CAD2"/>
<path d="M97.8207 71.0544H98.9177V62.0914H100.508V55.6738H98.9177V52.032H97.8207V55.6738H96.2191V62.0914H97.8207V71.0544ZM97.3161 56.7709H99.4111V60.9944H97.3161V56.7709Z" fill="#C2CAD2"/>
<path d="M106.75 71.0544H107.847V68.0371H109.438V61.6308H107.847V52.032H106.75V61.6308H105.16V68.0371H106.75V71.0544ZM106.257 62.7278H108.341V66.9401H106.257V62.7278Z" fill="#C2CAD2"/>
<path d="M68.4587 78.3928H55.9492V79.4898H68.4587V78.3928Z" fill="#C2CAD2"/>
<path d="M66.4286 81.7534H55.9492V82.8504H66.4286V81.7534Z" fill="#C2CAD2"/>
<path d="M64.7279 85.1146H55.9492V86.2116H64.7279V85.1146Z" fill="#C2CAD2"/>
<path fill-rule="evenodd" clip-rule="evenodd" d="M72.3882 44.7H115.399V76.9926H102.519V107.912H105.147V108.76C105.147 112.366 102.213 115.3 98.6071 115.3H51.2403C47.6355 115.3 44.7 112.38 44.7 108.76V107.912H47.3327V72.206C47.3327 70.728 48.5351 69.5256 50.0131 69.5256H72.3882V44.7ZM72.9882 45.3V70.1256H50.0131C48.8665 70.1256 47.9327 71.0594 47.9327 72.206V108.512H45.3V108.76C45.3 112.047 47.9659 114.7 51.2403 114.7H98.6071C101.882 114.7 104.547 112.035 104.547 108.76V108.512H101.919V76.3926H114.799V45.3H72.9882ZM73.4852 45.797H114.302V75.8956H87.6784L80.2975 82.385V75.8956H73.4852V45.797ZM74.0852 46.397V75.2956H80.8975V81.0586L87.4521 75.2956H113.702V46.397H74.0852ZM79.6505 51.7319H81.3475V54.8365H82.9378V61.8541H81.3475V71.3544H79.6505V61.8541H78.0596V54.8365H79.6505V51.7319ZM80.2505 52.3319V55.4365H78.6596V61.2541H80.2505V70.7544H80.7475V61.2541H82.3378V55.4365H80.7475V52.3319H80.2505ZM88.5802 51.7319H90.2772V61.3307H91.8676V68.3371H90.2772V71.3544H88.5802V68.3371H86.9894V61.3307H88.5802V51.7319ZM89.1802 52.3319V61.9307H87.5894V67.7371H89.1802V70.7544H89.6772V67.7371H91.2676V61.9307H89.6772V52.3319H89.1802ZM97.5207 51.7319H99.2177V55.3738H100.808V62.3914H99.2177V71.3544H97.5207V62.3914H95.9191V55.3738H97.5207V51.7319ZM98.1207 52.3319V55.9738H96.5191V61.7914H98.1207V70.7544H98.6177V61.7914H100.208V55.9738H98.6177V52.3319H98.1207ZM106.451 51.7319H108.148V61.3307H109.738V68.3371H108.148V71.3544H106.451V68.3371H104.86V61.3307H106.451V51.7319ZM107.05 52.3319V61.9307H105.46V67.7371H107.05V70.7544H107.548V67.7371H109.138V61.9307H107.548V52.3319H107.05ZM79.1566 55.9335H81.8408V60.7571H79.1566V55.9335ZM79.7566 56.5335V60.1571H81.2408V56.5335H79.7566ZM97.0161 56.4708H99.7111V61.2944H97.0161V56.4708ZM97.6161 57.0708V60.6944H99.1111V57.0708H97.6161ZM88.0864 62.4277H90.7706V67.2401H88.0864V62.4277ZM88.6864 63.0277V66.6401H90.1706V63.0277H88.6864ZM105.957 62.4277H108.641V67.2401H105.957V62.4277ZM106.557 63.0277V66.6401H108.041V63.0277H106.557ZM50.0131 71.2226C49.4712 71.2226 49.0297 71.6641 49.0297 72.206V107.91H100.822V76.9926H98.8444V105.931H51.0078V73.2001H72.3882V71.2226H50.0131ZM48.4297 72.206C48.4297 71.3327 49.1399 70.6226 50.0131 70.6226H72.9882V73.8001H51.6078V105.331H98.2444V76.3926H101.422V108.51H48.4297V72.206ZM52.1048 74.2971H72.9882V76.3926H79.8005V83.4839L87.8656 76.3926H97.7474V104.834H92.6238V101.53L88.7468 101.025L88.6882 100.845C88.4117 99.9958 88.0779 99.1955 87.6935 98.4593L87.6046 98.2889L90.0032 95.1866L84.5321 89.7156L81.4286 92.1143L81.2586 92.0261C80.4984 91.6318 79.6963 91.2999 78.8662 91.0366L78.6835 90.9787L78.1886 87.0944H70.4681L69.9651 90.9859L69.7813 91.043C68.9588 91.2987 68.1568 91.6278 67.3894 92.0256L67.2191 92.1139L64.1253 89.7153L58.654 95.1861L61.0529 98.2902L60.9655 98.4599C60.5895 99.1898 60.2351 100.022 59.9756 100.842L59.9179 101.025L56.0237 101.532V104.834H52.1048V74.2971ZM52.7048 74.8971V104.234H55.4237V101.005L59.4628 100.479C59.7057 99.7471 60.0156 99.0154 60.3454 98.3559L57.8563 95.1352L64.075 88.9171L67.2846 91.4055C67.9736 91.0593 68.6882 90.766 69.4193 90.5285L69.9406 86.4944H78.717L79.2304 90.5239C79.9663 90.767 80.6804 91.0624 81.3638 91.4061L84.583 88.9179L90.8009 95.1358L88.3135 98.353C88.6502 99.0193 88.9466 99.7314 89.199 100.479L93.2238 101.004V104.234H97.1474V76.9926H88.0919L79.2005 84.8105V76.9926H72.3882V74.8971H52.7048ZM55.6492 78.0927H68.7587V79.7897H55.6492V78.0927ZM56.2492 78.6927V79.1897H68.1587V78.6927H56.2492ZM55.6492 81.4534H66.7286V83.1504H55.6492V81.4534ZM56.2492 82.0534V82.5504H66.1286V82.0534H56.2492ZM55.6492 84.8146H65.0279V86.5116H55.6492V84.8146ZM56.2492 85.4146V85.9116H64.4279V85.4146H56.2492ZM70.906 87.5914H77.7507L78.233 91.3747C78.2662 91.3834 78.2983 91.3901 78.3352 91.3978L78.341 91.399C78.441 91.4198 78.5648 91.4454 78.7757 91.5162C79.1795 91.6516 79.9053 91.953 81.4663 92.7133L84.4898 90.3759L89.3417 95.2278L87.0051 98.2526C87.0207 98.2788 87.0371 98.3037 87.0559 98.3323L87.0571 98.3341C87.1126 98.4186 87.1812 98.523 87.2814 98.7238C87.4711 99.1036 87.7754 99.8314 88.3553 101.475L92.1268 101.967V104.832H84.8393L84.832 104.539C84.6894 98.8121 80.0872 94.2736 74.3379 94.2736C68.6238 94.2736 63.9592 98.7715 63.815 104.539L63.8077 104.832H56.5207V101.965L60.3066 101.477C60.3141 101.45 60.3219 101.421 60.3306 101.389C60.3387 101.359 60.3474 101.327 60.3571 101.292C60.401 101.132 60.4592 100.932 60.5544 100.664C60.7357 100.155 61.0483 99.4121 61.6472 98.2461L59.3143 95.2284L64.1671 90.3762L67.1811 92.7132C67.2087 92.6967 67.2342 92.6796 67.2635 92.66L67.2685 92.6566C67.3519 92.6007 67.4553 92.5314 67.6532 92.4327C68.0312 92.2443 68.7576 91.9471 70.4131 91.3866L70.906 87.5914ZM71.4331 88.1914L70.9598 91.8355L70.7821 91.8952C69.0011 92.4945 68.2715 92.795 67.9209 92.9697C67.7573 93.0513 67.6777 93.1046 67.6047 93.1536L67.5976 93.1584C67.5101 93.2171 67.4238 93.2736 67.2598 93.3417L67.0987 93.4086L64.2174 91.1744L60.112 95.2793L62.356 98.182L62.2677 98.3521C61.6193 99.6009 61.2977 100.366 61.1196 100.866C61.0308 101.115 60.9769 101.301 60.9356 101.451C60.9279 101.479 60.9205 101.506 60.9132 101.533C60.8824 101.647 60.8534 101.754 60.818 101.852L60.7557 102.024L57.1207 102.493V104.232H63.2262C63.5262 98.2777 68.397 93.6736 74.3379 93.6736C80.3174 93.6736 85.1235 98.3207 85.4208 104.232H91.5268V102.494L87.9116 102.023L87.8505 101.848C87.2309 100.082 86.9224 99.3479 86.7446 98.9918C86.6602 98.8227 86.6059 98.7401 86.5573 98.6661L86.5544 98.6618C86.4978 98.5755 86.4434 98.4918 86.3768 98.3346L86.3084 98.173L88.5441 95.2788L84.4389 91.1736L81.538 93.4162L81.3704 93.3341C79.6942 92.5139 78.9621 92.2116 78.5849 92.085C78.4077 92.0256 78.3101 92.0053 78.2211 91.9869L78.2132 91.9853C78.109 91.9636 78.0078 91.9417 77.8452 91.8751L77.6834 91.8089L77.2223 88.1914H71.4331ZM64.9174 104.232H83.7295C83.4356 99.272 79.3846 95.3707 74.3379 95.3707C69.3523 95.3707 65.2153 99.2093 64.9174 104.232ZM64.3043 104.523C64.4565 99.0216 68.9301 94.7707 74.3379 94.7707C79.8171 94.7707 84.1932 99.0967 84.3427 104.524L84.3512 104.832H64.2958L64.3043 104.523ZM45.7921 109.009H104.055L104.019 109.34C103.728 112.07 101.413 114.203 98.6071 114.203H51.2403C48.3967 114.203 46.1109 112.033 45.8271 109.34L45.7921 109.009ZM46.4705 109.609C46.8669 111.848 48.8292 113.603 51.2403 113.603H98.6071C100.987 113.603 102.973 111.876 103.376 109.609H46.4705ZM70.3414 110.758H79.5059V112.455H70.3414V110.758ZM70.9414 111.358V111.855H78.9059V111.358H70.9414Z" fill="#C2CAD2"/>
</svg>
