<svg width="56" height="48" viewBox="0 0 56 48" fill="none" xmlns="http://www.w3.org/2000/svg">
<path d="M55.9488 24.323C55.9492 22.6622 55.5398 21.027 54.7569 19.5623C53.9739 18.0977 52.8416 16.8489 51.4604 15.9267V12.3908H54.7223V6.80635C55.2666 6.48333 55.6749 5.9735 55.8713 5.37181C56.0676 4.77012 56.0386 4.11758 55.7896 3.5357C55.5406 2.95382 55.0886 2.48225 54.5178 2.20882C53.947 1.93539 53.2963 1.87872 52.6868 2.04937C52.0774 2.22003 51.5507 2.60637 51.2049 3.13645C50.859 3.66654 50.7177 4.30424 50.807 4.93081C50.8964 5.55738 51.2105 6.13011 51.6907 6.54236C52.171 6.9546 52.7847 7.17826 53.4175 7.17169V11.086H50.1556V15.1961C49.1298 14.7017 48.0262 14.3883 46.8937 14.2697V5.13624C47.5086 4.97745 48.0446 4.59983 48.4011 4.07415C48.7575 3.54847 48.9101 2.91082 48.83 2.28074C48.75 1.65065 48.4429 1.07138 47.9663 0.651515C47.4898 0.231645 46.8764 0 46.2413 0C45.6061 0 44.9928 0.231645 44.5162 0.651515C44.0396 1.07138 43.7326 1.65065 43.6525 2.28074C43.5725 2.91082 43.725 3.54847 44.0815 4.07415C44.438 4.59983 44.9739 4.97745 45.5889 5.13624V14.2697C43.9925 14.3046 42.4273 14.7182 41.0222 15.4766V11.6927C41.6372 11.534 42.1731 11.1563 42.5296 10.6306C42.8861 10.105 43.0386 9.46732 42.9585 8.83724C42.8785 8.20715 42.5714 7.62788 42.0948 7.20801C41.6183 6.78815 41.0049 6.5565 40.3698 6.5565C39.7346 6.5565 39.1213 6.78815 38.6447 7.20801C38.1681 7.62788 37.8611 8.20715 37.781 8.83724C37.701 9.46732 37.8535 10.105 38.21 10.6306C38.5665 11.1563 39.1024 11.534 39.7174 11.6927V16.3051C38.4792 17.2446 37.4753 18.4579 36.7841 19.85C36.0929 21.2421 35.7332 22.7753 35.7332 24.3295C35.7332 25.8838 36.0929 27.4169 36.7841 28.809C37.4753 30.2011 38.4792 31.4144 39.7174 32.3539V36.5292H36.3641C36.2053 35.9142 35.8277 35.3782 35.302 35.0217C34.7763 34.6653 34.1387 34.5128 33.5086 34.5928C32.8785 34.6728 32.2993 34.9799 31.8794 35.4565C31.4595 35.9331 31.2279 36.5464 31.2279 37.1815C31.2279 37.8167 31.4595 38.43 31.8794 38.9066C32.2993 39.3832 32.8785 39.6903 33.5086 39.7703C34.1387 39.8503 34.7763 39.6978 35.302 39.3413C35.8277 38.9849 36.2053 38.4489 36.3641 37.8339H41.0222V33.215C42.4261 33.9764 43.9921 34.3903 45.5889 34.4219V42.492C44.9739 42.6508 44.438 43.0284 44.0815 43.5541C43.725 44.0798 43.5725 44.7174 43.6525 45.3475C43.7326 45.9776 44.0396 46.5568 44.5162 46.9767C44.9928 47.3966 45.6061 47.6282 46.2413 47.6282C46.8764 47.6282 47.4898 47.3966 47.9663 46.9767C48.4429 46.5568 48.75 45.9776 48.83 45.3475C48.9101 44.7174 48.7575 44.0798 48.4011 43.5541C48.0446 43.0284 47.5086 42.6508 46.8937 42.492V34.3828C48.497 34.2117 50.036 33.6591 51.3821 32.7714V35.9681C50.7671 36.1269 50.2312 36.5045 49.8747 37.0302C49.5182 37.5559 49.3657 38.1935 49.4457 38.8236C49.5258 39.4537 49.8328 40.033 50.3094 40.4528C50.786 40.8727 51.3993 41.1043 52.0345 41.1043C52.6696 41.1043 53.283 40.8727 53.7595 40.4528C54.2361 40.033 54.5432 39.4537 54.6232 38.8236C54.7033 38.1935 54.5508 37.5559 54.1943 37.0302C53.8378 36.5045 53.3018 36.1269 52.6869 35.9681V31.7406C53.7152 30.798 54.5362 29.6517 55.0977 28.3748C55.6593 27.0978 55.9491 25.718 55.9488 24.323ZM52.1128 4.56214C52.1128 4.30408 52.1893 4.05181 52.3327 3.83724C52.476 3.62267 52.6798 3.45544 52.9182 3.35668C53.1566 3.25793 53.419 3.23209 53.6721 3.28243C53.9252 3.33278 54.1577 3.45705 54.3402 3.63952C54.5226 3.822 54.6469 4.05449 54.6973 4.30759C54.7476 4.56069 54.7218 4.82304 54.623 5.06146C54.5242 5.29987 54.357 5.50365 54.1424 5.64702C53.9279 5.79039 53.6756 5.86692 53.4175 5.86692C53.0715 5.86692 52.7396 5.72945 52.4949 5.48476C52.2502 5.24006 52.1128 4.90819 52.1128 4.56214ZM39.065 9.12886C39.065 8.8708 39.1415 8.61853 39.2849 8.40396C39.4283 8.18939 39.6321 8.02216 39.8705 7.9234C40.1089 7.82464 40.3712 7.79881 40.6243 7.84915C40.8774 7.8995 41.1099 8.02376 41.2924 8.20624C41.4749 8.38872 41.5991 8.62121 41.6495 8.87431C41.6998 9.12741 41.674 9.38976 41.5752 9.62817C41.4765 9.86659 41.3092 10.0704 41.0947 10.2137C40.8801 10.3571 40.6278 10.4336 40.3698 10.4336C40.0237 10.4336 39.6919 10.2962 39.4472 10.0515C39.2025 9.80678 39.065 9.4749 39.065 9.12886ZM33.8459 38.4863C33.5878 38.4863 33.3356 38.4098 33.121 38.2664C32.9064 38.1231 32.7392 37.9193 32.6404 37.6809C32.5417 37.4424 32.5159 37.1801 32.5662 36.927C32.6165 36.6739 32.7408 36.4414 32.9233 36.2589C33.1058 36.0765 33.3382 35.9522 33.5914 35.9018C33.8445 35.8515 34.1068 35.8773 34.3452 35.9761C34.5836 36.0748 34.7874 36.2421 34.9308 36.4567C35.0742 36.6712 35.1507 36.9235 35.1507 37.1815C35.1507 37.5276 35.0132 37.8595 34.7685 38.1042C34.5238 38.3489 34.192 38.4863 33.8459 38.4863ZM53.3393 38.4863C53.3393 38.7444 53.2627 38.9966 53.1194 39.2112C52.976 39.4258 52.7722 39.593 52.5338 39.6918C52.2954 39.7905 52.033 39.8164 51.7799 39.766C51.5268 39.7157 51.2943 39.5914 51.1119 39.4089C50.9294 39.2265 50.8051 38.994 50.7548 38.7409C50.7044 38.4878 50.7303 38.2254 50.829 37.987C50.9278 37.7486 51.095 37.5448 51.3096 37.4014C51.5242 37.2581 51.7764 37.1815 52.0345 37.1815C52.3805 37.1815 52.7124 37.319 52.9571 37.5637C53.2018 37.8084 53.3393 38.1403 53.3393 38.4863ZM44.9365 2.60497C44.9365 2.34691 45.013 2.09465 45.1564 1.88008C45.2998 1.66551 45.5035 1.49827 45.742 1.39952C45.9804 1.30076 46.2427 1.27492 46.4958 1.32527C46.7489 1.37561 46.9814 1.49988 47.1639 1.68236C47.3464 1.86484 47.4706 2.09732 47.521 2.35043C47.5713 2.60353 47.5455 2.86587 47.4467 3.10429C47.348 3.34271 47.1807 3.54649 46.9662 3.68986C46.7516 3.83323 46.4993 3.90975 46.2413 3.90975C45.8952 3.90975 45.5634 3.77228 45.3187 3.52759C45.074 3.2829 44.9365 2.95102 44.9365 2.60497ZM37.0296 24.323C37.0296 22.5811 37.5461 20.8783 38.5138 19.4299C39.4816 17.9816 40.8571 16.8527 42.4664 16.1861C44.0757 15.5195 45.8466 15.3451 47.555 15.685C49.2634 16.0248 50.8327 16.8636 52.0645 18.0953C53.2962 19.327 54.135 20.8963 54.4748 22.6048C54.8146 24.3132 54.6402 26.084 53.9736 27.6934C53.307 29.3027 52.1782 30.6782 50.7298 31.6459C49.2815 32.6137 47.5787 33.1302 45.8368 33.1302C43.501 33.1302 41.2608 32.2023 39.6091 30.5506C37.9575 28.899 37.0296 26.6588 37.0296 24.323ZM47.5461 45.0102C47.5461 45.2683 47.4695 45.5205 47.3262 45.7351C47.1828 45.9497 46.979 46.1169 46.7406 46.2157C46.5022 46.3144 46.2398 46.3403 45.9867 46.2899C45.7336 46.2396 45.5011 46.1153 45.3187 45.9328C45.1362 45.7503 45.0119 45.5179 44.9616 45.2648C44.9112 45.0117 44.9371 44.7493 45.0358 44.5109C45.1346 44.2725 45.3018 44.0687 45.5164 43.9253C45.731 43.7819 45.9832 43.7054 46.2413 43.7054C46.5873 43.7054 46.9192 43.8429 47.1639 44.0876C47.4086 44.3323 47.5461 44.6642 47.5461 45.0102Z" fill="#C2CAD2"/>
<path d="M52.6347 25.3798H52.4781C52.33 25.3752 52.1846 25.4211 52.066 25.51C51.9475 25.5989 51.8627 25.7256 51.8257 25.8691V25.9474C51.8257 25.9996 51.8257 26.0453 51.78 26.0975C51.7313 26.2627 51.75 26.4405 51.8319 26.592C51.9137 26.7436 52.0523 26.8566 52.2172 26.9064C52.2994 26.9315 52.3858 26.9401 52.4714 26.9317C52.5569 26.9233 52.64 26.8981 52.7158 26.8575C52.7916 26.8168 52.8586 26.7616 52.913 26.695C52.9673 26.6284 53.008 26.5517 53.0326 26.4693C53.0326 26.3715 53.0914 26.2671 53.1174 26.1627C53.1567 25.9949 53.1279 25.8184 53.0375 25.6717C52.947 25.5251 52.8022 25.4201 52.6347 25.3798Z" fill="#C2CAD2"/>
<path d="M40.0501 26.5411L39.9718 26.3258C39.9284 26.1973 39.846 26.0855 39.7361 26.006C39.6262 25.9265 39.4942 25.8832 39.3586 25.8822C39.2896 25.8691 39.2188 25.8691 39.1498 25.8822C39.0633 25.9077 38.983 25.9508 38.914 26.009C38.845 26.0671 38.7888 26.1388 38.7489 26.2198C38.7091 26.3007 38.6865 26.389 38.6825 26.4791C38.6785 26.5692 38.6932 26.6592 38.7258 26.7433L38.8301 27.0369C38.8779 27.1606 38.9621 27.2667 39.0716 27.3413C39.1812 27.4159 39.3109 27.4554 39.4434 27.4544C39.5233 27.4542 39.6026 27.441 39.6783 27.4153C39.7586 27.3843 39.8319 27.3377 39.8941 27.2782C39.9564 27.2187 40.0062 27.1475 40.0408 27.0687C40.0753 26.9898 40.0939 26.9049 40.0956 26.8189C40.0972 26.7328 40.0817 26.6473 40.0501 26.5672V26.5411Z" fill="#C2CAD2"/>
<path d="M41.9747 19.4823L42.1769 19.3257C42.2887 19.2447 42.372 19.1304 42.4147 18.9991C42.4574 18.8678 42.4574 18.7263 42.4146 18.5951C42.3718 18.4638 42.2885 18.3495 42.1766 18.2686C42.0647 18.1877 41.9301 18.1444 41.792 18.1449C41.6531 18.1463 41.5182 18.192 41.4071 18.2753L41.1592 18.4645C41.0247 18.5722 40.9383 18.7286 40.9188 18.8997C40.8992 19.0708 40.9481 19.2427 41.0548 19.3779C41.1082 19.4454 41.1744 19.5017 41.2496 19.5435C41.3248 19.5853 41.4075 19.6118 41.493 19.6215C41.5785 19.6312 41.6651 19.6239 41.7477 19.6C41.8304 19.5761 41.9075 19.5361 41.9747 19.4823Z" fill="#C2CAD2"/>
<path d="M42.477 29.529L42.3269 29.4377L42.2682 29.3986C42.1573 29.3211 42.0251 29.2801 41.8898 29.2811C41.7863 29.2816 41.6844 29.3067 41.5926 29.3543C41.5007 29.402 41.4214 29.4708 41.3614 29.5551C41.2624 29.6963 41.2232 29.8709 41.2526 30.0408C41.2819 30.2108 41.3773 30.3622 41.518 30.4619C41.6028 30.5207 41.6876 30.5859 41.7789 30.6381C41.8839 30.7059 42.0062 30.7421 42.1312 30.7425C42.2719 30.7421 42.4087 30.6963 42.5212 30.6118C42.6337 30.5274 42.7159 30.4088 42.7555 30.2738C42.7952 30.1388 42.7901 29.9946 42.7411 29.8628C42.692 29.7309 42.6017 29.6184 42.4835 29.5421L42.477 29.529Z" fill="#C2CAD2"/>
<path d="M51.6039 22.0592H51.643C51.6467 22.083 51.6467 22.1072 51.643 22.131C51.6907 22.2635 51.78 22.3771 51.8976 22.4548C52.0152 22.5324 52.1548 22.5698 52.2954 22.5615C52.3689 22.5607 52.4417 22.5475 52.5107 22.5224C52.673 22.4647 52.8058 22.3453 52.8804 22.1901C52.9549 22.0349 52.9651 21.8565 52.9087 21.6938C52.8695 21.5895 52.8369 21.4916 52.7978 21.3938C52.7484 21.2736 52.6643 21.1709 52.5562 21.0988C52.4481 21.0268 52.321 20.9886 52.1911 20.9893C52.1062 20.9882 52.022 21.0037 51.9431 21.0349C51.7833 21.1001 51.6558 21.2259 51.5886 21.3849C51.5213 21.5438 51.5198 21.723 51.5843 21.883L51.6039 22.0592Z" fill="#C2CAD2"/>
<path d="M45.9607 31.8254H46.2739C46.4469 31.8254 46.6129 31.7567 46.7352 31.6344C46.8576 31.512 46.9263 31.3461 46.9263 31.1731C46.9179 31.0057 46.8455 30.8481 46.724 30.7327C46.6026 30.6173 46.4414 30.5531 46.2739 30.5533H45.9738C45.8008 30.5533 45.6348 30.622 45.5125 30.7444C45.3901 30.8667 45.3214 31.0326 45.3214 31.2057C45.3214 31.3787 45.3901 31.5446 45.5125 31.667C45.6348 31.7893 45.8008 31.8581 45.9738 31.8581L45.9607 31.8254Z" fill="#C2CAD2"/>
<path d="M45.8498 18.1318C46.0229 18.1318 46.1888 18.0631 46.3112 17.9407C46.4335 17.8184 46.5022 17.6524 46.5022 17.4794C46.5022 17.3064 46.4335 17.1405 46.3112 17.0181C46.1888 16.8958 46.0229 16.827 45.8498 16.827H45.5237C45.3506 16.827 45.1847 16.8958 45.0623 17.0181C44.94 17.1405 44.8713 17.3064 44.8713 17.4794C44.8713 17.6524 44.94 17.8184 45.0623 17.9407C45.1847 18.0631 45.3506 18.1318 45.5237 18.1318H45.8498Z" fill="#C2CAD2"/>
<path d="M39.065 23.1552C39.1233 23.1647 39.1828 23.1647 39.2411 23.1552C39.3884 23.1602 39.5331 23.1153 39.6516 23.0276C39.77 22.94 39.8553 22.8148 39.8935 22.6724C39.8935 22.5876 39.9392 22.5028 39.9653 22.4245C40.0188 22.2602 40.0049 22.0813 39.9266 21.9271C39.8483 21.773 39.7121 21.6563 39.5478 21.6025C39.4807 21.5936 39.4127 21.5936 39.3455 21.6025C39.2016 21.5959 39.0596 21.6372 38.9416 21.7198C38.8236 21.8024 38.7362 21.9217 38.6931 22.0592C38.6931 22.157 38.6279 22.2614 38.6018 22.3658C38.56 22.5319 38.5851 22.7077 38.6718 22.8554C38.7584 23.003 38.8997 23.1107 39.065 23.1552Z" fill="#C2CAD2"/>
<path d="M49.7837 29.0985L49.7055 29.1637L49.6076 29.242C49.4702 29.3468 49.38 29.5018 49.3567 29.673C49.3335 29.8443 49.3791 30.0177 49.4836 30.1553C49.5444 30.2363 49.6232 30.3021 49.7138 30.3474C49.8044 30.3927 49.9043 30.4163 50.0056 30.4163C50.1475 30.4144 50.2849 30.3663 50.397 30.2793C50.484 30.2197 50.5668 30.1543 50.6449 30.0836C50.7774 29.974 50.8613 29.8167 50.8784 29.6457C50.8955 29.4747 50.8444 29.3038 50.7362 29.1702C50.6819 29.1037 50.615 29.0485 50.5393 29.0079C50.4637 28.9673 50.3807 28.942 50.2953 28.9335C50.2098 28.925 50.1235 28.9335 50.0413 28.9585C49.9591 28.9834 49.8827 29.0243 49.8164 29.0789L49.7837 29.0985Z" fill="#C2CAD2"/>
<path d="M49.1053 19.0582L49.301 19.1887C49.4082 19.2636 49.5355 19.3045 49.6663 19.3061C49.8068 19.3078 49.9441 19.2642 50.0578 19.1816C50.1715 19.099 50.2555 18.9819 50.2972 18.8478C50.339 18.7136 50.3364 18.5696 50.2897 18.437C50.243 18.3045 50.1548 18.1906 50.0382 18.1122L49.7707 17.9426C49.6669 17.8783 49.5471 17.8444 49.4249 17.8448C49.2848 17.8465 49.149 17.8933 49.0375 17.9783C48.9261 18.0633 48.845 18.1819 48.8062 18.3165C48.7674 18.4512 48.773 18.5948 48.8221 18.726C48.8713 18.8572 48.9614 18.9691 49.0792 19.0452L49.1053 19.0582Z" fill="#C2CAD2"/>
<path d="M10.112 14.211C8.11205 14.211 6.157 14.804 4.49409 15.9151C2.83117 17.0263 1.53509 18.6055 0.769736 20.4533C0.0043816 22.301 -0.19587 24.3342 0.194304 26.2957C0.584478 28.2573 1.54755 30.0591 2.96175 31.4732C4.37594 32.8874 6.17773 33.8505 8.13926 34.2407C10.1008 34.6309 12.134 34.4306 13.9817 33.6653C15.8295 32.8999 17.4087 31.6038 18.5199 29.9409C19.631 28.278 20.224 26.3229 20.224 24.323C20.2206 21.6422 19.1541 19.0721 17.2585 17.1765C15.3629 15.2809 12.7928 14.2144 10.112 14.211ZM10.112 33.1302C8.37011 33.1302 6.66732 32.6137 5.21898 31.6459C3.77064 30.6782 2.64179 29.3027 1.97519 27.6934C1.30859 26.084 1.13418 24.3132 1.47401 22.6048C1.81384 20.8963 2.65265 19.327 3.88436 18.0953C5.11608 16.8636 6.68538 16.0248 8.39381 15.685C10.1023 15.3451 11.8731 15.5195 13.4824 16.1861C15.0917 16.8527 16.4672 17.9816 17.435 19.4299C18.4027 20.8783 18.9193 22.5811 18.9193 24.323C18.9201 25.4798 18.6929 26.6254 18.2506 27.6944C17.8083 28.7633 17.1596 29.7345 16.3416 30.5525C15.5236 31.3705 14.5524 32.0192 13.4834 32.4616C12.4145 32.9039 11.2688 33.1311 10.112 33.1302Z" fill="#C2CAD2"/>
<path d="M10.112 16.4943C8.56366 16.4943 7.05007 16.9535 5.76265 17.8137C4.47524 18.6739 3.47182 19.8966 2.87928 21.3271C2.28675 22.7576 2.13172 24.3317 2.43379 25.8503C2.73586 27.3689 3.48147 28.7638 4.57632 29.8587C5.67118 30.9535 7.06611 31.6991 8.58473 32.0012C10.1033 32.3033 11.6774 32.1482 13.1079 31.5557C14.5384 30.9632 15.7611 29.9598 16.6213 28.6723C17.4815 27.3849 17.9407 25.8713 17.9407 24.323C17.9407 23.2949 17.7382 22.2769 17.3448 21.3271C16.9513 20.3773 16.3747 19.5142 15.6477 18.7873C14.9208 18.0603 14.0577 17.4837 13.1079 17.0902C12.1581 16.6968 11.1401 16.4943 10.112 16.4943ZM10.112 30.8469C8.82172 30.8469 7.56039 30.4642 6.48755 29.7474C5.4147 29.0305 4.57852 28.0116 4.08474 26.8196C3.59096 25.6275 3.46177 24.3157 3.71349 23.0502C3.96522 21.7847 4.58656 20.6223 5.49894 19.7099C6.41132 18.7975 7.57377 18.1762 8.83927 17.9244C10.1048 17.6727 11.4165 17.8019 12.6086 18.2957C13.8007 18.7895 14.8196 19.6257 15.5364 20.6985C16.2533 21.7713 16.6359 23.0327 16.6359 24.323C16.6359 25.1797 16.4672 26.028 16.1393 26.8196C15.8114 27.6111 15.3309 28.3303 14.7251 28.9361C14.1193 29.5419 13.4001 30.0224 12.6086 30.3503C11.8171 30.6781 10.9688 30.8469 10.112 30.8469Z" fill="#C2CAD2"/>
<path d="M11.5212 19.4562H10.2164V20.8914H9.43354V19.4562H8.12876V20.8914H7.43071V24.9754H11.3059V26.6846H7.43071V27.9894H8.12876V29.1963H9.43354V27.9894H10.2164V29.1963H11.5212V27.9894H12.6107V23.6706H8.73548V22.1962H12.6107V20.8914H11.5212V19.4562Z" fill="#C2CAD2"/>
<path d="M31.3473 12.8149L30.4143 13.7282L32.2867 15.6201H22.1029V16.9249H35.4051L31.3473 12.8149Z" fill="#C2CAD2"/>
<path d="M33.8459 29.9727V28.6679H20.5437L24.6016 32.7779L25.5345 31.8646L23.6621 29.9727H33.8459Z" fill="#C2CAD2"/>
</svg>
