<svg width="56" height="53" viewBox="0 0 56 53" fill="none" xmlns="http://www.w3.org/2000/svg">
<path d="M45.5522 1.3481C47.352 1.3481 49.1113 1.88178 50.6077 2.88167C52.1042 3.88155 53.2705 5.30272 53.9592 6.96547C54.648 8.62822 54.8282 10.4579 54.4771 12.223C54.1259 13.9882 53.2593 15.6096 51.9867 16.8822C50.7141 18.1548 49.0927 19.0215 47.3275 19.3726C45.5623 19.7237 43.7327 19.5435 42.07 18.8548C40.4072 18.166 38.986 16.9997 37.9861 15.5033C36.9863 14.0068 36.4526 12.2475 36.4526 10.4478C36.4526 8.03438 37.4113 5.71985 39.1178 4.01333C40.8243 2.30681 43.1389 1.3481 45.5522 1.3481ZM45.5522 0C43.4859 0 41.4659 0.61275 39.7478 1.76077C38.0296 2.90878 36.6905 4.5405 35.8998 6.44958C35.109 8.35865 34.9021 10.4594 35.3052 12.486C35.7084 14.5127 36.7034 16.3743 38.1646 17.8354C39.6257 19.2966 41.4873 20.2916 43.514 20.6948C45.5406 21.0979 47.6413 20.891 49.5504 20.1002C51.4595 19.3095 53.0912 17.9704 54.2392 16.2522C55.3872 14.5341 56 12.5141 56 10.4478C55.9964 7.67794 54.8945 5.02258 52.936 3.06402C50.9774 1.10546 48.3221 0.00356707 45.5522 0Z" fill="#C2CAD2"/>
<path d="M45.5522 2.6962H45.2287C45.0499 2.6962 44.8785 2.76721 44.7521 2.89362C44.6257 3.02003 44.5546 3.19148 44.5546 3.37025C44.5546 3.54901 44.6257 3.72046 44.7521 3.84687C44.8785 3.97328 45.0499 4.04429 45.2287 4.04429H45.5253C45.704 4.04429 45.8755 3.97328 46.0019 3.84687C46.1283 3.72046 46.1993 3.54901 46.1993 3.37025C46.1993 3.19148 46.1283 3.02003 46.0019 2.89362C45.8755 2.76721 45.704 2.6962 45.5253 2.6962H45.5522ZM41.3731 4.04429C41.2296 4.04574 41.0903 4.09297 40.9754 4.1791L40.7193 4.37458C40.5804 4.4858 40.4911 4.64741 40.4709 4.82419C40.4507 5.00097 40.5012 5.17856 40.6115 5.31825C40.6666 5.38799 40.735 5.44614 40.8127 5.48934C40.8904 5.53254 40.9759 5.55994 41.0642 5.56996C41.1526 5.57999 41.242 5.57244 41.3274 5.54774C41.4128 5.52305 41.4925 5.48171 41.5619 5.4261L41.7708 5.26432C41.8864 5.18067 41.9724 5.06252 42.0165 4.92687C42.0607 4.79122 42.0606 4.64506 42.0164 4.50944C41.9722 4.37382 41.8861 4.25571 41.7705 4.17213C41.6549 4.08854 41.5158 4.04378 41.3731 4.04429ZM38.805 7.61001C38.6563 7.60321 38.5096 7.6458 38.3876 7.73116C38.2657 7.81651 38.1755 7.93982 38.131 8.08185C38.131 8.18296 38.0636 8.2908 38.0366 8.39865C38.0116 8.48816 38.0054 8.58187 38.0184 8.67389C38.0313 8.76591 38.0632 8.85426 38.1119 8.93339C38.1607 9.01251 38.2252 9.0807 38.3016 9.13367C38.3779 9.18665 38.4644 9.22326 38.5556 9.24121C38.6159 9.25103 38.6773 9.25103 38.7376 9.24121C38.8898 9.24643 39.0392 9.19996 39.1616 9.10939C39.284 9.01882 39.3722 8.88947 39.4116 8.74242C39.4116 8.65479 39.4588 8.56716 39.4858 8.48628C39.513 8.40175 39.5233 8.31268 39.516 8.22418C39.5087 8.13567 39.484 8.04948 39.4433 7.97056C39.4025 7.89164 39.3466 7.82154 39.2787 7.7643C39.2109 7.70705 39.1323 7.66378 39.0477 7.63698C38.9824 7.6155 38.9142 7.60413 38.8455 7.60327L38.805 7.61001ZM38.8455 12.0116C38.7721 12.009 38.6989 12.0205 38.6298 12.0453C38.5399 12.0728 38.4568 12.1189 38.3858 12.1805C38.3148 12.2421 38.2575 12.3178 38.2175 12.4029C38.1775 12.4879 38.1557 12.5804 38.1536 12.6744C38.1515 12.7683 38.169 12.8617 38.2051 12.9485L38.313 13.2518C38.3622 13.3796 38.4493 13.4893 38.5625 13.5663C38.6757 13.6434 38.8096 13.6842 38.9466 13.6832C39.0291 13.683 39.1111 13.6693 39.1892 13.6428C39.2722 13.6107 39.348 13.5626 39.4123 13.5011C39.4766 13.4396 39.528 13.3661 39.5638 13.2846C39.5995 13.2032 39.6187 13.1154 39.6204 13.0265C39.622 12.9376 39.6061 12.8492 39.5734 12.7665L39.4925 12.5441C39.4477 12.4113 39.3626 12.2958 39.249 12.2136C39.1354 12.1314 38.9991 12.0867 38.8589 12.0857L38.8455 12.0116ZM41.4675 15.5368C41.3606 15.5373 41.2553 15.5633 41.1603 15.6125C41.0654 15.6617 40.9835 15.7328 40.9215 15.8199C40.8192 15.9658 40.7788 16.1462 40.8091 16.3218C40.8394 16.4973 40.938 16.6538 41.0833 16.7569C41.1709 16.8175 41.2585 16.8849 41.3529 16.9389C41.4614 17.0089 41.5877 17.0464 41.7169 17.0467C41.8623 17.0463 42.0036 16.999 42.1198 16.9117C42.2361 16.8244 42.321 16.7019 42.3619 16.5625C42.4029 16.423 42.3976 16.274 42.347 16.1378C42.2963 16.0015 42.203 15.8853 42.0809 15.8065L41.9259 15.7323L41.8652 15.6919C41.7506 15.6119 41.614 15.5695 41.4742 15.5705L41.4675 15.5368ZM45.6601 16.8377C45.4813 16.8377 45.3099 16.9088 45.1835 17.0352C45.0571 17.1616 44.986 17.333 44.986 17.5118C44.986 17.6906 45.0571 17.862 45.1835 17.9884C45.3099 18.1148 45.4813 18.1858 45.6601 18.1858H45.9836C46.0751 18.186 46.1656 18.1675 46.2496 18.1315C46.3337 18.0955 46.4095 18.0429 46.4726 17.9767C46.5356 17.9105 46.5846 17.8321 46.6164 17.7464C46.6482 17.6607 46.6622 17.5694 46.6577 17.4781C46.649 17.3052 46.5742 17.1423 46.4487 17.0231C46.3232 16.9039 46.1567 16.8375 45.9836 16.8377H45.6601ZM50.0549 15.2268C49.8997 15.228 49.7497 15.2828 49.6302 15.3818L49.5493 15.4492L49.4482 15.5301C49.3063 15.6384 49.213 15.7985 49.189 15.9754C49.165 16.1524 49.2122 16.3316 49.3202 16.4738C49.383 16.5575 49.4644 16.6254 49.558 16.6722C49.6516 16.719 49.7548 16.7434 49.8594 16.7434C50.006 16.7414 50.148 16.6917 50.2638 16.6018C50.3537 16.5403 50.4393 16.4727 50.52 16.3996C50.6568 16.2865 50.7435 16.1239 50.7612 15.9472C50.7789 15.7705 50.7261 15.594 50.6143 15.4559C50.5509 15.3777 50.4708 15.3147 50.3798 15.2716C50.2888 15.2284 50.1893 15.2062 50.0886 15.2065L50.0549 15.2268ZM52.4141 11.5195C52.261 11.5147 52.1108 11.5621 51.9883 11.654C51.8658 11.7459 51.7782 11.8767 51.74 12.025V12.1059C51.74 12.1598 51.74 12.207 51.6928 12.261C51.6425 12.4317 51.6617 12.6154 51.7464 12.772C51.831 12.9285 51.9741 13.0453 52.1444 13.0968C52.2294 13.1227 52.3187 13.1316 52.4071 13.1229C52.4955 13.1142 52.5813 13.0881 52.6596 13.0462C52.7379 13.0042 52.8072 12.9472 52.8633 12.8783C52.9195 12.8095 52.9616 12.7303 52.987 12.6452C52.987 12.5441 53.0477 12.4362 53.0746 12.3284C53.1174 12.155 53.0896 11.9717 52.9973 11.8188C52.9051 11.6658 52.7559 11.5558 52.5826 11.5128C52.5288 11.5063 52.4745 11.5063 52.4208 11.5128L52.4141 11.5195ZM52.1175 7.13144C52.0298 7.13037 51.9428 7.14639 51.8613 7.17862C51.6962 7.24593 51.5645 7.37594 51.495 7.54018C51.4255 7.70442 51.4239 7.8895 51.4906 8.05489V8.10881H51.5311C51.5349 8.13338 51.5349 8.15839 51.5311 8.18296C51.5803 8.31995 51.6726 8.43733 51.7941 8.51752C51.9156 8.59771 52.0598 8.63641 52.2051 8.62783C52.281 8.62697 52.3562 8.61329 52.4275 8.58739C52.5952 8.52783 52.7325 8.40442 52.8095 8.24407C52.8865 8.08371 52.897 7.89941 52.8387 7.73134C52.7983 7.6235 52.7646 7.52239 52.7241 7.42128C52.6731 7.29712 52.5862 7.19102 52.4745 7.11657C52.3628 7.04211 52.2315 7.0027 52.0973 7.00337L52.1175 7.13144ZM49.2865 3.76119C49.1417 3.763 49.0013 3.81138 48.8862 3.89917C48.7711 3.98695 48.6872 4.10949 48.6472 4.24862C48.6071 4.38776 48.6129 4.5361 48.6637 4.67169C48.7145 4.80727 48.8076 4.9229 48.9292 5.00144L49.1314 5.13625C49.2423 5.21362 49.3738 5.2559 49.5089 5.25758C49.6541 5.25938 49.7959 5.21425 49.9134 5.12893C50.0308 5.04361 50.1176 4.92264 50.1608 4.78404C50.204 4.64543 50.2012 4.49659 50.153 4.35966C50.1048 4.22273 50.0136 4.10503 49.8931 4.02407L49.6168 3.84882C49.5095 3.78234 49.3857 3.74731 49.2595 3.74771L49.2865 3.76119Z" fill="#C2CAD2"/>
<path d="M52.6298 52.7174H49.5224V51.3693H51.2817V50.4324H52.6298V52.7174ZM46.4218 52.7174H42.3775V51.3693H46.4218V52.7174ZM39.2768 52.7174H35.2325V51.3693H39.2768V52.7174ZM32.1319 52.7174H28.0876V51.3693H32.1319V52.7174ZM24.987 52.7174H20.9427V51.3693H24.987V52.7174ZM17.8421 52.7174H13.7978V51.3693H17.8421V52.7174ZM10.6972 52.7174H6.65286V51.3693H10.6972V52.7174ZM3.55224 52.7174H0V50.8705H1.3481V51.3693H3.55224V52.7174ZM1.3481 47.7699H0V43.7256H1.3481V47.7699ZM52.6298 47.325H51.2817V43.2807H52.6298V47.325ZM1.3481 40.5845H0V36.5402H1.3481V40.5845ZM52.6298 40.1464H51.2817V36.1021H52.6298V40.1464ZM1.3481 33.48H0V29.4357H1.3481V33.48ZM52.6298 33.0419H51.2817V28.9976H52.6298V33.0419ZM1.3481 26.3014H0V22.2571H1.3481V26.3014ZM52.6298 25.8633H51.2817V21.819H52.6298V25.8633ZM1.3481 19.1228H0V15.0785H1.3481V19.1228ZM1.3481 11.9779H0V9.57824H2.92537V10.9263H1.3481V11.9779ZM31.5051 10.9263H27.4608V9.57824H31.5051V10.9263ZM24.3601 10.9263H20.3158V9.57824H24.3601V10.9263ZM17.2152 10.9263H13.1709V9.57824H17.2152V10.9263ZM10.0703 10.9263H6.026V9.57824H10.0703V10.9263Z" fill="#C2CAD2"/>
<path d="M12.1733 47.4328H5.8103V37.0727H12.1733V47.4328ZM7.1584 46.0847H10.8252V38.4208H7.1584V46.0847Z" fill="#C2CAD2"/>
<path d="M22.857 47.4328H16.494V31.0063H22.857V47.4328ZM17.8421 46.0847H21.5089V32.3544H17.8421V46.0847Z" fill="#C2CAD2"/>
<path d="M33.5407 47.4328H27.1777V27.636H33.5407V47.4328ZM28.5258 46.0847H32.1926V28.9841H28.5258V46.0847Z" fill="#C2CAD2"/>
<path d="M44.2244 47.4328H37.8816V22.2436H44.2513L44.2244 47.4328ZM39.2027 46.0847H42.8763V23.5917H39.2297L39.2027 46.0847Z" fill="#C2CAD2"/>
<path d="M48.6394 7.18536L44.9254 12.4497L42.9302 10.0231L41.8854 10.8792L45.013 14.6741L49.7381 7.96052L50.311 7.18536H48.6394Z" fill="#C2CAD2"/>
</svg>
