<svg width="47" height="56" viewBox="0 0 47 56" fill="none" xmlns="http://www.w3.org/2000/svg">
<path d="M37.7596 32.9595V23.8828C37.7607 22.7626 37.4112 21.6701 36.76 20.7586C36.1089 19.847 35.1889 19.1621 34.1289 18.7998V14.9004C34.1231 10.9503 32.5514 7.16372 29.7583 4.37059C26.9652 1.57747 23.1785 0.00576232 19.2285 0H18.5023C14.5573 0.013434 10.7781 1.58853 7.99126 4.38082C5.20441 7.17312 3.63669 10.9554 3.63095 14.9004V18.7853C2.57094 19.1476 1.65089 19.8325 0.999784 20.744C0.348676 21.6556 -0.000837746 22.748 0.000245373 23.8683V48.0052C-0.0064617 48.7032 0.124392 49.3957 0.385335 50.0432C0.646278 50.6906 1.0322 51.2804 1.52106 51.7787C2.00992 52.277 2.59215 52.6741 3.2345 52.9474C3.87685 53.2206 4.56674 53.3647 5.26477 53.3714H32.4951C32.6475 53.3714 32.8 53.3714 32.9525 53.3714C34.0611 54.4465 35.3583 55.3081 36.7793 55.9129L37.0334 56L37.2876 55.9129C37.6724 55.7676 46.7274 52.2822 46.7274 38.2458V37.6722L46.1683 37.5415C43.0647 36.6459 40.1947 35.082 37.7596 32.9595ZM5.08323 14.9004C5.08708 11.3349 6.50516 7.91658 9.02635 5.39539C11.5475 2.87421 14.9659 1.45613 18.5314 1.45228H19.2575C22.818 1.4638 26.2289 2.88528 28.7438 5.40563C31.2587 7.92598 32.6728 11.3399 32.6766 14.9004V18.5311H29.0459V14.5228C28.9925 11.9728 27.931 9.54781 26.0937 7.77862C24.2565 6.00944 21.7932 5.04017 19.243 5.08299H18.5168C15.9666 5.04017 13.5033 6.00944 11.6661 7.77862C9.82885 9.54781 8.76736 11.9728 8.71394 14.5228V18.5166H5.08323V14.9004ZM27.5936 18.5311H10.1662V14.5228C10.2214 12.3586 11.1305 10.3041 12.695 8.80762C14.2594 7.31117 16.3523 6.4943 18.5168 6.53527H19.243C21.4075 6.4943 23.5004 7.31117 25.0649 8.80762C26.6293 10.3041 27.5384 12.3586 27.5936 14.5228V18.5311ZM1.45253 48.0052V23.8828C1.44089 22.8588 1.83556 21.8719 2.5501 21.1383C3.26464 20.4047 4.24081 19.9842 5.26477 19.9689H32.4951C33.519 19.9842 34.4952 20.4047 35.2097 21.1383C35.9243 21.8719 36.3189 22.8588 36.3073 23.8828V32.9595C33.8675 35.0703 30.9985 36.6262 27.8986 37.5197L27.3395 37.6504V38.2241C27.3395 44.9481 29.4235 49.2469 31.631 51.9191H20.6662V44.89C21.3507 44.7133 21.9473 44.293 22.344 43.7079C22.7408 43.1228 22.9106 42.413 22.8215 41.7117C22.7324 41.0104 22.3906 40.3656 21.8602 39.8983C21.3297 39.431 20.647 39.1731 19.9401 39.1731C19.2331 39.1731 18.5504 39.431 18.02 39.8983C17.4895 40.3656 17.1477 41.0104 17.0587 41.7117C16.9696 42.413 17.1393 43.1228 17.5361 43.7079C17.9329 44.293 18.5294 44.7133 19.2139 44.89V51.9191H14.4795V39.8071C15.164 39.6303 15.7605 39.21 16.1573 38.6249C16.5541 38.0398 16.7239 37.3301 16.6348 36.6287C16.5457 35.9274 16.2039 35.2827 15.6734 34.8153C15.143 34.348 14.4603 34.0902 13.7534 34.0902C13.0464 34.0902 12.3637 34.348 11.8333 34.8153C11.3028 35.2827 10.961 35.9274 10.8719 36.6287C10.7829 37.3301 10.9526 38.0398 11.3494 38.6249C11.7462 39.21 12.3427 39.6303 13.0272 39.8071V51.9191H9.95564V43.8444L6.53551 40.4025V35.8496C7.22002 35.6728 7.81656 35.2525 8.21334 34.6674C8.61011 34.0823 8.77987 33.3726 8.69079 32.6713C8.60171 31.9699 8.25991 31.3252 7.72946 30.8579C7.19901 30.3905 6.51633 30.1327 5.80937 30.1327C5.10242 30.1327 4.41974 30.3905 3.88929 30.8579C3.35884 31.3252 3.01704 31.9699 2.92796 32.6713C2.83888 33.3726 3.00864 34.0823 3.40541 34.6674C3.80218 35.2525 4.39873 35.6728 5.08323 35.8496V41.027L8.52514 44.4689V51.9191H5.26477C4.24081 51.9038 3.26464 51.4833 2.5501 50.7497C1.83556 50.0161 1.44089 49.0292 1.45253 48.0052ZM19.9401 43.5685C19.6528 43.5685 19.3721 43.4833 19.1332 43.3237C18.8944 43.1641 18.7083 42.9373 18.5983 42.6719C18.4884 42.4066 18.4597 42.1146 18.5157 41.8329C18.5717 41.5511 18.7101 41.2924 18.9132 41.0893C19.1163 40.8862 19.375 40.7478 19.6568 40.6918C19.9385 40.6358 20.2305 40.6645 20.4958 40.7744C20.7612 40.8844 20.988 41.0705 21.1476 41.3093C21.3072 41.5482 21.3924 41.8289 21.3924 42.1162C21.3924 42.5014 21.2394 42.8707 20.967 43.1431C20.6946 43.4155 20.3252 43.5685 19.9401 43.5685ZM13.7534 38.4855C13.4661 38.4855 13.1853 38.4003 12.9465 38.2407C12.7077 38.0811 12.5215 37.8543 12.4116 37.589C12.3017 37.3236 12.2729 37.0316 12.329 36.7499C12.385 36.4682 12.5233 36.2094 12.7264 36.0063C12.9295 35.8032 13.1883 35.6649 13.47 35.6088C13.7517 35.5528 14.0438 35.5815 14.3091 35.6915C14.5745 35.8014 14.8013 35.9875 14.9609 36.2263C15.1205 36.4652 15.2056 36.746 15.2056 37.0332C15.2056 37.4184 15.0526 37.7878 14.7803 38.0601C14.5079 38.3325 14.1385 38.4855 13.7534 38.4855ZM5.80937 34.4917C5.52214 34.4917 5.24136 34.4065 5.00253 34.2469C4.7637 34.0874 4.57756 33.8605 4.46764 33.5952C4.35772 33.3298 4.32896 33.0378 4.385 32.7561C4.44103 32.4744 4.57935 32.2156 4.78246 32.0125C4.98556 31.8094 5.24433 31.6711 5.52605 31.615C5.80776 31.559 6.09977 31.5878 6.36514 31.6977C6.63051 31.8076 6.85733 31.9937 7.0169 32.2326C7.17648 32.4714 7.26166 32.7522 7.26166 33.0394C7.26166 33.4246 7.10865 33.794 6.83629 34.0663C6.56394 34.3387 6.19454 34.4917 5.80937 34.4917ZM37.0334 54.4606C35.5812 53.8216 29.0459 50.2272 28.799 38.8122C31.8185 37.8555 34.6176 36.3078 37.0334 34.2593C39.4524 36.2949 42.2513 37.8301 45.2679 38.7759C45.0573 50.1981 38.4422 53.7853 37.0334 54.4606Z" fill="white"/>
<path d="M34.3467 43.2707L33.2212 44.1929L36.5905 48.2811L41.6807 41.0488L42.298 40.2137H40.4971L36.4961 45.8921L34.3467 43.2707Z" fill="white"/>
</svg>
