<svg width="56" height="45" viewBox="0 0 56 45" fill="none" xmlns="http://www.w3.org/2000/svg">
<path d="M27.3093 19.1096C27.4109 19.0323 27.4924 18.9316 27.5468 18.816C27.6012 18.7005 27.6269 18.5735 27.6218 18.4459V17.8195C28.6534 17.6812 29.4402 17.3175 29.9615 16.7409C30.5423 16.1006 30.8631 15.394 30.9143 14.6501C30.9511 14.2341 30.9282 13.815 30.8465 13.4055C30.7663 12.9447 30.5926 12.5052 30.3363 12.114C30.0406 11.6882 29.6585 11.3296 29.2148 11.0616C28.7247 10.7628 28.1853 10.5535 27.6218 10.4435V5.53728C27.768 5.591 27.9073 5.66203 28.0366 5.74885C28.2924 5.92106 28.522 6.12924 28.7184 6.36697C28.8927 6.57688 29.0263 6.81745 29.1125 7.07636C29.1989 7.34072 29.2555 7.61391 29.2812 7.89084C29.3462 8.43567 29.732 8.59884 30.0597 8.55597C30.2298 8.53662 30.6405 8.42461 30.7746 7.73735C30.7483 6.6546 30.3971 5.77236 29.732 5.10999C29.1527 4.54332 28.4157 4.16494 27.6176 4.02448V3.26254C27.6187 3.13784 27.5922 3.01444 27.5401 2.90114C27.488 2.78785 27.4116 2.68744 27.3162 2.60709C27.155 2.46943 26.9486 2.39624 26.7368 2.4016C26.5249 2.40696 26.3224 2.4905 26.1684 2.63613C26.0849 2.71714 26.0191 2.81468 25.9752 2.92254C25.9314 3.03039 25.9106 3.14618 25.914 3.26254V3.93045C25.4183 3.97589 24.9306 4.08607 24.4634 4.25817C23.9266 4.45399 23.4361 4.75858 23.0225 5.15286C22.6337 5.5224 22.329 5.97141 22.1292 6.4693C21.9283 6.98443 21.8511 7.53955 21.9038 8.08996C21.9957 9.06944 22.4624 9.97556 23.2065 10.6191C23.9158 11.211 24.852 11.5747 25.9209 11.6894V16.391C25.0691 16.3081 24.3998 16.0868 23.9297 15.73C23.4288 15.3779 23.0691 14.8595 22.9147 14.267C22.8925 14.0821 22.8009 13.9126 22.6584 13.7927C22.5159 13.6728 22.3332 13.6115 22.1472 13.6212C22.0374 13.606 21.9255 13.6183 21.8217 13.6572C21.7179 13.6961 21.6254 13.7602 21.5526 13.8439C21.4869 13.9242 21.4417 14.0193 21.421 14.1209C21.4003 14.2226 21.4046 14.3278 21.4337 14.4274C21.5174 14.9462 21.7107 15.4411 22.0006 15.8794C22.2906 16.3176 22.6705 16.6891 23.1152 16.969C23.9645 17.4835 24.9257 17.7848 25.9168 17.8471V18.4528C25.91 18.5759 25.9314 18.6989 25.9793 18.8125C26.0272 18.9261 26.1004 19.0272 26.1933 19.1083C26.3489 19.2373 26.5443 19.3086 26.7465 19.3102C26.9511 19.3073 27.149 19.2368 27.3093 19.1096ZM29.0406 15.6097C28.853 15.821 28.6274 15.995 28.3754 16.1228C28.1391 16.2429 27.8844 16.3228 27.6218 16.3592V11.9619C28.2081 12.1319 28.6382 12.3767 28.9272 12.7072C29.2909 13.122 29.4568 13.7485 29.4374 14.5989V14.61C29.4279 14.763 29.3948 14.9137 29.3393 15.0566C29.2725 15.2578 29.1699 15.4452 29.0364 15.6097H29.0406ZM24.0237 9.28887C23.8463 9.12632 23.7079 8.92592 23.6185 8.70255C23.5406 8.47879 23.4886 8.24679 23.4637 8.01114C23.4429 7.67779 23.4927 7.34381 23.6097 7.03097C23.7266 6.71813 23.9082 6.43346 24.1426 6.1955C24.5575 5.76268 25.1535 5.49441 25.9182 5.39485V10.2057C25.5679 10.1466 25.2274 10.0401 24.9059 9.88901C24.5815 9.73556 24.2825 9.53315 24.0195 9.28887H24.0237Z" fill="white"/>
<path d="M55.1385 40.0013H49.5533V20.5644H55.1385C55.367 20.5644 55.5861 20.4736 55.7477 20.312C55.9092 20.1505 56 19.9314 56 19.7029C56 19.4744 55.9092 19.2553 55.7477 19.0937C55.5861 18.9321 55.367 18.8414 55.1385 18.8414H48.6918C48.5787 18.8414 48.4668 18.8637 48.3623 18.907C48.2579 18.9503 48.163 19.0138 48.0831 19.0938C48.0032 19.1738 47.9399 19.2688 47.8968 19.3733C47.8536 19.4778 47.8315 19.5898 47.8317 19.7029V24.7612C45.839 23.7131 41.9312 21.9334 38.7659 22.0855C37.3679 22.1588 35.0019 22.8737 32.4381 23.8057L28.858 21.589C28.8027 21.5559 28.7405 21.5406 28.6852 21.5088C31.2609 21.0383 33.5793 19.6515 35.2123 17.6047C36.8452 15.558 37.6824 12.9894 37.569 10.3735C37.4557 7.75758 36.3997 5.27104 34.5958 3.37312C32.792 1.47519 30.3624 0.294114 27.7556 0.0480177C25.1488 -0.198078 22.5411 0.507436 20.4139 2.03425C18.2868 3.56107 16.784 5.80604 16.1832 8.35453C15.5823 10.903 15.924 13.5829 17.145 15.8991C18.3661 18.2153 20.384 20.0114 22.8262 20.9557C22.7736 20.9723 22.7197 20.9751 22.6685 20.993L19.7881 22.1906L19.0359 21.7757C17.9754 21.2143 16.7995 20.9058 15.6001 20.8744C14.4006 20.843 13.2101 21.0894 12.1218 21.5946L9.07957 23.0161L8.64122 22.8059C7.193 22.2289 5.60031 22.1204 4.0872 22.4957C2.5741 22.871 1.21672 23.7112 0.206025 24.8981C0.130637 24.9864 0.0739017 25.089 0.0392374 25.1998C0.00457315 25.3106 -0.0073028 25.4273 0.00432565 25.5428C0.0159541 25.6583 0.0508462 25.7703 0.106899 25.872C0.162952 25.9736 0.239006 26.0629 0.330479 26.1344L20.5459 41.9054C21.9357 43.0696 23.596 43.8655 25.374 44.22C27.152 44.5745 28.9907 44.4762 30.7207 43.934L47.8317 39.4067V40.8642C47.8315 40.9772 47.8536 41.0891 47.8968 41.1935C47.94 41.298 48.0033 41.3928 48.0832 41.4728C48.1631 41.5527 48.258 41.616 48.3624 41.6592C48.4669 41.7023 48.5788 41.7244 48.6918 41.7243H55.1385C55.3608 41.7154 55.5711 41.6208 55.7252 41.4603C55.8794 41.2999 55.9655 41.086 55.9655 40.8635C55.9655 40.641 55.8794 40.4271 55.7252 40.2666C55.5711 40.1062 55.3608 40.0116 55.1385 40.0027V40.0013ZM17.6295 10.857C17.6293 9.05404 18.1637 7.29151 19.1651 5.79229C20.1666 4.29306 21.5901 3.12448 23.2558 2.43434C24.9214 1.74419 26.7543 1.56348 28.5226 1.91505C30.2909 2.26661 31.9153 3.13468 33.1903 4.40945C34.4652 5.68423 35.3335 7.30846 35.6854 9.07674C36.0372 10.845 35.8568 12.6779 35.1669 14.3436C34.477 16.0094 33.3086 17.4331 31.8096 18.4348C30.3105 19.4365 28.548 19.9711 26.7451 19.9711C24.3286 19.9682 22.012 19.0071 20.3031 17.2985C18.5943 15.59 17.6328 13.2734 17.6295 10.857ZM23.2991 22.593C24.0608 22.3175 24.8745 22.2159 25.6806 22.2956C26.4867 22.3752 27.2648 22.6342 27.9578 23.0534L30.4054 24.5745C29.1719 25.0544 27.9426 25.555 26.788 26.0403L21.7172 23.247L23.2991 22.593ZM12.863 23.1461C13.7067 22.7541 14.6297 22.5626 15.5598 22.5866C16.4898 22.6106 17.4017 22.8494 18.2242 23.2844L24.7884 26.9004C23.0696 27.6486 21.7199 28.2625 21.1046 28.546L11.1303 23.9537L12.863 23.1461ZM30.2422 42.2746C28.7777 42.7355 27.2207 42.82 25.7148 42.5206C24.2089 42.2212 22.8027 41.5474 21.6259 40.5613L2.15857 25.3752C2.9456 24.6985 3.90213 24.2491 4.92539 24.0751C5.94865 23.9011 6.99997 24.0093 7.9664 24.3879L8.7961 24.7681L19.4963 29.7007C18.9306 30.2199 18.4208 30.7969 17.9752 31.4223C17.631 31.9163 17.435 32.4985 17.4105 33.1002C17.386 33.7019 17.534 34.298 17.837 34.8185C18.1453 35.3698 18.6043 35.8219 19.1602 36.1219C19.7161 36.4219 20.3459 36.5573 20.976 36.5124L37.1107 35.3674C37.2265 35.3636 37.3403 35.3365 37.4454 35.2876C37.5505 35.2388 37.6446 35.1693 37.7222 35.0832C37.7998 34.9971 37.8592 34.8963 37.8969 34.7867C37.9346 34.6772 37.9498 34.5611 37.9416 34.4455C37.9334 34.33 37.902 34.2172 37.8492 34.1141C37.7964 34.0109 37.7234 33.9195 37.6345 33.8452C37.5455 33.7709 37.4425 33.7154 37.3316 33.6818C37.2207 33.6483 37.1042 33.6374 36.989 33.65L20.8543 34.795C20.5482 34.8148 20.2428 34.7473 19.9735 34.6005C19.7043 34.4536 19.4822 34.2333 19.3332 33.9653C19.1904 33.7279 19.1195 33.4542 19.1291 33.1774C19.1386 32.9005 19.2283 32.6324 19.3871 32.4055C19.9875 31.5798 20.7108 30.8509 21.5319 30.2441C22.3118 29.8832 35.0309 24.0145 38.8572 23.814C42.1013 23.6536 46.4931 25.9657 47.8317 26.7179V37.627L30.2422 42.2746Z" fill="white"/>
</svg>
