<svg width="58" height="53" viewBox="0 0 58 53" fill="none" xmlns="http://www.w3.org/2000/svg">
<path d="M22.0489 20.8737C20.0457 19.0097 18.7942 16.3522 18.7942 13.4008C18.7942 11.6475 19.2368 9.99724 20.0152 8.55493C20.639 7.3988 21.4804 6.37812 22.4839 5.54441M35.3597 21.385C33.616 22.7758 31.4048 23.6076 29.001 23.6076M29.001 3.19398C32.1717 3.19398 35.0048 4.64011 36.8764 6.90849C38.3321 8.67322 39.2077 10.934 39.2077 13.4008M27.5033 8.55493V18.2466M27.5033 8.55493H25.5593M27.5033 8.55493H29.9873V6.58035M27.5033 8.55493V6.58035M27.5033 18.2466H25.5593M27.5033 18.2466H29.9873V20.2212M27.5033 18.2466V20.2212M30.0178 8.55493C31.3552 8.55493 32.4407 9.64048 32.4407 10.9779C32.4407 12.3152 31.3552 13.4008 30.0178 13.4008M30.0178 13.4008H27.5033M30.0178 13.4008C31.3552 13.4008 32.4407 14.4863 32.4407 15.8237C32.4407 17.1611 31.3552 18.2466 30.0178 18.2466M23.6076 39.7954C23.6076 42.6017 22.4743 45.1429 20.6409 46.9897M13.4008 29.5886C16.4056 29.5886 19.107 30.8878 20.9748 32.9539M13.4008 50.0021C9.87705 50.0021 6.77113 48.2164 4.93772 45.5016C3.83692 43.8723 3.19398 41.9092 3.19398 39.7954C3.19398 37.8189 3.75488 35.974 4.72786 34.4115M13.4008 41.4399L9.30089 38.9903L13.4008 32.3244L17.5007 38.9903L13.4008 41.4399ZM13.4008 41.4399V44.9083M9.30089 40.6005L13.4008 47.2683L17.5007 40.6005M52.5224 32.8013C53.9513 34.5565 54.806 36.7982 54.806 39.2383C54.806 42.1629 53.5755 44.7995 51.6066 46.6597M38.7518 30.8706C40.4078 29.7107 42.4243 29.0315 44.5992 29.0315C45.6046 29.0315 46.5738 29.1765 47.4915 29.4474M44.5992 49.4432C41.7814 49.4432 39.2287 48.3004 37.382 46.4536C35.5352 44.6069 34.3924 42.0542 34.3924 39.2364M41.1881 40.8008L40.0758 45.3242H49.4889L50.4467 42.3423H43.8247L44.7557 38.3149L47.1729 37.5346L48.3557 34.6977L45.37 35.6611L46.1598 31.5746H43.2561L42.0637 36.7295L39.9346 37.4182L38.7537 40.2532L42.596 38.9674M41.4017 13.4008C41.4017 20.2495 35.8497 25.8016 29.001 25.8016C22.1522 25.8016 16.6002 20.2495 16.6002 13.4008C16.6002 6.55202 22.1522 1 29.001 1C35.8497 1 41.4017 6.55202 41.4017 13.4008ZM25.8016 39.7954C25.8016 46.6441 20.2495 52.1961 13.4008 52.1961C6.55202 52.1961 1 46.6441 1 39.7954C1 32.9466 6.55202 27.3946 13.4008 27.3946C20.2495 27.3946 25.8016 32.9466 25.8016 39.7954ZM57 39.2364C57 46.0851 51.448 51.6371 44.5992 51.6371C37.7505 51.6371 32.1984 46.0851 32.1984 39.2364C32.1984 32.3876 37.7505 26.8356 44.5992 26.8356C51.448 26.8356 57 32.3876 57 39.2364Z" stroke="white" stroke-width="1.4" stroke-miterlimit="10" stroke-linecap="round" stroke-linejoin="round"/>
</svg>
