<svg width="56" height="43" viewBox="0 0 56 43" fill="none" xmlns="http://www.w3.org/2000/svg">
<path d="M20.2954 16.9271C19.3087 16.9271 18.3442 17.2197 17.5239 17.7678C16.7035 18.316 16.0641 19.0951 15.6866 20.0066C15.309 20.9182 15.2102 21.9212 15.4027 22.8889C15.5952 23.8566 16.0703 24.7454 16.7679 25.4431C17.4656 26.1407 18.3545 26.6159 19.3221 26.8083C20.2898 27.0008 21.2929 26.902 22.2044 26.5245C23.1159 26.1469 23.895 25.5075 24.4432 24.6871C24.9913 23.8668 25.2839 22.9023 25.2839 21.9157C25.2839 20.5926 24.7583 19.3238 23.8228 18.3882C22.8873 17.4527 21.6184 16.9271 20.2954 16.9271ZM20.2954 25.5739C19.5718 25.5739 18.8645 25.3594 18.2629 24.9574C17.6613 24.5554 17.1925 23.9841 16.9156 23.3156C16.6387 22.6472 16.5662 21.9116 16.7074 21.202C16.8485 20.4923 17.197 19.8405 17.7086 19.3289C18.2202 18.8173 18.872 18.4688 19.5817 18.3277C20.2913 18.1865 21.0269 18.259 21.6953 18.5359C22.3638 18.8127 22.9351 19.2816 23.3371 19.8832C23.7391 20.4848 23.9536 21.1921 23.9536 21.9157C23.9519 22.8853 23.5659 23.8148 22.8802 24.5005C22.1945 25.1862 21.2651 25.5722 20.2954 25.5739Z" fill="#C2CAD2"/>
<path d="M51.1046 6.41128V7.74155H53.7053L44.3268 18.8228L37.8351 16.8673L30.605 21.2505H27.9445C27.7835 19.4557 26.9951 17.7749 25.7179 16.5037C24.4406 15.2325 22.7561 14.4522 20.9605 14.2998V7.61518H16.2447L12.7527 4.11655C13.0963 3.55315 13.2222 2.88366 13.1069 2.23393C12.9915 1.58419 12.6428 0.998965 12.1263 0.588251C11.6098 0.177537 10.9611 -0.0303773 10.3021 0.00359145C9.64305 0.0375602 9.01914 0.311072 8.5476 0.772714C8.07607 1.23436 7.78939 1.85233 7.74146 2.51048C7.69353 3.16863 7.88764 3.82163 8.28731 4.34672C8.68699 4.87181 9.26469 5.23283 9.91183 5.36192C10.559 5.49102 11.231 5.37929 11.8015 5.04774L15.6993 8.94546H19.6302V14.2666C17.8097 14.4217 16.1065 15.2296 14.8346 16.5413L11.6951 12.2711H6.5669C6.40501 11.6441 6.02001 11.0977 5.48405 10.7343C4.9481 10.3708 4.29799 10.2153 3.65559 10.2969C3.01319 10.3785 2.4226 10.6916 1.99453 11.1775C1.56645 11.6634 1.33028 12.2887 1.33028 12.9363C1.33028 13.5838 1.56645 14.2092 1.99453 14.6951C2.4226 15.181 3.01319 15.494 3.65559 15.5756C4.29799 15.6572 4.9481 15.5017 5.48405 15.1383C6.02001 14.7749 6.40501 14.2284 6.5669 13.6014H11.0167L13.9765 17.6322C13.1724 18.7988 12.7115 20.1676 12.6463 21.5831H8.56232C8.40043 20.9561 8.01542 20.4097 7.47947 20.0462C6.94351 19.6828 6.29341 19.5273 5.65101 19.6089C5.00861 19.6905 4.41802 20.0036 3.98994 20.4894C3.56186 20.9753 3.32569 21.6007 3.32569 22.2482C3.32569 22.8958 3.56186 23.5211 3.98994 24.007C4.41802 24.4929 5.00861 24.806 5.65101 24.8876C6.29341 24.9692 6.94351 24.8137 7.47947 24.4502C8.01542 24.0868 8.40043 23.5404 8.56232 22.9134H12.7194C12.8702 24.1056 13.301 25.2452 13.9765 26.2391H11.316L7.32516 31.5602H5.23662C5.07473 30.9332 4.68973 30.3867 4.15377 30.0233C3.61782 29.6599 2.96771 29.5044 2.32531 29.586C1.68291 29.6676 1.09232 29.9806 0.664248 30.4665C0.236172 30.9524 0 31.5777 0 32.2253C0 32.8729 0.236172 33.4982 0.664248 33.9841C1.09232 34.47 1.68291 34.7831 2.32531 34.8647C2.96771 34.9462 3.61782 34.7908 4.15377 34.4273C4.68973 34.0639 5.07473 33.5174 5.23662 32.8904H7.9903L11.9811 27.5693H15.1804C16.4085 28.7107 17.9805 29.4125 19.6502 29.5647V33.7352L15.533 37.8524C14.977 37.484 14.3056 37.3316 13.6451 37.4239C12.9846 37.5161 12.3806 37.8466 11.9468 38.3531C11.513 38.8596 11.2793 39.5073 11.2897 40.1741C11.3002 40.8409 11.554 41.4809 12.0034 41.9736C12.4529 42.4663 13.0669 42.7778 13.73 42.8493C14.393 42.9208 15.0593 42.7475 15.6035 42.3619C16.1477 41.9764 16.5321 41.4052 16.6845 40.756C16.8369 40.1067 16.7467 39.4242 16.4309 38.8368L20.9805 34.2872V29.5647C22.7777 29.4068 24.4616 28.6197 25.7355 27.3422C27.0094 26.0646 27.7916 24.3785 27.9445 22.5808H31.0041L38.0546 18.3173L44.8124 20.3526L54.6697 8.67275V11.5661H56V6.41128H51.1046ZM9.14764 2.77962C9.14764 2.51652 9.22566 2.25932 9.37183 2.04056C9.518 1.8218 9.72576 1.65129 9.96884 1.5506C10.2119 1.44992 10.4794 1.42358 10.7374 1.4749C10.9955 1.52623 11.2325 1.65293 11.4186 1.83897C11.6046 2.02502 11.7313 2.26205 11.7826 2.5201C11.834 2.77815 11.8076 3.04562 11.7069 3.2887C11.6062 3.53177 11.4357 3.73953 11.217 3.88571C10.9982 4.03188 10.741 4.1099 10.4779 4.1099C10.1251 4.1099 9.78674 3.96974 9.53727 3.72027C9.28779 3.47079 9.14764 3.13243 9.14764 2.77962ZM3.99947 14.2666C3.73636 14.2666 3.47917 14.1885 3.2604 14.0424C3.04164 13.8962 2.87114 13.6884 2.77045 13.4454C2.66977 13.2023 2.64342 12.9348 2.69475 12.6768C2.74608 12.4187 2.87278 12.1817 3.05882 11.9956C3.24486 11.8096 3.48189 11.6829 3.73994 11.6316C3.99799 11.5802 4.26547 11.6066 4.50854 11.7073C4.75162 11.808 4.95938 11.9785 5.10555 12.1972C5.25172 12.416 5.32974 12.6732 5.32974 12.9363C5.32974 13.2891 5.18959 13.6275 4.94011 13.8769C4.69064 14.1264 4.35228 14.2666 3.99947 14.2666ZM5.99488 23.5785C5.73178 23.5785 5.47458 23.5005 5.25582 23.3543C5.03706 23.2081 4.86655 23.0004 4.76587 22.7573C4.66518 22.5142 4.63884 22.2467 4.69017 21.9887C4.7415 21.7307 4.86819 21.4936 5.05423 21.3076C5.24028 21.1215 5.47731 20.9948 5.73536 20.9435C5.99341 20.8922 6.26088 20.9185 6.50396 21.0192C6.74703 21.1199 6.95479 21.2904 7.10097 21.5092C7.24714 21.7279 7.32516 21.9851 7.32516 22.2482C7.32516 22.601 7.18501 22.9394 6.93553 23.1889C6.68606 23.4383 6.34769 23.5785 5.99488 23.5785ZM2.66919 33.5556C2.40609 33.5556 2.14889 33.4776 1.93013 33.3314C1.71136 33.1852 1.54086 32.9775 1.44017 32.7344C1.33949 32.4913 1.31314 32.2238 1.36447 31.9658C1.4158 31.7077 1.5425 31.4707 1.72854 31.2847C1.91458 31.0986 2.15162 30.9719 2.40967 30.9206C2.66771 30.8693 2.93519 30.8956 3.17826 30.9963C3.42134 31.097 3.6291 31.2675 3.77527 31.4862C3.92145 31.705 3.99947 31.9622 3.99947 32.2253C3.99947 32.5781 3.85931 32.9165 3.60984 33.166C3.36036 33.4154 3.022 33.5556 2.66919 33.5556ZM14.0763 41.3843C13.8132 41.3843 13.556 41.3062 13.3373 41.1601C13.1185 41.0139 12.948 40.8061 12.8473 40.5631C12.7466 40.32 12.7203 40.0525 12.7716 39.7945C12.8229 39.5364 12.9496 39.2994 13.1357 39.1133C13.3217 38.9273 13.5587 38.8006 13.8168 38.7493C14.0748 38.6979 14.3423 38.7243 14.5854 38.825C14.8285 38.9257 15.0362 39.0962 15.1824 39.3149C15.3286 39.5337 15.4066 39.7909 15.4066 40.054C15.4066 40.4068 15.2664 40.7452 15.017 40.9946C14.7675 41.2441 14.4291 41.3843 14.0763 41.3843ZM20.2954 28.2345C19.0456 28.2345 17.8239 27.8639 16.7848 27.1696C15.7457 26.4752 14.9358 25.4884 14.4575 24.3338C13.9793 23.1791 13.8541 21.9086 14.098 20.6829C14.3418 19.4572 14.9436 18.3313 15.8273 17.4476C16.711 16.5639 17.8369 15.9621 19.0626 15.7183C20.2884 15.4744 21.5589 15.5996 22.7135 16.0778C23.8681 16.5561 24.8549 17.366 25.5493 18.4051C26.2436 19.4442 26.6142 20.6659 26.6142 21.9157C26.6124 23.591 25.9461 25.1972 24.7615 26.3818C23.5769 27.5664 21.9707 28.2327 20.2954 28.2345Z" fill="#C2CAD2"/>
<path d="M53.2197 24.2436H49.2289V41.5372H46.5683V30.895H42.5775V41.5372H39.917V28.2345H35.9261V41.5372H33.2656V33.5556H29.2747V41.5372H25.949V42.8675H55.8803V41.5372H53.2197V24.2436ZM30.605 41.5372V34.8859H31.9353V41.5372H30.605ZM37.2564 41.5372V29.5648H38.5867V41.5372H37.2564ZM43.9078 41.5372V32.2253H45.2381V41.5372H43.9078ZM50.5592 41.5372V25.5739H51.8894V41.5372H50.5592Z" fill="#C2CAD2"/>
<path d="M39.917 0.963793H32.6004V2.29407H39.917V0.963793Z" fill="#C2CAD2"/>
<path d="M39.917 3.62435H32.6004V4.95462H39.917V3.62435Z" fill="#C2CAD2"/>
<path d="M39.917 6.2849H32.6004V7.61518H39.917V6.2849Z" fill="#C2CAD2"/>
<path d="M30.605 2.29407C30.9724 2.29407 31.2701 1.99628 31.2701 1.62893C31.2701 1.26159 30.9724 0.963793 30.605 0.963793C30.2377 0.963793 29.9399 1.26159 29.9399 1.62893C29.9399 1.99628 30.2377 2.29407 30.605 2.29407Z" fill="#C2CAD2"/>
<path d="M30.605 4.95462C30.9724 4.95462 31.2701 4.65683 31.2701 4.28949C31.2701 3.92214 30.9724 3.62435 30.605 3.62435C30.2377 3.62435 29.9399 3.92214 29.9399 4.28949C29.9399 4.65683 30.2377 4.95462 30.605 4.95462Z" fill="#C2CAD2"/>
<path d="M30.605 7.61518C30.9724 7.61518 31.2701 7.31739 31.2701 6.95004C31.2701 6.58269 30.9724 6.2849 30.605 6.2849C30.2377 6.2849 29.9399 6.58269 29.9399 6.95004C29.9399 7.31739 30.2377 7.61518 30.605 7.61518Z" fill="#C2CAD2"/>
</svg>
