<svg width="42" height="56" viewBox="0 0 42 56" fill="none" xmlns="http://www.w3.org/2000/svg">
<path d="M41.1566 24.2892C41.1113 23.023 40.5771 21.8237 39.6662 20.9431C38.7554 20.0624 37.5388 19.5689 36.2718 19.5663H35.5971C35.3554 18.1917 34.8237 16.8845 34.0372 15.7316C33.2508 14.5787 32.2277 13.6066 31.0361 12.88V12.8193V10.1205C31.0361 9.94154 30.9651 9.76993 30.8385 9.6434C30.712 9.51687 30.5404 9.44578 30.3614 9.44578C30.1825 9.44578 30.0109 9.51687 29.8844 9.6434C29.7578 9.76993 29.6867 9.94154 29.6867 10.1205V12.212C28.5109 11.7221 27.2497 11.4699 25.9759 11.4699C24.7021 11.4699 23.4409 11.7221 22.2651 12.212V8.77108C22.2651 8.59214 22.194 8.42053 22.0674 8.294C21.9409 8.16747 21.7693 8.09639 21.5904 8.09639C21.4114 8.09639 21.2398 8.16747 21.1133 8.294C20.9867 8.42053 20.9157 8.59214 20.9157 8.77108V12.8193C20.9157 12.8193 20.9157 12.8598 20.9157 12.88C19.7228 13.6059 18.6985 14.5777 17.9108 15.7306C17.1232 16.8836 16.5904 18.1912 16.348 19.5663H4.87807C3.61229 19.5707 2.39736 20.0649 1.48797 20.9454C0.578574 21.8259 0.0453235 23.0242 0 24.2892V52.6265C0 53.5212 0.355421 54.3793 0.988074 55.0119C1.62073 55.6446 2.47879 56 3.37349 56H37.7831C38.6778 56 39.5359 55.6446 40.1686 55.0119C40.8012 54.3793 41.1566 53.5212 41.1566 52.6265V24.2892ZM36.2718 20.9157C37.1826 20.913 38.0591 21.2627 38.718 21.8914C39.3769 22.5201 39.7672 23.3793 39.8072 24.2892C39.8105 24.3453 39.8105 24.4017 39.8072 24.4578V24.7952C39.8036 25.0799 39.7651 25.3632 39.6925 25.6386C39.5054 26.4069 39.066 27.0904 38.4447 27.5796C37.8233 28.0689 37.0559 28.3357 36.2651 28.3373H32.7027C33.5294 27.5625 34.2144 26.6492 34.7267 25.6386C34.9501 25.204 35.1396 24.7529 35.2935 24.2892C35.6068 23.3078 35.7639 22.2832 35.759 21.253C35.759 21.1383 35.759 21.0304 35.759 20.9157H36.2718ZM25.9759 12.8193C27.9201 12.8189 29.8048 13.4902 31.3109 14.7197C32.817 15.9492 33.8521 17.6613 34.241 19.5663C34.3349 20.0105 34.3914 20.4619 34.4096 20.9157C34.4096 21.0304 34.4096 21.1383 34.4096 21.253C34.4077 22.2918 34.2133 23.3212 33.8361 24.2892C33.6537 24.759 33.4279 25.2107 33.1614 25.6386C32.5013 26.7246 31.604 27.6472 30.5369 28.3373H27.6222C27.6874 28.2636 27.7357 28.1764 27.7637 28.082C27.7917 27.9876 27.7986 27.8882 27.7841 27.7908C27.7568 27.6324 27.6738 27.489 27.5501 27.3863C27.4264 27.2836 27.2701 27.2285 27.1094 27.2308H26.988L26.6034 27.2848H26.32C26.2313 27.29 26.1446 27.3126 26.0647 27.3514C25.9848 27.3901 25.9133 27.4443 25.8544 27.5107C25.7955 27.5772 25.7502 27.6546 25.7213 27.7386C25.6924 27.8225 25.6803 27.9114 25.6858 28C25.6939 28.1111 25.7311 28.2182 25.7937 28.3104H21.4082C20.341 27.6202 19.4438 26.6976 18.7836 25.6116C18.5172 25.1837 18.2913 24.732 18.1089 24.2622C17.7374 23.3023 17.5453 22.2823 17.5422 21.253C17.5422 21.1383 17.5422 21.0304 17.5422 20.9157C17.5538 20.4625 17.6034 20.0111 17.6906 19.5663C18.0801 17.6579 19.1182 15.9432 20.6285 14.7133C22.1388 13.4834 24.0282 12.8142 25.9759 12.8193ZM4.89157 20.9157H16.1928C16.1928 21.0304 16.1928 21.1383 16.1928 21.253C16.1944 22.2843 16.3584 23.3089 16.6786 24.2892C16.8325 24.7529 17.022 25.204 17.2453 25.6386C17.7577 26.6492 18.4427 27.5625 19.2694 28.3373H4.89157C4.10073 28.3357 3.33329 28.0689 2.71195 27.5796C2.0906 27.0904 1.65124 26.4069 1.4641 25.6386C1.39151 25.3632 1.35299 25.0799 1.3494 24.7952V24.4578C1.3461 24.4017 1.3461 24.3453 1.3494 24.2892C1.38949 23.3781 1.78073 22.518 2.44109 21.889C3.10145 21.2601 3.97965 20.9113 4.89157 20.9157ZM39.8072 38.7952H34.6525C34.4883 38.1592 34.0978 37.6049 33.5541 37.2362C33.0105 36.8676 32.351 36.7098 31.6994 36.7926C31.0477 36.8754 30.4487 37.1929 30.0144 37.6858C29.5802 38.1787 29.3406 38.813 29.3406 39.4699C29.3406 40.1267 29.5802 40.7611 30.0144 41.2539C30.4487 41.7468 31.0477 42.0644 31.6994 42.1472C32.351 42.2299 33.0105 42.0722 33.5541 41.7035C34.0978 41.3349 34.4883 40.7806 34.6525 40.1446H39.8072V43.1807H29.8554C28.9165 43.1789 28.0166 42.8052 27.3527 42.1413C26.6888 41.4774 26.315 40.5774 26.3133 39.6386V39.3012C26.315 38.3623 26.6888 37.4624 27.3527 36.7985C28.0166 36.1346 28.9165 35.7608 29.8554 35.759H39.8072V38.7952ZM33.3976 39.4699C33.3976 39.7368 33.3185 39.9977 33.1702 40.2196C33.0219 40.4415 32.8112 40.6144 32.5646 40.7166C32.318 40.8187 32.0467 40.8454 31.7849 40.7933C31.5232 40.7413 31.2827 40.6128 31.094 40.424C30.9053 40.2353 30.7768 39.9949 30.7247 39.7331C30.6727 39.4714 30.6994 39.2001 30.8015 38.9535C30.9036 38.7069 31.0766 38.4962 31.2985 38.3479C31.5204 38.1996 31.7813 38.1205 32.0482 38.1205C32.4061 38.1205 32.7493 38.2626 33.0024 38.5157C33.2554 38.7688 33.3976 39.112 33.3976 39.4699ZM39.8072 34.4096H29.8554C28.5586 34.4114 27.3155 34.9274 26.3985 35.8443C25.4816 36.7613 24.9656 38.0044 24.9639 39.3012V39.6386C24.9656 40.9353 25.4816 42.1785 26.3985 43.0954C27.3155 44.0124 28.5586 44.5283 29.8554 44.5301H39.8072V52.6265C39.8072 53.1633 39.594 53.6782 39.2144 54.0578C38.8348 54.4374 38.32 54.6506 37.7831 54.6506H12.8193V51.1084L15.3157 48.612C15.6902 48.8095 16.1068 48.9136 16.5301 48.9157C17.0639 48.9157 17.5857 48.7574 18.0295 48.4608C18.4733 48.1643 18.8192 47.7428 19.0235 47.2496C19.2277 46.7565 19.2812 46.2139 19.1771 45.6904C19.0729 45.1668 18.8159 44.686 18.4385 44.3085C18.061 43.9311 17.5801 43.6741 17.0566 43.5699C16.5331 43.4658 15.9905 43.5192 15.4973 43.7235C15.0042 43.9278 14.5827 44.2737 14.2862 44.7175C13.9896 45.1613 13.8313 45.6831 13.8313 46.2169C13.8292 46.7563 13.9916 47.2835 14.2969 47.7282L11.4699 50.5484V54.6506H7.42169V46.1831C8.07252 46.0978 8.66995 45.7782 9.10215 45.2842C9.53435 44.7902 9.77168 44.1556 9.76972 43.4992C9.76776 42.8428 9.52663 42.2096 9.09149 41.7181C8.65634 41.2267 8.05701 40.9107 7.40568 40.8293C6.75435 40.7479 6.09567 40.9066 5.55294 41.2758C5.01022 41.645 4.62065 42.1994 4.45718 42.8351C4.2937 43.4708 4.36752 44.1443 4.66481 44.7295C4.9621 45.3148 5.46248 45.7716 6.07229 46.0145V54.6506H3.37349C2.83667 54.6506 2.32183 54.4374 1.94224 54.0578C1.56265 53.6782 1.3494 53.1633 1.3494 52.6265V28.1552C1.80362 28.6392 2.35235 29.0249 2.96163 29.2883C3.57091 29.5518 4.22777 29.6874 4.89157 29.6867H36.2651C36.9289 29.6874 37.5857 29.5518 38.195 29.2883C38.8043 29.0249 39.353 28.6392 39.8072 28.1552V34.4096ZM15.1807 46.2169C15.1807 45.95 15.2599 45.6891 15.4081 45.4672C15.5564 45.2453 15.7672 45.0723 16.0137 44.9702C16.2603 44.8681 16.5316 44.8413 16.7934 44.8934C17.0551 44.9455 17.2956 45.074 17.4843 45.2627C17.673 45.4514 17.8015 45.6919 17.8536 45.9536C17.9057 46.2154 17.8789 46.4867 17.7768 46.7333C17.6747 46.9798 17.5017 47.1906 17.2798 47.3388C17.0579 47.4871 16.797 47.5663 16.5301 47.5663C16.1722 47.5663 15.829 47.4241 15.576 47.171C15.3229 46.918 15.1807 46.5747 15.1807 46.2169ZM7.08434 44.8675C6.81745 44.8675 6.55656 44.7883 6.33465 44.6401C6.11274 44.4918 5.93979 44.281 5.83766 44.0345C5.73552 43.7879 5.7088 43.5166 5.76087 43.2548C5.81293 42.9931 5.94145 42.7526 6.13017 42.5639C6.31889 42.3752 6.55933 42.2467 6.82108 42.1946C7.08284 42.1425 7.35416 42.1693 7.60073 42.2714C7.8473 42.3735 8.05805 42.5465 8.20632 42.7684C8.3546 42.9903 8.43373 43.2512 8.43373 43.5181C8.43373 43.876 8.29157 44.2192 8.03851 44.4722C7.78544 44.7253 7.44222 44.8675 7.08434 44.8675Z" fill="#C2CAD2"/>
<path d="M29.2617 16.1455H29.5181L29.6935 16.2872H29.761C29.8833 16.3854 30.036 16.4379 30.1928 16.4357C30.2924 16.435 30.3907 16.4123 30.4805 16.3691C30.5704 16.3259 30.6495 16.2634 30.7123 16.186C30.8241 16.0479 30.877 15.8712 30.8593 15.6943C30.8416 15.5174 30.7548 15.3547 30.6178 15.2414C30.4019 15.0674 30.1767 14.9052 29.9431 14.7557C29.8688 14.7021 29.7843 14.6643 29.6949 14.6444C29.6055 14.6246 29.5129 14.6232 29.4229 14.6402C29.3329 14.6573 29.2474 14.6926 29.1714 14.7438C29.0955 14.795 29.0308 14.8612 28.9812 14.9383C28.9317 15.0153 28.8984 15.1017 28.8833 15.192C28.8682 15.2824 28.8717 15.3749 28.8935 15.4638C28.9153 15.5528 28.955 15.6364 29.0102 15.7095C29.0654 15.7826 29.1349 15.8438 29.2145 15.8892L29.2617 16.1455Z" fill="#C2CAD2"/>
<path d="M30.6381 26.1716C30.7621 26.2776 30.9202 26.3351 31.0834 26.3335C31.1797 26.3325 31.2747 26.311 31.362 26.2702C31.4492 26.2295 31.5268 26.1705 31.5894 26.0973C31.7721 25.8833 31.9411 25.658 32.0954 25.4226C32.1965 25.275 32.2348 25.0933 32.2019 24.9174C32.169 24.7415 32.0676 24.5859 31.92 24.4848C31.8091 24.4074 31.6774 24.3651 31.5422 24.3634C31.4323 24.3625 31.3238 24.3884 31.2262 24.439C31.1286 24.4895 31.0448 24.5632 30.9822 24.6535V24.694C30.8697 24.8559 30.7483 25.0111 30.6178 25.1595C30.5473 25.2243 30.4913 25.3033 30.4537 25.3913C30.416 25.4793 30.3975 25.5744 30.3995 25.6701C30.4014 25.7658 30.4236 25.8601 30.4648 25.9465C30.5059 26.033 30.565 26.1097 30.6381 26.1716Z" fill="#C2CAD2"/>
<path d="M32.6959 21.334H32.7566C32.8454 21.3264 32.9317 21.3012 33.0107 21.2601C33.0897 21.2189 33.1597 21.1625 33.2168 21.0942C33.2739 21.0258 33.3169 20.9468 33.3433 20.8617C33.3697 20.7767 33.3789 20.6872 33.3706 20.5986C33.3706 20.3287 33.3031 20.052 33.2492 19.7822C33.2176 19.6275 33.1328 19.4887 33.0095 19.3901C32.8863 19.2915 32.7323 19.2392 32.5745 19.2424H32.4463C32.3588 19.2593 32.2756 19.2934 32.2014 19.3427C32.1272 19.392 32.0635 19.4554 32.0139 19.5294C31.9644 19.6035 31.93 19.6866 31.9127 19.7739C31.8954 19.8613 31.8956 19.9513 31.9133 20.0386C31.9614 20.261 31.9952 20.4864 32.0145 20.7133C32.0281 20.8839 32.1061 21.0429 32.2327 21.1581C32.3592 21.2734 32.5248 21.3362 32.6959 21.334Z" fill="#C2CAD2"/>
<path d="M20.6458 17.7918C20.7483 17.7924 20.8495 17.7696 20.9419 17.7251C21.0342 17.6807 21.1153 17.6158 21.1788 17.5354L21.28 17.4072H21.3137C21.405 17.2945 21.5018 17.1864 21.6039 17.0834C21.6654 17.0196 21.7138 16.9443 21.7463 16.8618C21.7788 16.7793 21.7947 16.6912 21.7931 16.6025C21.7916 16.5139 21.7726 16.4264 21.7372 16.3451C21.7018 16.2638 21.6508 16.1903 21.587 16.1287C21.5232 16.0671 21.4479 16.0187 21.3654 15.9862C21.2829 15.9537 21.1948 15.9378 21.1061 15.9394C21.0175 15.9409 20.93 15.96 20.8487 15.9953C20.7674 16.0307 20.6939 16.0817 20.6323 16.1455C20.4417 16.3429 20.2615 16.5501 20.0925 16.7663C19.9837 16.9078 19.9354 17.0866 19.9582 17.2636C19.9809 17.4407 20.0729 17.6015 20.214 17.7108C20.3437 17.7884 20.4968 17.8171 20.6458 17.7918Z" fill="#C2CAD2"/>
<path d="M25.227 15.2212H25.9759C26.1548 15.2212 26.3265 15.1501 26.453 15.0236C26.5795 14.8971 26.6506 14.7254 26.6506 14.5465C26.6506 14.3676 26.5795 14.196 26.453 14.0694C26.3265 13.9429 26.1548 13.8718 25.9759 13.8718C25.7008 13.8705 25.4259 13.8863 25.1528 13.919C25.0642 13.9239 24.9774 13.9462 24.8974 13.9846C24.8174 14.023 24.7458 14.0768 24.6866 14.1429C24.567 14.2764 24.5053 14.4519 24.5152 14.6308C24.525 14.8098 24.6055 14.9775 24.739 15.0971C24.8725 15.2166 25.048 15.2783 25.227 15.2684V15.2212Z" fill="#C2CAD2"/>
<path d="M19.2964 22.8723H19.3908C19.568 22.8472 19.7279 22.7528 19.8355 22.6098C19.943 22.4669 19.9894 22.287 19.9643 22.1099C19.961 22.0762 19.961 22.0423 19.9643 22.0087V21.921C19.9677 21.8873 19.9677 21.8534 19.9643 21.8198C19.9643 21.6408 19.8933 21.4692 19.7667 21.3427C19.6402 21.2161 19.4686 21.1451 19.2896 21.1451C19.1107 21.1451 18.9391 21.2161 18.8126 21.3427C18.686 21.4692 18.6149 21.6408 18.6149 21.8198C18.6149 22.0964 18.6149 22.373 18.6892 22.6429C18.7629 22.7291 18.8572 22.7953 18.9634 22.8354C19.0695 22.8755 19.184 22.8882 19.2964 22.8723Z" fill="#C2CAD2"/>
<path d="M20.9157 25.7735C20.7952 25.9052 20.7319 26.0792 20.7395 26.2575C20.747 26.4358 20.825 26.6038 20.9561 26.7248C21.1716 26.9099 21.3969 27.0833 21.6308 27.2443C21.7458 27.3306 21.8852 27.3778 22.0289 27.3793C22.1354 27.3796 22.2404 27.3546 22.3354 27.3066C22.4304 27.2585 22.5126 27.1886 22.5754 27.1026C22.6279 27.0309 22.6657 26.9496 22.6866 26.8633C22.7075 26.7769 22.7112 26.6873 22.6974 26.5995C22.6836 26.5118 22.6526 26.4276 22.6062 26.3518C22.5598 26.2761 22.4989 26.2102 22.427 26.1581C22.2583 26.0366 22.1031 25.9084 21.948 25.7735C21.8235 25.657 21.6596 25.5919 21.4892 25.5913C21.386 25.5752 21.2805 25.5833 21.181 25.6149C21.0815 25.6465 20.9906 25.7008 20.9157 25.7735Z" fill="#C2CAD2"/>
<path d="M21.5904 6.74699C21.7693 6.74699 21.9409 6.6759 22.0674 6.54937C22.194 6.42284 22.2651 6.25123 22.2651 6.07229V4.72289C22.2651 4.54395 22.194 4.37234 22.0674 4.24581C21.9409 4.11928 21.7693 4.04819 21.5904 4.04819C21.4114 4.04819 21.2398 4.11928 21.1133 4.24581C20.9867 4.37234 20.9157 4.54395 20.9157 4.72289V6.07229C20.9157 6.25123 20.9867 6.42284 21.1133 6.54937C21.2398 6.6759 21.4114 6.74699 21.5904 6.74699Z" fill="#C2CAD2"/>
<path d="M26.3133 9.44578C26.4922 9.44578 26.6638 9.3747 26.7903 9.24817C26.9169 9.12164 26.988 8.95003 26.988 8.77108V2.0241C26.988 1.84516 26.9169 1.67354 26.7903 1.54701C26.6638 1.42048 26.4922 1.3494 26.3133 1.3494C26.1343 1.3494 25.9627 1.42048 25.8362 1.54701C25.7096 1.67354 25.6386 1.84516 25.6386 2.0241V8.77108C25.6386 8.95003 25.7096 9.12164 25.8362 9.24817C25.9627 9.3747 26.1343 9.44578 26.3133 9.44578Z" fill="#C2CAD2"/>
<path d="M30.3614 6.74699C30.5404 6.74699 30.712 6.6759 30.8385 6.54937C30.9651 6.42284 31.0361 6.25123 31.0361 6.07229V0.674699C31.0361 0.495758 30.9651 0.324145 30.8385 0.197615C30.712 0.0710843 30.5404 0 30.3614 0C30.1825 0 30.0109 0.0710843 29.8844 0.197615C29.7578 0.324145 29.6867 0.495758 29.6867 0.674699V6.07229C29.6867 6.25123 29.7578 6.42284 29.8844 6.54937C30.0109 6.6759 30.1825 6.74699 30.3614 6.74699Z" fill="#C2CAD2"/>
</svg>
