<svg width="56" height="49" viewBox="0 0 56 49" fill="none" xmlns="http://www.w3.org/2000/svg">
<path d="M18.2326 15.9144L28 20.7981L37.7674 15.9144V11.7209H45.5814V14.9767H46.8837V10.4186H37.7674V5.33954L28 10.2233L18.2326 5.33954V10.4186H13.0233V11.7209H18.2326V15.9144ZM19.5349 7.4493L28 11.6819L36.4651 7.4493V15.107L28.6512 19.014V15.6279H27.3488V19.014L19.5349 15.107V7.4493Z" fill="#C2CAD2"/>
<path d="M37.1163 4.55814L28 0L18.8837 4.55814L28 9.11628L37.1163 4.55814ZM28 1.47814L34.2056 4.55814L28 7.68372L21.7944 4.55814L28 1.47814Z" fill="#C2CAD2"/>
<path d="M28.6512 12.3721H27.3488V14.3256H28.6512V12.3721Z" fill="#C2CAD2"/>
<path d="M19.5349 43.4977V39.7209H26.0465V38.4186H19.5349V32.9228L9.76744 37.8065L0 32.9228V43.4977L9.76744 48.3814L19.5349 43.4977ZM9.6893 46.8837H9.84558L9.76744 46.9228L9.6893 46.8837ZM1.30233 35.0326L9.76744 39.2651L18.2326 35.0326V42.6902L10.4186 46.5972V42.9767H9.11628V46.5972L1.30233 42.6902V35.0326Z" fill="#C2CAD2"/>
<path d="M9.76744 36.7256L18.8837 32.1674L10.4186 27.9349V22.1395H9.11628V27.9349L0.651163 32.1674L9.76744 36.7256ZM9.76744 35.267L3.56186 32.1674L9.76744 29.0679L15.973 32.1674L9.76744 35.267Z" fill="#C2CAD2"/>
<path d="M10.4186 40.3721H9.11628V42.3256H10.4186V40.3721Z" fill="#C2CAD2"/>
<path d="M36.4651 32.9228V38.4186H32.5581V39.7209H36.4651V43.4977L46.2326 48.3814L56 43.4977V32.9228L46.2326 37.8065L36.4651 32.9228ZM46.1544 46.8837H46.3107L46.2326 46.9228L46.1544 46.8837ZM54.6977 42.6902L46.8837 46.5972V42.9767H45.5814V46.5972L37.7674 42.6902V35.0326L46.2326 39.2651L54.6977 35.0326V42.6902Z" fill="#C2CAD2"/>
<path d="M46.8837 40.3721H45.5814V42.3256H46.8837V40.3721Z" fill="#C2CAD2"/>
<path d="M10.4186 11.7209H11.7209V10.4186H9.11628V16.2791H10.4186V11.7209Z" fill="#C2CAD2"/>
<path d="M10.4186 17.5814H9.11628V20.8372H10.4186V17.5814Z" fill="#C2CAD2"/>
<path d="M30.6047 38.4186H28V39.7209H30.6047V38.4186Z" fill="#C2CAD2"/>
<path d="M45.5814 27.9349L37.1163 32.1674L46.2326 36.7256L55.3488 32.1674L46.8837 27.9349V25.3953H45.5814V27.9349ZM46.2326 35.267L40.027 32.1674L46.2326 29.0679L52.4381 32.1674L46.2326 35.267Z" fill="#C2CAD2"/>
<path d="M46.8837 16.2791H45.5814V23.4419H46.8837V16.2791Z" fill="#C2CAD2"/>
</svg>
