<svg width="55" height="56" viewBox="0 0 55 56" fill="none" xmlns="http://www.w3.org/2000/svg">
<path d="M37.7287 21.96C37.8019 21.9116 37.8649 21.8491 37.914 21.7763C37.9631 21.7034 37.9973 21.6216 38.0146 21.5355C38.032 21.4494 38.0321 21.3607 38.0151 21.2745C37.998 21.1883 37.9641 21.1064 37.9153 21.0333C37.862 20.9533 37.8087 20.8667 37.7487 20.7867C37.6477 20.6419 37.4935 20.543 37.3198 20.5118C37.1461 20.4805 36.967 20.5195 36.822 20.62C36.6804 20.724 36.5855 20.8796 36.5581 21.0532C36.5306 21.2267 36.5727 21.404 36.6753 21.5467L36.7353 21.64L36.8087 21.7533C36.8566 21.8272 36.9186 21.8908 36.9912 21.9405C37.0638 21.9902 37.1456 22.025 37.2317 22.043C37.3179 22.061 37.4067 22.0617 37.4932 22.0452C37.5796 22.0287 37.6619 21.9952 37.7353 21.9467L37.7287 21.96Z" fill="#C2CAD2"/>
<path d="M34.8553 17.8067L34.6153 17.6333C34.4703 17.5317 34.2909 17.4918 34.1165 17.5224C33.9421 17.553 33.787 17.6517 33.6853 17.7967C33.5837 17.9417 33.5437 18.1211 33.5744 18.2955C33.605 18.4699 33.7037 18.625 33.8487 18.7267L34.0553 18.8733C34.1971 18.9766 34.3739 19.0198 34.5474 18.9936C34.7209 18.9674 34.877 18.8739 34.982 18.7333C35.0867 18.5932 35.1321 18.4174 35.1084 18.2441C35.0847 18.0707 34.9938 17.9136 34.8553 17.8067Z" fill="#C2CAD2"/>
<path d="M32.142 38.3267C32.0499 38.328 31.9591 38.3485 31.8753 38.3867L31.7553 38.44L31.6687 38.48C31.5051 38.5472 31.3749 38.6766 31.3068 38.8398C31.2387 39.0029 31.2381 39.1865 31.3053 39.35C31.3725 39.5136 31.5019 39.6437 31.6651 39.7119C31.8282 39.78 32.0118 39.7805 32.1753 39.7133L32.4553 39.5933C32.5977 39.5327 32.7146 39.4245 32.7859 39.2872C32.8573 39.1499 32.8786 38.992 32.8463 38.8407C32.814 38.6893 32.73 38.554 32.6088 38.4577C32.4876 38.3615 32.3367 38.3105 32.182 38.3133L32.142 38.3267Z" fill="#C2CAD2"/>
<path d="M35.6487 36C35.4747 35.999 35.3072 36.0659 35.182 36.1867H35.0886L35.0353 36.2333C34.9354 36.3241 34.8654 36.4431 34.8346 36.5745C34.8038 36.7059 34.8136 36.8436 34.8628 36.9693C34.9119 37.0951 34.998 37.2029 35.1098 37.2786C35.2216 37.3543 35.3537 37.3943 35.4887 37.3933C35.6539 37.3929 35.8131 37.3311 35.9353 37.22L36.1553 37.0133C36.2795 36.8884 36.3492 36.7195 36.3492 36.5433C36.3492 36.3672 36.2795 36.1982 36.1553 36.0733C36.0799 36.0283 35.9963 35.9987 35.9093 35.9861C35.8224 35.9735 35.7338 35.9782 35.6487 36Z" fill="#C2CAD2"/>
<path d="M30.8753 15.8333L30.582 15.7533C30.5266 15.7468 30.4707 15.7468 30.4153 15.7533C30.2385 15.7303 30.0598 15.7785 29.9185 15.8873C29.7773 15.9961 29.685 16.1565 29.662 16.3333C29.639 16.5101 29.6872 16.6888 29.796 16.8301C29.9047 16.9714 30.0652 17.0637 30.242 17.0867H30.482C30.5438 17.0969 30.6068 17.0969 30.6687 17.0867C30.7562 17.0989 30.8453 17.0938 30.9309 17.0716C31.0165 17.0495 31.0968 17.0106 31.1674 16.9574C31.238 16.9042 31.2974 16.8375 31.3422 16.7614C31.387 16.6852 31.4164 16.6009 31.4287 16.5133C31.4409 16.4258 31.4358 16.3367 31.4136 16.2511C31.3914 16.1655 31.3526 16.0852 31.2994 16.0146C31.2461 15.944 31.1795 15.8846 31.1033 15.8398C31.0271 15.795 30.9429 15.7656 30.8553 15.7533L30.8753 15.8333Z" fill="#C2CAD2"/>
<path d="M39.342 28.5333H39.2753C39.1095 28.5325 38.9493 28.5935 38.826 28.7045C38.7027 28.8154 38.6252 28.9683 38.6087 29.1333V29.1733C38.6054 29.2133 38.6054 29.2534 38.6087 29.2933V29.3533C38.5879 29.5283 38.6373 29.7043 38.746 29.843C38.8547 29.9817 39.0138 30.0717 39.1887 30.0933H39.2753C39.4391 30.0945 39.5976 30.0354 39.7206 29.9272C39.8435 29.819 39.9223 29.6693 39.942 29.5067C39.942 29.4067 39.942 29.3067 39.942 29.2133C39.9462 29.0452 39.8867 28.8817 39.7754 28.7556C39.6641 28.6295 39.5093 28.5501 39.342 28.5333Z" fill="#C2CAD2"/>
<path d="M38.422 32.6667C38.3306 32.6224 38.2302 32.5996 38.1287 32.6C38.0037 32.5998 37.8812 32.6346 37.7751 32.7006C37.669 32.7666 37.5836 32.8611 37.5287 32.9733V33.0267C37.5091 33.0702 37.4868 33.1125 37.462 33.1533C37.3997 33.2529 37.3648 33.3672 37.3609 33.4846C37.3569 33.602 37.3841 33.7183 37.4396 33.8218C37.495 33.9254 37.5769 34.0124 37.6768 34.0741C37.7768 34.1359 37.8912 34.1701 38.0087 34.1733C38.1311 34.1736 38.2512 34.1401 38.3559 34.0766C38.4605 34.0131 38.5457 33.922 38.602 33.8133L38.7353 33.5467C38.8088 33.3882 38.8171 33.2072 38.7585 33.0426C38.6999 32.878 38.5791 32.743 38.422 32.6667Z" fill="#C2CAD2"/>
<path d="M20.4687 37.0067L20.3353 36.9C20.216 36.8105 20.0712 36.7614 19.922 36.76C19.8213 36.7587 19.7216 36.7802 19.6303 36.8229C19.5391 36.8656 19.4588 36.9284 19.3953 37.0067C19.3403 37.0753 19.2994 37.1541 19.275 37.2386C19.2506 37.323 19.2431 37.4115 19.253 37.4989C19.2629 37.5862 19.29 37.6708 19.3328 37.7476C19.3755 37.8245 19.433 37.8921 19.502 37.9467L19.742 38.1267C19.8565 38.2156 19.997 38.2648 20.142 38.2667C20.2455 38.2667 20.3476 38.2426 20.4401 38.1963C20.5327 38.15 20.6132 38.0828 20.6753 38C20.7814 37.8586 20.827 37.6808 20.802 37.5057C20.7769 37.3307 20.6834 37.1728 20.542 37.0667L20.4687 37.0067Z" fill="#C2CAD2"/>
<path d="M19.7887 19.5533L19.8687 19.4867H19.9153L19.9953 19.42C20.0619 19.3631 20.1165 19.2936 20.1562 19.2156C20.1959 19.1376 20.2199 19.0525 20.2267 18.9652C20.2335 18.8779 20.223 18.7901 20.1959 18.7069C20.1688 18.6236 20.1256 18.5465 20.0687 18.48C20.0117 18.4135 19.9423 18.3588 19.8643 18.3191C19.7862 18.2794 19.7011 18.2555 19.6138 18.2487C19.5266 18.2418 19.4388 18.2523 19.3555 18.2794C19.2723 18.3065 19.1952 18.3498 19.1287 18.4067C19.0487 18.4667 18.9753 18.5333 18.902 18.6C18.7705 18.7177 18.691 18.8828 18.681 19.059C18.671 19.2352 18.7313 19.4082 18.8487 19.54C18.9111 19.6111 18.988 19.6681 19.0742 19.7072C19.1605 19.7463 19.254 19.7665 19.3487 19.7667C19.517 19.7539 19.6743 19.6776 19.7887 19.5533Z" fill="#C2CAD2"/>
<path d="M15.342 27.04H15.4287C15.5904 27.0416 15.7473 26.9843 15.8699 26.8788C15.9926 26.7733 16.0727 26.6269 16.0953 26.4667L16.1353 26.2C16.1622 26.0259 16.1191 25.8483 16.0154 25.7059C15.9117 25.5635 15.7559 25.4679 15.582 25.44H15.4753C15.3145 25.4382 15.1585 25.4945 15.036 25.5987C14.9135 25.7028 14.8328 25.8477 14.8087 26.0067C14.8087 26.1 14.8087 26.2 14.762 26.3C14.7413 26.475 14.7906 26.651 14.8993 26.7897C15.008 26.9283 15.1672 27.0183 15.342 27.04Z" fill="#C2CAD2"/>
<path d="M23.1753 17.46L23.4153 17.3667C23.5626 17.3132 23.6864 17.2095 23.7649 17.0739C23.8434 16.9382 23.8716 16.7793 23.8445 16.6249C23.8175 16.4706 23.7369 16.3306 23.617 16.2298C23.497 16.1289 23.3454 16.0735 23.1887 16.0733C23.1091 16.0726 23.0301 16.0862 22.9553 16.1133L22.6753 16.22C22.5309 16.2771 22.4109 16.3828 22.3361 16.5189C22.2613 16.655 22.2364 16.813 22.2656 16.9655C22.2949 17.1181 22.3764 17.2556 22.4963 17.3544C22.6161 17.4532 22.7667 17.507 22.922 17.5067C23.0087 17.5077 23.0947 17.4919 23.1753 17.46Z" fill="#C2CAD2"/>
<path d="M24.0553 38.8467H23.802C23.735 38.8259 23.6654 38.8147 23.5953 38.8133C23.4491 38.8062 23.3046 38.8473 23.1841 38.9305C23.0636 39.0136 22.9739 39.1341 22.9287 39.2733C22.8737 39.4404 22.887 39.6225 22.9656 39.7798C23.0443 39.9372 23.182 40.0571 23.3487 40.1133L23.6353 40.2067C23.6996 40.2131 23.7644 40.2131 23.8287 40.2067C24.0055 40.2323 24.1852 40.1867 24.3284 40.0798C24.4715 39.9729 24.5664 39.8135 24.592 39.6367C24.6176 39.4599 24.572 39.2801 24.4651 39.1369C24.3582 38.9938 24.1988 38.899 24.022 38.8733L24.0553 38.8467Z" fill="#C2CAD2"/>
<path d="M27.342 16.6667C27.5188 16.6667 27.6884 16.5964 27.8134 16.4714C27.9384 16.3464 28.0087 16.1768 28.0087 16C28.0087 15.8232 27.9384 15.6536 27.8134 15.5286C27.6884 15.4036 27.5188 15.3333 27.342 15.3333H27.042C26.8652 15.3333 26.6956 15.4036 26.5706 15.5286C26.4456 15.6536 26.3753 15.8232 26.3753 16C26.3753 16.1768 26.4456 16.3464 26.5706 16.4714C26.6956 16.5964 26.8652 16.6667 27.042 16.6667H27.342Z" fill="#C2CAD2"/>
<path d="M28.0487 39.3333H27.742C27.5652 39.3333 27.3956 39.4036 27.2706 39.5286C27.1456 39.6536 27.0753 39.8232 27.0753 40C27.0753 40.1768 27.1456 40.3464 27.2706 40.4714C27.3956 40.5964 27.5652 40.6667 27.742 40.6667H28.042C28.2188 40.6614 28.3863 40.586 28.5075 40.4573C28.6288 40.3285 28.694 40.1568 28.6887 39.98C28.6833 39.8032 28.608 39.6357 28.4793 39.5145C28.3505 39.3932 28.1788 39.328 28.002 39.3333H28.0487Z" fill="#C2CAD2"/>
<path d="M17.342 22.6667L17.4687 22.4267C17.555 22.2728 17.5769 22.0909 17.5294 21.921C17.4819 21.751 17.3689 21.6068 17.2153 21.52C17.1151 21.4649 17.003 21.4351 16.8887 21.4333C16.7705 21.4335 16.6546 21.4651 16.5527 21.5249C16.4507 21.5846 16.3665 21.6704 16.3087 21.7733C16.262 21.86 16.2087 21.9467 16.162 22.04C16.1077 22.142 16.0808 22.2563 16.084 22.3717C16.0872 22.4872 16.1203 22.5998 16.1801 22.6986C16.24 22.7974 16.3244 22.879 16.4253 22.9353C16.5261 22.9917 16.6398 23.0208 16.7553 23.02C16.8759 23.0197 16.9942 22.9866 17.0975 22.9244C17.2008 22.8622 17.2853 22.7731 17.342 22.6667Z" fill="#C2CAD2"/>
<path d="M17.8087 34.12L17.742 34.0133L17.6953 33.94C17.6029 33.7902 17.4551 33.683 17.284 33.6418C17.1129 33.6006 16.9324 33.6287 16.782 33.72C16.6322 33.8124 16.525 33.9602 16.4838 34.1313C16.4426 34.3024 16.4707 34.4829 16.562 34.6333C16.6153 34.72 16.662 34.8067 16.722 34.8867C16.8176 35.035 16.9682 35.1393 17.1406 35.1768C17.3131 35.2143 17.4934 35.1819 17.642 35.0867C17.7903 34.991 17.8947 34.8405 17.9321 34.668C17.9696 34.4955 17.9372 34.3153 17.842 34.1667L17.8087 34.12Z" fill="#C2CAD2"/>
<path d="M16.2287 30.2333C16.1989 30.0793 16.1157 29.9406 15.9937 29.8418C15.8718 29.7431 15.7189 29.6905 15.562 29.6933H15.4287C15.2555 29.7272 15.1029 29.8283 15.0042 29.9745C14.9055 30.1207 14.8687 30.3001 14.902 30.4733C14.902 30.5733 14.942 30.6733 14.9687 30.7667C15.0012 30.9183 15.0855 31.0538 15.2072 31.15C15.3289 31.2461 15.4803 31.2968 15.6353 31.2933C15.684 31.2998 15.7333 31.2998 15.782 31.2933C15.9542 31.2551 16.1043 31.1501 16.1993 31.0014C16.2942 30.8527 16.3264 30.6724 16.2887 30.5C16.262 30.38 16.242 30.3067 16.2287 30.2333Z" fill="#C2CAD2"/>
<path d="M38.382 25.42C38.4159 25.5704 38.5008 25.7044 38.6223 25.7992C38.7439 25.894 38.8945 25.9438 39.0487 25.94H39.202C39.3732 25.8988 39.5212 25.7916 39.6136 25.6417C39.706 25.4918 39.7354 25.3115 39.6953 25.14C39.6953 25.04 39.6487 24.9467 39.6287 24.8533C39.5909 24.7067 39.5042 24.5772 39.3831 24.4863C39.2619 24.3955 39.1134 24.3485 38.962 24.3533C38.9066 24.3468 38.8507 24.3468 38.7953 24.3533C38.7103 24.3751 38.6305 24.4134 38.5603 24.4661C38.4901 24.5188 38.4311 24.5848 38.3865 24.6604C38.3419 24.7359 38.3126 24.8195 38.3004 24.9064C38.2882 24.9933 38.2933 25.0817 38.3153 25.1667C38.3353 25.2467 38.362 25.3333 38.382 25.42Z" fill="#C2CAD2"/>
<path d="M32.0087 12C32.6521 11.9923 33.271 11.7522 33.7513 11.324C34.2316 10.8958 34.5408 10.3084 34.622 9.67008C34.7032 9.03178 34.5509 8.38563 34.1931 7.85081C33.8354 7.316 33.2963 6.92857 32.6753 6.76V0H31.342V6.76C30.721 6.92857 30.1819 7.316 29.8242 7.85081C29.4664 8.38563 29.3141 9.03178 29.3953 9.67008C29.4765 10.3084 29.7857 10.8958 30.266 11.324C30.7463 11.7522 31.3652 11.9923 32.0087 12ZM32.0087 8C32.2724 8 32.5302 8.0782 32.7494 8.22471C32.9687 8.37122 33.1396 8.57945 33.2405 8.82309C33.3414 9.06672 33.3678 9.33481 33.3164 9.59345C33.2649 9.8521 33.1379 10.0897 32.9515 10.2761C32.765 10.4626 32.5274 10.5896 32.2688 10.641C32.0101 10.6925 31.742 10.6661 31.4984 10.5652C31.2548 10.4643 31.0465 10.2934 30.9 10.0741C30.7535 9.85483 30.6753 9.59704 30.6753 9.33333C30.6753 8.97971 30.8158 8.64057 31.0658 8.39052C31.3159 8.14048 31.655 8 32.0087 8Z" fill="#C2CAD2"/>
<path d="M22.6753 12C23.3187 11.9923 23.9376 11.7522 24.4179 11.324C24.8982 10.8958 25.2075 10.3084 25.2887 9.67008C25.3699 9.03178 25.2176 8.38563 24.8598 7.85081C24.502 7.316 23.963 6.92857 23.342 6.76V0H22.0087V6.76C21.3877 6.92857 20.8486 7.316 20.4908 7.85081C20.1331 8.38563 19.9807 9.03178 20.0619 9.67008C20.1431 10.3084 20.4524 10.8958 20.9327 11.324C21.413 11.7522 22.0319 11.9923 22.6753 12ZM22.6753 8C22.939 8 23.1968 8.0782 23.4161 8.22471C23.6353 8.37122 23.8062 8.57945 23.9072 8.82309C24.0081 9.06672 24.0345 9.33481 23.983 9.59345C23.9316 9.8521 23.8046 10.0897 23.6181 10.2761C23.4317 10.4626 23.1941 10.5896 22.9354 10.641C22.6768 10.6925 22.4087 10.6661 22.1651 10.5652C21.9214 10.4643 21.7132 10.2934 21.5667 10.0741C21.4202 9.85483 21.342 9.59704 21.342 9.33333C21.342 8.97971 21.4825 8.64057 21.7325 8.39052C21.9826 8.14048 22.3217 8 22.6753 8Z" fill="#C2CAD2"/>
<path d="M32.0087 44C31.3652 44.0077 30.7463 44.2478 30.266 44.676C29.7857 45.1042 29.4765 45.6916 29.3953 46.3299C29.3141 46.9682 29.4664 47.6144 29.8242 48.1492C30.1819 48.684 30.721 49.0714 31.342 49.24V56H32.6753V49.24C33.2963 49.0714 33.8354 48.684 34.1931 48.1492C34.5509 47.6144 34.7032 46.9682 34.622 46.3299C34.5408 45.6916 34.2316 45.1042 33.7513 44.676C33.271 44.2478 32.6521 44.0077 32.0087 44ZM32.0087 48C31.7449 48 31.4872 47.9218 31.2679 47.7753C31.0486 47.6288 30.8777 47.4205 30.7768 47.1769C30.6759 46.9333 30.6495 46.6652 30.7009 46.4065C30.7524 46.1479 30.8794 45.9103 31.0658 45.7239C31.2523 45.5374 31.4899 45.4104 31.7485 45.359C32.0072 45.3075 32.2753 45.3339 32.5189 45.4348C32.7625 45.5357 32.9708 45.7066 33.1173 45.9259C33.2638 46.1452 33.342 46.403 33.342 46.6667C33.342 47.0203 33.2015 47.3594 32.9515 47.6095C32.7014 47.8595 32.3623 48 32.0087 48Z" fill="#C2CAD2"/>
<path d="M22.6753 44C22.0319 44.0077 21.413 44.2478 20.9327 44.676C20.4524 45.1042 20.1431 45.6916 20.0619 46.3299C19.9807 46.9682 20.1331 47.6144 20.4908 48.1492C20.8486 48.684 21.3877 49.0714 22.0087 49.24V56H23.342V49.24C23.963 49.0714 24.502 48.684 24.8598 48.1492C25.2176 47.6144 25.3699 46.9682 25.2887 46.3299C25.2075 45.6916 24.8982 45.1042 24.4179 44.676C23.9376 44.2478 23.3187 44.0077 22.6753 44ZM22.6753 48C22.4116 48 22.1538 47.9218 21.9346 47.7753C21.7153 47.6288 21.5444 47.4205 21.4435 47.1769C21.3426 46.9333 21.3162 46.6652 21.3676 46.4065C21.4191 46.1479 21.546 45.9103 21.7325 45.7239C21.919 45.5374 22.1566 45.4104 22.4152 45.359C22.6738 45.3075 22.9419 45.3339 23.1856 45.4348C23.4292 45.5357 23.6374 45.7066 23.7839 45.9259C23.9305 46.1452 24.0087 46.403 24.0087 46.6667C24.0087 47.0203 23.8682 47.3594 23.6181 47.6095C23.3681 47.8595 23.0289 48 22.6753 48Z" fill="#C2CAD2"/>
<path d="M52.0087 25.3333C52.5078 25.335 52.9973 25.1965 53.4216 24.9336C53.8459 24.6708 54.188 24.2941 54.4088 23.8465C54.6296 23.3989 54.7204 22.8983 54.6708 22.4016C54.6212 21.905 54.4331 21.4322 54.1281 21.0371C53.8231 20.642 53.4134 20.3405 52.9455 20.1667C52.4775 19.993 51.9703 19.9541 51.4813 20.0544C50.9924 20.1548 50.5414 20.3903 50.1797 20.7342C49.818 21.0782 49.5601 21.5167 49.4353 22H40.722C40.0576 20.53 39.1567 19.1787 38.0553 18H48.6753C48.8521 18 49.0217 17.9298 49.1467 17.8047C49.2718 17.6797 49.342 17.5101 49.342 17.3333V9.24C49.9704 9.07774 50.5181 8.69185 50.8824 8.15466C51.2467 7.61748 51.4025 6.96588 51.3207 6.322C51.2389 5.67812 50.9251 5.08618 50.4381 4.65712C49.9511 4.22806 49.3244 3.99134 48.6753 3.99134C48.0263 3.99134 47.3995 4.22806 46.9125 4.65712C46.4255 5.08618 46.1117 5.67812 46.0299 6.322C45.9481 6.96588 46.104 7.61748 46.4683 8.15466C46.8325 8.69185 47.3802 9.07774 48.0087 9.24V16.6667H36.6753C34.053 14.5163 30.7666 13.3411 27.3753 13.3411C23.9841 13.3411 20.6976 14.5163 18.0753 16.6667H6.67532V9.24C7.30376 9.07774 7.85145 8.69185 8.21572 8.15466C8.58 7.61748 8.73585 6.96588 8.65407 6.322C8.57228 5.67812 8.25848 5.08618 7.77148 4.65712C7.28447 4.22806 6.6577 3.99134 6.00866 3.99134C5.35961 3.99134 4.73284 4.22806 4.24583 4.65712C3.75883 5.08618 3.44503 5.67812 3.36324 6.322C3.28146 6.96588 3.43731 7.61748 3.80159 8.15466C4.16586 8.69185 4.71355 9.07774 5.34199 9.24V17.3333C5.34199 17.5101 5.41223 17.6797 5.53725 17.8047C5.66227 17.9298 5.83184 18 6.00866 18H16.6287C15.5272 19.1787 14.6264 20.53 13.962 22H5.24866C5.08639 21.3716 4.7005 20.8239 4.16332 20.4596C3.62613 20.0953 2.97453 19.9395 2.33066 20.0213C1.68678 20.103 1.09483 20.4168 0.665774 20.9038C0.236715 21.3908 0 22.0176 0 22.6667C0 23.3157 0.236715 23.9425 0.665774 24.4295C1.09483 24.9165 1.68678 25.2303 2.33066 25.3121C2.97453 25.3939 3.62613 25.238 4.16332 24.8737C4.7005 24.5095 5.08639 23.9618 5.24866 23.3333H13.442C12.4198 26.3605 12.4198 29.6395 13.442 32.6667H6.58199C6.41973 32.0382 6.03384 31.4905 5.49665 31.1263C4.95946 30.762 4.30786 30.6061 3.66399 30.6879C3.02011 30.7697 2.42817 31.0835 1.99911 31.5705C1.57005 32.0575 1.33333 32.6843 1.33333 33.3333C1.33333 33.9824 1.57005 34.6092 1.99911 35.0962C2.42817 35.5832 3.02011 35.897 3.66399 35.9787C4.30786 36.0605 4.95946 35.9047 5.49665 35.5404C6.03384 35.1761 6.41973 34.6284 6.58199 34H13.962C14.4935 35.1969 15.1818 36.3178 16.0087 37.3333H11.0087L6.20865 42.16C5.93152 42.0558 5.63807 42.0016 5.34199 42C4.73242 41.9979 4.14053 42.2047 3.6649 42.5859C3.18927 42.9672 2.85862 43.4999 2.72802 44.0953C2.59742 44.6907 2.67475 45.3129 2.94714 45.8583C3.21953 46.4036 3.67053 46.8391 4.22503 47.0924C4.77952 47.3456 5.40402 47.4012 5.99453 47.2499C6.58503 47.0986 7.10589 46.7496 7.47034 46.261C7.83478 45.7724 8.02083 45.1736 7.99747 44.5645C7.97412 43.9554 7.74278 43.3726 7.34199 42.9133L11.5887 38.6667H17.2887C20.0094 41.228 23.6053 42.6543 27.342 42.6543C31.0787 42.6543 34.6745 41.228 37.3953 38.6667H43.0953L47.342 42.9133C46.9412 43.3726 46.7099 43.9554 46.6865 44.5645C46.6632 45.1736 46.8492 45.7724 47.2136 46.261C47.5781 46.7496 48.0989 47.0986 48.6894 47.2499C49.2799 47.4012 49.9045 47.3456 50.459 47.0924C51.0134 46.8391 51.4644 46.4036 51.7368 45.8583C52.0092 45.3129 52.0866 44.6907 51.956 44.0953C51.8254 43.4999 51.4947 42.9672 51.0191 42.5859C50.5435 42.2047 49.9516 41.9979 49.342 42C49.0459 42.0016 48.7525 42.0558 48.4753 42.16L43.6487 37.3333H38.6753C39.5116 36.3194 40.2088 35.1984 40.7487 34H48.102C48.2642 34.6284 48.6501 35.1761 49.1873 35.5404C49.7245 35.9047 50.3761 36.0605 51.02 35.9787C51.6639 35.897 52.2558 35.5832 52.6849 35.0962C53.1139 34.6092 53.3506 33.9824 53.3506 33.3333C53.3506 32.6843 53.1139 32.0575 52.6849 31.5705C52.2558 31.0835 51.6639 30.7697 51.02 30.6879C50.3761 30.6061 49.7245 30.762 49.1873 31.1263C48.6501 31.4905 48.2642 32.0382 48.102 32.6667H41.242C42.2642 29.6395 42.2642 26.3605 41.242 23.3333H49.4353C49.5827 23.9043 49.9153 24.4103 50.3809 24.7722C50.8465 25.1341 51.4189 25.3314 52.0087 25.3333ZM47.342 6.66667C47.342 6.40296 47.4202 6.14517 47.5667 5.92591C47.7132 5.70664 47.9214 5.53574 48.1651 5.43483C48.4087 5.33391 48.6768 5.30751 48.9354 5.35895C49.1941 5.4104 49.4317 5.53739 49.6181 5.72386C49.8046 5.91033 49.9316 6.14791 49.983 6.40655C50.0345 6.66519 50.0081 6.93328 49.9072 7.17691C49.8062 7.42055 49.6353 7.62878 49.4161 7.77529C49.1968 7.9218 48.939 8 48.6753 8C48.3217 8 47.9826 7.85952 47.7325 7.60948C47.4825 7.35943 47.342 7.02029 47.342 6.66667ZM4.67532 6.66667C4.67532 6.40296 4.75352 6.14517 4.90003 5.92591C5.04654 5.70664 5.25478 5.53574 5.49841 5.43483C5.74204 5.33391 6.01013 5.30751 6.26878 5.35895C6.52742 5.4104 6.76499 5.53739 6.95146 5.72386C7.13793 5.91033 7.26492 6.14791 7.31637 6.40655C7.36782 6.66519 7.34141 6.93328 7.24049 7.17691C7.13958 7.42055 6.96868 7.62878 6.74942 7.77529C6.53015 7.9218 6.27236 8 6.00866 8C5.65503 8 5.3159 7.85952 5.06585 7.60948C4.8158 7.35943 4.67532 7.02029 4.67532 6.66667ZM2.67532 24C2.41161 24 2.15383 23.9218 1.93456 23.7753C1.7153 23.6288 1.5444 23.4205 1.44348 23.1769C1.34257 22.9333 1.31616 22.6652 1.36761 22.4065C1.41906 22.1479 1.54604 21.9103 1.73251 21.7239C1.91898 21.5374 2.15656 21.4104 2.4152 21.359C2.67384 21.3075 2.94193 21.3339 3.18557 21.4348C3.4292 21.5357 3.63744 21.7066 3.78395 21.9259C3.93046 22.1452 4.00866 22.403 4.00866 22.6667C4.00866 23.0203 3.86818 23.3594 3.61813 23.6095C3.36808 23.8595 3.02894 24 2.67532 24ZM4.00866 34.6667C3.74495 34.6667 3.48716 34.5885 3.2679 34.442C3.04863 34.2955 2.87773 34.0872 2.77682 33.8436C2.6759 33.5999 2.64949 33.3319 2.70094 33.0732C2.75239 32.8146 2.87938 32.577 3.06585 32.3905C3.25232 32.2041 3.48989 32.0771 3.74853 32.0256C4.00718 31.9742 4.27526 32.0006 4.5189 32.1015C4.76253 32.2024 4.97077 32.3733 5.11728 32.5926C5.26379 32.8118 5.34199 33.0696 5.34199 33.3333C5.34199 33.687 5.20151 34.0261 4.95146 34.2761C4.70142 34.5262 4.36228 34.6667 4.00866 34.6667ZM5.34199 46C5.07828 46 4.82049 45.9218 4.60123 45.7753C4.38196 45.6288 4.21107 45.4205 4.11015 45.1769C4.00923 44.9333 3.98283 44.6652 4.03427 44.4065C4.08572 44.1479 4.21271 43.9103 4.39918 43.7239C4.58565 43.5374 4.82323 43.4104 5.08187 43.359C5.34051 43.3075 5.6086 43.3339 5.85223 43.4348C6.09587 43.5357 6.30411 43.7066 6.45061 43.9259C6.59712 44.1452 6.67532 44.403 6.67532 44.6667C6.67532 45.0203 6.53485 45.3594 6.2848 45.6095C6.03475 45.8595 5.69561 46 5.34199 46ZM50.6753 44.6667C50.6753 44.9304 50.5971 45.1882 50.4506 45.4074C50.3041 45.6267 50.0959 45.7976 49.8522 45.8985C49.6086 45.9994 49.3405 46.0258 49.0819 45.9744C48.8232 45.9229 48.5856 45.7959 48.3992 45.6095C48.2127 45.423 48.0857 45.1854 48.0343 44.9268C47.9828 44.6681 48.0092 44.4001 48.1101 44.1564C48.2111 43.9128 48.382 43.7045 48.6012 43.558C48.8205 43.4115 49.0783 43.3333 49.342 43.3333C49.6956 43.3333 50.0347 43.4738 50.2848 43.7239C50.5348 43.9739 50.6753 44.313 50.6753 44.6667ZM50.6753 32C50.939 32 51.1968 32.0782 51.4161 32.2247C51.6353 32.3712 51.8062 32.5795 51.9072 32.8231C52.0081 33.0667 52.0345 33.3348 51.983 33.5935C51.9316 33.8521 51.8046 34.0897 51.6181 34.2761C51.4317 34.4626 51.1941 34.5896 50.9354 34.641C50.6768 34.6925 50.4087 34.6661 50.1651 34.5652C49.9214 34.4643 49.7132 34.2934 49.5667 34.0741C49.4202 33.8548 49.342 33.597 49.342 33.3333C49.342 32.9797 49.4825 32.6406 49.7325 32.3905C49.9826 32.1405 50.3217 32 50.6753 32ZM27.342 41.3333C24.6365 41.3267 21.997 40.4973 19.7741 38.955C17.5511 37.4128 15.85 35.2308 14.8965 32.6989C13.9431 30.1669 13.7824 27.4048 14.4359 24.7794C15.0894 22.154 16.5262 19.7895 18.5553 18H18.6753V17.8867C21.085 15.8094 24.1606 14.6667 27.342 14.6667C30.5234 14.6667 33.599 15.8094 36.0087 17.8867V18H36.1287C38.1578 19.7895 39.5945 22.154 40.2481 24.7794C40.9016 27.4048 40.7409 30.1669 39.7875 32.6989C38.834 35.2308 37.1328 37.4128 34.9099 38.955C32.687 40.4973 30.0475 41.3267 27.342 41.3333ZM52.0087 21.3333C52.2724 21.3333 52.5301 21.4115 52.7494 21.558C52.9687 21.7045 53.1396 21.9128 53.2405 22.1564C53.3414 22.4001 53.3678 22.6681 53.3164 22.9268C53.2649 23.1854 53.1379 23.423 52.9515 23.6095C52.765 23.7959 52.5274 23.9229 52.2688 23.9744C52.0101 24.0258 51.742 23.9994 51.4984 23.8985C51.2548 23.7976 51.0465 23.6267 50.9 23.4074C50.7535 23.1882 50.6753 22.9304 50.6753 22.6667C50.6753 22.313 50.8158 21.9739 51.0658 21.7239C51.3159 21.4738 51.655 21.3333 52.0087 21.3333Z" fill="#C2CAD2"/>
</svg>
