<svg width="56" height="45" viewBox="0 0 56 45" fill="none" xmlns="http://www.w3.org/2000/svg">
<path d="M18.9 9.8H13.3V15.4H18.9V9.8ZM17.5 14H14.7V11.2H17.5V14Z" fill="#C2CAD2"/>
<path d="M18.9 18.2H13.3V23.8H18.9V18.2ZM17.5 22.4H14.7V19.6H17.5V22.4Z" fill="#C2CAD2"/>
<path d="M13.3 32.2H18.9V26.6H13.3V32.2ZM14.7 28H17.5V30.8H14.7V28Z" fill="#C2CAD2"/>
<path d="M21.7 9.8V15.4H27.3V13.3H44.1V15.4H49.7V9.8H44.1V11.9H35V3.5H39.2V5.6H44.8V0H39.2V2.1H33.6V11.9H27.3V9.8H21.7ZM45.5 11.2H48.3V14H45.5V11.2ZM40.6 1.4H43.4V4.2H40.6V1.4ZM25.9 14H23.1V11.2H25.9V14Z" fill="#C2CAD2"/>
<path d="M50.4 20.3H42V18.2H36.4V20.3H27.3V18.2H21.7V23.8H27.3V21.7H36.4V23.8H42V21.7H50.4V23.8H56V18.2H50.4V20.3ZM25.9 22.4H23.1V19.6H25.9V22.4ZM40.6 22.4H37.8V19.6H40.6V22.4ZM51.8 19.6H54.6V22.4H51.8V19.6Z" fill="#C2CAD2"/>
<path d="M47.6 28.7H37.1V26.6H31.5V28.7H27.3V26.6H21.7V32.2H27.3V30.1H31.5V32.2H37.1V30.1H39.9V39.9H44.1V42H49.7V36.4H44.1V38.5H41.3V30.1H47.6V32.2H53.2V26.6H47.6V28.7ZM25.9 30.8H23.1V28H25.9V30.8ZM35.7 30.8H32.9V28H35.7V30.8ZM45.5 37.8H48.3V40.6H45.5V37.8ZM49 28H51.8V30.8H49V28Z" fill="#C2CAD2"/>
<path d="M22.05 35.7H17.85V42.7H11.9V8.4H23.1V7H10.5V21.224L0 25.424V44.1H25.2V42.7H22.05V35.7ZM1.4 42.7V26.376L10.5 22.736V42.7H1.4ZM19.25 42.7V37.1H20.65V42.7H19.25Z" fill="#C2CAD2"/>
<path d="M4.2 27.3H2.8V30.8H4.2V27.3Z" fill="#C2CAD2"/>
<path d="M6.65 27.3H5.25V30.8H6.65V27.3Z" fill="#C2CAD2"/>
<path d="M9.1 27.3H7.7V30.8H9.1V27.3Z" fill="#C2CAD2"/>
<path d="M4.2 32.9H2.8V36.4H4.2V32.9Z" fill="#C2CAD2"/>
<path d="M6.65 32.9H5.25V36.4H6.65V32.9Z" fill="#C2CAD2"/>
<path d="M9.1 32.9H7.7V36.4H9.1V32.9Z" fill="#C2CAD2"/>
<path d="M29.4 42.7H26.6V44.1H29.4V42.7Z" fill="#C2CAD2"/>
<path d="M26.6 7H24.5V8.4H26.6V7Z" fill="#C2CAD2"/>
<path d="M31.5 7H28V8.4H31.5V7Z" fill="#C2CAD2"/>
<path d="M35.7 42.7H30.8V44.1H35.7V42.7Z" fill="#C2CAD2"/>
</svg>
