<svg width="47" height="56" viewBox="0 0 47 56" fill="none" xmlns="http://www.w3.org/2000/svg">
<path d="M21.6603 13.6845L20.5303 14.6164L23.9276 18.7474L29.0786 11.4466L29.7023 10.6027H27.8752L23.8396 16.3333L21.6603 13.6845Z" fill="#C2CAD2"/>
<path d="M44.2232 40.3564L26.327 32.5493C25.4233 32.044 24.3571 31.9147 23.3589 32.1893C22.3607 32.464 21.5107 33.1204 20.9926 34.0168C20.7356 34.4662 20.5696 34.9619 20.5043 35.4755C20.4389 35.9892 20.4754 36.5106 20.6117 37.0101C20.748 37.5096 20.9814 37.9774 21.2986 38.3866C21.6157 38.7958 22.0104 39.1386 22.4601 39.3952L26.2389 41.5964L19.5398 42.0587L13.1928 31.0818C12.9324 30.6318 12.5847 30.2384 12.1701 29.9247C11.7556 29.6109 11.2825 29.3832 10.7788 29.2547C10.5383 29.1904 10.2928 29.1463 10.045 29.1226C9.85441 29.1117 9.66331 29.1117 9.4727 29.1226C9.40931 29.1154 9.34531 29.1154 9.28192 29.1226C9.11572 29.148 8.95146 29.1848 8.79031 29.2327C8.7096 29.2327 8.62154 29.2327 8.53349 29.2914C8.44544 29.3501 8.28402 29.4015 8.15194 29.4602L7.84377 29.5996C7.33854 29.4129 6.80031 29.3322 6.26256 29.3625C5.72481 29.3928 5.19905 29.5335 4.71798 29.7757C4.57555 29.844 4.43823 29.9225 4.30708 30.0105C3.44134 30.5901 2.83982 31.4884 2.63364 32.5096C2.42747 33.5309 2.63337 34.5922 3.20645 35.4623L3.47794 35.8658C2.65242 35.962 1.87858 36.3172 1.26746 36.8804C0.656343 37.4437 0.23937 38.1861 0.0763776 39.001C-0.0866147 39.816 0.0127533 40.6616 0.360222 41.4166C0.70769 42.1716 1.2854 42.7971 2.01044 43.2034L12.327 49.1614C12.6131 49.5032 12.9556 49.7935 13.3396 50.0199C21.088 55.8899 44.979 56 45.9916 56H46.7253V40.6499L46.1016 40.5545C46.1016 40.5545 45.3605 40.4444 44.2232 40.3564ZM23.1645 38.1551C22.8834 37.993 22.6374 37.7765 22.4408 37.5182C22.2443 37.2599 22.1012 36.9651 22.0199 36.6509C21.933 36.3387 21.9096 36.0123 21.9512 35.6909C21.9928 35.3695 22.0985 35.0597 22.262 34.7799C22.5917 34.2145 23.1315 33.8024 23.7637 33.6334C24.396 33.4643 25.0694 33.552 25.6373 33.8774L41.002 40.6059L28.8217 41.3837L23.1645 38.1551ZM2.74419 41.9707C2.27301 41.6987 1.90502 41.2785 1.69754 40.7756C1.49006 40.2727 1.45476 39.7153 1.59712 39.1902C1.73948 38.6652 2.05152 38.2019 2.48462 37.8727C2.91772 37.5435 3.44755 37.3667 3.99157 37.37C4.14933 37.373 4.30649 37.3902 4.46117 37.4214L10.4192 46.4025L2.74419 41.9707ZM45.2651 54.5252C41.1341 54.4591 20.7945 53.9015 14.2054 48.8239L14.1173 48.7652C13.8322 48.6104 13.5823 48.398 13.3836 48.1415L13.2955 48.0241L6.69178 38.0524L4.49052 34.7065C4.12983 34.16 3.99992 33.493 4.12914 32.851C4.25835 32.2091 4.6362 31.6443 5.18025 31.2799C5.33083 31.1856 5.49063 31.1069 5.65719 31.0451L5.75257 31.0011C5.89417 30.958 6.03892 30.9261 6.18549 30.9057H6.59639C6.35138 31.2614 6.16784 31.6558 6.05341 32.0723C5.77097 33.0599 5.88687 34.1189 6.37626 35.022L13.6037 47.5398L14.8731 46.8061L7.64565 34.2883C7.36553 33.7964 7.26158 33.2236 7.35096 32.6646C7.44035 32.1056 7.71772 31.5939 8.13727 31.2138L8.45278 30.9864L8.54817 30.913C9.11647 30.5896 9.78925 30.503 10.4209 30.6719C11.0526 30.8408 11.5924 31.2517 11.9234 31.8155L18.4685 43.1593L18.696 43.5556H19.1509C21.6603 43.3941 25.241 43.152 28.6897 42.8952H28.741L44.0398 41.8239C44.5314 41.8239 44.9496 41.8899 45.2578 41.9266L45.2651 54.5252Z" fill="#C2CAD2"/>
<path d="M43.7976 1.54535e-05C43.1486 0.00212305 42.5185 0.219313 42.0061 0.617607C41.4936 1.0159 41.1276 1.57283 40.9653 2.20127H37.7955L32.4685 7.52098C29.6719 6.53999 27.0927 5.02483 24.8742 3.05976L24.3825 2.61217L23.8909 3.05976C21.7662 4.93754 19.3102 6.40313 16.6488 7.38156L11.5125 2.20127H8.31337C8.13478 1.50959 7.71006 0.906794 7.11881 0.505863C6.52757 0.104931 5.8104 -0.0666042 5.10173 0.0234085C4.39306 0.113421 3.74155 0.458802 3.26932 0.994813C2.79708 1.53082 2.53655 2.22066 2.53655 2.93503C2.53655 3.64939 2.79708 4.33923 3.26932 4.87524C3.74155 5.41125 4.39306 5.75663 5.10173 5.84664C5.8104 5.93665 6.52757 5.76512 7.11881 5.36419C7.71006 4.96326 8.13478 4.36046 8.31337 3.66878H10.8815L15.0932 7.88785L14.587 8.01259V8.58492C14.5788 10.3497 14.7385 12.1113 15.0639 13.8459H9.04712C8.86853 13.1542 8.44381 12.5514 7.85257 12.1505C7.26132 11.7496 6.54415 11.578 5.83549 11.6681C5.12682 11.7581 4.47531 12.1035 4.00307 12.6395C3.53084 13.1755 3.2703 13.8653 3.2703 14.5797C3.2703 15.294 3.53084 15.9839 4.00307 16.5199C4.47531 17.0559 5.12682 17.4013 5.83549 17.4913C6.54415 17.5813 7.26132 17.4098 7.85257 17.0088C8.44381 16.6079 8.86853 16.0051 9.04712 15.3134H15.3941C15.7212 16.5957 16.1759 17.842 16.7515 19.0336L11.4098 24.3679H9.04712C8.86853 23.6763 8.44381 23.0735 7.85257 22.6725C7.26132 22.2716 6.54415 22.1001 5.83549 22.1901C5.12682 22.2801 4.47531 22.6255 4.00307 23.1615C3.53084 23.6975 3.2703 24.3873 3.2703 25.1017C3.2703 25.816 3.53084 26.5059 4.00307 27.0419C4.47531 27.5779 5.12682 27.9233 5.83549 28.0133C6.54415 28.1033 7.26132 27.9318 7.85257 27.5309C8.44381 27.1299 8.86853 26.5271 9.04712 25.8354H11.9821L17.4412 20.3837C18.9611 23.0621 21.3057 25.1776 24.1257 26.4151L24.3825 26.5105L24.632 26.4151C27.5579 25.1031 29.9639 22.8546 31.4706 20.0241L37.2599 25.8134H40.1949C40.3735 26.5051 40.7982 27.1079 41.3895 27.5088C41.9807 27.9098 42.6979 28.0813 43.4065 27.9913C44.1152 27.9013 44.7667 27.5559 45.239 27.0199C45.7112 26.4839 45.9717 25.794 45.9717 25.0797C45.9717 24.3653 45.7112 23.6755 45.239 23.1395C44.7667 22.6035 44.1152 22.2581 43.4065 22.1681C42.6979 22.078 41.9807 22.2496 41.3895 22.6505C40.7982 23.0514 40.3735 23.6542 40.1949 24.3459H37.8689L32.175 18.6593C32.6699 17.5732 33.07 16.4464 33.371 15.2914H40.2316C40.4102 15.9831 40.8349 16.5859 41.4262 16.9868C42.0174 17.3878 42.7346 17.5593 43.4432 17.4693C44.1519 17.3793 44.8034 17.0339 45.2756 16.4979C45.7479 15.9619 46.0084 15.272 46.0084 14.5577C46.0084 13.8433 45.7479 13.1535 45.2756 12.6175C44.8034 12.0814 44.1519 11.7361 43.4432 11.646C42.7346 11.556 42.0174 11.7276 41.4262 12.1285C40.8349 12.5294 40.4102 13.1322 40.2316 13.8239H33.6939C34.0192 12.0893 34.1789 10.3277 34.1708 8.56291V7.98324H34.0828L38.4046 3.66878H40.9653C41.1027 4.20068 41.3866 4.68336 41.7847 5.06192C42.1827 5.44048 42.6791 5.69971 43.2172 5.81012C43.7554 5.92054 44.3137 5.87771 44.8287 5.68651C45.3437 5.4953 45.7947 5.1634 46.1304 4.72856C46.4661 4.29371 46.673 3.77338 46.7276 3.22675C46.7822 2.68012 46.6823 2.12914 46.4393 1.63648C46.1962 1.14382 45.8198 0.729263 45.3528 0.439962C44.8858 0.150662 44.347 -0.0017669 43.7976 1.54535e-05ZM5.48108 4.40253C5.19084 4.40253 4.90711 4.31646 4.66578 4.15521C4.42445 3.99396 4.23636 3.76477 4.12529 3.49662C4.01421 3.22846 3.98515 2.9334 4.04178 2.64873C4.0984 2.36406 4.23817 2.10258 4.4434 1.89734C4.64864 1.69211 4.91012 1.55234 5.19479 1.49572C5.47946 1.43909 5.77452 1.46816 6.04267 1.57923C6.31083 1.6903 6.54002 1.87839 6.70127 2.11972C6.86252 2.36105 6.94859 2.64478 6.94859 2.93503C6.94859 3.32423 6.79398 3.6975 6.51877 3.97271C6.24356 4.24792 5.87029 4.40253 5.48108 4.40253ZM6.21484 16.0472C5.92459 16.0472 5.64086 15.9611 5.39953 15.7999C5.15821 15.6386 4.97011 15.4094 4.85904 15.1413C4.74797 14.8731 4.71891 14.578 4.77553 14.2934C4.83215 14.0087 4.97192 13.7472 5.17715 13.542C5.38239 13.3368 5.64387 13.197 5.92854 13.1404C6.21321 13.0837 6.50827 13.1128 6.77643 13.2239C7.04458 13.335 7.27377 13.523 7.43502 13.7644C7.59627 14.0057 7.68234 14.2894 7.68234 14.5797C7.68234 14.9689 7.52773 15.3421 7.25252 15.6174C6.97731 15.8926 6.60404 16.0472 6.21484 16.0472ZM6.21484 26.5692C5.92459 26.5692 5.64086 26.4831 5.39953 26.3219C5.15821 26.1606 4.97011 25.9314 4.85904 25.6633C4.74797 25.3951 4.71891 25.1001 4.77553 24.8154C4.83215 24.5307 4.97192 24.2692 5.17715 24.064C5.38239 23.8588 5.64387 23.719 5.92854 23.6624C6.21321 23.6058 6.50827 23.6348 6.77643 23.7459C7.04458 23.857 7.27377 24.0451 7.43502 24.2864C7.59627 24.5277 7.68234 24.8114 7.68234 25.1017C7.68234 25.4909 7.52773 25.8642 7.25252 26.1394C6.97731 26.4146 6.60404 26.5692 6.21484 26.5692ZM43.0639 23.6342C43.3541 23.6342 43.6379 23.7203 43.8792 23.8815C44.1205 24.0428 44.3086 24.2719 44.4197 24.5401C44.5307 24.8082 44.5598 25.1033 44.5032 25.388C44.4466 25.6727 44.3068 25.9341 44.1016 26.1394C43.8963 26.3446 43.6348 26.4844 43.3502 26.541C43.0655 26.5976 42.7704 26.5686 42.5023 26.4575C42.2341 26.3464 42.0049 26.1583 41.8437 25.917C41.6824 25.6757 41.5964 25.3919 41.5964 25.1017C41.5964 24.7125 41.751 24.3392 42.0262 24.064C42.3014 23.7888 42.6747 23.6342 43.0639 23.6342ZM43.0639 13.1122C43.3541 13.1122 43.6379 13.1982 43.8792 13.3595C44.1205 13.5207 44.3086 13.7499 44.4197 14.0181C44.5307 14.2862 44.5598 14.5813 44.5032 14.866C44.4466 15.1506 44.3068 15.4121 44.1016 15.6174C43.8963 15.8226 43.6348 15.9624 43.3502 16.019C43.0655 16.0756 42.7704 16.0465 42.5023 15.9355C42.2341 15.8244 42.0049 15.6363 41.8437 15.395C41.6824 15.1536 41.5964 14.8699 41.5964 14.5797C41.5964 14.1905 41.751 13.8172 42.0262 13.542C42.3014 13.2668 42.6747 13.1122 43.0639 13.1122ZM24.3825 24.9476C22.9517 24.3019 16.2672 20.6698 16.0618 9.13523L16.2819 9.0692L16.3846 9.16458L16.5828 8.97381C19.4321 8.0002 22.0766 6.50754 24.3825 4.57129C26.8258 6.62963 29.6544 8.18108 32.7033 9.13523C32.4905 20.6845 25.806 24.3092 24.3825 24.9476ZM43.7976 4.40253C43.5074 4.40253 43.2237 4.31646 42.9823 4.15521C42.741 3.99396 42.5529 3.76477 42.4418 3.49662C42.3308 3.22846 42.3017 2.9334 42.3583 2.64873C42.415 2.36406 42.5547 2.10258 42.7599 1.89734C42.9652 1.69211 43.2267 1.55234 43.5113 1.49572C43.796 1.43909 44.0911 1.46816 44.3592 1.57923C44.6274 1.6903 44.8566 1.87839 45.0178 2.11972C45.1791 2.36105 45.2651 2.64478 45.2651 2.93503C45.2651 3.32423 45.1105 3.6975 44.8353 3.97271C44.5601 4.24792 44.1868 4.40253 43.7976 4.40253Z" fill="#C2CAD2"/>
</svg>
