<svg width="56" height="43" viewBox="0 0 56 43" fill="none" xmlns="http://www.w3.org/2000/svg">
<path d="M55.3703 0C54.4384 0 32.5504 0.0692654 26.6943 5.66719L15.7441 12.2222C15.0046 12.6948 14.4778 13.4363 14.275 14.2902C14.0722 15.144 14.2093 16.0432 14.6573 16.7979C15.1053 17.5525 15.8292 18.1033 16.6759 18.3341C17.5226 18.5648 18.4258 18.4573 19.1948 18.0343L25.5609 14.2561C25.605 15.1287 25.9914 15.9486 26.6362 16.538C27.2811 17.1275 28.1323 17.4388 29.0053 17.4046H29.1564C29.7311 17.4054 30.2966 17.2602 30.7999 16.9827L34.0995 15.2951C33.8679 15.5953 33.6871 15.9314 33.5642 16.29C33.335 17.155 33.4573 18.0755 33.9044 18.8506C34.3516 19.6257 35.0872 20.1925 35.9507 20.4271C36.2408 20.5019 36.5391 20.54 36.8386 20.5404C37.414 20.5404 37.9798 20.393 38.4821 20.1122L53.8465 13.3935C54.8288 13.3305 55.4396 13.2423 55.4648 13.236L56 13.1542V0H55.3703ZM30.1828 15.8429C29.8944 15.9949 29.5775 16.0852 29.2524 16.1081C28.9272 16.1309 28.6008 16.0858 28.294 15.9757C27.9872 15.8655 27.7067 15.6927 27.4703 15.4682C27.2339 15.2437 27.0469 14.9724 26.921 14.6717C26.792 14.2618 26.792 13.8222 26.921 13.4123L29.6854 11.7626L31.0581 11.8507L30.4158 12.4678C30.312 12.5763 30.2503 12.7184 30.242 12.8683C30.2337 13.0182 30.2793 13.1662 30.3705 13.2855C30.4617 13.4049 30.5925 13.4877 30.7394 13.519C30.8862 13.5503 31.0395 13.5281 31.1714 13.4564L33.6902 12.0459L37.1346 12.2789L30.1828 15.8429ZM54.7406 12.0648C54.4699 12.0648 54.1109 12.1278 53.6639 12.153H53.5505L37.972 18.9662L37.9091 18.9977C37.6687 19.1374 37.403 19.2283 37.1273 19.265C36.8517 19.3017 36.5715 19.2836 36.3028 19.2116C36.0342 19.1396 35.7825 19.0152 35.5621 18.8456C35.3418 18.676 35.1571 18.4644 35.0188 18.2232C34.7399 17.7368 34.6648 17.1598 34.8099 16.6183C34.9551 16.0767 35.3086 15.6146 35.7933 15.3329L42.5688 11.4099L41.7502 11.3344L40.5601 11.2462L35.68 10.9062L32.1978 10.7047L29.5405 10.5347H29.3453L28.3756 11.114L25.882 12.5938L18.5462 17.0016C18.3074 17.1451 18.0422 17.2391 17.7664 17.278C17.4905 17.317 17.2097 17.3 16.9405 17.2283C16.6709 17.1604 16.4175 17.0397 16.1948 16.8733C15.9722 16.7068 15.7847 16.4979 15.6433 16.2585C15.3588 15.7742 15.2773 15.197 15.4166 14.6528C15.4845 14.3833 15.6052 14.1298 15.7716 13.9072C15.9381 13.6845 16.147 13.4971 16.3864 13.3557L27.4059 6.76914L27.5192 6.68099C28.4253 5.87029 29.4706 5.23028 30.6047 4.79192C31.9242 4.24769 33.2843 3.80766 34.6725 3.47588C42.0839 1.56163 52.1463 1.29086 54.7406 1.25938V12.0648Z" fill="#C2CAD2"/>
<path d="M35.8689 30.4391C36.0221 31.0327 36.3866 31.55 36.894 31.8941C37.4014 32.2381 38.0169 32.3853 38.625 32.3081C39.2332 32.2308 39.7923 31.9344 40.1976 31.4745C40.6028 31.0145 40.8264 30.4225 40.8264 29.8094C40.8264 29.1964 40.6028 28.6044 40.1976 28.1444C39.7923 27.6844 39.2332 27.388 38.625 27.3107C38.0169 27.2335 37.4014 27.3807 36.894 27.7248C36.3866 28.0688 36.0221 28.5861 35.8689 29.1797H27.0533C27.0533 29.1419 27.0533 29.1042 27.0533 29.0664C27.05 27.7026 26.7514 26.3557 26.178 25.1182H29.5405C29.6938 25.7118 30.0583 26.2291 30.5657 26.5732C31.0731 26.9173 31.6885 27.0645 32.2967 26.9872C32.9048 26.91 33.4639 26.6136 33.8692 26.1536C34.2745 25.6936 34.498 25.1016 34.498 24.4886C34.498 23.8755 34.2745 23.2835 33.8692 22.8235C33.4639 22.3635 32.9048 22.0671 32.2967 21.9899C31.6885 21.9126 31.0731 22.0598 30.5657 22.4039C30.0583 22.748 29.6938 23.2653 29.5405 23.8589H25.5105C24.6489 22.56 23.4793 21.4945 22.1059 20.7574C20.7325 20.0204 19.1981 19.6346 17.6394 19.6346C16.0808 19.6346 14.5463 20.0204 13.1729 20.7574C11.7996 21.4945 10.6299 22.56 9.76833 23.8589H5.04568V20.7797C5.63926 20.6264 6.15656 20.2619 6.50063 19.7546C6.8447 19.2472 6.99191 18.6317 6.91467 18.0236C6.83742 17.4154 6.54102 16.8563 6.08103 16.451C5.62104 16.0458 5.02904 15.8222 4.41599 15.8222C3.80294 15.8222 3.21094 16.0458 2.75095 16.451C2.29096 16.8563 1.99456 17.4154 1.91731 18.0236C1.84007 18.6317 1.98727 19.2472 2.33134 19.7546C2.67541 20.2619 3.19272 20.6264 3.7863 20.7797V25.1119H9.06938C8.49197 26.348 8.19317 27.6958 8.19411 29.0601C8.19411 29.0979 8.19411 29.1357 8.19411 29.1734H4.95752C4.80426 28.5799 4.43977 28.0625 3.93238 27.7185C3.42499 27.3744 2.80954 27.2272 2.20138 27.3044C1.59322 27.3817 1.0341 27.6781 0.628845 28.1381C0.223585 28.5981 0 29.1901 0 29.8031C0 30.4162 0.223585 31.0082 0.628845 31.4682C1.0341 31.9282 1.59322 32.2245 2.20138 32.3018C2.80954 32.379 3.42499 32.2318 3.93238 31.8878C4.43977 31.5437 4.80426 31.0264 4.95752 30.4328H8.30746C8.50013 31.7016 8.95243 32.917 9.6361 34.0031H3.96891V37.6049C3.37533 37.7582 2.85802 38.1227 2.51395 38.6301C2.16988 39.1375 2.02268 39.7529 2.09992 40.3611C2.17717 40.9693 2.47357 41.5284 2.93356 41.9336C3.39355 42.3389 3.98555 42.5625 4.5986 42.5625C5.21165 42.5625 5.80365 42.3389 6.26364 41.9336C6.72363 41.5284 7.02003 40.9693 7.09727 40.3611C7.17452 39.7529 7.02731 39.1375 6.68324 38.6301C6.33917 38.1227 5.82187 37.7582 5.22829 37.6049V35.2625H10.5303C11.4128 36.2824 12.5044 37.1005 13.7311 37.6612C14.9578 38.2219 16.2907 38.5121 17.6394 38.5121C18.9882 38.5121 20.3211 38.2219 21.5478 37.6612C22.7744 37.1005 23.8661 36.2824 24.7486 35.2625H28.5267V38.4109H33.6902C33.8789 38.9941 34.2739 39.4884 34.801 39.8012C35.3281 40.1141 35.9512 40.2239 36.5535 40.1103C37.1558 39.9966 37.696 39.6673 38.0729 39.1838C38.4498 38.7005 38.6374 38.0962 38.6007 37.4844C38.564 36.8725 38.3054 36.2951 37.8735 35.8602C37.4415 35.4253 36.8658 35.1629 36.2542 35.1221C35.6426 35.0812 35.0372 35.2648 34.5512 35.6384C34.0653 36.0121 33.7323 36.55 33.6146 37.1516H29.7861V34.0031H25.6742C26.346 32.9164 26.7875 31.7034 26.9714 30.4391H35.8689ZM38.2995 28.55C38.5486 28.55 38.792 28.6239 38.9992 28.7623C39.2063 28.9007 39.3677 29.0974 39.463 29.3275C39.5583 29.5576 39.5832 29.8108 39.5347 30.0551C39.4861 30.2994 39.3661 30.5238 39.19 30.6999C39.0139 30.8761 38.7895 30.996 38.5452 31.0446C38.3009 31.0932 38.0477 31.0682 37.8175 30.9729C37.5874 30.8776 37.3907 30.7162 37.2523 30.5091C37.114 30.302 37.0401 30.0585 37.0401 29.8094C37.0401 29.4754 37.1728 29.1551 37.409 28.9189C37.6451 28.6827 37.9655 28.55 38.2995 28.55ZM32.0026 23.2292C32.2517 23.2292 32.4952 23.303 32.7023 23.4414C32.9094 23.5798 33.0708 23.7765 33.1661 24.0066C33.2614 24.2367 33.2864 24.49 33.2378 24.7342C33.1892 24.9785 33.0692 25.2029 32.8931 25.3791C32.717 25.5552 32.4926 25.6751 32.2483 25.7237C32.004 25.7723 31.7508 25.7474 31.5207 25.6521C31.2905 25.5567 31.0939 25.3953 30.9555 25.1882C30.8171 24.9811 30.7432 24.7376 30.7432 24.4886C30.7432 24.3232 30.7758 24.1594 30.8391 24.0066C30.9024 23.8538 30.9951 23.715 31.1121 23.598C31.229 23.4811 31.3679 23.3883 31.5207 23.325C31.6735 23.2618 31.8372 23.2292 32.0026 23.2292ZM3.15661 18.3617C3.15661 18.1126 3.23047 17.8691 3.36886 17.662C3.50724 17.4549 3.70393 17.2935 3.93405 17.1982C4.16417 17.1029 4.41739 17.0779 4.66168 17.1265C4.90598 17.1751 5.13037 17.2951 5.3065 17.4712C5.48263 17.6473 5.60257 17.8717 5.65117 18.116C5.69976 18.3603 5.67482 18.6135 5.5795 18.8436C5.48418 19.0738 5.32276 19.2704 5.11566 19.4088C4.90856 19.5472 4.66507 19.6211 4.41599 19.6211C4.08198 19.6211 3.76166 19.4884 3.52548 19.2522C3.2893 19.016 3.15661 18.6957 3.15661 18.3617ZM2.52693 31.0688C2.27785 31.0688 2.03436 30.9949 1.82725 30.8565C1.62015 30.7182 1.45873 30.5215 1.36341 30.2914C1.2681 30.0612 1.24316 29.808 1.29175 29.5637C1.34034 29.3194 1.46029 29.095 1.63641 28.9189C1.81254 28.7428 2.03694 28.6228 2.28123 28.5742C2.52553 28.5257 2.77875 28.5506 3.00887 28.6459C3.23899 28.7412 3.43568 28.9026 3.57406 29.1097C3.71244 29.3168 3.7863 29.5603 3.7863 29.8094C3.7863 30.1434 3.65362 30.4637 3.41744 30.6999C3.18126 30.9361 2.86093 31.0688 2.52693 31.0688ZM5.85797 40.0355C5.85797 40.2846 5.78411 40.5281 5.64573 40.7352C5.50735 40.9423 5.31066 41.1037 5.08054 41.1991C4.85042 41.2944 4.5972 41.3193 4.35291 41.2707C4.10861 41.2221 3.88421 41.1022 3.70809 40.9261C3.53196 40.7499 3.41201 40.5255 3.36342 40.2812C3.31483 40.0369 3.33977 39.7837 3.43509 39.5536C3.53041 39.3235 3.69182 39.1268 3.89893 38.9884C4.10603 38.85 4.34952 38.7762 4.5986 38.7762C4.93261 38.7762 5.25293 38.9089 5.48911 39.145C5.72529 39.3812 5.85797 39.7015 5.85797 40.0355ZM36.083 36.4022C36.3321 36.4022 36.5755 36.4761 36.7826 36.6145C36.9898 36.7529 37.1512 36.9496 37.2465 37.1797C37.3418 37.4098 37.3668 37.663 37.3182 37.9073C37.2696 38.1516 37.1496 38.376 36.9735 38.5521C36.7974 38.7283 36.573 38.8482 36.3287 38.8968C36.0844 38.9454 35.8312 38.9205 35.601 38.8251C35.3709 38.7298 35.1742 38.5684 35.0358 38.3613C34.8975 38.1542 34.8236 37.9107 34.8236 37.6616C34.8236 37.3276 34.9563 37.0073 35.1925 36.7711C35.4286 36.5349 35.749 36.4022 36.083 36.4022ZM17.6394 37.2523C16.0204 37.2523 14.4377 36.7722 13.0916 35.8727C11.7454 34.9733 10.6962 33.6948 10.0766 32.199C9.45703 30.7032 9.29492 29.0573 9.61078 27.4694C9.92664 25.8815 10.7063 24.4229 11.8511 23.2781C12.9959 22.1332 14.4545 21.3536 16.0424 21.0377C17.6304 20.7219 19.2763 20.884 20.7721 21.5036C22.2678 22.1231 23.5463 23.1723 24.4458 24.5185C25.3453 25.8647 25.8254 27.4474 25.8254 29.0664C25.8254 31.2374 24.9629 33.3196 23.4278 34.8547C21.8926 36.3899 19.8105 37.2523 17.6394 37.2523Z" fill="#C2CAD2"/>
<path d="M12.8475 32.1141C12.7908 32.0233 12.7119 31.9485 12.6182 31.8967C12.5246 31.845 12.4193 31.8179 12.3123 31.8181C12.1934 31.8174 12.0771 31.8525 11.9785 31.9189C11.8492 32.0074 11.7574 32.141 11.7213 32.2936C11.6852 32.4461 11.7073 32.6066 11.7833 32.7438C11.8337 32.8256 11.8967 32.9138 11.9534 32.9956C12.0487 33.1324 12.1944 33.2258 12.3584 33.2553C12.5225 33.2848 12.6916 33.248 12.8286 33.1531C12.9654 33.0577 13.0587 32.912 13.0883 32.748C13.1178 32.5839 13.081 32.4148 12.986 32.2778C12.9357 32.2274 12.8916 32.1582 12.8475 32.1141Z" fill="#C2CAD2"/>
<path d="M12.0037 28.4745V28.2604C12.0394 28.0976 12.009 27.9273 11.9193 27.7868C11.8296 27.6464 11.6879 27.5472 11.5252 27.5111H11.437C11.2851 27.5093 11.1378 27.5626 11.0221 27.6609C10.9064 27.7593 10.8301 27.8961 10.8073 28.0463C10.7882 28.1482 10.7755 28.2513 10.7695 28.3548C10.7537 28.52 10.8037 28.6847 10.9086 28.8133C11.0135 28.9418 11.165 29.0237 11.33 29.0412H11.3929C11.5463 29.0374 11.693 28.9777 11.8055 28.8733C11.9179 28.769 11.9884 28.6271 12.0037 28.4745Z" fill="#C2CAD2"/>
<path d="M21.2538 23.1599C21.1125 23.0731 20.9426 23.0456 20.7811 23.0833C20.6195 23.121 20.4794 23.221 20.3912 23.3614C20.3472 23.4317 20.3175 23.5099 20.3039 23.5916C20.2902 23.6734 20.2928 23.757 20.3115 23.8377C20.3302 23.9185 20.3647 23.9947 20.413 24.0621C20.4612 24.1295 20.5223 24.1867 20.5927 24.2304L20.6745 24.2808L20.7816 24.35C20.8858 24.4201 21.0086 24.4574 21.1342 24.4571C21.2373 24.4572 21.3389 24.432 21.4301 24.3837C21.5212 24.3354 21.5991 24.2655 21.6568 24.18C21.7055 24.1127 21.7403 24.0365 21.7594 23.9556C21.7784 23.8748 21.7813 23.791 21.7678 23.7091C21.7544 23.6272 21.7248 23.5487 21.6809 23.4782C21.637 23.4077 21.5796 23.3466 21.512 23.2984L21.2538 23.1599Z" fill="#C2CAD2"/>
<path d="M23.6844 30.9429C23.6073 30.9081 23.5234 30.8909 23.4389 30.8925C23.3152 30.8926 23.1944 30.9291 23.0914 30.9974C22.9884 31.0657 22.9077 31.1628 22.8595 31.2766L22.784 31.4403V31.4844C22.7126 31.6348 22.7037 31.8073 22.7591 31.9642C22.8146 32.1211 22.9299 32.2497 23.0799 32.3219C23.1644 32.3628 23.2569 32.3843 23.3507 32.3848C23.4694 32.3845 23.5856 32.3506 23.6858 32.2871C23.7861 32.2236 23.8664 32.1331 23.9174 32.0259L24.0497 31.7489C24.107 31.5935 24.1008 31.4218 24.0325 31.2709C23.9641 31.12 23.8391 31.0022 23.6844 30.9429Z" fill="#C2CAD2"/>
<path d="M13.5276 23.6637C13.3767 23.6654 13.2314 23.7213 13.1183 23.8211L12.8916 24.0226C12.7697 24.137 12.6982 24.2951 12.6929 24.4622C12.6876 24.6293 12.7489 24.7917 12.8632 24.9136C12.9776 25.0355 13.1358 25.107 13.3029 25.1123C13.47 25.1176 13.6323 25.0563 13.7543 24.9419L13.9432 24.7719C14.0414 24.6879 14.1114 24.5757 14.1437 24.4505C14.176 24.3253 14.1689 24.1933 14.1235 24.0722C14.0782 23.9512 13.9966 23.847 13.89 23.774C13.7834 23.7009 13.6568 23.6624 13.5276 23.6637Z" fill="#C2CAD2"/>
<path d="M23.0359 27.3284L23.0925 27.5236C23.1294 27.661 23.2118 27.7819 23.3261 27.8665C23.4404 27.9511 23.5801 27.9945 23.7222 27.9896C23.7764 27.9983 23.8317 27.9983 23.8859 27.9896C23.9658 27.9678 24.0405 27.9304 24.1059 27.8796C24.1712 27.8288 24.226 27.7657 24.2669 27.6937C24.3078 27.6218 24.3342 27.5425 24.3445 27.4604C24.3547 27.3783 24.3487 27.2949 24.3267 27.2151C24.3267 27.1207 24.27 27.0199 24.2386 26.9191C24.1959 26.7876 24.1111 26.6738 23.9973 26.5953C23.8835 26.5168 23.747 26.4779 23.6089 26.4847C23.5441 26.4761 23.4785 26.4761 23.4137 26.4847C23.3314 26.5124 23.2558 26.5569 23.1915 26.6153C23.1273 26.6737 23.0758 26.7447 23.0403 26.824C23.0048 26.9032 22.9861 26.9889 22.9853 27.0757C22.9846 27.1626 23.0018 27.2486 23.0359 27.3284Z" fill="#C2CAD2"/>
<path d="M20.4289 34.0787C20.333 34.0783 20.2382 34.0998 20.1519 34.1417L19.9189 34.2487C19.8432 34.2822 19.7748 34.3302 19.7177 34.3901C19.6606 34.45 19.6159 34.5205 19.586 34.5977C19.5562 34.6749 19.5419 34.7573 19.5439 34.84C19.5459 34.9227 19.5642 35.0042 19.5978 35.0799C19.6469 35.1925 19.728 35.2883 19.8309 35.3555C19.9338 35.4226 20.0542 35.4581 20.1771 35.4577C20.264 35.4564 20.3498 35.4371 20.4289 35.401L20.706 35.2751C20.8345 35.2129 20.938 35.1089 20.9996 34.9801C21.0612 34.8513 21.0772 34.7054 21.045 34.5663C21.0128 34.4272 20.9343 34.3032 20.8224 34.2146C20.7104 34.126 20.5717 34.0781 20.4289 34.0787Z" fill="#C2CAD2"/>
<path d="M16.2226 34.551L16.0085 34.488C15.9459 34.4785 15.8822 34.4785 15.8196 34.488C15.6799 34.482 15.5422 34.5227 15.4282 34.6037C15.3142 34.6846 15.2304 34.8012 15.1899 34.9351C15.1408 35.0946 15.1569 35.2671 15.2348 35.4146C15.3128 35.5622 15.4461 35.6729 15.6055 35.7222L15.9015 35.804H16.0589C16.2259 35.8249 16.3944 35.7786 16.5272 35.6753C16.6601 35.5719 16.7464 35.4201 16.7673 35.2531C16.7882 35.0861 16.7419 34.9176 16.6385 34.7848C16.5352 34.6519 16.3833 34.5655 16.2163 34.5447L16.2226 34.551Z" fill="#C2CAD2"/>
<path d="M17.6394 22.1398H17.3309C17.1639 22.1398 17.0037 22.2062 16.8856 22.3243C16.7675 22.4423 16.7012 22.6025 16.7012 22.7695C16.7012 22.9365 16.7675 23.0967 16.8856 23.2148C17.0037 23.3329 17.1639 23.3992 17.3309 23.3992H17.6142C17.7812 23.3992 17.9414 23.3329 18.0595 23.2148C18.1776 23.0967 18.2439 22.9365 18.2439 22.7695C18.2439 22.6025 18.1776 22.4423 18.0595 22.3243C17.9414 22.2062 17.7812 22.1398 17.6142 22.1398H17.6394Z" fill="#C2CAD2"/>
</svg>
