<svg width="56" height="56" viewBox="0 0 56 56" fill="none" xmlns="http://www.w3.org/2000/svg">
<path d="M28 0C22.4621 0 17.0486 1.64217 12.444 4.71885C7.83947 7.79553 4.25064 12.1685 2.13138 17.2849C0.0121316 22.4012 -0.542361 28.0311 0.538025 33.4625C1.61841 38.894 4.28515 43.8831 8.20102 47.799C12.1169 51.7148 17.106 54.3816 22.5375 55.462C27.9689 56.5424 33.5988 55.9879 38.7151 53.8686C43.8315 51.7494 48.2045 48.1605 51.2811 43.556C54.3578 38.9514 56 33.5379 56 28C55.9914 20.5766 53.0387 13.4596 47.7895 8.21048C42.5404 2.96133 35.4234 0.00857952 28 0ZM28 54.3792C22.7827 54.3792 17.6826 52.832 13.3445 49.9335C9.0065 47.0349 5.62542 42.915 3.62884 38.0949C1.63227 33.2747 1.10987 27.9707 2.12772 22.8537C3.14557 17.7366 5.65794 13.0363 9.34713 9.34711C13.0363 5.65792 17.7366 3.14555 22.8537 2.12771C27.9707 1.10986 33.2747 1.63226 38.0949 3.62883C42.915 5.62541 47.0349 9.00649 49.9335 13.3445C52.832 17.6826 54.3792 22.7827 54.3792 28C54.3792 34.9962 51.5999 41.7058 46.6529 46.6529C41.7058 51.5999 34.9962 54.3792 28 54.3792Z" fill="#C2CAD2"/>
<path d="M7.95833 17.5375C7.95833 17.4645 8.03127 17.3916 8.07179 17.3187C8.12282 17.2246 8.15471 17.1213 8.16562 17.0149C8.17653 16.9084 8.16624 16.8008 8.13535 16.6983C8.10446 16.5959 8.05357 16.5005 7.98563 16.4178C7.91769 16.3351 7.83404 16.2667 7.73952 16.2165C7.55125 16.1154 7.33067 16.0927 7.12576 16.1534C6.92086 16.2141 6.74823 16.3533 6.64545 16.5407L6.48337 16.8486C6.38348 17.0389 6.36323 17.261 6.42705 17.4661C6.49088 17.6713 6.63357 17.8427 6.82374 17.9427C6.93838 18.0046 7.06626 18.038 7.19654 18.0399C7.35929 18.0424 7.519 17.9957 7.65488 17.9061C7.79076 17.8165 7.8965 17.688 7.95833 17.5375Z" fill="#C2CAD2"/>
<path d="M12.2941 44.257H12.1968C12.1215 44.181 12.0319 44.1208 11.9331 44.0796C11.8343 44.0385 11.7284 44.0173 11.6214 44.0173C11.5144 44.0173 11.4085 44.0385 11.3098 44.0796C11.211 44.1208 11.1214 44.181 11.046 44.257C10.9701 44.3323 10.9098 44.422 10.8686 44.5207C10.8275 44.6195 10.8063 44.7254 10.8063 44.8324C10.8063 44.9394 10.8275 45.0453 10.8686 45.1441C10.9098 45.2428 10.9701 45.3325 11.046 45.4078L11.2973 45.6428C11.4475 45.7876 11.6478 45.8689 11.8564 45.8697C11.9656 45.8693 12.0736 45.8469 12.1738 45.8037C12.2741 45.7605 12.3646 45.6975 12.4399 45.6185C12.5909 45.4667 12.6756 45.2613 12.6756 45.0472C12.6756 44.8331 12.5909 44.6277 12.4399 44.4758L12.2941 44.257Z" fill="#C2CAD2"/>
<path d="M6.96962 36.3149L6.88858 36.1123C6.82981 35.96 6.72641 35.829 6.59192 35.7364C6.45744 35.6439 6.29814 35.5941 6.13489 35.5936C6.03482 35.5928 5.93559 35.6121 5.84314 35.6503C5.74362 35.6881 5.65252 35.7451 5.57504 35.8181C5.49755 35.8911 5.43521 35.9786 5.39156 36.0757C5.34791 36.1728 5.32381 36.2775 5.32064 36.3839C5.31748 36.4903 5.3353 36.5963 5.37309 36.6958C5.42172 36.8011 5.46224 36.9146 5.50276 37.02C5.56282 37.1707 5.66676 37.3 5.80114 37.3911C5.93552 37.4821 6.09414 37.5307 6.25645 37.5305C6.35875 37.5274 6.45993 37.5082 6.55631 37.4738C6.65534 37.4345 6.74566 37.3761 6.82208 37.3018C6.89851 37.2276 6.95955 37.139 7.0017 37.0411C7.04385 36.9433 7.06629 36.8381 7.06774 36.7315C7.06919 36.625 7.04962 36.5192 7.01014 36.4202L6.96962 36.3149Z" fill="#C2CAD2"/>
<path d="M5.68916 31.6955L5.64053 31.3794C5.61123 31.1862 5.51307 31.01 5.36414 30.8835C5.21521 30.7569 5.02556 30.6884 4.83011 30.6906H4.70855C4.60313 30.7064 4.50187 30.7429 4.41057 30.7979C4.31926 30.8529 4.23972 30.9255 4.17648 31.0113C4.11324 31.0971 4.06756 31.1945 4.04205 31.2981C4.01653 31.4016 4.01169 31.5091 4.0278 31.6145C4.0278 31.7279 4.0278 31.8414 4.08453 31.9548C4.11559 32.1466 4.21451 32.3208 4.36326 32.4458C4.51201 32.5707 4.7007 32.6381 4.89495 32.6356H5.03272C5.13757 32.617 5.23773 32.5779 5.32747 32.5206C5.41722 32.4633 5.49479 32.3889 5.55575 32.3016C5.61671 32.2143 5.65988 32.1158 5.68277 32.0118C5.70566 31.9078 5.70783 31.8003 5.68916 31.6955Z" fill="#C2CAD2"/>
<path d="M13.923 8.48509C13.7449 8.48332 13.5712 8.54029 13.4287 8.64718L13.1531 8.85788C12.9849 8.99043 12.876 9.18416 12.8502 9.39676C12.8244 9.60935 12.8837 9.82352 13.0153 9.99247C13.0908 10.0905 13.1878 10.17 13.2988 10.2248C13.4098 10.2796 13.5318 10.3082 13.6556 10.3085C13.8346 10.308 14.0085 10.2481 14.1499 10.1383L14.3525 9.97626H14.4093C14.58 9.8461 14.6921 9.65353 14.7209 9.44082C14.7498 9.2281 14.6931 9.01263 14.5632 8.84168C14.492 8.73613 14.397 8.64884 14.2857 8.58688C14.1745 8.52493 14.0502 8.49006 13.923 8.48509Z" fill="#C2CAD2"/>
<path d="M9.13344 40.4561L9.09292 40.3994C9.01951 40.2879 8.91969 40.1963 8.80234 40.1327C8.685 40.0691 8.55375 40.0354 8.42027 40.0347C8.26094 40.0329 8.10505 40.0811 7.97454 40.1725C7.80003 40.2898 7.67795 40.4704 7.6341 40.676C7.59024 40.8817 7.62804 41.0964 7.73952 41.2747L7.93402 41.5664C8.00836 41.6764 8.10858 41.7664 8.22587 41.8286C8.34315 41.8908 8.47392 41.9232 8.60667 41.923C8.7539 41.9232 8.8984 41.8833 9.02467 41.8076C9.15094 41.7319 9.25419 41.6232 9.32335 41.4932C9.3925 41.3633 9.42494 41.2169 9.41718 41.0699C9.40943 40.9229 9.36176 40.7807 9.27932 40.6587L9.13344 40.4561Z" fill="#C2CAD2"/>
<path d="M10.8272 13.3071V13.2666C10.8964 13.1857 10.949 13.092 10.9819 12.9908C11.0149 12.8896 11.0276 12.7829 11.0193 12.6768C11.011 12.5706 10.9819 12.4672 10.9337 12.3723C10.8854 12.2775 10.819 12.193 10.7381 12.1239C10.5913 11.9983 10.4045 11.9294 10.2113 11.9294C10.0949 11.9284 9.97958 11.9524 9.8733 12C9.76701 12.0475 9.67222 12.1174 9.59538 12.2049L9.37656 12.4724C9.30786 12.5537 9.25587 12.6479 9.22357 12.7494C9.19127 12.8509 9.17929 12.9577 9.18832 13.0639C9.19735 13.17 9.22722 13.2733 9.2762 13.3679C9.32519 13.4624 9.39234 13.5464 9.47381 13.615C9.55571 13.6833 9.65026 13.7347 9.75205 13.7663C9.85384 13.798 9.96087 13.8092 10.067 13.7994C10.1732 13.7897 10.2763 13.759 10.3706 13.7093C10.4649 13.6596 10.5485 13.5918 10.6165 13.5097L10.6732 13.4449L10.7381 13.3719L10.8272 13.3071Z" fill="#C2CAD2"/>
<path d="M38.0735 7.73951L38.2032 7.80434L38.341 7.86917C38.4574 7.92532 38.5845 7.95573 38.7137 7.95832C38.8959 7.95906 39.073 7.8984 39.2165 7.78614C39.3599 7.67388 39.4614 7.51655 39.5045 7.33956C39.5476 7.16256 39.5297 6.97621 39.4539 6.81058C39.3781 6.64494 39.2487 6.50968 39.0865 6.42663L38.7786 6.27265C38.6667 6.21197 38.5411 6.18126 38.4139 6.1835C38.2251 6.17801 38.0403 6.23865 37.8914 6.35493C37.7426 6.47122 37.639 6.63586 37.5986 6.82039C37.5583 7.00493 37.5836 7.19776 37.6703 7.36558C37.757 7.5334 37.8997 7.66566 38.0735 7.73951Z" fill="#C2CAD2"/>
<path d="M33.5271 6.07004L33.8431 6.15108C33.9129 6.16287 33.9841 6.16287 34.0538 6.15108C34.2379 6.15691 34.4184 6.09988 34.5657 5.9894C34.713 5.87893 34.8183 5.72158 34.8643 5.54327C34.9189 5.33697 34.89 5.11743 34.7838 4.93232C34.6776 4.7472 34.5027 4.61146 34.297 4.55456L33.9242 4.49783C33.7157 4.44517 33.4948 4.47749 33.3102 4.58767C33.1255 4.69786 32.9922 4.87689 32.9395 5.08538C32.8869 5.29387 32.9192 5.51474 33.0294 5.6994C33.1395 5.88406 33.3186 6.01738 33.5271 6.07004Z" fill="#C2CAD2"/>
<path d="M49.9219 22.4405V22.6998C49.9662 22.8797 50.0708 23.0389 50.2183 23.1509C50.3658 23.263 50.5471 23.3212 50.7323 23.3158C50.7942 23.3235 50.8568 23.3235 50.9187 23.3158C51.0226 23.291 51.1206 23.246 51.2071 23.1833C51.2935 23.1205 51.3667 23.0413 51.4225 22.9502C51.4782 22.859 51.5154 22.7578 51.5318 22.6522C51.5483 22.5467 51.5437 22.4389 51.5184 22.3352C51.5184 22.2217 51.4616 22.1082 51.4373 22.0029C51.393 21.8231 51.2883 21.6639 51.1409 21.5518C50.9934 21.4398 50.812 21.3816 50.6269 21.387C50.5596 21.3791 50.4916 21.3791 50.4243 21.387C50.3209 21.4214 50.2256 21.4764 50.1439 21.5485C50.0623 21.6207 49.996 21.7086 49.9491 21.8069C49.9022 21.9053 49.8756 22.0121 49.8709 22.1209C49.8663 22.2298 49.8836 22.3385 49.9219 22.4405Z" fill="#C2CAD2"/>
<path d="M4.6113 27.6191C4.82624 27.6191 5.03237 27.5337 5.18435 27.3817C5.33634 27.2297 5.42172 27.0236 5.42172 26.8087V26.7519C5.42172 26.6871 5.42172 26.6223 5.42172 26.5574C5.4283 26.451 5.4138 26.3443 5.37904 26.2434C5.34429 26.1426 5.28996 26.0496 5.21919 25.9697C5.14841 25.8899 5.06258 25.8249 4.96661 25.7783C4.87064 25.7318 4.76642 25.7046 4.65993 25.6984H4.6113C4.40453 25.698 4.20544 25.7767 4.05478 25.9183C3.90412 26.0599 3.81329 26.2538 3.80088 26.4602C3.80088 26.5737 3.80088 26.6871 3.80088 26.8087C3.78981 27.0224 3.8637 27.2317 4.00641 27.3911C4.14912 27.5506 4.34908 27.6471 4.56267 27.6596L4.6113 27.6191Z" fill="#C2CAD2"/>
<path d="M28 5.38929C28.1269 5.38853 28.2518 5.35799 28.3647 5.30014C28.4736 5.36165 28.5962 5.39508 28.7213 5.39739H29.086C29.3009 5.39739 29.507 5.31201 29.659 5.16003C29.811 5.00804 29.8964 4.80191 29.8964 4.58697C29.8964 4.37204 29.811 4.1659 29.659 4.01392C29.507 3.86194 29.3009 3.77656 29.086 3.77656H28.7375C28.6131 3.77639 28.4906 3.80701 28.3809 3.8657C28.2638 3.80251 28.133 3.76912 28 3.76845H27.6515C27.4366 3.76845 27.2305 3.85383 27.0785 4.00582C26.9265 4.1578 26.8411 4.36393 26.8411 4.57887C26.8411 4.79381 26.9265 4.99994 27.0785 5.15192C27.2305 5.30391 27.4366 5.38929 27.6515 5.38929H28Z" fill="#C2CAD2"/>
<path d="M5.1867 22.6269H5.39741C5.5793 22.6336 5.75817 22.5789 5.90518 22.4716C6.0522 22.3643 6.1588 22.2106 6.20783 22.0353C6.21752 21.983 6.23106 21.9316 6.24835 21.8813C6.26563 21.8311 6.27917 21.7796 6.28887 21.7273C6.32074 21.6225 6.33103 21.5123 6.31911 21.4034C6.3072 21.2945 6.27332 21.1892 6.21954 21.0937C6.16576 20.9983 6.09319 20.9147 6.0062 20.8481C5.91922 20.7815 5.81964 20.7332 5.71347 20.7062C5.63834 20.6938 5.56168 20.6938 5.48655 20.7062C5.30571 20.699 5.12767 20.7526 4.98079 20.8583C4.83392 20.9641 4.72666 21.1159 4.67613 21.2897C4.67613 21.4032 4.6113 21.5166 4.58699 21.6301C4.55921 21.735 4.55277 21.8444 4.56806 21.9518C4.58334 22.0592 4.62004 22.1624 4.67596 22.2554C4.73189 22.3483 4.80592 22.4291 4.89365 22.4929C4.98138 22.5568 5.08103 22.6023 5.1867 22.6269Z" fill="#C2CAD2"/>
<path d="M22.6755 5.9971H23.178C23.3929 5.97346 23.5897 5.8654 23.725 5.6967C23.8602 5.528 23.9229 5.31248 23.8993 5.09754C23.8756 4.8826 23.7676 4.68586 23.5989 4.5506C23.4302 4.41533 23.2147 4.35262 22.9997 4.37627H22.8295L22.4892 4.45731C22.2742 4.48203 22.0779 4.59111 21.9434 4.76058C21.8089 4.93004 21.7472 5.14599 21.7719 5.36093C21.7966 5.57586 21.9057 5.77218 22.0752 5.90668C22.2447 6.04119 22.4606 6.10286 22.6755 6.07815V5.9971Z" fill="#C2CAD2"/>
<path d="M17.9265 7.66657C18.0474 7.6676 18.1669 7.63982 18.275 7.58553H18.3317L18.5181 7.49638C18.7154 7.44882 18.8877 7.32895 19.0009 7.16047C19.1141 6.99199 19.1599 6.78717 19.1294 6.58651C19.0988 6.38586 18.9941 6.20397 18.8359 6.07682C18.6777 5.94967 18.4775 5.88652 18.275 5.89985C18.1577 5.90068 18.0419 5.9255 17.9346 5.97279L17.6185 6.12677C17.4538 6.20655 17.3209 6.33974 17.2415 6.50466C17.1621 6.66959 17.1409 6.85653 17.1813 7.03505C17.2217 7.21357 17.3214 7.37316 17.464 7.48783C17.6067 7.6025 17.784 7.6655 17.967 7.66657H17.9265Z" fill="#C2CAD2"/>
<path d="M35.2289 49.468C35.1438 49.4703 35.0593 49.4839 34.9777 49.5085L34.6698 49.6058C34.4548 49.638 34.2615 49.7543 34.1323 49.9291C34.0031 50.1039 33.9487 50.3228 33.9809 50.5378C34.0131 50.7527 34.1294 50.946 34.3042 51.0752C34.479 51.2044 34.6979 51.2589 34.9129 51.2266C34.9928 51.2248 35.072 51.2111 35.1479 51.1861L35.4802 51.0807C35.6951 51.0474 35.888 50.9301 36.0164 50.7545C36.1449 50.579 36.1983 50.3596 36.165 50.1447C36.1317 49.9298 36.0143 49.7369 35.8388 49.6084C35.6632 49.48 35.4439 49.4266 35.2289 49.4599V49.468Z" fill="#C2CAD2"/>
<path d="M49.4518 18.5586C49.5488 18.512 49.6354 18.4465 49.7068 18.366C49.7782 18.2855 49.8328 18.1916 49.8675 18.0897C49.9022 17.9879 49.9163 17.8801 49.9089 17.7728C49.9016 17.6655 49.8729 17.5607 49.8246 17.4645C49.776 17.3673 49.7273 17.2619 49.6706 17.1566C49.6033 17.0229 49.5002 16.9105 49.3729 16.8319C49.2456 16.7532 49.099 16.7113 48.9493 16.7108C48.8222 16.7093 48.6968 16.74 48.5847 16.8C48.3973 16.9028 48.2581 17.0754 48.1974 17.2803C48.1367 17.4852 48.1594 17.7058 48.2605 17.8941L48.3983 18.1858C48.4651 18.3222 48.5689 18.4371 48.6979 18.5173C48.8268 18.5976 48.9757 18.64 49.1276 18.6396C49.2402 18.6354 49.3506 18.6078 49.4518 18.5586Z" fill="#C2CAD2"/>
<path d="M16.257 47.3123L16.0949 47.215L15.9896 47.1502C15.8606 47.0703 15.7118 47.0282 15.5601 47.0286C15.4237 47.0297 15.2898 47.0652 15.1708 47.1318C15.0519 47.1984 14.9516 47.2939 14.8793 47.4095C14.8224 47.4995 14.7837 47.5997 14.7655 47.7046C14.7473 47.8095 14.7499 47.9169 14.7733 48.0208C14.7966 48.1246 14.8402 48.2229 14.9015 48.3099C14.9628 48.3969 15.0406 48.471 15.1305 48.5279L15.4223 48.7062C15.5489 48.7847 15.6947 48.8268 15.8437 48.8278C16.0227 48.8314 16.1978 48.7756 16.3417 48.6692C16.4856 48.5628 16.5903 48.4117 16.6394 48.2396C16.6884 48.0675 16.6791 47.8839 16.6129 47.7176C16.5466 47.5514 16.4272 47.4117 16.2732 47.3204L16.257 47.3123Z" fill="#C2CAD2"/>
<path d="M46.9314 14.2229C47.0159 14.1572 47.0865 14.0754 47.1392 13.9822C47.1918 13.8891 47.2256 13.7865 47.2384 13.6802C47.2512 13.574 47.2428 13.4663 47.2138 13.3633C47.1847 13.2603 47.1356 13.1641 47.0692 13.0802L46.8585 12.8127C46.7822 12.7187 46.6858 12.643 46.5764 12.5911C46.467 12.5392 46.3474 12.5125 46.2263 12.5129C46.0408 12.5121 45.8605 12.575 45.7158 12.6912C45.55 12.8261 45.4442 13.0209 45.4215 13.2334C45.3987 13.4459 45.4608 13.6588 45.5942 13.8258C45.6526 13.8897 45.7068 13.9573 45.7563 14.0284C45.8888 14.1966 46.0826 14.3055 46.2952 14.3313C46.5078 14.3571 46.7219 14.2977 46.8909 14.1661L46.9314 14.2229Z" fill="#C2CAD2"/>
<path d="M52.2234 27.1896C52.2234 26.9746 52.1381 26.7685 51.9861 26.6165C51.8341 26.4645 51.628 26.3792 51.413 26.3792C51.1981 26.3792 50.992 26.4645 50.84 26.6165C50.688 26.7685 50.6026 26.9746 50.6026 27.1896V27.4975C50.6026 27.7125 50.688 27.9186 50.84 28.0706C50.992 28.2226 51.1981 28.308 51.413 28.308C51.628 28.308 51.8341 28.2226 51.9861 28.0706C52.1381 27.9186 52.2234 27.7125 52.2234 27.4975C52.2234 27.4246 52.2234 27.303 52.2234 27.1896Z" fill="#C2CAD2"/>
<path d="M43.8518 44.4191C43.651 44.4196 43.4575 44.4947 43.3088 44.6298L43.2197 44.7108L43.0738 44.8405C42.9139 44.9836 42.8173 45.1842 42.8052 45.3984C42.793 45.6127 42.8663 45.8229 43.009 45.9832C43.1521 46.1431 43.3527 46.2397 43.5669 46.2518C43.7811 46.264 43.9914 46.1907 44.1517 46.048L44.411 45.813C44.5686 45.6677 44.6622 45.4659 44.6713 45.2517C44.6804 45.0375 44.6043 44.8285 44.4596 44.6703C44.3815 44.5883 44.287 44.5235 44.1823 44.4803C44.0777 44.437 43.965 44.4162 43.8518 44.4191Z" fill="#C2CAD2"/>
<path d="M51.1861 31.4362H51.0402C50.8483 31.433 50.6616 31.4981 50.5131 31.6198C50.3647 31.7415 50.2643 31.9119 50.2298 32.1007C50.226 32.1493 50.226 32.198 50.2298 32.2466V32.3519C50.1894 32.5625 50.234 32.7806 50.354 32.9583C50.474 33.136 50.6596 33.2589 50.87 33.3001H51.024C51.2148 33.3036 51.4006 33.2397 51.5489 33.1196C51.6971 32.9995 51.7982 32.831 51.8344 32.6437C51.8344 32.5302 51.8831 32.4168 51.8993 32.3033C51.9154 32.0947 51.8501 31.8879 51.7172 31.7262C51.5842 31.5646 51.3939 31.4607 51.1861 31.4362Z" fill="#C2CAD2"/>
<path d="M49.9219 36.3068C49.8226 36.2621 49.7146 36.24 49.6058 36.242C49.4467 36.2421 49.2912 36.289 49.1586 36.3769C49.026 36.4648 48.9222 36.5898 48.8602 36.7363H48.7467V36.7849C48.6621 36.9807 48.658 37.2019 48.7354 37.4006C48.8127 37.5994 48.9653 37.7596 49.1601 37.8466C49.2619 37.893 49.3723 37.9179 49.4842 37.9195C49.6424 37.9201 49.7973 37.8743 49.9298 37.7879C50.0622 37.7015 50.1665 37.5782 50.2298 37.4333C50.2784 37.3279 50.319 37.2226 50.3676 37.1091C50.3831 36.946 50.3488 36.782 50.2692 36.6388C50.1897 36.4955 50.0685 36.3798 49.9219 36.3068Z" fill="#C2CAD2"/>
<path d="M47.1664 40.6344C47.0371 40.6359 46.9101 40.6684 46.7959 40.729C46.6817 40.7896 46.5837 40.8767 46.51 40.9829L46.3236 41.2341C46.2352 41.3551 46.1821 41.4982 46.1701 41.6476C46.1581 41.7969 46.1878 41.9467 46.2558 42.0802C46.3238 42.2137 46.4275 42.3257 46.5554 42.4038C46.6832 42.4819 46.8302 42.5231 46.98 42.5227C47.1079 42.523 47.234 42.4931 47.3481 42.4354C47.4622 42.3776 47.561 42.2937 47.6365 42.1904L47.8391 41.9068C47.9621 41.7314 48.0107 41.5145 47.9743 41.3034C47.9378 41.0923 47.8193 40.9042 47.6446 40.7803C47.5045 40.6825 47.3372 40.6315 47.1664 40.6344Z" fill="#C2CAD2"/>
<path d="M30.3097 50.4972H29.9045C29.6896 50.5058 29.4868 50.5995 29.3409 50.7575C29.195 50.9156 29.1179 51.1251 29.1265 51.3401C29.1351 51.555 29.2287 51.7577 29.3868 51.9036C29.5448 52.0495 29.7544 52.1267 29.9693 52.1181H30.3907C30.6057 52.1073 30.8075 52.0116 30.9519 51.8521C31.0963 51.6925 31.1714 51.4821 31.1606 51.2671C31.1499 51.0522 31.0542 50.8503 30.8946 50.706C30.735 50.5616 30.5246 50.4865 30.3097 50.4972Z" fill="#C2CAD2"/>
<path d="M25.3742 50.4648H24.9447C24.7298 50.4519 24.5185 50.5249 24.3574 50.6678C24.1963 50.8107 24.0986 51.0117 24.0857 51.2266C24.0728 51.4416 24.1458 51.6528 24.2887 51.8139C24.4315 51.975 24.6325 52.0728 24.8475 52.0857H25.2851C25.3915 52.0915 25.4981 52.0763 25.5986 52.041C25.6992 52.0057 25.7918 51.9509 25.8712 51.8798C25.9506 51.8087 26.0152 51.7226 26.0613 51.6266C26.1075 51.5305 26.1342 51.4262 26.1401 51.3198C26.1459 51.2134 26.1308 51.1068 26.0955 51.0063C26.0601 50.9057 26.0054 50.8131 25.9342 50.7337C25.8631 50.6543 25.7771 50.5897 25.681 50.5436C25.5849 50.4974 25.4807 50.4707 25.3742 50.4648Z" fill="#C2CAD2"/>
<path d="M20.5522 49.387L20.3659 49.314C20.2773 49.2829 20.1842 49.2664 20.0903 49.2654C19.8998 49.2656 19.7155 49.333 19.5696 49.4556C19.4238 49.5782 19.3259 49.7483 19.293 49.9359C19.2601 50.1236 19.2944 50.3168 19.3898 50.4817C19.4852 50.6466 19.6357 50.7726 19.8148 50.8376L20.1389 50.9592C20.2277 50.9709 20.3176 50.9709 20.4064 50.9592C20.5955 50.9553 20.7774 50.8853 20.9204 50.7614C21.0634 50.6375 21.1585 50.4675 21.1893 50.2808C21.2201 50.0941 21.1846 49.9026 21.089 49.7393C20.9933 49.5761 20.8436 49.4514 20.6657 49.387H20.5522Z" fill="#C2CAD2"/>
<path d="M43.552 10.4787C43.6872 10.3138 43.7521 10.1022 43.7323 9.88979C43.7126 9.67739 43.6099 9.48133 43.4466 9.34414L43.1792 9.11722C43.0323 9.00488 42.8534 8.94241 42.6686 8.93893C42.5005 8.93821 42.3363 8.98981 42.1988 9.08657C42.0613 9.18332 41.9573 9.32045 41.9012 9.47894C41.8451 9.63743 41.8397 9.80945 41.8857 9.97116C41.9317 10.1329 42.0269 10.2763 42.158 10.3815H42.2877L42.4093 10.4868C42.5551 10.6076 42.7386 10.6736 42.9279 10.6732C43.0397 10.6859 43.153 10.6752 43.2604 10.6417C43.3679 10.6082 43.4671 10.5527 43.552 10.4787Z" fill="#C2CAD2"/>
<path d="M39.8159 47.4501C39.674 47.4491 39.5342 47.4854 39.4107 47.5554L39.1271 47.7256C38.9403 47.8312 38.803 48.0064 38.7453 48.213C38.6876 48.4196 38.7141 48.6407 38.8191 48.8278C38.8895 48.953 38.9918 49.0572 39.1157 49.1298C39.2396 49.2024 39.3806 49.2408 39.5242 49.2411C39.6632 49.2389 39.7995 49.2028 39.9213 49.1357L40.2292 48.9574C40.4141 48.8478 40.5478 48.6692 40.601 48.461C40.6541 48.2528 40.6225 48.032 40.5129 47.8472C40.4412 47.7262 40.3392 47.626 40.217 47.5563C40.0948 47.4867 39.9566 47.4501 39.8159 47.4501Z" fill="#C2CAD2"/>
<path d="M28.1702 15.1711L27.6272 14.6767L27.0842 15.1711C24.3152 17.6397 21.0281 19.4564 17.4646 20.4874L16.8405 20.6414V21.2735C16.8405 36.9308 26.9465 40.8289 27.376 40.991L27.6596 41.0964L27.9352 40.991C28.3647 40.8289 38.4706 36.9389 38.4706 21.2735V20.6333L37.8466 20.4874C34.2603 19.4707 30.9516 17.6528 28.1702 15.1711ZM27.6272 39.3459C26.0469 38.6327 18.664 34.6211 18.4371 21.8813C21.803 20.8237 24.9263 19.1105 27.6272 16.8405C30.3258 19.1139 33.4499 20.8275 36.8174 21.8813C36.5823 34.6373 29.1994 38.6408 27.6272 39.3459Z" fill="#C2CAD2"/>
<path d="M24.6206 26.9059L23.3725 27.9352L27.1247 32.4978L32.8139 24.4341L33.5028 23.5022H31.4848L27.0275 29.8315L24.6206 26.9059Z" fill="#C2CAD2"/>
</svg>
