<svg width="49" height="56" viewBox="0 0 49 56" fill="none" xmlns="http://www.w3.org/2000/svg">
<path d="M37.5652 47.4644V49.7391H29.913V47.4644L24.3478 44.8696L18.7826 47.4852V49.7391H11.1304V47.4644L5.56522 44.8696L0 47.4852V53.3983L5.56522 56L11.1304 53.3843V51.1304H18.7826V53.3774L24.3478 56L29.913 53.3843V51.1304H37.5652V53.3774L43.1304 56L48.6957 53.3843V47.4713L43.1304 44.8696L37.5652 47.4644ZM8.99478 48L5.96174 49.3913L2.53217 47.7774L5.56522 46.3861L8.99478 48ZM1.3913 48.8139L4.86957 50.4348V54.1148L1.3913 52.5217V48.8139ZM6.26087 54.1287V50.8243L9.73913 49.1896V52.5217L6.26087 54.1287ZM27.6591 47.9443L24.5078 49.4261L21.1965 47.8678L24.3478 46.3861L27.6591 47.9443ZM20.1739 48.9252L23.6522 50.56V54.1287L20.1739 52.5217V48.9252ZM25.0435 54.1287V50.713L28.5217 49.0783V52.5217L25.0435 54.1287ZM46.4904 47.9652L43.3878 49.4261L40.0278 47.847L43.1304 46.3861L46.4904 47.9652ZM38.9565 48.8835L42.4348 50.5113V54.1287L38.9565 52.5217V48.8835ZM43.8261 54.1287V50.7548L47.3043 49.12V52.5217L43.8261 54.1287Z" fill="#C2CAD2"/>
<path d="M9.04348 11.0887C9.04348 9.82261 10.7687 8.69565 12.1322 8.69565H33.5513C32.9972 9.36999 32.6948 10.2159 32.6957 11.0887V34.4348H34.087V11.0887C34.087 10.454 34.3391 9.84534 34.7879 9.39656C35.2366 8.94778 35.8453 8.69565 36.48 8.69565H37.2591C37.8938 8.69565 38.5025 8.94778 38.9513 9.39656C39.4001 9.84534 39.6522 10.454 39.6522 11.0887V21.913H41.0435V17.6417C41.633 17.4815 42.1533 17.1318 42.5243 16.6465C42.8953 16.1613 43.0964 15.5674 43.0964 14.9565C43.0964 14.3457 42.8953 13.7518 42.5243 13.2665C42.1533 12.7812 41.633 12.4315 41.0435 12.2713V11.0887C41.0416 10.0856 40.6423 9.12409 39.933 8.41479C39.2237 7.70549 38.2622 7.30619 37.2591 7.30435H20.9948C20.8346 6.71487 20.4849 6.19449 19.9996 5.82349C19.5143 5.45249 18.9204 5.25148 18.3096 5.25148C17.6987 5.25148 17.1048 5.45249 16.6195 5.82349C16.1343 6.19449 15.7845 6.71487 15.6243 7.30435H12.1461C10.0591 7.30435 7.66609 8.96 7.66609 11.0887V35.1304H9.05739L9.04348 11.0887ZM41.7391 14.9565C41.7377 15.1993 41.6727 15.4375 41.5506 15.6474C41.4286 15.8573 41.2538 16.0316 41.0435 16.153V13.76C41.2538 13.8814 41.4286 14.0557 41.5506 14.2656C41.6727 14.4755 41.7377 14.7137 41.7391 14.9565ZM18.3096 6.6087C18.5476 6.61494 18.7801 6.68218 18.9847 6.80398C19.1893 6.92579 19.3593 7.09807 19.4783 7.30435H17.113C17.2344 7.09407 17.4088 6.91922 17.6187 6.79718C17.8286 6.67514 18.0668 6.61016 18.3096 6.6087Z" fill="#C2CAD2"/>
<path d="M41.0435 23.3044H39.6522V26.087H41.0435V23.3044Z" fill="#C2CAD2"/>
<path d="M41.0435 28.1739H39.6522V30.2609H41.0435V28.1739Z" fill="#C2CAD2"/>
<path d="M34.087 36.5217H32.6957V38.6087H34.087V36.5217Z" fill="#C2CAD2"/>
<path d="M9.04348 36.5217H7.65217V40H9.04348V36.5217Z" fill="#C2CAD2"/>
<path d="M34.087 40.6957H32.6957V42.7826H34.087V40.6957Z" fill="#C2CAD2"/>
<path d="M15.3043 35.8261H11.8261V40.6957H15.3043V35.8261ZM13.913 39.3044H13.2174V37.2174H13.913V39.3044Z" fill="#C2CAD2"/>
<path d="M20.1739 40.6957V32.3478H16.6957V40.6957H20.1739ZM18.087 33.7391H18.7826V39.3044H18.087V33.7391Z" fill="#C2CAD2"/>
<path d="M25.0435 40.6957V28.8696H21.5652V40.6957H25.0435ZM22.9565 30.2609H23.6522V39.3044H22.9565V30.2609Z" fill="#C2CAD2"/>
<path d="M26.4348 40.6957H29.913V26.087H26.4348V40.6957ZM27.8261 27.4783H28.5217V39.3044H27.8261V27.4783Z" fill="#C2CAD2"/>
<path d="M27.3809 19.9861L26.8383 21.2661L28.2017 21.8435L13.2035 31.0609L13.927 32.2435L28.8 23.1096L28.5357 24.5704L29.8991 24.8209L30.5461 21.3287L27.3809 19.9861Z" fill="#C2CAD2"/>
<path d="M30.247 5.56522C30.7973 5.56522 31.3353 5.40202 31.7929 5.09626C32.2505 4.79051 32.6071 4.35592 32.8178 3.84747C33.0284 3.33901 33.0835 2.77952 32.9761 2.23975C32.8687 1.69998 32.6037 1.20416 32.2146 0.815009C31.8254 0.425854 31.3296 0.160836 30.7898 0.0534683C30.25 -0.0538993 29.6906 0.00120565 29.1821 0.211815C28.6736 0.422424 28.2391 0.779078 27.9333 1.23668C27.6275 1.69427 27.4643 2.23226 27.4643 2.78261C27.4643 3.5206 27.7575 4.22837 28.2794 4.75021C28.8012 5.27205 29.509 5.56522 30.247 5.56522ZM30.247 1.39131C30.5221 1.39131 30.7911 1.4729 31.0199 1.62578C31.2487 1.77866 31.427 1.99595 31.5324 2.25018C31.6377 2.50441 31.6652 2.78415 31.6115 3.05404C31.5578 3.32393 31.4253 3.57183 31.2308 3.76641C31.0362 3.96099 30.7883 4.0935 30.5184 4.14718C30.2485 4.20087 29.9688 4.17331 29.7145 4.06801C29.4603 3.9627 29.243 3.78438 29.0901 3.55558C28.9373 3.32678 28.8557 3.05778 28.8557 2.78261C28.8557 2.41361 29.0022 2.05973 29.2632 1.79881C29.5241 1.53789 29.878 1.39131 30.247 1.39131Z" fill="#C2CAD2"/>
<path d="M28.3965 13.0157C28.3965 12.4653 28.2333 11.9273 27.9276 11.4697C27.6218 11.0121 27.1872 10.6555 26.6788 10.4449C26.1703 10.2343 25.6108 10.1791 25.0711 10.2865C24.5313 10.3939 24.0355 10.6589 23.6463 11.0481C23.2572 11.4372 22.9921 11.933 22.8848 12.4728C22.7774 13.0126 22.8325 13.5721 23.0431 14.0805C23.2537 14.589 23.6104 15.0236 24.068 15.3293C24.5256 15.6351 25.0636 15.7983 25.6139 15.7983C26.3519 15.7983 27.0597 15.5051 27.5815 14.9833C28.1034 14.4614 28.3965 13.7536 28.3965 13.0157ZM24.2226 13.0157C24.2226 12.7405 24.3042 12.4715 24.4571 12.2427C24.61 12.0139 24.8273 11.8356 25.0815 11.7303C25.3357 11.625 25.6155 11.5974 25.8853 11.6511C26.1552 11.7048 26.4031 11.8373 26.5977 12.0319C26.7923 12.2264 26.9248 12.4743 26.9785 12.7442C27.0322 13.0141 27.0046 13.2939 26.8993 13.5481C26.794 13.8023 26.6157 14.0196 26.3869 14.1725C26.1581 14.3254 25.8891 14.407 25.6139 14.407C25.2449 14.407 24.891 14.2604 24.6301 13.9995C24.3692 13.7385 24.2226 13.3847 24.2226 13.0157Z" fill="#C2CAD2"/>
<path d="M16.2991 24.3478C16.2991 23.7975 16.1359 23.2595 15.8302 22.8019C15.5244 22.3443 15.0898 21.9876 14.5814 21.777C14.0729 21.5664 13.5134 21.5113 12.9737 21.6187C12.4339 21.7261 11.9381 21.9911 11.5489 22.3802C11.1598 22.7694 10.8947 23.2652 10.7874 23.805C10.68 24.3447 10.7351 24.9042 10.9457 25.4127C11.1563 25.9211 11.513 26.3557 11.9706 26.6615C12.4282 26.9672 12.9662 27.1304 13.5165 27.1304C14.2545 27.1304 14.9623 26.8373 15.4841 26.3154C16.006 25.7936 16.2991 25.0858 16.2991 24.3478ZM12.1252 24.3478C12.1252 24.0727 12.2068 23.8037 12.3597 23.5749C12.5126 23.3461 12.7299 23.1677 12.9841 23.0624C13.2383 22.9571 13.5181 22.9296 13.788 22.9833C14.0578 23.0369 14.3057 23.1694 14.5003 23.364C14.6949 23.5586 14.8274 23.8065 14.8811 24.0764C14.9348 24.3463 14.9072 24.626 14.8019 24.8803C14.6966 25.1345 14.5183 25.3518 14.2895 25.5047C14.0607 25.6575 13.7917 25.7391 13.5165 25.7391C13.1475 25.7391 12.7936 25.5925 12.5327 25.3316C12.2718 25.0707 12.1252 24.7168 12.1252 24.3478Z" fill="#C2CAD2"/>
</svg>
