<svg width="56" height="52" viewBox="0 0 56 52" fill="none" xmlns="http://www.w3.org/2000/svg">
<path d="M44.6598 30.5522V24.3772H38.5637V21.4368H44.9681V20.0024H42.9457V17.4348H41.5113V20.0024H39.661V17.4348H38.2266V20.0024H37.1293V25.8116H43.2254V29.1178H36.8209V30.5522H38.2266V32.754H39.661V30.5522H41.5113V32.754H42.9457V30.5522H44.6598Z" fill="#C2CAD2"/>
<path d="M40.163 9.10829C36.1663 9.10422 32.3187 10.6253 29.4052 13.3612V5.8666C29.4146 5.10439 29.2736 4.34781 28.9902 3.64019C28.7068 2.93256 28.2866 2.2878 27.7537 1.74284C27.2207 1.19787 26.5854 0.763415 25.8843 0.46435C25.1831 0.165284 24.4299 0.00748832 23.6677 0H5.73795C4.97573 0.00748832 4.22247 0.165284 3.52132 0.46435C2.82018 0.763415 2.18492 1.19787 1.65195 1.74284C1.11898 2.2878 0.698763 2.93256 0.41537 3.64019C0.131977 4.34781 -0.00902341 5.10439 0.000447322 5.8666V45.9789C-0.00809055 46.7378 0.134011 47.4908 0.418523 48.1944C0.703035 48.898 1.1243 49.5381 1.65793 50.0777C2.19156 50.6174 2.82695 51.0458 3.52729 51.3382C4.22764 51.6305 4.97903 51.781 5.73795 51.781H23.7107C24.4696 51.781 25.221 51.6305 25.9213 51.3382C26.6217 51.0458 27.2571 50.6174 27.7907 50.0777C28.3243 49.5381 28.7456 48.898 29.0301 48.1944C29.3146 47.4908 29.4567 46.7378 29.4482 45.9789V37.4372H30.6602C32.6549 38.9568 34.9831 39.9791 37.4517 40.4194C39.9203 40.8596 42.4584 40.7052 44.8554 39.9688C47.2524 39.2324 49.4394 37.9353 51.235 36.185C53.0307 34.4347 54.3833 32.2816 55.1808 29.9042C55.9783 27.5268 56.1977 24.9936 55.8207 22.5145C55.4438 20.0354 54.4814 17.6819 53.0133 15.6489C51.5452 13.616 49.6137 11.9623 47.379 10.8248C45.1442 9.68737 42.6706 9.09893 40.163 9.10829ZM20.634 3.22735C20.3782 3.51619 20.0214 3.69589 19.6371 3.72938H9.79724C9.42139 3.69145 9.07216 3.51811 8.81469 3.24169C8.40984 2.72843 8.20132 2.0876 8.2266 1.43438H21.2077C21.233 2.08087 21.0299 2.71564 20.634 3.22735ZM27.9708 45.9789C27.9793 46.5494 27.8744 47.1159 27.6619 47.6455C27.4495 48.1751 27.1339 48.6571 26.7335 49.0635C26.333 49.47 25.8558 49.7927 25.3294 50.013C24.8031 50.2333 24.2382 50.3467 23.6677 50.3466H5.73795C5.16739 50.3467 4.6025 50.2333 4.07617 50.013C3.54984 49.7927 3.07257 49.47 2.67213 49.0635C2.27169 48.6571 1.95608 48.1751 1.74367 47.6455C1.53125 47.1159 1.42627 46.5494 1.43482 45.9789V5.8666C1.42534 5.29276 1.52922 4.72269 1.74052 4.18909C1.95182 3.65548 2.26639 3.16884 2.66617 2.75707C3.06595 2.34529 3.54308 2.01649 4.07021 1.78951C4.59734 1.56254 5.16408 1.44185 5.73795 1.43438H6.80656C6.77588 2.45165 7.1205 3.44467 7.77477 4.22424C8.30162 4.79188 9.03071 5.12938 9.80441 5.16375H19.6371C20.4108 5.12938 21.1398 4.79188 21.6667 4.22424C22.324 3.44637 22.669 2.45217 22.6349 1.43438H23.7107C24.2846 1.44185 24.8513 1.56254 25.3784 1.78951C25.9056 2.01649 26.3827 2.34529 26.7825 2.75707C27.1823 3.16884 27.4968 3.65548 27.7081 4.18909C27.9194 4.72269 28.0233 5.29276 28.0138 5.8666V13.4114H13.2828V14.8458H27.9708C27.0004 16.0285 26.2057 17.3449 25.6112 18.7545H17.5859V20.1888H25.102C24.6939 21.4673 24.4528 22.7931 24.3848 24.1334H15.4343V25.5678H24.4207C24.4887 26.908 24.7298 28.2339 25.1379 29.5123H18.6473V30.9467H25.6112C26.4024 32.8208 27.5468 34.5253 28.982 35.967H7.88952V37.4014H27.9708V45.9789ZM40.163 39.2302C37.3261 39.2302 34.5528 38.3889 32.194 36.8128C29.8352 35.2367 27.9967 32.9965 26.9111 30.3756C25.8254 27.7546 25.5414 24.8705 26.0948 22.0881C26.6483 19.3057 28.0144 16.7499 30.0204 14.7439C32.0264 12.7378 34.5822 11.3717 37.3647 10.8183C40.1471 10.2648 43.0311 10.5489 45.6521 11.6345C48.2731 12.7202 50.5133 14.5586 52.0894 16.9175C53.6655 19.2763 54.5068 22.0495 54.5068 24.8864C54.5068 26.7701 54.1357 28.6353 53.4149 30.3756C52.6941 32.1158 51.6375 33.6971 50.3056 35.029C48.9736 36.3609 47.3924 37.4175 45.6521 38.1383C43.9118 38.8592 42.0466 39.2302 40.163 39.2302Z" fill="#C2CAD2"/>
<path d="M52.054 22.1109C52.0904 22.2727 52.1818 22.4169 52.3125 22.5188C52.4433 22.6208 52.6054 22.6744 52.7712 22.6703C52.8259 22.6773 52.8813 22.6773 52.9361 22.6703C53.028 22.6492 53.1148 22.6101 53.1915 22.5554C53.2683 22.5007 53.3335 22.4314 53.3835 22.3515C53.4334 22.2716 53.4671 22.1826 53.4827 22.0896C53.4982 21.9966 53.4952 21.9015 53.474 21.8097C53.474 21.7021 53.4238 21.6017 53.3951 21.5013C53.3545 21.3435 53.2613 21.2043 53.1309 21.1065C53.0006 21.0087 52.8408 20.9583 52.6779 20.9634C52.6184 20.9564 52.5582 20.9564 52.4986 20.9634C52.4072 20.9868 52.3213 21.028 52.2458 21.0847C52.1703 21.1414 52.1068 21.2124 52.0588 21.2937C52.0108 21.375 51.9794 21.4649 51.9662 21.5584C51.9531 21.6519 51.9585 21.747 51.9823 21.8384C52.0109 21.9244 52.0325 22.0177 52.054 22.1109Z" fill="#C2CAD2"/>
<path d="M40.163 12.6942C40.3532 12.6942 40.5356 12.6187 40.6701 12.4842C40.8046 12.3497 40.8802 12.1673 40.8802 11.977C40.8802 11.7868 40.8046 11.6044 40.6701 11.4699C40.5356 11.3354 40.3532 11.2599 40.163 11.2599H39.8474C39.6572 11.2599 39.4748 11.3354 39.3403 11.4699C39.2058 11.6044 39.1302 11.7868 39.1302 11.977C39.1302 12.1673 39.2058 12.3497 39.3403 12.4842C39.4748 12.6187 39.6572 12.6942 39.8474 12.6942H40.163Z" fill="#C2CAD2"/>
<path d="M43.2971 13.0959H43.5481C43.6146 13.1063 43.6824 13.1063 43.7489 13.0959C43.9391 13.1225 44.1321 13.0725 44.2855 12.9568C44.4388 12.8411 44.5399 12.6693 44.5665 12.4791C44.5932 12.2889 44.5431 12.0959 44.4275 11.9425C44.3118 11.7892 44.1399 11.6881 43.9497 11.6615L43.6413 11.5754H43.4549C43.2647 11.5507 43.0724 11.6025 42.9204 11.7195C42.7685 11.8366 42.6692 12.0092 42.6445 12.1994C42.6197 12.3896 42.6716 12.5818 42.7886 12.7338C42.9056 12.8858 43.0782 12.9851 43.2684 13.0098L43.2971 13.0959Z" fill="#C2CAD2"/>
<path d="M27.2895 23.8537H27.3899C27.5639 23.8554 27.7326 23.7938 27.8646 23.6803C27.9965 23.5668 28.0827 23.4092 28.107 23.2369C28.107 23.1365 28.107 23.0433 28.107 22.95C28.136 22.7627 28.0896 22.5716 27.9781 22.4184C27.8665 22.2652 27.6989 22.1624 27.5118 22.1324H27.4042C27.2312 22.1305 27.0634 22.1911 26.9316 22.3031C26.7998 22.4151 26.713 22.571 26.687 22.742C26.687 22.8424 26.687 22.95 26.6368 23.0576C26.6259 23.153 26.6343 23.2496 26.6614 23.3417C26.6885 23.4337 26.7339 23.5195 26.7947 23.5937C26.8556 23.6679 26.9308 23.7292 27.0157 23.7739C27.1007 23.8185 27.1938 23.8457 27.2895 23.8537Z" fill="#C2CAD2"/>
<path d="M28.2218 27.289C28.1898 27.1233 28.1003 26.9741 27.9691 26.8679C27.8379 26.7616 27.6734 26.705 27.5046 26.7081H27.3683C27.1821 26.7445 27.0179 26.8533 26.9117 27.0106C26.8055 27.1679 26.766 27.3608 26.8018 27.5472L26.8663 27.8628C26.9013 28.0259 26.9921 28.1717 27.123 28.2751C27.2539 28.3785 27.4167 28.4331 27.5835 28.4293C27.6359 28.4363 27.6889 28.4363 27.7413 28.4293C27.9266 28.3882 28.088 28.2752 28.1902 28.1152C28.2924 27.9553 28.3269 27.7613 28.2863 27.5759C28.2577 27.4468 28.2433 27.3679 28.2218 27.289Z" fill="#C2CAD2"/>
<path d="M29.9215 31.4702L29.8498 31.3555L29.8068 31.2766C29.7424 31.1709 29.6518 31.0836 29.5437 31.0233C29.4356 30.9629 29.3138 30.9316 29.19 30.9323C29.0582 30.9332 28.9291 30.9704 28.8171 31.0399C28.6559 31.1393 28.5406 31.2983 28.4963 31.4824C28.4519 31.6665 28.4822 31.8606 28.5804 32.0225L28.7525 32.295C28.8554 32.4545 29.0174 32.5668 29.2029 32.6071C29.3884 32.6475 29.5824 32.6126 29.7422 32.5101C29.9018 32.4072 30.0141 32.2453 30.0544 32.0598C30.0947 31.8742 30.0598 31.6803 29.9574 31.5204L29.9215 31.4702Z" fill="#C2CAD2"/>
<path d="M29.4052 19.1489L29.5414 18.8907C29.6343 18.7252 29.6578 18.5296 29.6067 18.3467C29.5557 18.1639 29.4342 18.0088 29.2689 17.9154C29.1611 17.856 29.0405 17.824 28.9175 17.8221C28.7904 17.8223 28.6656 17.8563 28.556 17.9206C28.4464 17.9849 28.3558 18.0771 28.2935 18.1879L28.1357 18.4748C28.0473 18.6431 28.0294 18.8397 28.0859 19.0212C28.1424 19.2028 28.2687 19.3545 28.437 19.443C28.5406 19.4989 28.6563 19.5284 28.774 19.529C28.9038 19.5287 29.031 19.4932 29.1421 19.4262C29.2533 19.3593 29.3442 19.2634 29.4052 19.1489Z" fill="#C2CAD2"/>
<path d="M32.0588 15.7997L32.1377 15.7279H32.1879L32.2739 15.6562C32.3455 15.595 32.4043 15.5203 32.447 15.4363C32.4897 15.3524 32.5155 15.2608 32.5228 15.1669C32.5301 15.073 32.5189 14.9786 32.4897 14.8891C32.4605 14.7995 32.414 14.7166 32.3528 14.645C32.2916 14.5734 32.2169 14.5146 32.1329 14.4719C32.049 14.4292 31.9574 14.4034 31.8635 14.3961C31.7696 14.3888 31.6752 14.4 31.5856 14.4292C31.4961 14.4584 31.4132 14.5049 31.3416 14.5661L31.0977 14.7741C30.9563 14.9007 30.8708 15.0783 30.86 15.2678C30.8493 15.4574 30.9141 15.6435 31.0404 15.7853C31.1076 15.8618 31.1903 15.9231 31.283 15.9652C31.3758 16.0072 31.4764 16.029 31.5782 16.0292C31.7619 16.0172 31.934 15.935 32.0588 15.7997Z" fill="#C2CAD2"/>
<path d="M49.1135 33.4927C48.9288 33.4934 48.7516 33.5654 48.6186 33.6935H48.5111L48.4537 33.7437C48.3462 33.8414 48.2709 33.9694 48.2378 34.1107C48.2046 34.2521 48.2152 34.4002 48.2681 34.5355C48.3209 34.6707 48.4136 34.7868 48.5338 34.8682C48.654 34.9497 48.7962 34.9927 48.9414 34.9916C49.121 34.9896 49.2939 34.9235 49.4291 34.8051L49.6586 34.5828C49.7921 34.4484 49.8671 34.2667 49.8671 34.0772C49.8671 33.8877 49.7921 33.706 49.6586 33.5716C49.5774 33.5232 49.4874 33.4913 49.3939 33.4777C49.3004 33.4642 49.2051 33.4693 49.1135 33.4927Z" fill="#C2CAD2"/>
<path d="M48.2672 13.9206L48.0019 13.7342C47.8459 13.6248 47.6528 13.5818 47.4652 13.6148C47.2776 13.6478 47.1107 13.7539 47.0014 13.9099C46.892 14.0658 46.8491 14.2589 46.882 14.4465C46.915 14.6341 47.0211 14.801 47.1771 14.9103L47.3994 15.0681C47.4752 15.1243 47.5613 15.1649 47.6528 15.1877C47.7443 15.2105 47.8394 15.2151 47.9327 15.2011C48.0259 15.1871 48.1155 15.1548 48.1963 15.1062C48.2771 15.0575 48.3475 14.9934 48.4035 14.9175C48.5161 14.7667 48.565 14.5777 48.5395 14.3912C48.514 14.2047 48.4162 14.0357 48.2672 13.9206Z" fill="#C2CAD2"/>
<path d="M51.3511 18.3887C51.43 18.3366 51.4977 18.2694 51.5505 18.1911C51.6033 18.1127 51.6401 18.0246 51.6588 17.932C51.6774 17.8394 51.6776 17.744 51.6593 17.6512C51.6409 17.5585 51.6044 17.4704 51.5519 17.3918C51.4946 17.3058 51.4372 17.2125 51.3726 17.1265C51.3067 17.0315 51.2188 16.9538 51.1164 16.9001C51.014 16.8464 50.9002 16.8183 50.7845 16.8181C50.6543 16.8196 50.527 16.8565 50.4161 16.9249C50.3053 16.9933 50.2152 17.0906 50.1555 17.2064C50.0958 17.3221 50.0687 17.4519 50.0772 17.5819C50.0857 17.7118 50.1294 17.837 50.2036 17.944L50.2682 18.0445L50.3542 18.1664C50.4583 18.3248 50.6207 18.4355 50.8062 18.4745C50.9916 18.5135 51.185 18.4775 51.3439 18.3744L51.3511 18.3887Z" fill="#C2CAD2"/>
<path d="M52.097 29.9067C52.0008 29.8602 51.8955 29.8357 51.7886 29.835C51.6542 29.8348 51.5224 29.8723 51.4083 29.9433C51.2942 30.0143 51.2023 30.1159 51.1431 30.2367V30.294L51.0786 30.4303C51.0125 30.5354 50.9749 30.6558 50.9693 30.7798C50.9637 30.9038 50.9904 31.0271 51.0468 31.1377C51.1032 31.2483 51.1873 31.3424 51.2909 31.4107C51.3946 31.4791 51.5141 31.5193 51.638 31.5276C51.7697 31.5279 51.8989 31.4919 52.0115 31.4236C52.1241 31.3552 52.2157 31.2572 52.2763 31.1403C52.3265 31.0399 52.3767 30.9467 52.4197 30.8534C52.4998 30.6847 52.5109 30.4913 52.4506 30.3145C52.3904 30.1377 52.2635 29.9914 52.097 29.9067Z" fill="#C2CAD2"/>
<path d="M53.0724 25.4602H53.0007C52.8222 25.4593 52.6499 25.5249 52.5173 25.6443C52.3847 25.7636 52.3013 25.9281 52.2835 26.1057V26.1487C52.2799 26.1916 52.2799 26.2348 52.2835 26.2778V26.3423C52.2612 26.5305 52.3143 26.7199 52.4312 26.8691C52.5481 27.0183 52.7193 27.1151 52.9074 27.1384H53.0007C53.1769 27.1397 53.3474 27.076 53.4796 26.9596C53.6119 26.8432 53.6967 26.6822 53.7178 26.5073C53.7178 26.3997 53.7178 26.2921 53.7537 26.1917C53.7577 26.0051 53.6887 25.8243 53.5615 25.6877C53.4343 25.5511 53.2588 25.4695 53.0724 25.4602Z" fill="#C2CAD2"/>
<path d="M40.9376 37.0786H40.6076C40.4174 37.0786 40.235 37.1542 40.1005 37.2887C39.966 37.4232 39.8905 37.6056 39.8905 37.7958C39.8905 37.986 39.966 38.1684 40.1005 38.3029C40.235 38.4374 40.4174 38.513 40.6076 38.513H40.9304C41.1206 38.5073 41.3007 38.4263 41.4312 38.2877C41.5617 38.1492 41.6318 37.9645 41.6261 37.7743C41.6203 37.5841 41.5393 37.4039 41.4008 37.2735C41.2622 37.143 41.0776 37.0729 40.8873 37.0786H40.9376Z" fill="#C2CAD2"/>
<path d="M35.6949 13.5477L35.9531 13.4473C36.1122 13.3896 36.2457 13.2775 36.3301 13.1308C36.4145 12.9841 36.4443 12.8123 36.4143 12.6458C36.3842 12.4792 36.2963 12.3287 36.1659 12.2207C36.0356 12.1128 35.8713 12.0544 35.7021 12.0559C35.6166 12.0562 35.5318 12.0707 35.4511 12.099L35.1498 12.2137C34.9945 12.2751 34.8654 12.3889 34.7849 12.5353C34.7044 12.6817 34.6776 12.8516 34.7091 13.0157C34.7405 13.1798 34.8283 13.3278 34.9572 13.4341C35.0861 13.5404 35.2481 13.5983 35.4152 13.5979C35.5109 13.6012 35.6063 13.5841 35.6949 13.5477Z" fill="#C2CAD2"/>
<path d="M36.6416 36.5551H36.4049C36.3329 36.5327 36.258 36.5207 36.1826 36.5192C35.9924 36.4897 35.7982 36.537 35.6429 36.6507C35.4876 36.7643 35.3837 36.935 35.3542 37.1252C35.3248 37.3155 35.372 37.5096 35.4857 37.6649C35.5993 37.8203 35.7701 37.9241 35.9603 37.9536L36.2615 38.054C36.3307 38.0605 36.4003 38.0605 36.4695 38.054C36.6597 38.0816 36.8531 38.0325 37.0071 37.9175C37.1611 37.8025 37.2631 37.631 37.2906 37.4408C37.3182 37.2506 37.2691 37.0572 37.1541 36.9032C37.0391 36.7492 36.8677 36.6472 36.6774 36.6196L36.6416 36.5551Z" fill="#C2CAD2"/>
<path d="M32.7831 34.5756H32.7473L32.6038 34.4609C32.4767 34.3622 32.3201 34.3092 32.1592 34.3103C32.052 34.3099 31.9462 34.3336 31.8494 34.3795C31.7525 34.4254 31.6673 34.4924 31.5998 34.5756C31.5406 34.6494 31.4966 34.7342 31.4703 34.8251C31.4441 34.916 31.436 35.0111 31.4467 35.1051C31.4574 35.1991 31.4865 35.2901 31.5325 35.3728C31.5784 35.4554 31.6403 35.5282 31.7145 35.5869L31.9655 35.7805C32.0888 35.8762 32.2398 35.9291 32.3958 35.9311C32.5108 35.9345 32.6249 35.9103 32.7285 35.8603C32.8321 35.8104 32.9222 35.7363 32.9911 35.6443C33.106 35.493 33.1562 35.3023 33.1306 35.114C33.1051 34.9258 33.0059 34.7554 32.8548 34.6402L32.7831 34.5756Z" fill="#C2CAD2"/>
<path d="M45.3483 35.9957C45.2468 35.9961 45.1466 36.0181 45.0542 36.0602L44.9251 36.1176L44.8391 36.1606C44.6876 36.2251 44.563 36.3397 44.486 36.4852C44.4091 36.6307 44.3845 36.7983 44.4165 36.9597C44.4484 37.1212 44.535 37.2668 44.6615 37.372C44.7881 37.4772 44.947 37.5357 45.1116 37.5376C45.2047 37.5377 45.2971 37.5207 45.3841 37.4874L45.6782 37.3583C45.8307 37.2934 45.9561 37.1775 46.0328 37.0306C46.1096 36.8836 46.1331 36.7146 46.0993 36.5522C46.0654 36.3899 45.9764 36.2443 45.8473 36.1402C45.7183 36.0361 45.5571 35.98 45.3913 35.9813L45.3483 35.9957Z" fill="#C2CAD2"/>
<path d="M11.1312 13.4114H8.97964V14.8458H11.1312V13.4114Z" fill="#C2CAD2"/>
<path d="M16.5101 29.5482H14.3586V30.9825H16.5101V29.5482Z" fill="#C2CAD2"/>
<path d="M12.207 29.5482H10.0554V30.9825H12.207V29.5482Z" fill="#C2CAD2"/>
<path d="M5.7523 36.0028H3.60073V37.4372H5.7523V36.0028Z" fill="#C2CAD2"/>
<path d="M15.4343 18.7903H13.2828V20.2247H15.4343V18.7903Z" fill="#C2CAD2"/>
<path d="M6.82808 13.4114H4.67651V14.8458H6.82808V13.4114Z" fill="#C2CAD2"/>
</svg>
