<svg width="56" height="56" viewBox="0 0 56 56" fill="none" xmlns="http://www.w3.org/2000/svg">
<path d="M33.5085 30.894C32.9933 30.894 32.5752 31.3121 32.5752 31.8273C32.5752 32.7364 31.9797 33.5036 31.2754 33.5036H24.7246C24.0203 33.5036 23.4248 32.7364 23.4248 31.8273V24.1727C23.4248 23.2643 24.0203 22.4964 24.7246 22.4964H31.2754C31.9797 22.4964 32.5752 23.2636 32.5752 24.1727C32.5752 24.6885 32.9933 25.106 33.5085 25.106C34.0237 25.106 34.4419 24.6885 34.4419 24.1727C34.4419 22.2189 33.0213 20.6298 31.2754 20.6298H28.9333V18.9162C28.9333 18.4004 28.5158 17.9828 28 17.9828C27.4842 17.9828 27.0667 18.4004 27.0667 18.9162V20.6298H24.7246C22.9787 20.6298 21.5581 22.2189 21.5581 24.1727V31.8267C21.5581 33.7804 22.9787 35.3696 24.7246 35.3696H27.0667V37.0832C27.0667 37.5984 27.4842 38.0165 28 38.0165C28.5158 38.0165 28.9333 37.5984 28.9333 37.0832V35.3696H31.276C33.022 35.3696 34.4425 33.7798 34.4425 31.8267C34.4419 31.3115 34.0237 30.894 33.5085 30.894Z" fill="white"/>
<path d="M37.492 41.3342C37.2164 40.8968 36.6389 40.768 36.2052 41.0424C33.7419 42.5961 30.9045 43.4168 28 43.4168C25.0961 43.4168 22.2581 42.5961 19.7948 41.0424C19.3586 40.7668 18.7824 40.898 18.5074 41.3342C18.2324 41.7698 18.363 42.3466 18.7986 42.621C21.2962 44.1958 24.1372 45.0918 27.0667 45.2505V48.6945C25.4682 49.1089 24.286 50.5574 24.286 52.2853C24.286 54.3374 25.9485 56 28 56C30.0515 56 31.714 54.3374 31.714 52.286C31.714 50.5574 30.5318 49.1089 28.9327 48.6945V45.2505C31.8621 45.0918 34.7038 44.1958 37.2002 42.621C37.637 42.3466 37.7676 41.7698 37.492 41.3342ZM29.8474 52.286C29.8474 52.7794 29.6551 53.2436 29.306 53.592C28.9576 53.9411 28.4934 54.1333 28 54.1333C26.9814 54.1333 26.1526 53.3045 26.1526 52.286C26.1526 51.2674 26.9814 50.4386 28 50.4386C29.0186 50.4386 29.8474 51.2674 29.8474 52.286Z" fill="white"/>
<path d="M37.2008 13.379C34.7044 11.8036 31.8628 10.9082 28.9333 10.7495V7.30551C30.5324 6.89111 31.7147 5.44258 31.7147 3.71404C31.714 1.6632 30.0515 0 28 0C25.9485 0 24.286 1.66258 24.286 3.71404C24.286 5.44258 25.4682 6.89049 27.0667 7.30551V10.7495C24.1379 10.9082 21.2962 11.8042 18.7986 13.379C18.3624 13.6534 18.2324 14.2302 18.5074 14.6664C18.6847 14.9476 18.9877 15.102 19.2976 15.102C19.4675 15.102 19.6398 15.0553 19.7948 14.9582C22.2581 13.4045 25.0961 12.5838 28 12.5838C30.9045 12.5838 33.7419 13.4052 36.2052 14.9582C36.6389 15.232 37.2164 15.1032 37.492 14.667C37.7676 14.2302 37.637 13.654 37.2008 13.379ZM26.1526 3.71404C26.1526 2.69547 26.9814 1.86667 28 1.86667C28.4934 1.86667 28.9576 2.05893 29.3067 2.408C29.6557 2.75707 29.848 3.22062 29.848 3.71404C29.848 4.73262 29.0192 5.56142 28.0006 5.56142C26.9814 5.56142 26.1526 4.73262 26.1526 3.71404Z" fill="white"/>
<path d="M52.286 24.286C50.5574 24.286 49.1095 25.4682 48.6945 27.0667H45.2505C45.0918 24.1372 44.1958 21.2962 42.621 18.7986C42.346 18.3618 41.7679 18.233 41.3342 18.5074C40.898 18.7824 40.7674 19.3586 41.0424 19.7948C42.5961 22.2581 43.4168 25.0955 43.4168 28C43.4168 30.9045 42.5961 33.7419 41.0424 36.2059C40.7674 36.6414 40.898 37.2182 41.3342 37.4926C41.4885 37.5903 41.6603 37.6364 41.8314 37.6364C42.1406 37.6364 42.4436 37.482 42.6216 37.2008C44.1964 34.7038 45.0924 31.8621 45.2511 28.9333H48.6951C49.1095 30.5318 50.558 31.714 52.286 31.714C54.3374 31.714 56 30.0515 56 28C56 25.9485 54.3374 24.286 52.286 24.286ZM52.286 29.8474C51.2674 29.8474 50.4386 29.0186 50.4386 28C50.4386 26.9814 51.2674 26.1526 52.286 26.1526C53.3045 26.1526 54.1333 26.9814 54.1333 28C54.1333 29.0186 53.3045 29.8474 52.286 29.8474Z" fill="white"/>
<path d="M12.5832 28C12.5832 25.0961 13.4045 22.2581 14.9582 19.7948C15.2326 19.3586 15.1026 18.7824 14.6664 18.5074C14.2296 18.233 13.654 18.3636 13.379 18.7992C11.8042 21.2968 10.9082 24.1385 10.7495 27.0673H7.30551C6.89111 25.4688 5.44258 24.2866 3.71467 24.2866C1.66258 24.286 0 25.9485 0 28C0 30.0515 1.66258 31.714 3.71404 31.714C5.44258 31.714 6.89049 30.5318 7.30489 28.9333H10.7489C10.9076 31.8621 11.8036 34.7032 13.3784 37.2008C13.5564 37.482 13.8588 37.6364 14.1692 37.6364C14.3391 37.6364 14.5115 37.5903 14.6658 37.4926C15.102 37.2182 15.2326 36.6414 14.9576 36.2059C13.4039 33.7412 12.5832 30.9039 12.5832 28ZM3.71404 29.8474C2.69547 29.8474 1.86667 29.0186 1.86667 28C1.86667 26.9814 2.69547 26.1526 3.71404 26.1526C4.73262 26.1526 5.56142 26.9814 5.56142 28C5.56142 29.0186 4.73262 29.8474 3.71404 29.8474Z" fill="white"/>
<path d="M19.8532 36.1468C19.4886 35.7821 18.8981 35.7821 18.5335 36.1468L10.5908 44.0894C10.0389 43.7646 9.39804 43.5748 8.71111 43.5748C6.65964 43.5748 4.99707 45.2374 4.99707 47.2889C4.99707 49.3404 6.65964 51.0029 8.71111 51.0029C10.7626 51.0029 12.4252 49.3404 12.4252 47.2889C12.4252 46.602 12.2354 45.9611 11.9106 45.4092L19.8532 37.4665C20.2179 37.1019 20.2179 36.5114 19.8532 36.1468ZM8.71111 49.1363C7.69253 49.1363 6.86373 48.3075 6.86373 47.2889C6.86373 46.2703 7.69253 45.4415 8.71111 45.4415C9.72969 45.4415 10.5585 46.2703 10.5585 47.2889C10.5585 48.3075 9.72969 49.1363 8.71111 49.1363Z" fill="white"/>
<path d="M48.0642 4.22116C46.0127 4.22116 44.3501 5.88373 44.3501 7.9352C44.3501 8.62213 44.5399 9.26302 44.8647 9.81493L35.9694 18.7108C35.6048 19.0748 35.6048 19.6666 35.9694 20.0306C36.1517 20.2129 36.3907 20.3037 36.6296 20.3037C36.8685 20.3037 37.1075 20.2129 37.2898 20.0306L46.1851 11.1353C46.737 11.4601 47.3779 11.6499 48.0648 11.6499C50.1163 11.6499 51.7789 9.98729 51.7789 7.93582C51.7789 5.88436 50.1157 4.22116 48.0642 4.22116ZM48.0642 9.7832C47.0456 9.7832 46.2168 8.9544 46.2168 7.93582C46.2168 6.91724 47.0456 6.08844 48.0642 6.08844C49.0828 6.08844 49.9116 6.91724 49.9116 7.93582C49.9122 8.9544 49.0834 9.7832 48.0642 9.7832Z" fill="white"/>
<path d="M48.0642 43.5748C47.3772 43.5748 46.7364 43.7646 46.1844 44.0894L38.2418 36.1468C37.8772 35.7821 37.2867 35.7821 36.922 36.1468C36.5574 36.5114 36.5574 37.1019 36.922 37.4665L44.8647 45.4092C44.5399 45.9611 44.3501 46.602 44.3501 47.2889C44.3501 49.3404 46.0127 51.0029 48.0642 51.0029C50.1157 51.0029 51.7782 49.3404 51.7782 47.2889C51.7788 45.2374 50.1157 43.5748 48.0642 43.5748ZM48.0642 49.1363C47.0456 49.1363 46.2168 48.3075 46.2168 47.2889C46.2168 46.2703 47.0456 45.4415 48.0642 45.4415C49.0828 45.4415 49.9116 46.2703 49.9116 47.2889C49.9122 48.3075 49.0834 49.1363 48.0642 49.1363Z" fill="white"/>
<path d="M20.8059 18.7108L11.9106 9.81493C12.2354 9.26302 12.4252 8.62213 12.4252 7.9352C12.4252 5.88373 10.7626 4.22116 8.71111 4.22116C6.65964 4.22116 4.99707 5.88373 4.99707 7.9352C4.99707 9.98667 6.65964 11.6492 8.71111 11.6492C9.39804 11.6492 10.0389 11.4595 10.5908 11.1347L19.4868 20.0306C19.6691 20.2129 19.908 20.3037 20.1469 20.3037C20.3859 20.3037 20.6248 20.2129 20.8071 20.0306C21.1705 19.6666 21.1705 19.0748 20.8059 18.7108ZM6.86373 7.93582C6.86373 6.91724 7.69253 6.08844 8.71111 6.08844C9.72969 6.08844 10.5585 6.91724 10.5585 7.93582C10.5585 8.9544 9.72969 9.7832 8.71111 9.7832C7.69253 9.7832 6.86373 8.9544 6.86373 7.93582Z" fill="white"/>
</svg>
