<svg width="53" height="52" viewBox="0 0 53 52" fill="none" xmlns="http://www.w3.org/2000/svg">
<path d="M1.762 11.9091C1.69873 12.1492 1.7412 12.4057 1.879 12.6128L4.51204 16.5633L4.5129 16.565L12.2794 28.2143L12.2933 28.2048C12.3245 28.2524 12.3453 28.3044 12.3877 28.346L17.1234 33.0817C15.7479 33.4856 14.7339 34.7457 14.7339 36.2503C14.7339 36.3067 14.7469 36.3595 14.7504 36.415C14.694 36.4124 14.6412 36.3994 14.5848 36.3994C12.7561 36.3994 11.2671 37.8884 11.2671 39.7171C11.2671 40.6029 11.612 41.4367 12.2387 42.0633L15.1369 44.9615C15.5148 45.3394 15.9724 45.6003 16.4673 45.7598V52H18.2007V45.8499C19.6854 45.5206 20.8008 44.1971 20.8008 42.6154C20.8008 42.559 20.7878 42.5062 20.7843 42.4507C20.8407 42.4533 20.8935 42.4663 20.9499 42.4663C22.4545 42.4663 23.7146 41.4523 24.1194 40.0768L25.3882 41.3457C25.5572 41.5147 25.7791 41.5996 26.001 41.5996C26.2229 41.5996 26.4447 41.5147 26.6137 41.3457L28.1677 39.7917L29.4678 41.0917V42.4663H31.2012V40.7329C31.2012 40.5024 31.1102 40.2822 30.9472 40.1201L26.8677 36.0406V32.9326C26.8677 32.7021 26.7767 32.4819 26.6137 32.3199L22.9979 28.704C21.9838 27.6899 21.9838 26.0415 22.9979 25.0274L23.4009 24.6244L28.855 30.0786C29.0171 30.2415 29.2372 30.3325 29.4678 30.3325H36.4014V52H38.1348V29.8246L50.0146 17.9448C50.3535 17.6059 50.3535 17.0581 50.0146 16.7193L37.015 3.71963C36.6761 3.38075 36.1284 3.38075 35.7895 3.71963L35.3215 4.18765L28.9079 1.72102H28.907L24.5805 0.056959C24.4695 0.0144907 24.356 -0.00371001 24.2442 0.00062349C24.2399 0.00062349 24.2355 0.00322361 24.2312 0.00322361C24.1246 0.0084238 24.0197 0.0300912 23.9226 0.0725595C23.888 0.0872934 23.862 0.116761 23.829 0.136695C23.6722 0.230299 23.537 0.362037 23.4642 0.544911L22.9675 1.78602L11.144 3.47349C10.9135 3.50642 10.7072 3.63036 10.5694 3.8167C10.4316 4.00478 10.3735 4.23878 10.4108 4.46846L10.8242 7.05036L2.21182 11.3561C1.98994 11.4671 1.82614 11.669 1.762 11.9091ZM6.74639 11.0285C6.8712 11.3839 6.9336 11.7522 6.9336 12.1318C6.9336 13.2473 6.39018 14.283 5.50614 14.9278L3.86548 12.4681L6.74639 11.0285ZM16.4838 25.4755C17.0298 26.0995 17.334 26.8908 17.334 27.7324C17.334 28.574 17.0298 29.3653 16.4838 29.9893L14.226 27.7324L16.4838 25.4755ZM19.0674 42.6154C19.0674 43.489 18.3567 44.1997 17.4831 44.1997C17.0662 44.1997 16.6571 44.0307 16.3624 43.736L13.4642 40.8378C13.1695 40.5431 13.0005 40.1349 13.0005 39.7171C13.0005 38.8435 13.7112 38.1328 14.5848 38.1328C15.0017 38.1328 15.4108 38.3018 15.7055 38.5965L18.6037 41.4947C18.8984 41.7894 19.0674 42.1976 19.0674 42.6154ZM22.5342 39.1486C22.5342 40.0222 21.8235 40.7329 20.9499 40.7329C20.533 40.7329 20.1239 40.5639 19.8292 40.2692L16.931 37.371C16.6363 37.0763 16.4673 36.6681 16.4673 36.2503C16.4673 35.3767 17.178 34.666 18.0516 34.666C18.4685 34.666 18.8776 34.835 19.1723 35.1297L22.0705 38.0279C22.3652 38.3226 22.5342 38.7308 22.5342 39.1486ZM26.9422 38.5662L26.001 39.5074L23.7493 37.2557C24.1584 36.8969 24.6368 36.6429 25.156 36.5103C25.1811 36.6984 25.2522 36.877 25.3882 37.0122L26.9422 38.5662ZM29.8266 28.5991L24.0136 22.7862C23.6748 22.4473 23.127 22.4473 22.7881 22.7862L21.7724 23.8019C20.0832 25.4911 20.0832 28.2403 21.7724 29.9295L25.1343 33.2914V34.7466C24.1567 34.9121 23.257 35.3533 22.5221 36.0276L17.7049 31.2105C18.576 30.2623 19.0674 29.0411 19.0674 27.7324C19.0674 26.4237 18.576 25.2025 17.7049 24.2535L32.9216 9.03683C33.8715 9.907 35.0927 10.3984 36.4014 10.3984C37.7101 10.3984 38.9313 9.907 39.8803 9.03597L44.6966 13.8522C43.8264 14.8021 43.335 16.0233 43.335 17.332C43.335 18.6407 43.8264 19.8619 44.6974 20.8109L36.9093 28.5991H29.8266ZM45.9186 19.5889C45.3726 18.9649 45.0684 18.1736 45.0684 17.332C45.0684 16.4904 45.3726 15.6992 45.9186 15.0751L48.1764 17.332L45.9186 19.5889ZM38.6583 7.81479C37.4111 8.90856 35.3925 8.90856 34.1454 7.81479L36.4014 5.55703L38.6583 7.81479ZM16.2402 23.2672L23.0083 6.34573C23.6522 6.71581 24.3725 6.93162 25.1343 6.93162C27.1303 6.93162 28.7978 5.5683 29.2997 3.7283L33.979 5.52843L16.2402 23.2672ZM27.6841 3.10774C27.4466 4.29772 26.3936 5.19822 25.1343 5.19822C24.5978 5.19822 24.0873 5.03528 23.6548 4.7302L24.7547 1.98017L27.6841 3.10774ZM14.9454 21.8363L12.9632 9.44852C14.9566 9.05937 16.4673 7.30343 16.4673 5.19822C16.4673 4.95468 16.4404 4.71287 16.3988 4.47366L22.2239 3.64163L14.9454 21.8363ZM14.6862 4.71807C14.7174 4.87754 14.7339 5.03701 14.7339 5.19822C14.7339 6.4454 13.8507 7.49151 12.6911 7.74112L12.2629 5.06475L14.6862 4.71807ZM13.6921 24.9702L13.1331 26.3682L6.46038 16.3604C7.8211 15.3975 8.667 13.8314 8.667 12.1318C8.667 11.4905 8.53352 10.856 8.29518 10.2537L11.112 8.84529L13.6921 24.9702Z" fill="#C2CAD2"/>
<path d="M37.2681 21.6655C37.2681 18.7976 34.9358 16.4653 32.0679 16.4653C29.2 16.4653 26.8677 18.7976 26.8677 21.6655C26.8677 24.5334 29.2 26.8657 32.0679 26.8657C34.9358 26.8657 37.2681 24.5334 37.2681 21.6655ZM32.0679 25.1323C30.1559 25.1323 28.6011 23.5775 28.6011 21.6655C28.6011 19.7536 30.1559 18.1987 32.0679 18.1987C33.9798 18.1987 35.5347 19.7536 35.5347 21.6655C35.5347 23.5775 33.9798 25.1323 32.0679 25.1323Z" fill="#C2CAD2"/>
<path d="M51.1353 28.5991C49.2233 28.5991 47.6685 27.0443 47.6685 25.1323C47.6685 24.653 47.2811 24.2656 46.8018 24.2656C46.3225 24.2656 45.9351 24.653 45.9351 25.1323C45.9351 27.0443 44.3802 28.5991 42.4683 28.5991C41.989 28.5991 41.6016 28.9865 41.6016 29.4658C41.6016 29.9451 41.989 30.3325 42.4683 30.3325C44.3802 30.3325 45.9351 31.8874 45.9351 33.7993C45.9351 34.2786 46.3225 34.666 46.8018 34.666C47.2811 34.666 47.6685 34.2786 47.6685 33.7993C47.6685 31.8874 49.2233 30.3325 51.1353 30.3325C51.6146 30.3325 52.002 29.9451 52.002 29.4658C52.002 28.9865 51.6146 28.5991 51.1353 28.5991ZM46.8018 30.9279C46.417 30.349 45.9186 29.8515 45.3397 29.4658C45.9186 29.081 46.4161 28.5826 46.8018 28.0037C47.1866 28.5826 47.6849 29.0801 48.2639 29.4658C47.6849 29.8506 47.1866 30.349 46.8018 30.9279Z" fill="#C2CAD2"/>
<path d="M0 32.0659C0 32.5452 0.387415 32.9326 0.8667 32.9326C3.25619 32.9326 5.2002 34.8766 5.2002 37.2661C5.2002 37.7454 5.58761 38.1328 6.0669 38.1328C6.54618 38.1328 6.9336 37.7454 6.9336 37.2661C6.9336 34.8766 8.8776 32.9326 11.2671 32.9326C11.7464 32.9326 12.1338 32.5452 12.1338 32.0659C12.1338 31.5866 11.7464 31.1992 11.2671 31.1992C8.8776 31.1992 6.9336 29.2552 6.9336 26.8657C6.9336 26.3864 6.54618 25.999 6.0669 25.999C5.58761 25.999 5.2002 26.3864 5.2002 26.8657C5.2002 29.2552 3.25619 31.1992 0.8667 31.1992C0.387415 31.1992 0 31.5866 0 32.0659ZM6.0669 29.9884C6.57912 30.8378 7.29501 31.5546 8.14438 32.0659C7.29501 32.5781 6.57825 33.294 6.0669 34.1434C5.55468 33.294 4.83878 32.5781 3.98942 32.0659C4.83878 31.5537 5.55468 30.8378 6.0669 29.9884Z" fill="#C2CAD2"/>
</svg>
