<svg xmlns="http://www.w3.org/2000/svg" width="22" height="22" viewBox="0 0 22 22" fill="none"><path d="M8.30611 16.0938V18.8857C8.30611 19.6001 8.58993 20.2853 9.09513 20.7905C9.60033 21.2957 10.2855 21.5795 11 21.5795C11.7145 21.5795 12.3996 21.2957 12.9048 20.7905C13.41 20.2853 13.6939 19.6001 13.6939 18.8857V16.1183C14.5831 15.6109 15.3257 14.8817 15.8493 14.0018C16.3729 13.122 16.6597 12.1215 16.6816 11.0979C16.6756 10.3271 16.5142 9.5655 16.2071 8.85856C15.8999 8.15163 15.4532 7.51393 14.8939 6.98362C14.0892 6.22625 13.0811 5.71997 11.9931 5.52678C10.9051 5.33358 9.78436 5.46186 8.76814 5.8959C7.75192 6.32994 6.88432 7.0509 6.27159 7.9705C5.65886 8.8901 5.3276 9.96842 5.31836 11.0734C5.33547 12.0981 5.6202 13.1005 6.1443 13.9811C6.66839 14.8618 7.41365 15.5901 8.30611 16.0938ZM12.7143 18.102H9.2857V17.3673H12.7143V18.102ZM11 20.551C10.5989 20.5331 10.2163 20.3771 9.91725 20.1092C9.61816 19.8414 9.42098 19.4783 9.35917 19.0816H12.6408C12.579 19.4783 12.3818 19.8414 12.0827 20.1092C11.7836 20.3771 11.4011 20.5331 11 20.551ZM10.7061 6.44485H11C12.1917 6.44972 13.3375 6.90457 14.2082 7.71831C14.7573 8.24615 15.1699 8.89948 15.4106 9.6221C15.6514 10.3447 15.7129 11.115 15.5901 11.8667C15.4672 12.6184 15.1635 13.329 14.7053 13.9373C14.247 14.5457 13.6478 15.0336 12.9592 15.3591C12.8822 15.4035 12.8188 15.468 12.7756 15.5456C12.7325 15.6233 12.7113 15.7112 12.7143 15.7999V16.3877H9.2857V15.7999C9.29053 15.7075 9.27032 15.6155 9.22722 15.5336C9.18412 15.4517 9.11972 15.383 9.04081 15.3346C8.21884 14.9748 7.52069 14.3814 7.03306 13.6282C6.54543 12.875 6.28981 11.9951 6.29795 11.0979C6.32484 9.91375 6.79083 8.78183 7.60544 7.92197C8.42005 7.0621 9.52513 6.53565 10.7061 6.44485Z" fill="#1F3C61"></path><path d="M11 4.11839C11.1299 4.11839 11.2544 4.06678 11.3463 3.97493C11.4381 3.88307 11.4898 3.75849 11.4898 3.62859V0.983693C11.4898 0.853791 11.4381 0.729209 11.3463 0.637354C11.2544 0.5455 11.1299 0.493896 11 0.493896C10.8701 0.493896 10.7455 0.5455 10.6536 0.637354C10.5618 0.729209 10.5102 0.853791 10.5102 0.983693V3.62859C10.5102 3.75849 10.5618 3.88307 10.6536 3.97493C10.7455 4.06678 10.8701 4.11839 11 4.11839Z" fill="#1F3C61"></path><path d="M1.13057 11.245H3.77547C3.90537 11.245 4.02995 11.1934 4.12181 11.1015C4.21366 11.0097 4.26527 10.8851 4.26527 10.7552C4.26527 10.6253 4.21366 10.5007 4.12181 10.4088C4.02995 10.317 3.90537 10.2654 3.77547 10.2654H1.13057C1.00067 10.2654 0.87609 10.317 0.784236 10.4088C0.692381 10.5007 0.640778 10.6253 0.640778 10.7552C0.640778 10.8851 0.692381 11.0097 0.784236 11.1015C0.87609 11.1934 1.00067 11.245 1.13057 11.245Z" fill="#1F3C61"></path><path d="M17.7346 10.7552C17.7346 10.8851 17.7863 11.0097 17.8781 11.1015C17.97 11.1934 18.0945 11.245 18.2244 11.245H20.8693C20.9992 11.245 21.1238 11.1934 21.2157 11.1015C21.3075 11.0097 21.3591 10.8851 21.3591 10.7552C21.3591 10.6253 21.3075 10.5007 21.2157 10.4088C21.1238 10.317 20.9992 10.2654 20.8693 10.2654H18.2244C18.0945 10.2654 17.97 10.317 17.8781 10.4088C17.7863 10.5007 17.7346 10.6253 17.7346 10.7552Z" fill="#1F3C61"></path><path d="M5.56317 6.07751C5.60676 6.12502 5.65974 6.16295 5.71876 6.1889C5.77779 6.21484 5.84156 6.22824 5.90603 6.22824C5.9705 6.22824 6.03427 6.21484 6.09329 6.1889C6.15231 6.16295 6.2053 6.12502 6.24889 6.07751C6.29639 6.03392 6.33432 5.98094 6.36027 5.92192C6.38622 5.8629 6.39961 5.79913 6.39961 5.73465C6.39961 5.67018 6.38622 5.60641 6.36027 5.54739C6.33432 5.48837 6.29639 5.43539 6.24889 5.3918L4.36317 3.53057C4.32107 3.47443 4.26739 3.428 4.20578 3.39441C4.14416 3.36082 4.07605 3.34086 4.00605 3.33589C3.93606 3.33091 3.86581 3.34104 3.80006 3.36558C3.73432 3.39011 3.67462 3.42849 3.62499 3.47811C3.57537 3.52773 3.537 3.58744 3.51246 3.65318C3.48792 3.71893 3.47779 3.78918 3.48277 3.85917C3.48774 3.92917 3.5077 3.99728 3.54129 4.05889C3.57488 4.12051 3.62132 4.17418 3.67746 4.21629L5.56317 6.07751Z" fill="#1F3C61"></path><path d="M16.0938 6.22445C16.223 6.22261 16.3462 6.1698 16.4367 6.07751L18.3224 4.21629C18.3785 4.17418 18.425 4.12051 18.4585 4.05889C18.4921 3.99728 18.5121 3.92917 18.5171 3.85917C18.522 3.78918 18.5119 3.71893 18.4874 3.65318C18.4628 3.58744 18.4245 3.52773 18.3748 3.47811C18.3252 3.42849 18.2655 3.39011 18.1998 3.36558C18.134 3.34104 18.0638 3.33091 17.9938 3.33589C17.9238 3.34086 17.8557 3.36082 17.7941 3.39441C17.7324 3.428 17.6788 3.47443 17.6367 3.53057L15.7509 5.3918C15.7034 5.43539 15.6655 5.48837 15.6396 5.54739C15.6136 5.60641 15.6002 5.67018 15.6002 5.73466C15.6002 5.79913 15.6136 5.8629 15.6396 5.92192C15.6655 5.98094 15.7034 6.03392 15.7509 6.07751C15.8414 6.1698 15.9646 6.22261 16.0938 6.22445Z" fill="#1F3C61"></path></svg>