<svg xmlns="http://www.w3.org/2000/svg" width="68" height="56" viewBox="0 0 68 56" fill="none"><path d="M49 55V49C49 45.8174 47.7357 42.7652 45.4853 40.5147C43.2348 38.2643 40.1826 37 37 37H13C9.8174 37 6.76515 38.2643 4.51472 40.5147C2.26428 42.7652 1 45.8174 1 49V55M67 55V49C66.998 46.3412 66.1131 43.7583 64.4841 41.6569C62.8551 39.5556 60.5744 38.0547 58 37.39M46 1.39C48.5812 2.0509 50.8691 3.5521 52.5029 5.65693C54.1367 7.76176 55.0235 10.3505 55.0235 13.015C55.0235 15.6795 54.1367 18.2682 52.5029 20.3731C50.8691 22.4779 48.5812 23.9791 46 24.64M37 13C37 19.6274 31.6274 25 25 25C18.3726 25 13 19.6274 13 13C13 6.37258 18.3726 1 25 1C31.6274 1 37 6.37258 37 13Z" stroke="#1F3C61" stroke-width="2" stroke-linecap="round" stroke-linejoin="round"></path></svg>