<svg width="30" height="26" viewBox="0 0 30 26" fill="none" xmlns="http://www.w3.org/2000/svg">
<path d="M14.9998 6.33333C14.9998 4.91885 14.4379 3.56229 13.4377 2.5621C12.4375 1.5619 11.081 1 9.6665 1H1.6665V21H10.9998C12.0607 21 13.0781 21.4214 13.8283 22.1716C14.5784 22.9217 14.9998 23.9391 14.9998 25M14.9998 6.33333V25M14.9998 6.33333C14.9998 4.91885 15.5617 3.56229 16.5619 2.5621C17.5621 1.5619 18.9187 1 20.3332 1H28.3332V21H18.9998C17.939 21 16.9216 21.4214 16.1714 22.1716C15.4213 22.9217 14.9998 23.9391 14.9998 25" stroke="white" stroke-width="1.4" stroke-linecap="round" stroke-linejoin="round"/>
</svg>
