<svg width="32" height="26" viewBox="0 0 32 26" fill="none" xmlns="http://www.w3.org/2000/svg">
<path d="M22.6668 25V22.3333C22.6668 20.9188 22.1049 19.5623 21.1047 18.5621C20.1045 17.5619 18.748 17 17.3335 17H6.66683C5.25234 17 3.89579 17.5619 2.89559 18.5621C1.8954 19.5623 1.3335 20.9188 1.3335 22.3333V25M30.6668 25V22.3333C30.6659 21.1516 30.2726 20.0037 29.5486 19.0698C28.8247 18.1358 27.811 17.4688 26.6668 17.1733M21.3335 1.17333C22.4807 1.46707 23.4975 2.13427 24.2237 3.06975C24.9498 4.00523 25.344 5.15577 25.344 6.34C25.344 7.52423 24.9498 8.67477 24.2237 9.61025C23.4975 10.5457 22.4807 11.2129 21.3335 11.5067M17.3335 6.33333C17.3335 9.27885 14.9457 11.6667 12.0002 11.6667C9.05464 11.6667 6.66683 9.27885 6.66683 6.33333C6.66683 3.38781 9.05464 1 12.0002 1C14.9457 1 17.3335 3.38781 17.3335 6.33333Z" stroke="white" stroke-width="1.4" stroke-linecap="round" stroke-linejoin="round"/>
</svg>
