<svg xmlns="http://www.w3.org/2000/svg" width="24" height="24" viewBox="0 0 24 24" fill="none"><path d="M9.30611 17.0938V19.8857C9.30611 20.6001 9.58993 21.2853 10.0951 21.7905C10.6003 22.2957 11.2855 22.5795 12 22.5795C12.7145 22.5795 13.3996 22.2957 13.9048 21.7905C14.41 21.2853 14.6939 20.6001 14.6939 19.8857V17.1183C15.5831 16.6109 16.3257 15.8817 16.8493 15.0018C17.3729 14.122 17.6597 13.1215 17.6816 12.0979C17.6756 11.3271 17.5142 10.5655 17.2071 9.85856C16.8999 9.15163 16.4532 8.51393 15.8939 7.98362C15.0892 7.22625 14.0811 6.71997 12.9931 6.52678C11.9051 6.33358 10.7844 6.46186 9.76814 6.8959C8.75192 7.32994 7.88432 8.0509 7.27159 8.9705C6.65886 9.8901 6.3276 10.9684 6.31836 12.0734C6.33547 13.0981 6.6202 14.1005 7.1443 14.9811C7.66839 15.8618 8.41365 16.5901 9.30611 17.0938ZM13.7143 19.102H10.2857V18.3673H13.7143V19.102ZM12 21.551C11.5989 21.5331 11.2163 21.3771 10.9173 21.1092C10.6182 20.8414 10.421 20.4783 10.3592 20.0816H13.6408C13.579 20.4783 13.3818 20.8414 13.0827 21.1092C12.7836 21.3771 12.4011 21.5331 12 21.551ZM11.7061 7.44485H12C13.1917 7.44972 14.3375 7.90457 15.2082 8.71831C15.7573 9.24615 16.1699 9.89948 16.4106 10.6221C16.6514 11.3447 16.7129 12.115 16.5901 12.8667C16.4672 13.6184 16.1635 14.329 15.7053 14.9373C15.247 15.5457 14.6478 16.0336 13.9592 16.3591C13.8822 16.4035 13.8188 16.468 13.7756 16.5456C13.7325 16.6233 13.7113 16.7112 13.7143 16.7999V17.3877H10.2857V16.7999C10.2905 16.7075 10.2703 16.6155 10.2272 16.5336C10.1841 16.4517 10.1197 16.383 10.0408 16.3346C9.21884 15.9748 8.52069 15.3814 8.03306 14.6282C7.54543 13.875 7.28981 12.9951 7.29795 12.0979C7.32484 10.9137 7.79083 9.78183 8.60544 8.92197C9.42005 8.0621 10.5251 7.53565 11.7061 7.44485Z" fill="#1F3C61"></path><path d="M12 5.11839C12.1299 5.11839 12.2544 5.06678 12.3463 4.97493C12.4381 4.88307 12.4898 4.75849 12.4898 4.62859V1.98369C12.4898 1.85379 12.4381 1.72921 12.3463 1.63735C12.2544 1.5455 12.1299 1.4939 12 1.4939C11.8701 1.4939 11.7455 1.5455 11.6536 1.63735C11.5618 1.72921 11.5102 1.85379 11.5102 1.98369V4.62859C11.5102 4.75849 11.5618 4.88307 11.6536 4.97493C11.7455 5.06678 11.8701 5.11839 12 5.11839Z" fill="#1F3C61"></path><path d="M2.13057 12.245H4.77547C4.90537 12.245 5.02995 12.1934 5.12181 12.1015C5.21366 12.0097 5.26527 11.8851 5.26527 11.7552C5.26527 11.6253 5.21366 11.5007 5.12181 11.4088C5.02995 11.317 4.90537 11.2654 4.77547 11.2654H2.13057C2.00067 11.2654 1.87609 11.317 1.78424 11.4088C1.69238 11.5007 1.64078 11.6253 1.64078 11.7552C1.64078 11.8851 1.69238 12.0097 1.78424 12.1015C1.87609 12.1934 2.00067 12.245 2.13057 12.245Z" fill="#1F3C61"></path><path d="M18.7346 11.7552C18.7346 11.8851 18.7863 12.0097 18.8781 12.1015C18.97 12.1934 19.0945 12.245 19.2244 12.245H21.8693C21.9992 12.245 22.1238 12.1934 22.2157 12.1015C22.3075 12.0097 22.3591 11.8851 22.3591 11.7552C22.3591 11.6253 22.3075 11.5007 22.2157 11.4088C22.1238 11.317 21.9992 11.2654 21.8693 11.2654H19.2244C19.0945 11.2654 18.97 11.317 18.8781 11.4088C18.7863 11.5007 18.7346 11.6253 18.7346 11.7552Z" fill="#1F3C61"></path><path d="M6.56317 7.07751C6.60676 7.12502 6.65974 7.16295 6.71876 7.1889C6.77779 7.21484 6.84156 7.22824 6.90603 7.22824C6.9705 7.22824 7.03427 7.21484 7.09329 7.1889C7.15231 7.16295 7.2053 7.12502 7.24889 7.07751C7.29639 7.03392 7.33432 6.98094 7.36027 6.92192C7.38622 6.8629 7.39961 6.79913 7.39961 6.73465C7.39961 6.67018 7.38622 6.60641 7.36027 6.54739C7.33432 6.48837 7.29639 6.43539 7.24889 6.3918L5.36317 4.53057C5.32107 4.47443 5.26739 4.428 5.20578 4.39441C5.14416 4.36082 5.07605 4.34086 5.00605 4.33589C4.93606 4.33091 4.86581 4.34104 4.80006 4.36558C4.73432 4.39011 4.67462 4.42849 4.62499 4.47811C4.57537 4.52773 4.537 4.58744 4.51246 4.65318C4.48792 4.71893 4.47779 4.78918 4.48277 4.85917C4.48774 4.92917 4.5077 4.99728 4.54129 5.05889C4.57488 5.12051 4.62132 5.17418 4.67746 5.21629L6.56317 7.07751Z" fill="#1F3C61"></path><path d="M17.0938 7.22445C17.223 7.22261 17.3462 7.1698 17.4367 7.07751L19.3224 5.21629C19.3785 5.17418 19.425 5.12051 19.4585 5.05889C19.4921 4.99728 19.5121 4.92917 19.5171 4.85917C19.522 4.78918 19.5119 4.71893 19.4874 4.65318C19.4628 4.58744 19.4245 4.52773 19.3748 4.47811C19.3252 4.42849 19.2655 4.39011 19.1998 4.36558C19.134 4.34104 19.0638 4.33091 18.9938 4.33589C18.9238 4.34086 18.8557 4.36082 18.7941 4.39441C18.7324 4.428 18.6788 4.47443 18.6367 4.53057L16.7509 6.3918C16.7034 6.43539 16.6655 6.48837 16.6396 6.54739C16.6136 6.60641 16.6002 6.67018 16.6002 6.73466C16.6002 6.79913 16.6136 6.8629 16.6396 6.92192C16.6655 6.98094 16.7034 7.03392 16.7509 7.07751C16.8414 7.1698 16.9646 7.22261 17.0938 7.22445Z" fill="#1F3C61"></path></svg>