<svg width="32" height="32" viewBox="0 0 32 32" fill="none" xmlns="http://www.w3.org/2000/svg">
<path d="M25.3332 13.3333V16C25.3332 18.4753 24.3498 20.8493 22.5995 22.5996C20.8492 24.35 18.4752 25.3333 15.9998 25.3333M15.9998 25.3333C13.5245 25.3333 11.1505 24.35 9.40017 22.5996C7.64983 20.8493 6.6665 18.4753 6.6665 16V13.3333M15.9998 25.3333V30.6666M10.6665 30.6666H21.3332M15.9998 1.33331C14.939 1.33331 13.9216 1.75474 13.1714 2.50489C12.4213 3.25503 11.9998 4.27245 11.9998 5.33331V16C11.9998 17.0608 12.4213 18.0783 13.1714 18.8284C13.9216 19.5786 14.939 20 15.9998 20C17.0607 20 18.0781 19.5786 18.8283 18.8284C19.5784 18.0783 19.9998 17.0608 19.9998 16V5.33331C19.9998 4.27245 19.5784 3.25503 18.8283 2.50489C18.0781 1.75474 17.0607 1.33331 15.9998 1.33331Z" stroke="white" stroke-width="1.4" stroke-linecap="round" stroke-linejoin="round"/>
</svg>
