<svg width="32" height="32" viewBox="0 0 32 32" fill="none" xmlns="http://www.w3.org/2000/svg">
<path d="M19.0082 8.88766C18.7575 9.14339 18.6171 9.48721 18.6171 9.8453C18.6171 10.2034 18.7575 10.5472 19.0082 10.8029L21.1971 12.9918C21.4528 13.2425 21.7966 13.3829 22.1547 13.3829C22.5128 13.3829 22.8566 13.2425 23.1123 12.9918L28.2699 7.83425C28.9579 9.35443 29.1661 11.0482 28.867 12.6897C28.568 14.3313 27.7757 15.8427 26.5958 17.0225C25.416 18.2024 23.9045 18.9947 22.263 19.2938C20.6214 19.5929 18.9277 19.3846 17.4075 18.6967L7.9542 28.15C7.40995 28.6942 6.67179 29 5.9021 29C5.13242 29 4.39426 28.6942 3.85001 28.15C3.30576 27.6057 3 26.8676 3 26.0979C3 25.3282 3.30576 24.5901 3.85001 24.0458L13.3033 14.5925C12.6154 13.0723 12.4071 11.3786 12.7062 9.73703C13.0053 8.09547 13.7976 6.58405 14.9775 5.40419C16.1573 4.22432 17.6687 3.43205 19.3103 3.13295C20.9519 2.83386 22.6456 3.04215 24.1658 3.73006L19.0082 8.88766Z" stroke="white" stroke-width="1.4" stroke-linecap="round" stroke-linejoin="round"/>
</svg>
