<svg width="160" height="160" viewBox="0 0 160 160" fill="none" xmlns="http://www.w3.org/2000/svg">
<circle cx="80" cy="80" r="78" fill="white" stroke="#C2CAD2" stroke-width="4"/>
<circle cx="80" cy="80" r="69" fill="white" stroke="#C2CAD2" stroke-width="2"/>
<path d="M102.847 63.9551C102.369 63.679 101.757 63.8429 101.481 64.3213C101.205 64.7996 101.369 65.4112 101.848 65.6872L102.847 63.9551ZM102.347 72.503L102.849 71.6378L102.848 71.6372L102.347 72.503ZM98.8599 69.3326C98.3817 69.0563 97.77 69.2199 97.4937 69.6981C97.2174 70.1763 97.381 70.788 97.8592 71.0643L98.8599 69.3326ZM95.778 59.8728C95.3 59.5962 94.6882 59.7596 94.4117 60.2377C94.1352 60.7157 94.2985 61.3275 94.7766 61.604L95.778 59.8728ZM95.777 75.2407C95.2986 74.9647 94.6871 75.1288 94.4111 75.6072C94.1351 76.0856 94.2992 76.6971 94.7776 76.9731L95.777 75.2407ZM98.8599 69.3374C98.3817 69.0611 97.77 69.2247 97.4937 69.7029C97.2174 70.1811 97.381 70.7927 97.8592 71.0691L98.8599 69.3374ZM102.347 72.5078L101.847 73.3736L101.848 73.3739L102.347 72.5078ZM102.849 79.3244C102.371 79.0476 101.759 79.2105 101.482 79.6883C101.205 80.1662 101.368 80.7781 101.846 81.0549L102.849 79.3244ZM99.3595 59.3869C99.3595 58.8347 98.9118 58.3869 98.3595 58.3869C97.8073 58.3869 97.3595 58.8347 97.3595 59.3869H99.3595ZM101.3 64.7927C101.3 65.345 101.748 65.7927 102.3 65.7927C102.852 65.7927 103.3 65.345 103.3 64.7927H101.3ZM103.3 61.6631C103.3 61.1108 102.852 60.6631 102.3 60.6631C101.748 60.6631 101.3 61.1108 101.3 61.6631H103.3ZM101.3 83.2909C101.3 83.8432 101.748 84.2909 102.3 84.2909C102.852 84.2909 103.3 83.8432 103.3 83.2909H101.3ZM103.3 80.1612C103.3 79.6089 102.852 79.1612 102.3 79.1612C101.748 79.1612 101.3 79.6089 101.3 80.1612H103.3ZM97.3595 81.0195C97.3595 81.5718 97.8073 82.0195 98.3595 82.0195C98.9118 82.0195 99.3595 81.5718 99.3595 81.0195H97.3595ZM92.2926 106.087C91.8143 106.363 91.6504 106.975 91.9266 107.453C92.2027 107.931 92.8143 108.095 93.2926 107.819L92.2926 106.087ZM111.002 96.4402L111.502 97.3062L113.001 96.4402L111.502 95.5742L111.002 96.4402ZM97.8686 87.7026C97.3903 87.4265 96.7787 87.5903 96.5025 88.0686C96.2264 88.5469 96.3902 89.1585 96.8685 89.4346L97.8686 87.7026ZM106.427 99.6577C106.905 99.9343 107.517 99.7711 107.794 99.2931C108.07 98.8151 107.907 98.2033 107.429 97.9267L106.427 99.6577ZM103.185 95.4704C102.707 95.1937 102.095 95.357 101.819 95.8349C101.542 96.313 101.705 96.9247 102.183 97.2014L103.185 95.4704ZM102.355 102.006C102.834 102.282 103.445 102.118 103.721 101.639C103.997 101.161 103.833 100.549 103.355 100.273L102.355 102.006ZM99.106 97.8217C98.6276 97.5457 98.016 97.7097 97.74 98.1881C97.464 98.6665 97.628 99.278 98.1064 99.554L99.106 97.8217ZM98.2818 104.358C98.7602 104.634 99.3717 104.47 99.6478 103.991C99.9238 103.513 99.7597 102.901 99.2814 102.625L98.2818 104.358ZM95.0326 100.174C94.5543 99.8977 93.9427 100.062 93.6667 100.54C93.3907 101.018 93.5547 101.63 94.0331 101.906L95.0326 100.174ZM75.1053 70.8671H76.1053V70.2895L75.6049 70.0009L75.1053 70.8671ZM74.1053 84.6613C74.1053 85.2136 74.553 85.6613 75.1053 85.6613C75.6575 85.6613 76.1053 85.2136 76.1053 84.6613H74.1053ZM67.6984 75.1443L67.1983 74.2783L66.6984 74.567V75.1443H67.6984ZM67.6984 106.863L67.1983 107.729L68.6984 108.595V106.863H67.6984ZM60.2915 102.586H59.2915V103.163L59.7915 103.452L60.2915 102.586ZM60.2915 70.8671L59.7919 70.0009L59.2915 70.2895V70.8671H60.2915ZM67.6984 66.5947L68.1981 65.7284L67.6984 65.4402L67.1987 65.7284L67.6984 66.5947ZM62.525 55.7831H63.525V55.2055L63.0247 54.9169L62.525 55.7831ZM61.525 69.5821C61.525 70.1343 61.9727 70.5821 62.525 70.5821C63.0773 70.5821 63.525 70.1343 63.525 69.5821H61.525ZM55.1181 60.0603L54.6181 59.1943L54.1181 59.483V60.0603H55.1181ZM55.1181 99.6742L54.6185 100.54L56.1181 101.405V99.6742H55.1181ZM80.2787 114.175L79.779 115.041L80.2787 115.329L80.7783 115.041L80.2787 114.175ZM80.2787 89.9675L79.802 89.0884L79.2787 89.3722V89.9675H80.2787ZM87.6855 85.9511H88.6855V85.3738L88.1856 85.0851L87.6855 85.9511ZM80.2787 81.6739L80.7787 80.8079L80.2787 80.5192L79.7786 80.8079L80.2787 81.6739ZM72.8718 85.9511L72.3717 85.0851L71.8718 85.3738V85.9511H72.8718ZM72.8718 109.902H71.8718V110.48L72.3721 110.769L72.8718 109.902ZM87.6855 109.902L88.1852 110.769L88.6855 110.48V109.902H87.6855ZM47.7113 95.4017H46.7113V95.9794L47.2116 96.268L47.7113 95.4017ZM47.7113 55.7831L47.2116 54.9169L46.7113 55.2055V55.7831H47.7113ZM55.1181 51.5107L55.6178 50.6444L55.1181 50.3562L54.6185 50.6444L55.1181 51.5107ZM61.9158 44.8596C61.4454 44.5702 60.8294 44.7169 60.54 45.1872C60.2506 45.6576 60.3973 46.2735 60.8676 46.563L61.9158 44.8596ZM68.5046 50.0881H69.5046C69.5046 49.7408 69.3244 49.4184 69.0286 49.2364L68.5046 50.0881ZM68.5046 58.6709H67.5046C67.5046 59.0078 67.6742 59.322 67.9558 59.5069L68.5046 58.6709ZM80.3072 66.4192H81.3072C81.3072 66.0823 81.1376 65.7681 80.856 65.5832L80.3072 66.4192ZM80.3072 72.9773H79.3072C79.3072 73.3135 79.4761 73.6272 79.7569 73.8122L80.3072 72.9773ZM88.8189 78.5869L89.2342 79.4966C89.6727 79.2964 89.906 78.8118 89.789 78.3442L88.8189 78.5869ZM88.6841 73.9294C88.55 73.3937 88.007 73.0681 87.4712 73.2021C86.9355 73.3362 86.6098 73.8792 86.7439 74.415L88.6841 73.9294ZM84.7476 79.3464C84.2452 79.5758 84.0238 80.169 84.2532 80.6714C84.4826 81.1738 85.0758 81.3951 85.5782 81.1658L84.7476 79.3464ZM97.3595 62.5214V77.8851H99.3595V62.5214H97.3595ZM101.848 65.6872C102.744 66.2045 103.593 67.0635 104.218 68.0489C104.848 69.0423 105.188 70.0665 105.188 70.8813H107.188C107.188 69.5717 106.668 68.1776 105.907 66.9779C105.142 65.7701 104.071 64.6612 102.847 63.9551L101.848 65.6872ZM105.188 70.8813C105.188 71.6659 104.895 71.933 104.673 72.0266C104.381 72.1503 103.765 72.1686 102.849 71.6378L101.846 73.3683C103.05 74.0657 104.354 74.3329 105.452 73.8686C106.622 73.3742 107.188 72.2164 107.188 70.8813H105.188ZM102.848 71.6372L98.8599 69.3326L97.8592 71.0643L101.847 73.3689L102.848 71.6372ZM94.7766 61.604L97.8588 63.387L98.8603 61.6557L95.778 59.8728L94.7766 61.604ZM98.8593 77.0189L95.777 75.2407L94.7776 76.9731L97.8598 78.7513L98.8593 77.0189ZM97.8592 71.0691L101.847 73.3736L102.848 71.642L98.8599 69.3374L97.8592 71.0691ZM101.848 73.3739C102.744 73.8911 103.593 74.7501 104.218 75.7355C104.848 76.7289 105.188 77.7532 105.188 78.568H107.188C107.188 77.2584 106.668 75.8642 105.907 74.6645C105.142 73.4568 104.071 72.3479 102.847 71.6417L101.848 73.3739ZM105.188 78.568C105.188 79.3525 104.895 79.6197 104.673 79.7132C104.381 79.837 103.765 79.8552 102.849 79.3244L101.846 81.0549C103.05 81.7523 104.354 82.0195 105.452 81.5553C106.622 81.0608 107.188 79.903 107.188 78.568H105.188ZM99.3595 62.5214V59.3869H97.3595V62.5214H99.3595ZM103.3 64.7927V61.6631H101.3V64.7927H103.3ZM103.3 83.2909V80.1612H101.3V83.2909H103.3ZM99.3595 81.0195V77.8851H97.3595V81.0195H99.3595ZM93.2926 107.819L111.502 97.3062L110.502 95.5742L92.2926 106.087L93.2926 107.819ZM111.502 95.5742L97.8686 87.7026L96.8685 89.4346L110.501 97.3062L111.502 95.5742ZM107.429 97.9267L103.185 95.4704L102.183 97.2014L106.427 99.6577L107.429 97.9267ZM103.355 100.273L99.106 97.8217L98.1064 99.554L102.355 102.006L103.355 100.273ZM99.2814 102.625L95.0326 100.174L94.0331 101.906L98.2818 104.358L99.2814 102.625ZM74.1053 70.8671V84.6613H76.1053V70.8671H74.1053ZM74.6052 70.0011L67.1983 74.2783L68.1985 76.0103L75.6053 71.7331L74.6052 70.0011ZM66.6984 75.1443V106.863H68.6984V75.1443H66.6984ZM68.1985 105.997L60.7916 101.72L59.7915 103.452L67.1983 107.729L68.1985 105.997ZM61.2915 102.586V70.8671H59.2915V102.586H61.2915ZM60.7912 71.7333L68.1981 67.4609L67.1987 65.7284L59.7919 70.0009L60.7912 71.7333ZM61.525 55.7831V69.5821H63.525V55.7831H61.525ZM62.0249 54.9171L54.6181 59.1943L55.6182 60.9263L63.0251 56.6491L62.0249 54.9171ZM54.1181 60.0603V99.6742H56.1181V60.0603H54.1181ZM81.2787 114.175V89.9675H79.2787V114.175H81.2787ZM80.7553 90.8466L88.1622 86.8302L87.2088 85.072L79.802 89.0884L80.7553 90.8466ZM88.1856 85.0851L80.7787 80.8079L79.7786 82.5399L87.1854 86.8171L88.1856 85.0851ZM79.7786 80.8079L72.3717 85.0851L73.3719 86.8171L80.7787 82.5399L79.7786 80.8079ZM71.8718 85.9511V109.902H73.8718V85.9511H71.8718ZM72.3721 110.769L79.779 115.041L80.7783 113.309L73.3715 109.036L72.3721 110.769ZM80.7783 115.041L88.1852 110.769L87.1859 109.036L79.779 113.309L80.7783 115.041ZM88.6855 109.902L88.6855 85.9511H86.6855L86.6855 109.902H88.6855ZM67.1987 67.4609L74.6056 71.7333L75.6049 70.0009L68.1981 65.7284L67.1987 67.4609ZM55.6178 98.808L48.2109 94.5355L47.2116 96.268L54.6185 100.54L55.6178 98.808ZM48.7113 95.4017V55.7831H46.7113V95.4017H48.7113ZM48.2109 56.6493L55.6178 52.3769L54.6185 50.6444L47.2116 54.9169L48.2109 56.6493ZM54.6185 52.3769L62.0253 56.6493L63.0247 54.9169L55.6178 50.6444L54.6185 52.3769ZM60.8676 46.563L67.9805 50.9398L69.0286 49.2364L61.9158 44.8596L60.8676 46.563ZM67.5046 50.0881V58.6709H69.5046V50.0881H67.5046ZM67.9558 59.5069L79.7584 67.2552L80.856 65.5832L69.0533 57.835L67.9558 59.5069ZM79.3072 66.4192V72.9773H81.3072V66.4192H79.3072ZM79.7569 73.8122L88.2686 79.4219L89.3692 77.752L80.8574 72.1423L79.7569 73.8122ZM89.789 78.3442L88.6841 73.9294L86.7439 74.415L87.8488 78.8297L89.789 78.3442ZM88.4036 77.6773L84.7476 79.3464L85.5782 81.1658L89.2342 79.4966L88.4036 77.6773Z" fill="#C2CAD2"/>
</svg>
