<svg width="160" height="160" viewBox="0 0 160 160" fill="none" xmlns="http://www.w3.org/2000/svg">
<circle cx="80" cy="80" r="78" fill="white" stroke="#1F3C61" stroke-width="4"/>
<circle cx="80" cy="80" r="69" fill="white" stroke="#1F3C61" stroke-width="2"/>
<path d="M83.6619 79.9816H74.4611M83.6619 79.9816C85.6861 79.9816 87.3423 78.3254 87.3423 76.3013C87.3423 74.2771 85.6861 72.6209 83.6619 72.6209H74.4611V79.9816M83.6619 79.9816C85.6861 79.9816 87.3423 81.6378 87.3423 83.6619C87.3423 85.6861 85.6861 87.3423 83.6619 87.3423H74.4611V79.9816M79.9816 68.9406V72.6209M79.9816 89.1824V91.0226M108.228 73.0994C107.511 70.1551 106.351 67.3948 104.805 64.8738C104.713 64.7266 104.713 64.5426 104.805 64.377L107.989 59.0405C108.099 58.8565 108.063 58.6172 107.915 58.47L101.475 52.0294C101.328 51.8822 101.088 51.8454 100.904 51.9558L95.5678 55.1393C95.4206 55.2313 95.2366 55.2313 95.071 55.1393C92.55 53.612 89.7897 52.4343 86.8454 51.7166C86.6798 51.6798 86.5326 51.551 86.4958 51.367L84.9685 45.3496C84.9133 45.1472 84.7292 45 84.5084 45H75.3996C75.1788 45 74.9948 45.1472 74.9395 45.3496L73.449 51.3854C73.4122 51.551 73.265 51.6798 73.0994 51.735C70.1551 52.4527 67.3949 53.612 64.8738 55.1577C64.7266 55.2497 64.5426 55.2497 64.377 55.1577L59.0405 51.9742C58.8565 51.8638 58.6173 51.9006 58.47 52.0478L52.0295 58.4884C51.8822 58.6356 51.8454 58.8749 51.9558 59.0589L55.1393 64.3954C55.2313 64.5426 55.2313 64.7266 55.1393 64.8922C53.612 67.4133 52.4343 70.1735 51.7166 73.1178C51.6798 73.2834 51.551 73.4306 51.367 73.4674L45.3496 74.9947C45.1472 75.05 45 75.234 45 75.4548V84.5636C45 84.7844 45.1472 84.9685 45.3496 85.0237L51.367 86.551C51.5326 86.5878 51.6614 86.735 51.7166 86.9006C52.4343 89.8449 53.5936 92.6052 55.1393 95.1262C55.2313 95.2734 55.2313 95.4574 55.1393 95.623L51.9558 100.96C51.8454 101.144 51.8822 101.383 52.0295 101.53L58.47 107.971C58.6173 108.118 58.8565 108.155 59.0405 108.044L64.377 104.861C64.5242 104.769 64.7082 104.769 64.8738 104.861C67.3949 106.388 70.1551 107.566 73.0994 108.283C73.265 108.32 73.4122 108.449 73.449 108.633L74.9763 114.65C75.0316 114.853 75.2156 115 75.4364 115H84.5452C84.766 115 84.9501 114.853 85.0053 114.65L86.5326 108.633C86.5694 108.467 86.7166 108.339 86.8822 108.283C89.8265 107.566 92.5868 106.406 95.1078 104.861C95.255 104.769 95.439 104.769 95.6046 104.861L100.941 108.044C101.125 108.155 101.364 108.118 101.512 107.971L107.952 101.53C108.099 101.383 108.136 101.144 108.026 100.96L104.842 95.623C104.75 95.4758 104.75 95.2918 104.842 95.1262C106.37 92.6052 107.547 89.8449 108.265 86.9006C108.302 86.735 108.431 86.5878 108.615 86.551L114.632 85.0237C114.834 84.9685 114.982 84.7844 114.982 84.5636V75.4548C114.982 75.234 114.834 75.05 114.632 74.9947L108.615 73.4674C108.412 73.4122 108.265 73.2834 108.228 73.0994ZM88.4648 97.224C71.6272 104.64 55.4522 88.4648 62.868 71.6272C64.561 67.7997 67.6709 64.6898 71.48 63.0152C88.3176 55.5994 104.493 71.7745 97.0768 88.612C95.4022 92.4211 92.2923 95.531 88.4648 97.224Z" stroke="#48A9F5" stroke-width="2" stroke-miterlimit="10" stroke-linecap="round" stroke-linejoin="round"/>
</svg>
