<svg xmlns="http://www.w3.org/2000/svg" version="1.1" xmlns:xlink="http://www.w3.org/1999/xlink" xmlns:svgjs="http://svgjs.com/svgjs" width="512" height="512" x="0" y="0" viewBox="0 0 32 32" style="enable-background:new 0 0 512 512" xml:space="preserve" class=""><g><path fill="#ffffff" d="M27 2H5C3.346 2 2 3.346 2 5v14c0 1.654 1.346 3 3 3h22c1.654 0 3-1.346 3-3V5c0-1.654-1.346-3-3-3zm1 17c0 .552-.449 1-1 1H5c-.551 0-1-.448-1-1V5c0-.551.449-1 1-1h22c.551 0 1 .449 1 1zm1 7H9.816C9.402 24.839 8.302 24 7 24s-2.402.839-2.816 2H3a1 1 0 1 0 0 2h1.184c.414 1.161 1.514 2 2.816 2s2.402-.839 2.816-2H29a1 1 0 1 0 0-2zM7 28a1.001 1.001 0 0 1 0-2 1.001 1.001 0 0 1 0 2z" data-original="#06474d" class="" opacity="1"></path><path fill="#ffffff" d="M14 17.055a1.994 1.994 0 0 1-1.999-1.999v-6.11a2 2 0 0 1 3.051-1.701l4.939 3.055c.594.368.948 1.003.948 1.701s-.354 1.333-.947 1.701l-4.939 3.056a1.997 1.997 0 0 1-1.052.298zm-.005-8.113L14 15.055 18.939 12z" data-original="#3cacb6" class="" opacity="1"></path></g></svg>